<svg width="487" height="294" viewBox="0 0 487 294" fill="none" xmlns="http://www.w3.org/2000/svg">
<path d="M67.6715 261.636C157.906 304.788 304.193 304.788 394.416 261.636C484.639 218.484 484.65 148.516 394.416 105.364C304.182 62.212 157.895 62.212 67.6715 105.364C-22.5518 148.516 -22.5626 218.484 67.6715 261.636Z" fill="#7393B3" fill-opacity="0.4"/>
<path d="M98.31 60.03L151.11 43.61L110.49 71.75L98.31 60.03Z" fill="#7393B3"/>
<path d="M151.11 43.61L94.24 52.99L82.06 41.26L151.11 43.61Z" fill="#7393B3"/>
<path d="M94.24 52.99V67.06L98.31 60.03L151.11 43.61L94.24 52.99Z" fill="#455A64"/>
<path d="M94.24 67.06L102.37 63.94L98.31 60.03L94.24 67.06Z" fill="#7393B3"/>
<path d="M98.31 60.03L102.37 63.94L101.07 64.43L98.31 60.03Z" fill="#455A64"/>
<path d="M85.49 64.94C85.3218 64.9432 85.1575 64.8897 85.0234 64.7882C84.8893 64.6868 84.7932 64.5432 84.7505 64.3805C84.7078 64.2179 84.7211 64.0456 84.7881 63.8913C84.8551 63.7371 84.972 63.6098 85.12 63.53C86.02 63.03 86.93 62.53 87.83 62.14C87.9192 62.0917 88.0173 62.0621 88.1184 62.0528C88.2194 62.0436 88.3213 62.0549 88.4178 62.0861C88.5144 62.1174 88.6036 62.1679 88.68 62.2346C88.7565 62.3014 88.8186 62.3829 88.8626 62.4743C88.9066 62.5657 88.9316 62.6651 88.9361 62.7665C88.9406 62.8679 88.9245 62.9691 88.8887 63.0641C88.8529 63.159 88.7983 63.2457 88.728 63.3189C88.6578 63.3922 88.5734 63.4504 88.48 63.49C87.61 63.91 86.72 64.36 85.85 64.85C85.7387 64.9078 85.6154 64.9387 85.49 64.94Z" fill="#E0E0E0"/>
<path d="M76.26 145.7C76.1067 145.702 75.9567 145.656 75.83 145.57C74.2036 144.424 72.6629 143.16 71.22 141.79C71.1285 141.731 71.0511 141.652 70.9931 141.56C70.9352 141.467 70.898 141.364 70.8843 141.255C70.8705 141.147 70.8806 141.037 70.9136 140.934C70.9466 140.83 71.002 140.734 71.0757 140.654C71.1494 140.574 71.2397 140.51 71.3403 140.468C71.441 140.427 71.5496 140.407 71.6585 140.412C71.7674 140.416 71.8741 140.444 71.9711 140.494C72.068 140.544 72.153 140.614 72.22 140.7C73.6117 142.021 75.0991 143.238 76.67 144.34C76.7994 144.433 76.8961 144.564 76.9459 144.715C76.9958 144.866 76.9962 145.029 76.9472 145.181C76.8982 145.332 76.8023 145.464 76.6734 145.558C76.5444 145.651 76.3891 145.701 76.23 145.7H76.26ZM68.42 138.42C68.3093 138.421 68.1997 138.398 68.0993 138.351C67.9989 138.304 67.9103 138.236 67.84 138.15C66.5799 136.612 65.4335 134.984 64.41 133.28C64.3065 133.109 64.2753 132.904 64.3231 132.71C64.3709 132.516 64.4939 132.348 64.665 132.245C64.836 132.142 65.0412 132.11 65.2353 132.158C65.4294 132.206 65.5965 132.329 65.7 132.5C66.6859 134.144 67.7888 135.714 69 137.2C69.1249 137.353 69.1845 137.549 69.1657 137.746C69.147 137.942 69.0515 138.123 68.9 138.25C68.766 138.363 68.5953 138.424 68.42 138.42ZM62.79 129.32C62.6447 129.321 62.5022 129.281 62.3797 129.202C62.2572 129.124 62.16 129.012 62.1 128.88C61.2828 127.07 60.5814 125.209 60 123.31C59.9573 123.125 59.9862 122.931 60.0809 122.767C60.1755 122.603 60.3289 122.48 60.5102 122.424C60.6914 122.369 60.8871 122.384 61.0577 122.466C61.2284 122.549 61.3614 122.693 61.43 122.87C61.9828 124.707 62.6508 126.507 63.43 128.26C63.4719 128.35 63.4955 128.447 63.4996 128.546C63.5037 128.645 63.488 128.744 63.4536 128.837C63.4192 128.93 63.3667 129.015 63.2991 129.088C63.2316 129.161 63.1503 129.219 63.06 129.26C62.9749 129.298 62.8831 129.318 62.79 129.32ZM59.54 119.11C59.3665 119.108 59.199 119.047 59.0659 118.936C58.9328 118.824 58.8423 118.67 58.81 118.5C58.4282 116.557 58.1578 114.594 58 112.62C57.9841 112.421 58.0478 112.224 58.1772 112.072C58.3066 111.92 58.4911 111.826 58.69 111.81C58.8889 111.794 59.086 111.858 59.2379 111.987C59.3898 112.117 59.4841 112.301 59.5 112.5C59.6471 114.417 59.9075 116.324 60.28 118.21C60.3003 118.307 60.3011 118.406 60.2823 118.503C60.2634 118.6 60.2254 118.692 60.1704 118.774C60.1155 118.856 60.0446 118.927 59.9621 118.981C59.8796 119.035 59.7871 119.072 59.69 119.09L59.54 119.11ZM58.59 108.43C58.4911 108.43 58.3932 108.41 58.3021 108.372C58.211 108.333 58.1285 108.277 58.0595 108.206C57.9905 108.135 57.9364 108.051 57.9005 107.959C57.8645 107.867 57.8473 107.769 57.85 107.67C57.8734 105.691 58.0069 103.714 58.25 101.75C58.2511 101.645 58.2745 101.541 58.3185 101.445C58.3626 101.349 58.4264 101.264 58.5057 101.194C58.585 101.125 58.6781 101.073 58.7789 101.041C58.8796 101.01 58.9858 101.001 59.0905 101.014C59.1952 101.026 59.296 101.061 59.3863 101.115C59.4767 101.17 59.5546 101.242 59.615 101.329C59.6753 101.415 59.7168 101.514 59.7366 101.617C59.7564 101.721 59.7541 101.827 59.73 101.93C59.4988 103.842 59.3719 105.765 59.35 107.69C59.3487 107.789 59.328 107.886 59.2891 107.976C59.2502 108.067 59.1938 108.149 59.1233 108.217C59.0527 108.286 58.9693 108.34 58.8778 108.377C58.7863 108.413 58.6885 108.431 58.59 108.43ZM59.81 97.78C59.7537 97.7897 59.6962 97.7897 59.64 97.78C59.4467 97.7369 59.2784 97.6192 59.1716 97.4525C59.0648 97.2857 59.0283 97.0836 59.07 96.89C59.5081 94.9529 60.0693 93.0457 60.75 91.18C60.7831 91.0826 60.8359 90.9931 60.9051 90.9171C60.9743 90.841 61.0584 90.7799 61.1522 90.7377C61.246 90.6955 61.3474 90.6731 61.4503 90.6717C61.5531 90.6704 61.6551 90.6902 61.75 90.73C61.8465 90.7644 61.935 90.8179 62.0103 90.8873C62.0856 90.9567 62.1461 91.0407 62.1881 91.1341C62.2301 91.2275 62.2529 91.3284 62.2549 91.4308C62.2569 91.5332 62.2383 91.635 62.2 91.73C61.5438 93.5339 61.0027 95.3776 60.58 97.25C60.5306 97.4125 60.4275 97.5534 60.2876 97.6496C60.1478 97.7459 59.9794 97.7919 59.81 97.78ZM63.37 87.68C63.2547 87.6846 63.1404 87.6569 63.04 87.6C62.9505 87.5583 62.8703 87.4991 62.804 87.4259C62.7378 87.3527 62.6868 87.267 62.6542 87.1738C62.6216 87.0806 62.608 86.9818 62.6141 86.8833C62.6202 86.7847 62.646 86.6884 62.69 86.6C63.5628 84.8179 64.5447 83.0913 65.63 81.43C65.7393 81.2751 65.9031 81.1673 66.0887 81.1284C66.2742 81.0894 66.4676 81.1221 66.63 81.22C66.7885 81.3262 66.8999 81.4895 66.9408 81.6758C66.9818 81.8622 66.9493 82.0571 66.85 82.22C65.7951 83.8247 64.8432 85.4947 64 87.22C63.9482 87.3477 63.8618 87.4585 63.7505 87.5398C63.6392 87.621 63.5074 87.6696 63.37 87.68ZM69.12 78.68C68.9527 78.6817 68.7901 78.6252 68.66 78.52C68.582 78.4586 68.517 78.3824 68.4687 78.2957C68.4204 78.209 68.3898 78.1137 68.3786 78.0151C68.3675 77.9165 68.376 77.8166 68.4037 77.7214C68.4314 77.6261 68.4777 77.5373 68.54 77.46C69.7896 75.9162 71.1251 74.4439 72.54 73.05C72.6806 72.9096 72.8712 72.8307 73.07 72.8307C73.2687 72.8307 73.4593 72.9096 73.6 73.05C73.7404 73.1906 73.8193 73.3813 73.8193 73.58C73.8193 73.7788 73.7404 73.9694 73.6 74.11C72.2372 75.4696 70.9486 76.9017 69.74 78.4C69.6625 78.4856 69.5661 78.5519 69.4584 78.5936C69.3508 78.6352 69.2349 78.6511 69.12 78.64V78.68ZM76.64 71C76.5309 70.9998 76.4233 70.9755 76.3248 70.9288C76.2262 70.8821 76.1392 70.8142 76.07 70.73C75.9433 70.5767 75.8818 70.3798 75.8986 70.1816C75.9154 69.9835 76.0093 69.7998 76.16 69.67C77.6823 68.4041 79.2677 67.2159 80.91 66.11C81.0712 66.0111 81.2638 65.9768 81.4492 66.0139C81.6346 66.051 81.7992 66.1567 81.91 66.31C82.0216 66.4761 82.0632 66.6795 82.0257 66.8761C81.9883 67.0727 81.8748 67.2466 81.71 67.36C80.1077 68.4359 78.5623 69.5941 77.08 70.83C76.9544 70.9307 76.8007 70.9901 76.64 71Z" fill="#E0E0E0"/>
<path d="M83.14 149.61C83.0326 149.611 82.9266 149.587 82.83 149.54C81.9 149.12 80.98 148.67 80.1 148.19C80.0139 148.145 79.9376 148.083 79.8755 148.008C79.8133 147.933 79.7665 147.847 79.7377 147.754C79.7089 147.661 79.6987 147.564 79.7077 147.467C79.7167 147.37 79.7446 147.276 79.79 147.19C79.8833 147.018 80.0401 146.89 80.2269 146.832C80.4137 146.774 80.6158 146.791 80.79 146.88C81.65 147.34 82.54 147.78 83.44 148.19C83.5943 148.262 83.7196 148.384 83.7954 148.536C83.8711 148.689 83.8927 148.863 83.8566 149.029C83.8205 149.195 83.729 149.344 83.5969 149.452C83.4649 149.559 83.3002 149.619 83.13 149.62L83.14 149.61Z" fill="#E0E0E0"/>
<path d="M425.19 113.32L467.49 86.24L486.12 92.22L425.19 113.32Z" fill="#7393B3"/>
<path d="M425.19 113.32L461.75 82.84L453.62 73.46L425.19 113.32Z" fill="#7393B3"/>
<path d="M461.75 82.84V89.91L425.19 113.32L461.75 82.84Z" fill="#455A64"/>
<path d="M470 79.89C469.819 79.8907 469.644 79.8228 469.51 79.7C469.362 79.5675 469.272 79.3824 469.259 79.1843C469.246 78.9862 469.311 78.7908 469.44 78.64C470.742 77.1874 471.898 75.6098 472.89 73.93C472.991 73.7576 473.156 73.6323 473.349 73.5817C473.542 73.5311 473.748 73.5592 473.92 73.66C474.092 73.7608 474.218 73.9259 474.268 74.1191C474.319 74.3123 474.291 74.5176 474.19 74.69C473.143 76.4509 471.931 78.1083 470.57 79.64C470.498 79.7201 470.41 79.7838 470.312 79.8269C470.214 79.8701 470.107 79.8916 470 79.89ZM475.72 70.57C475.631 70.5842 475.539 70.5842 475.45 70.57C475.355 70.5338 475.269 70.4788 475.196 70.4083C475.123 70.3378 475.065 70.2533 475.026 70.1598C474.987 70.0664 474.967 69.9659 474.968 69.8645C474.968 69.7632 474.99 69.663 475.03 69.57C475.737 67.7486 476.266 65.8632 476.61 63.94C476.646 63.7438 476.758 63.5698 476.922 63.4563C477.086 63.3428 477.289 63.2992 477.485 63.335C477.681 63.3708 477.855 63.4831 477.969 63.6472C478.082 63.8113 478.126 64.0138 478.09 64.21C477.722 66.2252 477.162 68.2007 476.42 70.11C476.363 70.2484 476.266 70.3665 476.141 70.4486C476.016 70.5307 475.869 70.573 475.72 70.57ZM477.86 59.84C477.762 59.8387 477.665 59.818 477.575 59.7789C477.485 59.7399 477.404 59.6834 477.336 59.6127C477.268 59.542 477.215 59.4585 477.18 59.367C477.144 59.2756 477.127 59.178 477.13 59.08C477.13 58.82 477.13 58.56 477.13 58.3C477.126 56.6023 476.992 54.9074 476.73 53.23C476.701 53.0327 476.751 52.8319 476.869 52.671C476.987 52.5102 477.163 52.402 477.36 52.37C477.557 52.3438 477.756 52.3947 477.917 52.5121C478.077 52.6295 478.186 52.8043 478.22 53C478.49 54.7538 478.627 56.5255 478.63 58.3C478.63 58.57 478.63 58.84 478.63 59.11C478.622 59.3081 478.537 59.4952 478.393 59.6316C478.25 59.768 478.058 59.8428 477.86 59.84ZM476.35 49C476.189 48.9995 476.033 48.9465 475.904 48.849C475.776 48.7516 475.683 48.615 475.64 48.46C475.066 46.5837 474.347 44.7548 473.49 42.99C473.446 42.9016 473.42 42.8053 473.414 42.7067C473.408 42.6082 473.422 42.5094 473.454 42.4162C473.487 42.3231 473.538 42.2373 473.604 42.1641C473.67 42.0909 473.75 42.0317 473.84 41.99C474.019 41.9041 474.225 41.8926 474.412 41.9582C474.6 42.0239 474.754 42.1611 474.84 42.34C475.734 44.1739 476.48 46.0767 477.07 48.03C477.099 48.1239 477.109 48.2226 477.1 48.3205C477.09 48.4183 477.062 48.5133 477.015 48.5999C476.969 48.6865 476.905 48.7629 476.829 48.8247C476.752 48.8866 476.664 48.9326 476.57 48.96C476.5 48.9877 476.425 49.0013 476.35 49ZM471.71 39.07C471.584 39.0712 471.459 39.0395 471.349 38.9782C471.238 38.9168 471.146 38.8279 471.08 38.72C470.008 37.0743 468.829 35.5009 467.55 34.01C467.485 33.9353 467.436 33.8485 467.405 33.7547C467.374 33.6609 467.362 33.5619 467.37 33.4634C467.377 33.3649 467.404 33.2689 467.449 33.1807C467.493 33.0926 467.555 33.0142 467.63 32.95C467.704 32.8857 467.79 32.8368 467.883 32.806C467.976 32.7752 468.074 32.7632 468.172 32.7706C468.269 32.7781 468.365 32.8048 468.452 32.8494C468.539 32.8939 468.617 32.9553 468.68 33.03C470.007 34.5733 471.23 36.2036 472.34 37.91C472.432 38.0747 472.461 38.2675 472.42 38.4519C472.38 38.6362 472.273 38.7993 472.12 38.91C472 38.998 471.858 39.0501 471.71 39.06V39.07ZM464.71 30.66C464.519 30.6594 464.336 30.584 464.2 30.45C462.76 29.1023 461.248 27.8338 459.67 26.65C459.591 26.5909 459.525 26.5169 459.475 26.4321C459.424 26.3474 459.391 26.2536 459.378 26.1561C459.364 26.0586 459.369 25.9593 459.393 25.8639C459.418 25.7685 459.461 25.6788 459.52 25.6C459.579 25.5212 459.653 25.4548 459.738 25.4047C459.823 25.3545 459.916 25.3215 460.014 25.3076C460.111 25.2936 460.211 25.299 460.306 25.3235C460.402 25.3479 460.491 25.3909 460.57 25.45C462.195 26.6649 463.751 27.9703 465.23 29.36C465.341 29.4631 465.419 29.5974 465.452 29.7454C465.485 29.8933 465.473 30.0478 465.417 30.1886C465.36 30.3294 465.263 30.4498 465.136 30.534C465.01 30.6181 464.862 30.6621 464.71 30.66ZM455.94 24C455.798 23.9987 455.659 23.9571 455.54 23.88C454.86 23.46 454.15 23.04 453.43 22.63C452.43 22.07 451.43 21.51 450.37 20.98C450.273 20.9412 450.186 20.8827 450.113 20.8081C450.04 20.7335 449.983 20.6446 449.947 20.547C449.91 20.4494 449.894 20.3452 449.9 20.2411C449.906 20.137 449.934 20.0353 449.981 19.9425C450.029 19.8496 450.095 19.7677 450.176 19.702C450.257 19.6362 450.351 19.588 450.451 19.5605C450.552 19.533 450.657 19.5267 450.76 19.5421C450.863 19.5575 450.962 19.5943 451.05 19.65C452.1 20.19 453.15 20.75 454.17 21.33C454.91 21.74 455.63 22.17 456.33 22.61C456.492 22.7132 456.608 22.8743 456.654 23.0603C456.7 23.2462 456.674 23.443 456.58 23.61C456.515 23.7242 456.423 23.8199 456.311 23.8881C456.199 23.9564 456.071 23.9949 455.94 24ZM366.29 23.49C366.158 23.4886 366.029 23.4528 365.915 23.3862C365.801 23.3195 365.706 23.2244 365.64 23.11C365.545 22.9412 365.52 22.7419 365.571 22.5549C365.621 22.3679 365.743 22.2082 365.91 22.11C367.65 21.11 369.44 20.11 371.25 19.27C371.428 19.1833 371.633 19.1705 371.82 19.2341C372.007 19.2978 372.162 19.4329 372.25 19.61C372.333 19.7895 372.343 19.9943 372.278 20.1811C372.213 20.3678 372.077 20.5217 371.9 20.61C370.12 21.48 368.36 22.41 366.65 23.4C366.538 23.4545 366.414 23.4786 366.29 23.47V23.49ZM446.19 18.92C446.086 18.9207 445.983 18.8967 445.89 18.85C444.09 18.06 442.23 17.32 440.37 16.66C440.182 16.5924 440.028 16.4527 439.943 16.2718C439.857 16.0908 439.847 15.8833 439.915 15.695C439.983 15.5067 440.122 15.353 440.303 15.2677C440.484 15.1823 440.692 15.1724 440.88 15.24C442.77 15.92 444.66 16.67 446.5 17.48C446.66 17.5482 446.792 17.6702 446.872 17.825C446.953 17.9797 446.976 18.1576 446.94 18.328C446.903 18.4985 446.808 18.6508 446.671 18.7588C446.534 18.8668 446.364 18.9238 446.19 18.92ZM376.14 18.61C375.992 18.611 375.847 18.5677 375.724 18.4857C375.602 18.4038 375.506 18.2868 375.45 18.15C375.409 18.0583 375.387 17.9593 375.385 17.8589C375.383 17.7584 375.401 17.6586 375.438 17.5653C375.476 17.4721 375.531 17.3872 375.602 17.3159C375.673 17.2446 375.757 17.1881 375.85 17.15C377.7 16.37 379.6 15.65 381.5 15C381.595 14.9605 381.698 14.9411 381.801 14.943C381.905 14.945 382.007 14.9683 382.1 15.0115C382.194 15.0547 382.278 15.1169 382.347 15.194C382.416 15.2712 382.468 15.3618 382.5 15.46C382.536 15.5564 382.553 15.6591 382.549 15.7621C382.545 15.8651 382.52 15.9662 382.476 16.0594C382.433 16.1527 382.371 16.2362 382.294 16.305C382.217 16.3738 382.127 16.4265 382.03 16.46C380.16 17.1 378.28 17.81 376.47 18.57C376.363 18.5999 376.25 18.6067 376.14 18.59V18.61ZM435.87 15.15C435.8 15.1597 435.73 15.1597 435.66 15.15C433.77 14.6 431.83 14.15 429.9 13.68C429.803 13.659 429.712 13.6192 429.631 13.5628C429.55 13.5065 429.481 13.4347 429.427 13.3516C429.374 13.2685 429.337 13.1757 429.32 13.0785C429.302 12.9813 429.304 12.8815 429.325 12.785C429.346 12.6885 429.386 12.5971 429.442 12.5159C429.498 12.4348 429.57 12.3656 429.653 12.3122C429.736 12.2588 429.829 12.2223 429.927 12.2047C430.024 12.1872 430.123 12.189 430.22 12.21C432.22 12.64 434.16 13.15 436.08 13.71C436.253 13.7606 436.403 13.8719 436.5 14.0237C436.598 14.1754 436.638 14.3574 436.612 14.5361C436.587 14.7148 436.498 14.8783 436.361 14.9966C436.225 15.1149 436.051 15.18 435.87 15.18V15.15ZM386.52 15C386.356 14.9994 386.198 14.9453 386.068 14.846C385.938 14.7467 385.844 14.6077 385.8 14.45C385.773 14.3561 385.764 14.2577 385.775 14.1605C385.786 14.0633 385.816 13.9692 385.863 13.8836C385.91 13.7981 385.974 13.7228 386.051 13.6621C386.128 13.6014 386.216 13.5565 386.31 13.53C388.24 12.99 390.22 12.53 392.19 12.09C392.29 12.0582 392.395 12.0476 392.499 12.0589C392.604 12.0703 392.704 12.1034 392.795 12.156C392.885 12.2087 392.964 12.2797 393.025 12.3646C393.087 12.4494 393.13 12.5462 393.152 12.6487C393.173 12.7512 393.173 12.8572 393.152 12.9597C393.13 13.0622 393.087 13.159 393.026 13.244C392.964 13.3289 392.886 13.4 392.795 13.4527C392.705 13.5054 392.604 13.5386 392.5 13.55C390.56 13.96 388.62 14.44 386.72 14.97L386.52 15ZM425.15 12.74H425C423.05 12.43 421.06 12.18 419.1 12C418.997 11.9989 418.895 11.9764 418.801 11.9341C418.706 11.8917 418.622 11.8303 418.553 11.7538C418.483 11.6773 418.43 11.5872 418.397 11.4893C418.364 11.3914 418.352 11.2878 418.361 11.1849C418.37 11.082 418.4 10.982 418.45 10.8913C418.499 10.8006 418.567 10.7211 418.648 10.6577C418.73 10.5944 418.824 10.5485 418.924 10.5231C419.024 10.4977 419.128 10.4932 419.23 10.51C421.23 10.69 423.23 10.94 425.23 11.26C425.425 11.2944 425.599 11.4034 425.715 11.5641C425.83 11.7247 425.879 11.9242 425.85 12.12C425.815 12.2818 425.727 12.4275 425.6 12.5342C425.474 12.6409 425.315 12.7028 425.15 12.71V12.74ZM397.26 12.67C397.082 12.6699 396.91 12.6065 396.774 12.4911C396.639 12.3757 396.548 12.2158 396.52 12.04C396.491 11.8427 396.541 11.6419 396.659 11.481C396.777 11.3201 396.953 11.212 397.15 11.18C399.15 10.88 401.15 10.63 403.15 10.46C403.248 10.4515 403.348 10.4624 403.442 10.4922C403.536 10.522 403.624 10.5701 403.699 10.6337C403.775 10.6973 403.837 10.7752 403.883 10.863C403.929 10.9507 403.956 11.0465 403.965 11.145C403.974 11.2435 403.963 11.3427 403.933 11.437C403.903 11.5312 403.855 11.6187 403.791 11.6944C403.728 11.7701 403.65 11.8325 403.562 11.8781C403.474 11.9236 403.378 11.9515 403.28 11.96C401.28 12.13 399.33 12.36 397.38 12.67H397.26ZM414.21 11.67C412.21 11.6 410.21 11.59 408.26 11.67C408.162 11.6754 408.063 11.6609 407.971 11.6272C407.878 11.5936 407.793 11.5416 407.721 11.4743C407.649 11.4071 407.592 11.3259 407.552 11.2358C407.512 11.1457 407.491 11.0485 407.49 10.95C407.486 10.8512 407.502 10.7525 407.537 10.6599C407.571 10.5673 407.624 10.4826 407.692 10.4108C407.76 10.339 407.842 10.2816 407.933 10.242C408.023 10.2023 408.121 10.1813 408.22 10.18C410.22 10.11 412.22 10.12 414.22 10.18C414.318 10.1826 414.415 10.2046 414.505 10.2447C414.596 10.2848 414.677 10.3422 414.745 10.4138C414.812 10.4853 414.865 10.5694 414.901 10.6614C414.936 10.7535 414.953 10.8515 414.95 10.95C414.935 11.1376 414.851 11.313 414.715 11.4423C414.578 11.5716 414.398 11.6456 414.21 11.65V11.67Z" fill="#E0E0E0"/>
<path d="M410.44 127.94V126.34H410.05C409.456 125.256 408.555 124.372 407.46 123.8C405.226 122.666 402.755 122.075 400.25 122.075C397.744 122.075 395.274 122.666 393.04 123.8C391.945 124.372 391.044 125.256 390.45 126.34H390.06V127.89C390.06 129.42 391.06 130.96 393.06 132.13C395.296 133.259 397.765 133.847 400.27 133.847C402.774 133.847 405.244 133.259 407.48 132.13C409.46 131 410.45 129.46 410.44 127.94Z" fill="#37474F"/>
<path d="M400.25 132.23C405.878 132.23 410.44 129.593 410.44 126.34C410.44 123.087 405.878 120.45 400.25 120.45C394.622 120.45 390.06 123.087 390.06 126.34C390.06 129.593 394.622 132.23 400.25 132.23Z" fill="#455A64"/>
<path d="M397.63 77.3V125.65C397.651 125.879 397.733 126.099 397.866 126.287C398 126.475 398.18 126.624 398.39 126.72C398.965 127.011 399.601 127.162 400.245 127.162C400.889 127.162 401.525 127.011 402.1 126.72C402.312 126.627 402.495 126.478 402.631 126.29C402.766 126.102 402.849 125.881 402.87 125.65V77.3H397.63Z" fill="#37474F"/>
<path d="M412 41.11C409.45 39.64 407.13 39.52 405.39 40.49L373 59.21L389.25 91.8L421.75 73V58.74C421.75 52.11 417.38 44.22 412 41.11Z" fill="#455A64"/>
<path d="M389.25 77.53V91.8L369.76 80.54V66.28C369.76 59.65 374.12 56.8 379.5 59.91C382.95 61.91 385.98 65.85 387.71 70.17C388.678 72.5058 389.2 75.0021 389.25 77.53Z" fill="#37474F"/>
<path d="M389.25 77.53V91.8L369.76 80.54L387.71 70.17C388.678 72.5058 389.2 75.0021 389.25 77.53Z" fill="#263238"/>
<path d="M386 82.42C384.21 77.24 378.39 70.52 373 67.42C367.61 64.32 364.71 65.99 366.5 71.17L369.75 80.55L389.25 91.81C389.25 91.81 387.8 87.6 386 82.42Z" fill="#455A64"/>
<path d="M399.41 78.07L398.32 77.44C398.086 77.3325 397.828 77.2888 397.571 77.3134C397.315 77.338 397.069 77.43 396.86 77.58C396.258 77.9742 395.756 78.5045 395.397 79.1281C395.037 79.7517 394.829 80.4512 394.79 81.17C394.763 81.4275 394.805 81.6876 394.912 81.9232C395.02 82.1588 395.188 82.3615 395.4 82.51L396.4 83.09L396.59 82.78C396.798 82.7352 396.997 82.6575 397.18 82.55C397.782 82.158 398.283 81.6296 398.643 81.0076C399.003 80.3855 399.211 79.6875 399.25 78.97C399.249 78.7911 399.226 78.613 399.18 78.44L399.41 78.07Z" fill="#263238"/>
<path d="M397.9 78.19C397.298 78.582 396.797 79.1105 396.437 79.7325C396.077 80.3545 395.869 81.0526 395.83 81.77C395.83 83.09 396.76 83.62 397.9 82.96C398.503 82.5686 399.004 82.0403 399.364 81.4182C399.724 80.796 399.931 80.0977 399.97 79.38C400 78.06 399 77.53 397.9 78.19Z" fill="#37474F"/>
<path d="M397.9 81.14C397.821 81.14 397.743 81.1245 397.67 81.0943C397.598 81.0642 397.531 81.02 397.476 80.9643C397.42 80.9085 397.376 80.8424 397.346 80.7696C397.315 80.6968 397.3 80.6188 397.3 80.54V59.91C397.3 59.7509 397.363 59.5983 397.476 59.4857C397.588 59.3732 397.741 59.31 397.9 59.31C398.059 59.31 398.212 59.3732 398.324 59.4857C398.437 59.5983 398.5 59.7509 398.5 59.91V80.54C398.5 80.6991 398.437 80.8517 398.324 80.9643C398.212 81.0768 398.059 81.14 397.9 81.14Z" fill="#263238"/>
<path d="M398.44 60.45V65.83L404.21 59.91L398.44 60.45Z" fill="#37474F"/>
<path d="M95.08 238.91C94.58 239.18 85.4 241.78 82 237.29C78.6 232.8 84.25 225.8 81.06 223.22C77.87 220.64 68.93 223.22 66.78 217.8C64.63 212.38 71 210.04 67.42 204.57C65.16 201.12 58.84 199.22 59.13 196.01C59.55 191.32 68.19 190.01 75.73 195.08C83.27 200.15 86.79 195.99 89.18 195.65C91.57 195.31 96.73 196.06 96.57 204.46C96.41 212.86 95.08 238.91 95.08 238.91Z" fill="#7393B3"/>
<path d="M95.69 227C95.5707 227 95.4553 226.957 95.3639 226.881C95.2726 226.804 95.211 226.697 95.19 226.58C92.56 210.58 74.03 197.65 64.39 194.87C64.3262 194.853 64.2665 194.823 64.2146 194.782C64.1627 194.741 64.1196 194.69 64.0878 194.633C64.056 194.575 64.0363 194.511 64.0298 194.445C64.0233 194.379 64.0302 194.313 64.05 194.25C64.0871 194.123 64.1733 194.015 64.2896 193.952C64.4058 193.888 64.5427 193.873 64.67 193.91C74.52 196.76 93.48 210.05 96.18 226.42C96.2002 226.55 96.1686 226.682 96.0918 226.789C96.0151 226.896 95.8995 226.968 95.77 226.99L95.69 227Z" fill="white"/>
<path d="M73.83 213.61C73.72 213.611 73.6127 213.576 73.5248 213.51C73.4369 213.444 73.3731 213.351 73.3435 213.245C73.3139 213.139 73.3201 213.026 73.361 212.924C73.4019 212.822 73.4754 212.736 73.57 212.68C73.87 212.5 81.01 208.33 88.03 210.28C88.1626 210.314 88.2761 210.4 88.3454 210.518C88.4148 210.637 88.4344 210.777 88.4 210.91C88.3655 211.043 88.2797 211.156 88.1616 211.225C88.0434 211.295 87.9026 211.314 87.77 211.28C81.15 209.44 74.15 213.53 74.08 213.57C74.0022 213.607 73.9154 213.621 73.83 213.61Z" fill="white"/>
<path d="M356.5 154.42C360.44 154.96 367.15 152.68 367.63 146.12C368.11 139.56 370.82 137.78 375.79 136.71C380.76 135.64 382.22 133.91 382.79 130.79C383.36 127.67 379.58 123.94 380.64 119.24C381.7 114.54 385.24 114.55 388.72 109.24C390.95 105.82 386.38 100.6 378.77 102.84C371.16 105.08 371.77 109.99 364.16 110.62C356.55 111.25 351.78 115.87 351.63 121.62C351.48 127.37 356.5 154.42 356.5 154.42Z" fill="#7393B3"/>
<path opacity="0.2" d="M356.5 154.42C360.44 154.96 367.15 152.68 367.63 146.12C368.11 139.56 370.82 137.78 375.79 136.71C380.76 135.64 382.22 133.91 382.79 130.79C383.36 127.67 379.58 123.94 380.64 119.24C381.7 114.54 385.24 114.55 388.72 109.24C390.95 105.82 386.38 100.6 378.77 102.84C371.16 105.08 371.77 109.99 364.16 110.62C356.55 111.25 351.78 115.87 351.63 121.62C351.48 127.37 356.5 154.42 356.5 154.42Z" fill="black"/>
<path d="M355.06 141.84H355C354.936 141.827 354.874 141.801 354.82 141.764C354.766 141.728 354.719 141.681 354.683 141.626C354.647 141.571 354.621 141.51 354.609 141.445C354.596 141.381 354.597 141.314 354.61 141.25C358.29 123.06 378.36 106.41 383.25 104.71C383.383 104.666 383.527 104.677 383.652 104.74C383.777 104.803 383.871 104.912 383.915 105.045C383.959 105.178 383.948 105.322 383.885 105.447C383.822 105.572 383.713 105.666 383.58 105.71C378.8 107.37 359.19 123.71 355.58 141.5C355.543 141.606 355.472 141.697 355.378 141.758C355.284 141.82 355.172 141.849 355.06 141.84Z" fill="white"/>
<path d="M90.88 135.39C90.9288 134.488 91.1897 133.611 91.6415 132.829C92.0933 132.047 92.7232 131.383 93.48 130.89L226.39 54.15C227.195 53.7454 228.084 53.5347 228.985 53.5347C229.886 53.5347 230.775 53.7454 231.58 54.15L234.51 55.85C235.268 56.3409 235.9 57.0048 236.352 57.787C236.804 58.5693 237.064 59.4477 237.11 60.35V162.23C237.059 163.131 236.797 164.008 236.345 164.789C235.894 165.571 235.265 166.236 234.51 166.73L101.6 243.46C100.794 243.869 99.9036 244.083 99 244.083C98.0964 244.083 97.2056 243.869 96.4 243.46L93.48 241.77C92.7243 241.276 92.0952 240.612 91.6436 239.83C91.192 239.048 90.9304 238.171 90.88 237.27V135.39Z" fill="#7393B3"/>
<path opacity="0.3" d="M90.88 135.39C90.9288 134.488 91.1897 133.611 91.6415 132.829C92.0933 132.047 92.7232 131.383 93.48 130.89L226.39 54.15C227.195 53.7454 228.084 53.5347 228.985 53.5347C229.886 53.5347 230.775 53.7454 231.58 54.15L234.51 55.85C235.268 56.3409 235.9 57.0048 236.352 57.787C236.804 58.5693 237.064 59.4477 237.11 60.35V162.23C237.059 163.131 236.797 164.008 236.345 164.789C235.894 165.571 235.265 166.236 234.51 166.73L101.6 243.46C100.794 243.869 99.9036 244.083 99 244.083C98.0964 244.083 97.2056 243.869 96.4 243.46L93.48 241.77C92.7243 241.276 92.0952 240.612 91.6436 239.83C91.192 239.048 90.9304 238.171 90.88 237.27V135.39Z" fill="black"/>
<path d="M103.06 139.43L91.64 132.83C91.1731 133.605 90.9115 134.486 90.88 135.39V237.27C90.9304 238.171 91.192 239.048 91.6436 239.83C92.0952 240.612 92.7243 241.276 93.48 241.77L96.4 243.46C97.2056 243.869 98.0964 244.083 99 244.083C99.9036 244.083 100.794 243.869 101.6 243.46L103.06 242.62V139.43Z" fill="#7393B3"/>
<path opacity="0.5" d="M103.06 139.43L91.64 132.83C91.1731 133.605 90.9115 134.486 90.88 135.39V237.27C90.9304 238.171 91.192 239.048 91.6436 239.83C92.0952 240.612 92.7243 241.276 93.48 241.77L96.4 243.46C97.2056 243.869 98.0964 244.083 99 244.083C99.9036 244.083 100.794 243.869 101.6 243.46L103.06 242.62V139.43Z" fill="black"/>
<path d="M237.11 60.35V162.23C237.076 163.163 236.797 164.07 236.3 164.86C235.916 165.525 235.398 166.104 234.78 166.56L234.68 166.62L234.51 166.73L101.6 243.46C101.346 243.64 101.05 243.752 100.741 243.787C100.431 243.822 100.118 243.778 99.83 243.66C99.5531 243.486 99.3294 243.239 99.183 242.946C99.0367 242.653 98.9734 242.326 99 242V140.08C98.9774 139.715 99.0435 139.35 99.1928 139.017C99.3421 138.683 99.5701 138.391 99.8572 138.165C100.144 137.939 100.482 137.786 100.841 137.718C101.2 137.651 101.571 137.673 101.92 137.78L157.81 151.07L165.13 152.81C165.994 152.972 166.886 152.894 167.709 152.586C168.532 152.277 169.255 151.75 169.8 151.06L178.28 139.25L235.36 59.78C236.32 58.44 237.11 58.69 237.11 60.35Z" fill="#7393B3"/>
<path opacity="0.2" d="M237.11 60.35V162.23C237.076 163.163 236.797 164.07 236.3 164.86C235.916 165.525 235.398 166.104 234.78 166.56L234.68 166.62L234.51 166.73L101.6 243.46C101.346 243.64 101.05 243.752 100.741 243.787C100.431 243.822 100.118 243.778 99.83 243.66C99.5531 243.486 99.3294 243.239 99.183 242.946C99.0367 242.653 98.9734 242.326 99 242V140.08C98.9774 139.715 99.0435 139.35 99.1928 139.017C99.3421 138.683 99.5701 138.391 99.8572 138.165C100.144 137.939 100.482 137.786 100.841 137.718C101.2 137.651 101.571 137.673 101.92 137.78L157.81 151.07L165.13 152.81C165.994 152.972 166.886 152.894 167.709 152.586C168.532 152.277 169.255 151.75 169.8 151.06L178.28 139.25L235.36 59.78C236.32 58.44 237.11 58.69 237.11 60.35Z" fill="black"/>
<path d="M234.51 166.73L234.68 166.62L234.78 166.56C235.398 166.104 235.916 165.525 236.3 164.86C236.791 164.082 237.071 163.189 237.11 162.27L178.28 139.27L217.68 176.47L234.51 166.73Z" fill="#7393B3"/>
<path opacity="0.6" d="M234.51 166.73L234.68 166.62L234.78 166.56C235.398 166.104 235.916 165.525 236.3 164.86C236.791 164.082 237.071 163.189 237.11 162.27L178.28 139.27L217.68 176.47L234.51 166.73Z" fill="black"/>
<path d="M99 242C98.9618 242.332 99.0174 242.669 99.1606 242.971C99.3037 243.273 99.5287 243.529 99.81 243.71C100.098 243.828 100.411 243.872 100.721 243.837C101.03 243.802 101.326 243.69 101.58 243.51L147.36 217L157.81 151L99 240.27V242Z" fill="#7393B3"/>
<path opacity="0.6" d="M99 242C98.9618 242.332 99.0174 242.669 99.1606 242.971C99.3037 243.273 99.5287 243.529 99.81 243.71C100.098 243.828 100.411 243.872 100.721 243.837C101.03 243.802 101.326 243.69 101.58 243.51L147.36 217L157.81 151L99 240.27V242Z" fill="black"/>
<path d="M236.3 164.86C235.916 165.525 235.398 166.104 234.78 166.56L234.68 166.62L101.6 243.46C101.346 243.64 101.05 243.752 100.741 243.787C100.431 243.822 100.118 243.778 99.83 243.66L163.48 142.05C164.759 140.015 166.729 138.508 169.028 137.807C171.327 137.105 173.802 137.256 176 138.23L236.3 164.86Z" fill="#7393B3"/>
<path opacity="0.2" d="M236.3 164.86C235.916 165.525 235.398 166.104 234.78 166.56L234.68 166.62L101.6 243.46C101.346 243.64 101.05 243.752 100.741 243.787C100.431 243.822 100.118 243.778 99.83 243.66L163.48 142.05C164.759 140.015 166.729 138.508 169.028 137.807C171.327 137.105 173.802 137.256 176 138.23L236.3 164.86Z" fill="black"/>
<path d="M99 137.08L160.13 164.08C162.331 165.052 164.808 165.197 167.108 164.49C169.408 163.783 171.375 162.27 172.65 160.23L236.84 57.5L99 137.08Z" fill="#7393B3"/>
<path opacity="0.6" d="M99 137.08L160.13 164.08C162.331 165.052 164.808 165.197 167.108 164.49C169.408 163.783 171.375 162.27 172.65 160.23L236.84 57.5L99 137.08Z" fill="black"/>
<path d="M99 137.08L160.56 160.08C162.687 160.874 165.022 160.921 167.179 160.212C169.336 159.503 171.188 158.081 172.43 156.18L236.84 57.5L99 137.08Z" fill="#7393B3"/>
<path opacity="0.2" d="M99 137.08L160.56 160.08C162.687 160.874 165.022 160.921 167.179 160.212C169.336 159.503 171.188 158.081 172.43 156.18L236.84 57.5L99 137.08Z" fill="black"/>
<path d="M113.58 147.94C113.626 147.038 113.886 146.159 114.338 145.377C114.79 144.595 115.422 143.931 116.18 143.44L249.09 66.7C249.896 66.2907 250.786 66.0774 251.69 66.0774C252.594 66.0774 253.484 66.2907 254.29 66.7L257.22 68.39C257.975 68.8838 258.603 69.5486 259.053 70.3304C259.503 71.1123 259.762 71.9892 259.81 72.89V174.77C259.761 175.67 259.501 176.547 259.051 177.328C258.601 178.11 257.974 178.775 257.22 179.27L124.3 256C123.495 256.405 122.606 256.615 121.705 256.615C120.804 256.615 119.915 256.405 119.11 256L116.18 254.31C115.425 253.816 114.796 253.151 114.345 252.369C113.893 251.588 113.631 250.711 113.58 249.81V147.94Z" fill="#455A64"/>
<path d="M113.58 147.94C113.626 147.038 113.886 146.159 114.338 145.377C114.79 144.595 115.422 143.931 116.18 143.44L249.09 66.7C249.896 66.2907 250.786 66.0774 251.69 66.0774C252.594 66.0774 253.484 66.2907 254.29 66.7L257.22 68.39C257.975 68.8838 258.603 69.5486 259.053 70.3304C259.503 71.1123 259.762 71.9892 259.81 72.89V174.77C259.761 175.67 259.501 176.547 259.051 177.328C258.601 178.11 257.974 178.775 257.22 179.27L124.3 256C123.495 256.405 122.606 256.615 121.705 256.615C120.804 256.615 119.915 256.405 119.11 256L116.18 254.31C115.425 253.816 114.796 253.151 114.345 252.369C113.893 251.588 113.631 250.711 113.58 249.81V147.94Z" fill="#455A64"/>
<path d="M125.77 152L114.34 145.41C113.872 146.184 113.61 147.066 113.58 147.97V249.82C113.631 250.721 113.893 251.598 114.345 252.379C114.796 253.161 115.425 253.826 116.18 254.32L119.11 256.01C119.915 256.415 120.804 256.625 121.705 256.625C122.606 256.625 123.495 256.415 124.3 256.01L125.77 255.16V152Z" fill="#263238"/>
<path d="M259.82 72.89V174.77C259.786 175.703 259.507 176.61 259.01 177.4C258.626 178.065 258.108 178.644 257.49 179.1L257.39 179.16L257.22 179.27L124.31 256C124.056 256.18 123.76 256.292 123.451 256.327C123.141 256.362 122.828 256.318 122.54 256.2C122.259 256.019 122.034 255.763 121.891 255.461C121.747 255.159 121.692 254.822 121.73 254.49V152.62C121.707 152.255 121.774 151.89 121.923 151.557C122.072 151.223 122.3 150.931 122.587 150.705C122.874 150.479 123.212 150.325 123.571 150.258C123.931 150.191 124.301 150.213 124.65 150.32L180.54 163.61L187.86 165.35C188.724 165.512 189.616 165.434 190.439 165.126C191.262 164.817 191.985 164.29 192.53 163.6L201 151.79L258.08 72.32C259 71 259.82 71.23 259.82 72.89Z" fill="#37474F"/>
<path d="M257.22 179.27L257.39 179.16L257.49 179.1C258.108 178.644 258.626 178.065 259.01 177.4C259.495 176.624 259.771 175.735 259.81 174.82L200.99 151.82L240.38 189L257.22 179.27Z" fill="#263238"/>
<path d="M121.71 254.5C121.672 254.832 121.727 255.169 121.871 255.471C122.014 255.773 122.239 256.029 122.52 256.21C122.808 256.328 123.121 256.372 123.431 256.337C123.74 256.302 124.036 256.19 124.29 256.01L170.05 229.59L180.5 163.59L121.69 252.79L121.71 254.5Z" fill="#263238"/>
<path d="M259 177.4C258.616 178.065 258.098 178.644 257.48 179.1L257.38 179.16L124.31 256C124.056 256.18 123.76 256.292 123.451 256.327C123.141 256.362 122.828 256.318 122.54 256.2L186.18 154.6C187.456 152.561 189.424 151.051 191.724 150.346C194.023 149.64 196.5 149.787 198.7 150.76L259 177.4Z" fill="#37474F"/>
<path d="M121.71 149.63L182.84 176.63C185.04 177.599 187.515 177.743 189.812 177.036C192.11 176.329 194.076 174.818 195.35 172.78L259.54 70L121.71 149.63Z" fill="#263238"/>
<path d="M121.71 149.63L183.26 172.63C185.389 173.427 187.725 173.475 189.885 172.766C192.044 172.057 193.898 170.633 195.14 168.73L259.54 70L121.71 149.63Z" fill="#37474F"/>
<path d="M211.07 228.81V126.93C211.163 124.997 211.767 123.123 212.82 121.5L276.21 33.23C277.367 31.6173 278.977 30.3853 280.836 29.6908C282.695 28.9963 284.719 28.8707 286.65 29.33L346.26 43.5C348.181 44.0113 350.034 44.7498 351.78 45.7L354.71 47.39C355.463 47.8855 356.09 48.5507 356.54 49.3322C356.99 50.1137 357.25 50.9897 357.3 51.89V153.77C357.248 154.67 356.987 155.545 356.538 156.327C356.088 157.108 355.462 157.773 354.71 158.27L221.79 235C220.985 235.407 220.097 235.619 219.195 235.619C218.293 235.619 217.404 235.407 216.6 235L213.67 233.31C212.914 232.816 212.285 232.152 211.834 231.37C211.382 230.588 211.12 229.711 211.07 228.81Z" fill="#7393B3"/>
<path opacity="0.3" d="M211.07 228.81V126.93C211.163 124.997 211.767 123.123 212.82 121.5L276.21 33.23C277.367 31.6173 278.977 30.3853 280.836 29.6908C282.695 28.9963 284.719 28.8707 286.65 29.33L346.26 43.5C348.181 44.0113 350.034 44.7498 351.78 45.7L354.71 47.39C355.463 47.8855 356.09 48.5507 356.54 49.3322C356.99 50.1137 357.25 50.9897 357.3 51.89V153.77C357.248 154.67 356.987 155.545 356.538 156.327C356.088 157.108 355.462 157.773 354.71 158.27L221.79 235C220.985 235.407 220.097 235.619 219.195 235.619C218.293 235.619 217.404 235.407 216.6 235L213.67 233.31C212.914 232.816 212.285 232.152 211.834 231.37C211.382 230.588 211.12 229.711 211.07 228.81Z" fill="white"/>
<path d="M223.25 77.69V207.69C223.25 209.34 224.42 210.02 225.85 209.19L350.64 137.19C351.397 136.698 352.028 136.034 352.479 135.252C352.931 134.47 353.192 133.592 353.24 132.69V2.69002C353.24 1.03002 352.08 0.360016 350.64 1.19002L225.85 73.19C225.093 73.6827 224.463 74.347 224.012 75.1289C223.56 75.9108 223.299 76.7883 223.25 77.69Z" fill="#FAFAFA"/>
<path d="M224.69 210.06C224.368 210.062 224.05 209.98 223.77 209.82C223.428 209.592 223.154 209.275 222.978 208.903C222.802 208.532 222.73 208.119 222.77 207.71V77.71C222.817 76.7192 223.101 75.754 223.597 74.8947C224.092 74.0355 224.786 73.3071 225.62 72.77L350.41 0.770005C350.736 0.504683 351.134 0.344758 351.553 0.311471C351.972 0.278185 352.391 0.373113 352.755 0.58365C353.118 0.794187 353.409 1.11036 353.589 1.49017C353.768 1.86997 353.828 2.29543 353.76 2.71001V132.71C353.713 133.7 353.43 134.664 352.934 135.522C352.439 136.379 351.744 137.106 350.91 137.64L226.12 209.64C225.689 209.904 225.195 210.049 224.69 210.06ZM351.8 1.28001C351.477 1.29848 351.164 1.39824 350.89 1.57001L226.1 73.62C225.421 74.0709 224.855 74.673 224.447 75.3791C224.039 76.0853 223.801 76.8762 223.75 77.69V207.69C223.69 207.924 223.708 208.172 223.802 208.395C223.896 208.618 224.06 208.805 224.27 208.926C224.479 209.047 224.723 209.096 224.963 209.066C225.203 209.037 225.427 208.929 225.6 208.76L350.39 136.76C351.07 136.31 351.636 135.708 352.044 135.001C352.452 134.295 352.69 133.504 352.74 132.69V2.69001C352.768 2.45549 352.736 2.21764 352.647 1.99893C352.558 1.78022 352.414 1.58787 352.23 1.44001C352.104 1.34872 351.955 1.29342 351.8 1.28001Z" fill="#E0E0E0"/>
<path d="M220.56 129.41L211.56 124.21C211.269 125.089 211.107 126.005 211.08 126.93V228.81C211.13 229.711 211.392 230.588 211.844 231.37C212.295 232.152 212.924 232.816 213.68 233.31L216.6 235C217.404 235.409 218.293 235.623 219.195 235.623C220.097 235.623 220.986 235.409 221.79 235L223.04 234.29L220.56 129.41Z" fill="#7393B3"/>
<g opacity="0.1">
<path d="M220.56 129.41L211.56 124.21C211.269 125.089 211.107 126.005 211.08 126.93V228.81C211.13 229.711 211.392 230.588 211.844 231.37C212.295 232.152 212.924 232.816 213.68 233.31L216.6 235C217.404 235.409 218.293 235.623 219.195 235.623C220.097 235.623 220.986 235.409 221.79 235L223.04 234.29L220.56 129.41Z" fill="black"/>
</g>
<path d="M357.31 51.89V153.77C357.276 154.703 356.997 155.61 356.5 156.4C356.116 157.065 355.598 157.644 354.98 158.1L354.88 158.16L354.71 158.27L221.8 235C221.546 235.18 221.25 235.292 220.941 235.327C220.631 235.362 220.318 235.318 220.03 235.2C219.749 235.019 219.524 234.763 219.381 234.461C219.237 234.159 219.182 233.822 219.22 233.49V131.62C219.197 131.255 219.264 130.89 219.413 130.557C219.562 130.223 219.79 129.931 220.077 129.705C220.364 129.479 220.702 129.325 221.061 129.258C221.421 129.191 221.791 129.213 222.14 129.32L278 142.61L285.32 144.35C286.185 144.514 287.079 144.437 287.904 144.129C288.73 143.82 289.454 143.292 290 142.6L298.48 130.79L355.56 51.32C356.52 50 357.31 50.23 357.31 51.89Z" fill="#7393B3"/>
<path opacity="0.3" d="M357.31 51.89V153.77C357.276 154.703 356.997 155.61 356.5 156.4C356.116 157.065 355.598 157.644 354.98 158.1L354.88 158.16L354.71 158.27L221.8 235C221.546 235.18 221.25 235.292 220.941 235.327C220.631 235.362 220.318 235.318 220.03 235.2C219.749 235.019 219.524 234.763 219.381 234.461C219.237 234.159 219.182 233.822 219.22 233.49V131.62C219.197 131.255 219.264 130.89 219.413 130.557C219.562 130.223 219.79 129.931 220.077 129.705C220.364 129.479 220.702 129.325 221.061 129.258C221.421 129.191 221.791 129.213 222.14 129.32L278 142.61L285.32 144.35C286.185 144.514 287.079 144.437 287.904 144.129C288.73 143.82 289.454 143.292 290 142.6L298.48 130.79L355.56 51.32C356.52 50 357.31 50.23 357.31 51.89Z" fill="white"/>
<path d="M354.71 158.27L354.88 158.16L354.98 158.1C355.598 157.644 356.116 157.065 356.5 156.4C356.986 155.62 357.261 154.728 357.3 153.81L298.48 130.81L337.87 168L354.71 158.27Z" fill="#7393B3"/>
<path d="M219.2 233.5C219.162 233.832 219.217 234.169 219.361 234.471C219.504 234.773 219.729 235.029 220.01 235.21C220.298 235.328 220.611 235.372 220.921 235.337C221.23 235.302 221.526 235.19 221.78 235.01L267.54 208.59L277.99 142.59L219.18 231.79L219.2 233.5Z" fill="#7393B3"/>
<path d="M356.5 156.4C356.116 157.065 355.598 157.644 354.98 158.1L354.88 158.16L221.8 235C221.546 235.18 221.25 235.292 220.941 235.327C220.631 235.362 220.318 235.318 220.03 235.2L283.67 133.6C284.946 131.564 286.912 130.055 289.21 129.35C291.507 128.644 293.981 128.79 296.18 129.76L356.5 156.4Z" fill="#7393B3"/>
<path opacity="0.3" d="M356.5 156.4C356.116 157.065 355.598 157.644 354.98 158.1L354.88 158.16L221.8 235C221.546 235.18 221.25 235.292 220.941 235.327C220.631 235.362 220.318 235.318 220.03 235.2L283.67 133.6C284.946 131.564 286.912 130.055 289.21 129.35C291.507 128.644 293.981 128.79 296.18 129.76L356.5 156.4Z" fill="white"/>
<path d="M278.2 107.63C277.033 107.811 275.84 107.705 274.723 107.321C273.607 106.938 272.6 106.289 271.79 105.43C270.27 103.74 269.51 101.13 269.51 97.62C269.512 93.6596 270.361 89.7455 272 86.14C273.682 82.4299 276.004 79.0448 278.86 76.14C281.931 72.9557 285.431 70.2159 289.26 68C293.013 65.84 296.217 64.6434 298.87 64.41C301.54 64.17 303.55 64.86 304.93 66.46C306.31 68.06 306.99 70.51 306.99 73.79C307.048 77.043 306.277 80.2572 304.75 83.13C303.404 85.7317 301.353 87.9013 298.83 89.39C297.959 90.0087 296.892 90.2863 295.83 90.17C295.452 90.0952 295.104 89.913 294.827 89.6451C294.551 89.3773 294.357 89.0352 294.27 88.66C293.437 90.235 292.38 91.6802 291.13 92.95C289.866 94.2543 288.425 95.3752 286.85 96.28C284.13 97.82 281.96 98.28 280.36 97.75C278.76 97.22 278 95.6 278 92.9C278.023 89.507 279.068 86.1997 281 83.41C283.103 80.3173 285.896 77.7564 289.16 75.93C290.523 75.1183 292.004 74.5245 293.55 74.17C294.699 73.8586 295.911 73.8586 297.06 74.17V84.7C297.06 85.55 297.21 86.07 297.5 86.27C297.79 86.47 298.27 86.37 298.95 85.98C300.217 85.156 301.154 83.914 301.6 82.47C302.276 80.5195 302.598 78.4638 302.55 76.4C302.55 73.7733 301.977 71.8633 300.83 70.67C300.217 70.0709 299.47 69.6276 298.65 69.377C297.831 69.1264 296.963 69.076 296.12 69.23C293.679 69.603 291.34 70.4744 289.25 71.79C284.829 74.2425 281.017 77.6607 278.1 81.79C275.404 85.6652 273.972 90.2792 274 95C274 97.8734 274.59 99.97 275.77 101.29C276.382 101.951 277.148 102.45 277.999 102.743C278.85 103.036 279.761 103.114 280.65 102.97C283.139 102.617 285.524 101.742 287.65 100.4C289.117 99.5515 290.506 98.5743 291.8 97.48C293.005 96.4852 294.101 95.3657 295.07 94.14C295.17 94.011 295.288 93.8966 295.42 93.8C295.51 93.75 295.6 93.8 295.68 93.92L296.78 95.92C296.82 95.9993 296.85 96.0833 296.87 96.17C296.835 96.3928 296.726 96.5972 296.56 96.75C295.352 98.2028 294.013 99.5417 292.56 100.75C291.03 102.033 289.395 103.184 287.67 104.19C284.797 106.004 281.567 107.177 278.2 107.63ZM291.2 88.83C292.152 87.7065 292.707 86.3008 292.78 84.83V78.73C291.353 78.8505 289.978 79.3248 288.78 80.11C286.872 81.183 285.248 82.6947 284.04 84.52C282.907 86.1946 282.298 88.1683 282.29 90.19C282.29 91.88 282.71 92.89 283.56 93.19C284.41 93.49 285.72 93.19 287.51 92.12C288.959 91.2816 290.227 90.1633 291.24 88.83H291.2Z" fill="#E0E0E0"/>
</svg>
