<svg width="370" height="207" viewBox="0 0 370 207" fill="none" xmlns="http://www.w3.org/2000/svg">
<g clip-path="url(#clip0_12_52)">
<rect width="370" height="207" fill="#024B79"/>
<path d="M371 208.545L-0.499991 207L371 -0.499997L371 208.545Z" fill="#024B79"/>
<path d="M47.2555 130.993V122.243L58.5503 137.774C55.7552 139.51 52.41 140.133 49.1774 139.52C45.9448 138.906 43.0605 137.101 41.096 134.461C39.1315 131.822 38.2301 128.54 38.5704 125.268C38.9106 121.995 40.4677 118.97 42.9332 116.791C45.3986 114.612 48.5926 113.438 51.8823 113.503C55.172 113.567 58.3175 114.865 60.6957 117.139C63.0738 119.413 64.5111 122.497 64.7228 125.78C64.9346 129.064 63.9052 132.307 61.8388 134.868M56.0055 126.618V122.243" stroke="white" stroke-linecap="round" stroke-linejoin="round"/>
<path d="M40.6856 146.727V154H39.6771L35.9804 148.666H35.9129V154H34.8156V146.727H35.8312L39.5315 152.068H39.599V146.727H40.6856ZM44.5519 154.11C44.0145 154.11 43.5517 153.995 43.1634 153.766C42.7776 153.534 42.4793 153.208 42.2686 152.789C42.0602 152.368 41.9561 151.874 41.9561 151.308C41.9561 150.75 42.0602 150.257 42.2686 149.831C42.4793 149.405 42.7728 149.072 43.1492 148.833C43.528 148.594 43.9707 148.474 44.4774 148.474C44.7851 148.474 45.0834 148.525 45.3722 148.627C45.6611 148.729 45.9203 148.889 46.1499 149.107C46.3796 149.324 46.5607 149.607 46.6933 149.955C46.8258 150.301 46.8921 150.721 46.8921 151.216V151.592H42.5562V150.797H45.8517C45.8517 150.518 45.7948 150.27 45.6812 150.055C45.5676 149.837 45.4078 149.665 45.2018 149.54C44.9982 149.414 44.7591 149.352 44.4845 149.352C44.1862 149.352 43.9258 149.425 43.7032 149.572C43.483 149.716 43.3126 149.906 43.1919 150.14C43.0735 150.372 43.0143 150.624 43.0143 150.896V151.518C43.0143 151.882 43.0782 152.192 43.2061 152.448C43.3363 152.704 43.5174 152.899 43.7494 153.034C43.9814 153.167 44.2525 153.233 44.5626 153.233C44.7638 153.233 44.9473 153.205 45.113 153.148C45.2787 153.089 45.422 153.001 45.5427 152.885C45.6634 152.769 45.7558 152.626 45.8197 152.455L46.8247 152.636C46.7442 152.932 46.5998 153.192 46.3914 153.414C46.1855 153.634 45.9262 153.806 45.6137 153.929C45.3036 154.05 44.9497 154.11 44.5519 154.11ZM48.7813 148.545L49.9852 150.669L51.1997 148.545H52.3609L50.6599 151.273L52.3751 154H51.2139L49.9852 151.962L48.76 154H47.5953L49.2927 151.273L47.6166 148.545H48.7813ZM55.9972 148.545V149.398H53.0178V148.545H55.9972ZM53.8169 147.239H54.8786V152.398C54.8786 152.604 54.9094 152.759 54.971 152.864C55.0325 152.965 55.1118 153.035 55.2089 153.073C55.3083 153.109 55.416 153.126 55.532 153.126C55.6173 153.126 55.6919 153.121 55.7558 153.109C55.8197 153.097 55.8694 153.087 55.9049 153.08L56.0967 153.957C56.0351 153.981 55.9475 154.005 55.8339 154.028C55.7203 154.054 55.5782 154.069 55.4078 154.071C55.1284 154.076 54.868 154.026 54.6265 153.922C54.385 153.818 54.1897 153.657 54.0406 153.439C53.8914 153.221 53.8169 152.948 53.8169 152.619V147.239ZM62.7302 146.727H63.824V151.884C63.824 152.35 63.7316 152.749 63.547 153.08C63.3647 153.412 63.1078 153.665 62.7764 153.84C62.4449 154.013 62.0567 154.099 61.6116 154.099C61.202 154.099 60.8339 154.025 60.5072 153.876C60.1829 153.727 59.926 153.51 59.7366 153.226C59.5496 152.939 59.4561 152.591 59.4561 152.182H60.5463C60.5463 152.383 60.5924 152.557 60.6847 152.704C60.7794 152.851 60.9085 152.965 61.0718 153.048C61.2375 153.129 61.4269 153.169 61.64 153.169C61.872 153.169 62.0685 153.121 62.2295 153.023C62.3928 152.924 62.5171 152.778 62.6024 152.587C62.6876 152.395 62.7302 152.161 62.7302 151.884V146.727ZM69.4232 149.877L68.4608 150.048C68.4206 149.924 68.3567 149.807 68.2691 149.696C68.1839 149.585 68.0679 149.494 67.9211 149.423C67.7743 149.352 67.5908 149.316 67.3706 149.316C67.07 149.316 66.819 149.384 66.6178 149.518C66.4166 149.651 66.316 149.823 66.316 150.033C66.316 150.216 66.3834 150.362 66.5184 150.474C66.6533 150.585 66.8711 150.676 67.1718 150.747L68.0383 150.946C68.5402 151.062 68.9142 151.241 69.1604 151.482C69.4066 151.724 69.5297 152.037 69.5297 152.423C69.5297 152.75 69.435 153.041 69.2456 153.297C69.0586 153.55 68.797 153.749 68.4608 153.893C68.127 154.038 67.74 154.11 67.2996 154.11C66.6888 154.11 66.1905 153.98 65.8046 153.719C65.4187 153.457 65.182 153.084 65.0944 152.601L66.1206 152.445C66.1846 152.712 66.316 152.915 66.5148 153.052C66.7137 153.187 66.9729 153.254 67.2925 153.254C67.6405 153.254 67.9187 153.182 68.127 153.038C68.3354 152.891 68.4395 152.712 68.4395 152.501C68.4395 152.331 68.3756 152.188 68.2478 152.072C68.1223 151.956 67.9294 151.868 67.6689 151.809L66.7456 151.607C66.2367 151.491 65.8602 151.306 65.6164 151.053C65.3749 150.799 65.2542 150.478 65.2542 150.09C65.2542 149.768 65.3441 149.487 65.5241 149.245C65.704 149.004 65.9526 148.815 66.2698 148.68C66.587 148.543 66.9504 148.474 67.36 148.474C67.9495 148.474 68.4135 148.602 68.752 148.858C69.0906 149.111 69.3143 149.451 69.4232 149.877Z" fill="white"/>
<path d="M92.3663 154H90.0119V146.727H92.4409C93.1535 146.727 93.7654 146.873 94.2768 147.164C94.7882 147.453 95.18 147.868 95.4522 148.411C95.7269 148.95 95.8642 149.598 95.8642 150.353C95.8642 151.111 95.7257 151.762 95.4487 152.306C95.1741 152.851 94.7763 153.27 94.2555 153.563C93.7347 153.854 93.1049 154 92.3663 154ZM91.1092 153.041H92.3059C92.8599 153.041 93.3204 152.937 93.6873 152.729C94.0543 152.518 94.3289 152.214 94.5112 151.816C94.6935 151.416 94.7846 150.928 94.7846 150.353C94.7846 149.782 94.6935 149.298 94.5112 148.901C94.3313 148.503 94.0626 148.201 93.7051 147.995C93.3476 147.789 92.9037 147.686 92.3734 147.686H91.1092V153.041ZM97.1435 148.545H98.2053V154.355C98.2053 154.72 98.139 155.027 98.0064 155.278C97.8762 155.529 97.6821 155.72 97.424 155.85C97.1683 155.98 96.8523 156.045 96.4759 156.045C96.438 156.045 96.4025 156.045 96.3693 156.045C96.3338 156.045 96.2971 156.044 96.2592 156.042V155.129C96.2924 155.129 96.322 155.129 96.348 155.129C96.3717 155.129 96.3989 155.129 96.4297 155.129C96.6806 155.129 96.8617 155.062 96.973 154.927C97.0866 154.794 97.1435 154.601 97.1435 154.348V148.545ZM97.669 147.704C97.4844 147.704 97.3258 147.642 97.1932 147.519C97.063 147.394 96.9979 147.245 96.9979 147.072C96.9979 146.897 97.063 146.747 97.1932 146.624C97.3258 146.499 97.4844 146.436 97.669 146.436C97.8537 146.436 98.0111 146.499 98.1413 146.624C98.2739 146.747 98.3402 146.897 98.3402 147.072C98.3402 147.245 98.2739 147.394 98.1413 147.519C98.0111 147.642 97.8537 147.704 97.669 147.704ZM101.221 154.121C100.875 154.121 100.563 154.057 100.284 153.929C100.004 153.799 99.7828 153.611 99.6195 153.364C99.4585 153.118 99.378 152.816 99.378 152.459C99.378 152.151 99.4372 151.898 99.5556 151.699C99.6739 151.5 99.8337 151.343 100.035 151.227C100.236 151.111 100.461 151.023 100.71 150.964C100.958 150.905 101.212 150.86 101.47 150.829C101.796 150.791 102.061 150.76 102.265 150.737C102.469 150.71 102.617 150.669 102.709 150.612C102.801 150.555 102.847 150.463 102.847 150.335V150.31C102.847 150 102.76 149.76 102.585 149.589C102.412 149.419 102.154 149.334 101.811 149.334C101.453 149.334 101.171 149.413 100.965 149.572C100.762 149.728 100.621 149.902 100.543 150.094L99.5449 149.866C99.6633 149.535 99.8361 149.268 100.063 149.064C100.293 148.858 100.557 148.709 100.855 148.616C101.154 148.522 101.467 148.474 101.796 148.474C102.014 148.474 102.245 148.5 102.489 148.553C102.735 148.602 102.965 148.695 103.178 148.83C103.393 148.964 103.57 149.157 103.707 149.408C103.844 149.657 103.913 149.98 103.913 150.378V154H102.876V153.254H102.833C102.765 153.392 102.662 153.527 102.524 153.659C102.387 153.792 102.211 153.902 101.995 153.989C101.78 154.077 101.522 154.121 101.221 154.121ZM101.452 153.268C101.745 153.268 101.996 153.21 102.205 153.094C102.415 152.978 102.575 152.827 102.684 152.64C102.795 152.451 102.851 152.248 102.851 152.033V151.33C102.813 151.367 102.74 151.403 102.631 151.436C102.524 151.467 102.402 151.494 102.265 151.518C102.128 151.539 101.994 151.559 101.864 151.578C101.734 151.595 101.625 151.609 101.537 151.621C101.331 151.647 101.143 151.691 100.972 151.752C100.804 151.814 100.669 151.902 100.568 152.018C100.468 152.132 100.419 152.284 100.419 152.473C100.419 152.736 100.516 152.935 100.71 153.07C100.904 153.202 101.151 153.268 101.452 153.268ZM106.389 150.761V154H105.327V148.545H106.346V149.433H106.414C106.539 149.144 106.736 148.912 107.003 148.737C107.273 148.562 107.613 148.474 108.022 148.474C108.394 148.474 108.72 148.553 108.999 148.709C109.278 148.863 109.495 149.092 109.649 149.398C109.803 149.703 109.88 150.081 109.88 150.531V154H108.818V150.658C108.818 150.263 108.715 149.954 108.509 149.732C108.303 149.507 108.02 149.394 107.66 149.394C107.414 149.394 107.195 149.447 107.003 149.554C106.814 149.661 106.663 149.817 106.552 150.023C106.443 150.226 106.389 150.473 106.389 150.761ZM113.591 156.159C113.157 156.159 112.784 156.102 112.472 155.989C112.162 155.875 111.908 155.725 111.712 155.538C111.516 155.351 111.369 155.146 111.272 154.923L112.184 154.547C112.248 154.651 112.333 154.761 112.44 154.877C112.549 154.996 112.696 155.096 112.88 155.179C113.067 155.262 113.308 155.303 113.601 155.303C114.004 155.303 114.336 155.205 114.599 155.009C114.862 154.814 114.993 154.504 114.993 154.078V153.006H114.926C114.862 153.122 114.77 153.251 114.649 153.393C114.53 153.535 114.367 153.658 114.159 153.762C113.95 153.866 113.679 153.918 113.346 153.918C112.915 153.918 112.526 153.818 112.181 153.616C111.837 153.413 111.565 153.113 111.364 152.718C111.165 152.32 111.066 151.831 111.066 151.251C111.066 150.671 111.164 150.174 111.36 149.76C111.559 149.346 111.832 149.028 112.177 148.808C112.523 148.586 112.915 148.474 113.353 148.474C113.691 148.474 113.965 148.531 114.173 148.645C114.381 148.756 114.543 148.886 114.659 149.036C114.778 149.185 114.869 149.316 114.933 149.43H115.011V148.545H116.051V154.121C116.051 154.589 115.943 154.974 115.725 155.275C115.507 155.576 115.212 155.798 114.841 155.942C114.471 156.087 114.055 156.159 113.591 156.159ZM113.58 153.038C113.885 153.038 114.143 152.967 114.354 152.825C114.567 152.68 114.728 152.474 114.837 152.207C114.948 151.937 115.004 151.614 115.004 151.237C115.004 150.87 114.949 150.547 114.841 150.268C114.732 149.988 114.572 149.771 114.361 149.614C114.15 149.456 113.89 149.376 113.58 149.376C113.26 149.376 112.994 149.459 112.781 149.625C112.568 149.788 112.407 150.011 112.298 150.293C112.191 150.574 112.138 150.889 112.138 151.237C112.138 151.595 112.193 151.908 112.301 152.178C112.41 152.448 112.571 152.659 112.784 152.81C113 152.962 113.265 153.038 113.58 153.038ZM119.773 154.11C119.262 154.11 118.815 153.993 118.434 153.759C118.053 153.524 117.757 153.196 117.547 152.775C117.336 152.353 117.23 151.861 117.23 151.298C117.23 150.732 117.336 150.237 117.547 149.813C117.757 149.389 118.053 149.06 118.434 148.826C118.815 148.592 119.262 148.474 119.773 148.474C120.284 148.474 120.731 148.592 121.112 148.826C121.493 149.06 121.789 149.389 122 149.813C122.21 150.237 122.316 150.732 122.316 151.298C122.316 151.861 122.21 152.353 122 152.775C121.789 153.196 121.493 153.524 121.112 153.759C120.731 153.993 120.284 154.11 119.773 154.11ZM119.777 153.219C120.108 153.219 120.383 153.131 120.6 152.956C120.818 152.781 120.979 152.548 121.083 152.256C121.19 151.965 121.243 151.644 121.243 151.294C121.243 150.946 121.19 150.626 121.083 150.335C120.979 150.042 120.818 149.806 120.6 149.629C120.383 149.451 120.108 149.362 119.777 149.362C119.443 149.362 119.166 149.451 118.946 149.629C118.728 149.806 118.566 150.042 118.459 150.335C118.355 150.626 118.303 150.946 118.303 151.294C118.303 151.644 118.355 151.965 118.459 152.256C118.566 152.548 118.728 152.781 118.946 152.956C119.166 153.131 119.443 153.219 119.777 153.219Z" fill="white"/>
<path d="M106.125 120.833V133.229L103.186 133.522C102.635 133.578 102.079 133.518 101.553 133.346C101.026 133.174 100.542 132.893 100.131 132.522C99.72 132.15 99.3914 131.697 99.1666 131.191C98.9417 130.685 98.8255 130.137 98.8255 129.583C98.8255 129.03 98.9417 128.482 99.1666 127.976C99.3914 127.47 99.72 127.016 100.131 126.645C100.542 126.274 101.026 125.993 101.553 125.821C102.079 125.648 102.635 125.588 103.186 125.644L106.125 125.938M111.958 120.833V120.848M111.958 125.208V133.355C111.958 134.674 111.433 135.942 110.5 136.875M93 119.375C93 118.215 93.4609 117.102 94.2814 116.281C95.1019 115.461 96.2147 115 97.375 115H114.875C116.035 115 117.148 115.461 117.969 116.281C118.789 117.102 119.25 118.215 119.25 119.375V136.875C119.25 138.035 118.789 139.148 117.969 139.969C117.148 140.789 116.035 141.25 114.875 141.25H97.375C96.2147 141.25 95.1019 140.789 94.2814 139.969C93.4609 139.148 93 138.035 93 136.875V119.375Z" stroke="white" stroke-linecap="round" stroke-linejoin="round"/>
<path d="M34.5327 78V60.5455H46.294V63.5881H38.223V67.7472H45.6889V70.7898H38.223V74.9574H46.3281V78H34.5327ZM49.1598 78V64.9091H52.7905V78H49.1598ZM50.9837 63.2216C50.4439 63.2216 49.9808 63.0426 49.5945 62.6847C49.2138 62.321 49.0234 61.8864 49.0234 61.3807C49.0234 60.8807 49.2138 60.4517 49.5945 60.0938C49.9808 59.7301 50.4439 59.5483 50.9837 59.5483C51.5234 59.5483 51.9837 59.7301 52.3643 60.0938C52.7507 60.4517 52.9439 60.8807 52.9439 61.3807C52.9439 61.8864 52.7507 62.321 52.3643 62.6847C51.9837 63.0426 51.5234 63.2216 50.9837 63.2216ZM61.5966 83.1818C60.4205 83.1818 59.4119 83.0199 58.571 82.696C57.7358 82.3778 57.071 81.9432 56.5767 81.392C56.0824 80.8409 55.7614 80.2216 55.6136 79.5341L58.9716 79.0824C59.0739 79.3438 59.2358 79.5881 59.4574 79.8153C59.679 80.0426 59.9716 80.2244 60.3352 80.3608C60.7045 80.5028 61.1534 80.5739 61.6818 80.5739C62.4716 80.5739 63.1222 80.3807 63.6335 79.9943C64.1506 79.6136 64.4091 78.9744 64.4091 78.0767V75.6818H64.2557C64.0966 76.0455 63.858 76.3892 63.5398 76.7131C63.2216 77.0369 62.8125 77.3011 62.3125 77.5057C61.8125 77.7102 61.2159 77.8125 60.5227 77.8125C59.5398 77.8125 58.6449 77.5852 57.8381 77.1307C57.0369 76.6705 56.3977 75.9687 55.9205 75.0256C55.4489 74.0767 55.2131 72.8778 55.2131 71.429C55.2131 69.946 55.4545 68.7074 55.9375 67.7131C56.4205 66.7187 57.0625 65.9744 57.8636 65.4801C58.6705 64.9858 59.554 64.7386 60.5142 64.7386C61.2472 64.7386 61.8608 64.8636 62.3551 65.1136C62.8494 65.358 63.2472 65.6648 63.5483 66.0341C63.8551 66.3977 64.0909 66.7557 64.2557 67.108H64.392V64.9091H67.9972V78.1278C67.9972 79.2415 67.7244 80.1733 67.179 80.9233C66.6335 81.6733 65.8778 82.2358 64.9119 82.6108C63.9517 82.9915 62.8466 83.1818 61.5966 83.1818ZM61.6733 75.0852C62.2585 75.0852 62.7528 74.9403 63.1562 74.6506C63.5653 74.3551 63.8778 73.9347 64.0938 73.3892C64.3153 72.8381 64.4261 72.179 64.4261 71.4119C64.4261 70.6449 64.3182 69.9801 64.1023 69.4176C63.8864 68.8494 63.5739 68.4091 63.1648 68.0966C62.7557 67.7841 62.2585 67.6278 61.6733 67.6278C61.0767 67.6278 60.5739 67.7898 60.1648 68.1136C59.7557 68.4318 59.446 68.875 59.2358 69.4432C59.0256 70.0114 58.9205 70.6676 58.9205 71.4119C58.9205 72.1676 59.0256 72.821 59.2358 73.3722C59.4517 73.9176 59.7614 74.3409 60.1648 74.642C60.5739 74.9375 61.0767 75.0852 61.6733 75.0852ZM74.517 70.4318V78H70.8864V60.5455H74.4148V67.2188H74.5682C74.8636 66.446 75.3409 65.8409 76 65.4034C76.6591 64.9602 77.4858 64.7386 78.4801 64.7386C79.3892 64.7386 80.1818 64.9375 80.858 65.3352C81.5398 65.7273 82.0682 66.2926 82.4432 67.0312C82.8239 67.7642 83.0114 68.642 83.0057 69.6648V78H79.375V70.3125C79.3807 69.5057 79.1761 68.8778 78.7614 68.429C78.3523 67.9801 77.7784 67.7557 77.0398 67.7557C76.5455 67.7557 76.108 67.8608 75.7273 68.071C75.3523 68.2812 75.0568 68.5881 74.8409 68.9915C74.6307 69.3892 74.5227 69.8693 74.517 70.4318ZM92.826 64.9091V67.6364H84.9425V64.9091H92.826ZM86.7322 61.7727H90.3629V73.9773C90.3629 74.3125 90.4141 74.5739 90.5163 74.7614C90.6186 74.9432 90.7607 75.071 90.9425 75.1449C91.13 75.2187 91.3459 75.2557 91.5902 75.2557C91.7607 75.2557 91.9311 75.2415 92.1016 75.2131C92.272 75.179 92.4027 75.1534 92.4936 75.1364L93.0646 77.8381C92.8828 77.8949 92.6271 77.9602 92.2976 78.0341C91.968 78.1136 91.5675 78.1619 91.0959 78.179C90.2209 78.2131 89.4538 78.0966 88.7947 77.8295C88.1413 77.5625 87.6328 77.1477 87.2692 76.5852C86.9055 76.0227 86.7266 75.3125 86.7322 74.4545V61.7727ZM116.854 69.2727C116.854 71.1761 116.493 72.7955 115.771 74.1307C115.055 75.4659 114.078 76.4858 112.839 77.1903C111.607 77.8892 110.22 78.2386 108.68 78.2386C107.129 78.2386 105.737 77.8864 104.504 77.1818C103.271 76.4773 102.297 75.4574 101.581 74.1222C100.865 72.7869 100.507 71.1705 100.507 69.2727C100.507 67.3693 100.865 65.75 101.581 64.4148C102.297 63.0795 103.271 62.0625 104.504 61.3636C105.737 60.6591 107.129 60.3068 108.68 60.3068C110.22 60.3068 111.607 60.6591 112.839 61.3636C114.078 62.0625 115.055 63.0795 115.771 64.4148C116.493 65.75 116.854 67.3693 116.854 69.2727ZM113.112 69.2727C113.112 68.0398 112.928 67 112.558 66.1534C112.195 65.3068 111.68 64.6648 111.016 64.2273C110.351 63.7898 109.572 63.571 108.68 63.571C107.788 63.571 107.01 63.7898 106.345 64.2273C105.68 64.6648 105.163 65.3068 104.794 66.1534C104.43 67 104.249 68.0398 104.249 69.2727C104.249 70.5057 104.43 71.5455 104.794 72.392C105.163 73.2386 105.68 73.8807 106.345 74.3182C107.01 74.7557 107.788 74.9744 108.68 74.9744C109.572 74.9744 110.351 74.7557 111.016 74.3182C111.68 73.8807 112.195 73.2386 112.558 72.392C112.928 71.5455 113.112 70.5057 113.112 69.2727ZM140.543 66.6562H136.81C136.741 66.1733 136.602 65.7443 136.392 65.3693C136.182 64.9886 135.912 64.6648 135.582 64.3977C135.253 64.1307 134.872 63.9261 134.44 63.7841C134.014 63.642 133.551 63.571 133.051 63.571C132.148 63.571 131.361 63.7955 130.69 64.2443C130.02 64.6875 129.5 65.3352 129.131 66.1875C128.761 67.0341 128.577 68.0625 128.577 69.2727C128.577 70.517 128.761 71.5625 129.131 72.4091C129.506 73.2557 130.028 73.8949 130.699 74.3267C131.369 74.7585 132.145 74.9744 133.026 74.9744C133.52 74.9744 133.977 74.9091 134.398 74.7784C134.824 74.6477 135.202 74.4574 135.531 74.2074C135.861 73.9517 136.134 73.642 136.349 73.2784C136.571 72.9148 136.724 72.5 136.81 72.0341L140.543 72.0511C140.446 72.8523 140.205 73.625 139.818 74.3693C139.438 75.108 138.923 75.7699 138.276 76.3551C137.634 76.9347 136.866 77.3949 135.974 77.7358C135.088 78.071 134.085 78.2386 132.966 78.2386C131.409 78.2386 130.017 77.8864 128.79 77.1818C127.568 76.4773 126.602 75.4574 125.892 74.1222C125.188 72.7869 124.835 71.1705 124.835 69.2727C124.835 67.3693 125.193 65.75 125.909 64.4148C126.625 63.0795 127.597 62.0625 128.824 61.3636C130.051 60.6591 131.432 60.3068 132.966 60.3068C133.977 60.3068 134.915 60.4489 135.778 60.733C136.648 61.017 137.418 61.4318 138.088 61.9773C138.759 62.517 139.304 63.179 139.724 63.9631C140.151 64.7472 140.423 65.6449 140.543 66.6562ZM146.751 60.5455V78H143.121V60.5455H146.751ZM155.575 78.2557C154.251 78.2557 153.106 77.9744 152.14 77.4119C151.18 76.8437 150.438 76.054 149.915 75.0426C149.393 74.0256 149.131 72.8466 149.131 71.5057C149.131 70.1534 149.393 68.9716 149.915 67.9602C150.438 66.9432 151.18 66.1534 152.14 65.5909C153.106 65.0227 154.251 64.7386 155.575 64.7386C156.898 64.7386 158.04 65.0227 159.001 65.5909C159.967 66.1534 160.711 66.9432 161.234 67.9602C161.756 68.9716 162.018 70.1534 162.018 71.5057C162.018 72.8466 161.756 74.0256 161.234 75.0426C160.711 76.054 159.967 76.8437 159.001 77.4119C158.04 77.9744 156.898 78.2557 155.575 78.2557ZM155.592 75.4432C156.194 75.4432 156.697 75.2727 157.1 74.9318C157.504 74.5852 157.808 74.1136 158.012 73.517C158.222 72.9205 158.327 72.2415 158.327 71.4801C158.327 70.7188 158.222 70.0398 158.012 69.4432C157.808 68.8466 157.504 68.375 157.1 68.0284C156.697 67.6818 156.194 67.5085 155.592 67.5085C154.984 67.5085 154.472 67.6818 154.058 68.0284C153.648 68.375 153.339 68.8466 153.129 69.4432C152.924 70.0398 152.822 70.7188 152.822 71.4801C152.822 72.2415 152.924 72.9205 153.129 73.517C153.339 74.1136 153.648 74.5852 154.058 74.9318C154.472 75.2727 154.984 75.4432 155.592 75.4432ZM170.293 78.2557C168.952 78.2557 167.799 77.9716 166.833 77.4034C165.873 76.8295 165.134 76.0341 164.617 75.017C164.106 74 163.85 72.8295 163.85 71.5057C163.85 70.1648 164.109 68.9886 164.626 67.9773C165.148 66.9602 165.89 66.1676 166.85 65.5994C167.81 65.0256 168.952 64.7386 170.276 64.7386C171.418 64.7386 172.418 64.946 173.276 65.3608C174.134 65.7756 174.813 66.358 175.313 67.108C175.813 67.858 176.089 68.7386 176.14 69.75H172.714C172.617 69.0966 172.362 68.571 171.947 68.1733C171.538 67.7699 171.001 67.5682 170.336 67.5682C169.773 67.5682 169.282 67.7216 168.862 68.0284C168.447 68.3295 168.123 68.7699 167.89 69.3494C167.657 69.929 167.54 70.6307 167.54 71.4545C167.54 72.2898 167.654 73 167.881 73.5852C168.114 74.1705 168.441 74.6165 168.862 74.9233C169.282 75.2301 169.773 75.3835 170.336 75.3835C170.751 75.3835 171.123 75.2983 171.452 75.1278C171.788 74.9574 172.063 74.7102 172.279 74.3864C172.501 74.0568 172.646 73.6619 172.714 73.2017H176.14C176.083 74.2017 175.81 75.0824 175.322 75.8438C174.839 76.5994 174.171 77.1903 173.319 77.6165C172.467 78.0426 171.458 78.2557 170.293 78.2557ZM181.754 74.233L181.763 69.8778H182.291L186.484 64.9091H190.652L185.018 71.4886H184.158L181.754 74.233ZM178.464 78V60.5455H182.095V78H178.464ZM186.646 78L182.794 72.2983L185.214 69.733L190.899 78H186.646Z" fill="white"/>
<path d="M38.6037 91.6719C38.5639 91.2997 38.3963 91.0099 38.1009 90.8026C37.8082 90.5952 37.4276 90.4915 36.9588 90.4915C36.6293 90.4915 36.3466 90.5412 36.1108 90.6406C35.875 90.7401 35.6946 90.875 35.5696 91.0455C35.4446 91.2159 35.3807 91.4105 35.3778 91.6293C35.3778 91.8111 35.419 91.9687 35.5014 92.1023C35.5866 92.2358 35.7017 92.3494 35.8466 92.4432C35.9915 92.5341 36.152 92.6108 36.3281 92.6733C36.5043 92.7358 36.6818 92.7884 36.8608 92.831L37.679 93.0355C38.0085 93.1122 38.3253 93.2159 38.6293 93.3466C38.9361 93.4773 39.2102 93.642 39.4517 93.8409C39.696 94.0398 39.8892 94.2798 40.0312 94.5611C40.1733 94.8423 40.2443 95.1719 40.2443 95.5497C40.2443 96.0611 40.1136 96.5114 39.8523 96.9006C39.5909 97.2869 39.2131 97.5895 38.7188 97.8082C38.2273 98.0241 37.6321 98.1321 36.9332 98.1321C36.2543 98.1321 35.6648 98.027 35.1648 97.8168C34.6676 97.6065 34.2784 97.2997 33.9972 96.8963C33.7188 96.4929 33.5682 96.0014 33.5455 95.4219H35.1009C35.1236 95.7259 35.2173 95.9787 35.3821 96.1804C35.5469 96.3821 35.7614 96.5327 36.0256 96.6321C36.2926 96.7315 36.5909 96.7812 36.9205 96.7812C37.2642 96.7812 37.5653 96.7301 37.8239 96.6278C38.0852 96.5227 38.2898 96.3778 38.4375 96.1932C38.5852 96.0057 38.6605 95.7869 38.6634 95.5369C38.6605 95.3097 38.5938 95.1222 38.4631 94.9744C38.3324 94.8239 38.1491 94.6989 37.9134 94.5994C37.6804 94.4972 37.4077 94.4062 37.0952 94.3267L36.1023 94.071C35.3835 93.8864 34.8153 93.6065 34.3977 93.2315C33.983 92.8537 33.7756 92.3523 33.7756 91.7273C33.7756 91.2131 33.9148 90.7628 34.1932 90.3764C34.4744 89.9901 34.8565 89.6903 35.3395 89.4773C35.8224 89.2614 36.3693 89.1534 36.9801 89.1534C37.5994 89.1534 38.142 89.2614 38.608 89.4773C39.0767 89.6903 39.4446 89.9872 39.7116 90.3679C39.9787 90.7457 40.1165 91.1804 40.125 91.6719H38.6037ZM41.5856 98V91.4545H43.1282V98H41.5856ZM42.3612 90.5256C42.1168 90.5256 41.9066 90.4446 41.7305 90.2827C41.5543 90.1179 41.4663 89.9205 41.4663 89.6903C41.4663 89.4574 41.5543 89.2599 41.7305 89.098C41.9066 88.9332 42.1168 88.8509 42.3612 88.8509C42.6083 88.8509 42.8185 88.9332 42.9918 89.098C43.168 89.2599 43.256 89.4574 43.256 89.6903C43.256 89.9205 43.168 90.1179 42.9918 90.2827C42.8185 90.4446 42.6083 90.5256 42.3612 90.5256ZM44.7145 98V91.4545H46.1889V92.5668H46.2656C46.402 92.1918 46.6278 91.8991 46.9432 91.6889C47.2585 91.4759 47.6349 91.3693 48.0724 91.3693C48.5156 91.3693 48.8892 91.4773 49.1932 91.6932C49.5 91.9062 49.7159 92.1974 49.8409 92.5668H49.9091C50.054 92.2031 50.2983 91.9134 50.642 91.6974C50.9886 91.4787 51.3991 91.3693 51.8736 91.3693C52.4759 91.3693 52.9673 91.5597 53.348 91.9403C53.7287 92.321 53.919 92.8764 53.919 93.6065V98H52.3722V93.8452C52.3722 93.4389 52.2642 93.142 52.0483 92.9545C51.8324 92.7642 51.5682 92.669 51.2557 92.669C50.8835 92.669 50.5923 92.7855 50.3821 93.0185C50.1747 93.2486 50.071 93.5483 50.071 93.9176V98H48.5582V93.7812C48.5582 93.4432 48.456 93.1733 48.2514 92.9716C48.0497 92.7699 47.7855 92.669 47.4588 92.669C47.2372 92.669 47.0355 92.7259 46.8537 92.8395C46.6719 92.9503 46.527 93.108 46.419 93.3125C46.3111 93.5142 46.2571 93.75 46.2571 94.0199V98H44.7145ZM55.484 100.455V91.4545H57.0011V92.5369H57.0906C57.1701 92.3778 57.2823 92.2088 57.4272 92.0298C57.5721 91.848 57.7681 91.6932 58.0153 91.5653C58.2624 91.4347 58.5778 91.3693 58.9613 91.3693C59.467 91.3693 59.9229 91.4986 60.3292 91.7571C60.7383 92.0128 61.0621 92.392 61.3008 92.8949C61.5423 93.3949 61.663 94.0085 61.663 94.7358C61.663 95.4545 61.5451 96.0653 61.3093 96.5682C61.0735 97.071 60.7525 97.4545 60.3462 97.7188C59.94 97.983 59.4798 98.1151 58.9656 98.1151C58.5906 98.1151 58.2795 98.0526 58.0323 97.9276C57.7852 97.8026 57.5863 97.652 57.4357 97.4759C57.288 97.2969 57.1729 97.1278 57.0906 96.9688H57.0266V100.455H55.484ZM56.9968 94.7273C56.9968 95.1506 57.0565 95.5213 57.1758 95.8395C57.2979 96.1577 57.4727 96.4062 57.6999 96.5852C57.93 96.7614 58.2085 96.8494 58.5352 96.8494C58.8761 96.8494 59.1616 96.7585 59.3917 96.5767C59.6218 96.392 59.7951 96.1406 59.9116 95.8224C60.0309 95.5014 60.0906 95.1364 60.0906 94.7273C60.0906 94.321 60.0323 93.9602 59.9158 93.6449C59.7994 93.3295 59.6261 93.0824 59.396 92.9034C59.1658 92.7244 58.8789 92.6349 58.5352 92.6349C58.2056 92.6349 57.9258 92.7216 57.6957 92.8949C57.4656 93.0682 57.2908 93.3111 57.1715 93.6236C57.055 93.9361 56.9968 94.304 56.9968 94.7273ZM64.5266 89.2727V98H62.984V89.2727H64.5266ZM69.0107 98.1278C68.3544 98.1278 67.7876 97.9915 67.3104 97.7188C66.8359 97.4432 66.4709 97.054 66.2152 96.5511C65.9595 96.0455 65.8317 95.4503 65.8317 94.7656C65.8317 94.0923 65.9595 93.5014 66.2152 92.9929C66.4737 92.4815 66.8345 92.0838 67.2976 91.7997C67.7607 91.5128 68.3047 91.3693 68.9297 91.3693C69.3331 91.3693 69.7138 91.4347 70.0717 91.5653C70.4325 91.6932 70.7507 91.892 71.0263 92.1619C71.3047 92.4318 71.5234 92.7756 71.6825 93.1932C71.8416 93.608 71.9212 94.1023 71.9212 94.6761V95.1491H66.5561V94.1094H70.4425C70.4396 93.8139 70.3757 93.5511 70.2507 93.321C70.1257 93.0881 69.951 92.9048 69.7266 92.7713C69.505 92.6378 69.2464 92.571 68.951 92.571C68.6357 92.571 68.3587 92.6477 68.12 92.8011C67.8814 92.9517 67.6953 93.1506 67.5618 93.3977C67.4311 93.642 67.3643 93.9105 67.3615 94.2031V95.1108C67.3615 95.4915 67.4311 95.8182 67.5703 96.0909C67.7095 96.3608 67.9041 96.5682 68.1541 96.7131C68.4041 96.8551 68.6967 96.9261 69.032 96.9261C69.2564 96.9261 69.4595 96.8949 69.6413 96.8324C69.8232 96.767 69.9808 96.6719 70.1143 96.5469C70.2479 96.4219 70.3487 96.267 70.4169 96.0824L71.8572 96.2443C71.7663 96.625 71.593 96.9574 71.3374 97.2415C71.0845 97.5227 70.7607 97.7415 70.3658 97.8977C69.9709 98.0511 69.5192 98.1278 69.0107 98.1278ZM79.0579 98.1278C78.4045 98.1278 77.8434 97.9844 77.3746 97.6974C76.9087 97.4105 76.5494 97.0142 76.2965 96.5085C76.0465 96 75.9215 95.4148 75.9215 94.7528C75.9215 94.0881 76.0494 93.5014 76.305 92.9929C76.5607 92.4815 76.9215 92.0838 77.3874 91.7997C77.8562 91.5128 78.4102 91.3693 79.0494 91.3693C79.5806 91.3693 80.0508 91.4673 80.4599 91.6634C80.8718 91.8565 81.1999 92.1307 81.4442 92.4858C81.6886 92.8381 81.8278 93.25 81.8619 93.7216H80.3874C80.3278 93.4062 80.1857 93.1435 79.9613 92.9332C79.7397 92.7202 79.4428 92.6136 79.0707 92.6136C78.7553 92.6136 78.4783 92.6989 78.2397 92.8693C78.0011 93.0369 77.815 93.2784 77.6815 93.5938C77.5508 93.9091 77.4854 94.2869 77.4854 94.7273C77.4854 95.1733 77.5508 95.5568 77.6815 95.8778C77.8121 96.196 77.9954 96.4418 78.2312 96.6151C78.4698 96.7855 78.7496 96.8707 79.0707 96.8707C79.2979 96.8707 79.5011 96.8281 79.68 96.7429C79.8619 96.6548 80.0138 96.5284 80.136 96.3636C80.2582 96.1989 80.342 95.9986 80.3874 95.7628H81.8619C81.8249 96.2259 81.6886 96.6364 81.4528 96.9943C81.217 97.3494 80.896 97.6278 80.4897 97.8295C80.0835 98.0284 79.6062 98.1278 79.0579 98.1278ZM85.0121 98.1321C84.5973 98.1321 84.2237 98.0582 83.8913 97.9105C83.5618 97.7599 83.3004 97.5384 83.1072 97.2457C82.9169 96.9531 82.8217 96.5923 82.8217 96.1634C82.8217 95.794 82.8899 95.4886 83.0263 95.2472C83.1626 95.0057 83.3487 94.8125 83.5845 94.6676C83.8203 94.5227 84.0859 94.4134 84.3814 94.3395C84.6797 94.2628 84.9879 94.2074 85.3061 94.1733C85.6896 94.1335 86.0007 94.098 86.2393 94.0668C86.478 94.0327 86.6513 93.9815 86.7592 93.9134C86.87 93.8423 86.9254 93.733 86.9254 93.5852V93.5597C86.9254 93.2386 86.8303 92.9901 86.6399 92.8139C86.4496 92.6378 86.1754 92.5497 85.8175 92.5497C85.4396 92.5497 85.1399 92.6321 84.9183 92.7969C84.6996 92.9616 84.5518 93.1562 84.4751 93.3807L83.0348 93.1761C83.1484 92.7784 83.3359 92.446 83.5973 92.179C83.8587 91.9091 84.1783 91.7074 84.5561 91.5739C84.9339 91.4375 85.3516 91.3693 85.8089 91.3693C86.1243 91.3693 86.4382 91.4062 86.7507 91.4801C87.0632 91.554 87.3487 91.6761 87.6072 91.8466C87.8658 92.0142 88.0732 92.2429 88.2294 92.5327C88.3885 92.8224 88.468 93.1847 88.468 93.6193V98H86.9851V97.1009H86.9339C86.8402 97.2827 86.7081 97.4531 86.5376 97.6122C86.37 97.7685 86.1584 97.8949 85.9027 97.9915C85.6499 98.0852 85.353 98.1321 85.0121 98.1321ZM85.4126 96.9986C85.7223 96.9986 85.9908 96.9375 86.218 96.8153C86.4453 96.6903 86.62 96.5256 86.7422 96.321C86.8672 96.1165 86.9297 95.8935 86.9297 95.652V94.8807C86.8814 94.9205 86.799 94.9574 86.6825 94.9915C86.5689 95.0256 86.4411 95.0554 86.299 95.081C86.157 95.1065 86.0163 95.1293 85.8771 95.1491C85.7379 95.169 85.6172 95.1861 85.5149 95.2003C85.2848 95.2315 85.0788 95.2827 84.897 95.3537C84.7152 95.4247 84.5717 95.5241 84.4666 95.652C84.3615 95.777 84.3089 95.9389 84.3089 96.1378C84.3089 96.4219 84.4126 96.6364 84.62 96.7812C84.8274 96.9261 85.0916 96.9986 85.4126 96.9986ZM93.3345 91.4545V92.6477H89.4652V91.4545H93.3345ZM90.4325 98V90.8366C90.4325 90.3963 90.5234 90.0298 90.7053 89.7372C90.8899 89.4446 91.1371 89.2259 91.4467 89.081C91.7564 88.9361 92.1001 88.8636 92.478 88.8636C92.745 88.8636 92.9822 88.8849 93.1896 88.9276C93.397 88.9702 93.5504 89.0085 93.6499 89.0426L93.343 90.2358C93.2777 90.2159 93.1953 90.196 93.0959 90.1761C92.9964 90.1534 92.8857 90.142 92.7635 90.142C92.4766 90.142 92.2734 90.2116 92.1541 90.3509C92.0376 90.4872 91.9794 90.6832 91.9794 90.9389V98H90.4325ZM97.1942 98.1278C96.538 98.1278 95.9712 97.9915 95.494 97.7188C95.0195 97.4432 94.6545 97.054 94.3988 96.5511C94.1431 96.0455 94.0153 95.4503 94.0153 94.7656C94.0153 94.0923 94.1431 93.5014 94.3988 92.9929C94.6573 92.4815 95.0181 92.0838 95.4812 91.7997C95.9442 91.5128 96.4883 91.3693 97.1133 91.3693C97.5167 91.3693 97.8974 91.4347 98.2553 91.5653C98.6161 91.6932 98.9343 91.892 99.2099 92.1619C99.4883 92.4318 99.707 92.7756 99.8661 93.1932C100.025 93.608 100.105 94.1023 100.105 94.6761V95.1491H94.7397V94.1094H98.6261C98.6232 93.8139 98.5593 93.5511 98.4343 93.321C98.3093 93.0881 98.1346 92.9048 97.9102 92.7713C97.6886 92.6378 97.43 92.571 97.1346 92.571C96.8192 92.571 96.5423 92.6477 96.3036 92.8011C96.065 92.9517 95.8789 93.1506 95.7454 93.3977C95.6147 93.642 95.5479 93.9105 95.5451 94.2031V95.1108C95.5451 95.4915 95.6147 95.8182 95.7539 96.0909C95.8931 96.3608 96.0877 96.5682 96.3377 96.7131C96.5877 96.8551 96.8803 96.9261 97.2156 96.9261C97.44 96.9261 97.6431 96.8949 97.8249 96.8324C98.0067 96.767 98.1644 96.6719 98.2979 96.5469C98.4315 96.4219 98.5323 96.267 98.6005 96.0824L100.041 96.2443C99.9499 96.625 99.7766 96.9574 99.521 97.2415C99.2681 97.5227 98.9442 97.7415 98.5494 97.8977C98.1545 98.0511 97.7028 98.1278 97.1942 98.1278ZM104.386 98V91.4545H105.861V92.5668H105.938C106.074 92.1918 106.3 91.8991 106.615 91.6889C106.93 91.4759 107.307 91.3693 107.744 91.3693C108.188 91.3693 108.561 91.4773 108.865 91.6932C109.172 91.9062 109.388 92.1974 109.513 92.5668H109.581C109.726 92.2031 109.97 91.9134 110.314 91.6974C110.661 91.4787 111.071 91.3693 111.545 91.3693C112.148 91.3693 112.639 91.5597 113.02 91.9403C113.401 92.321 113.591 92.8764 113.591 93.6065V98H112.044V93.8452C112.044 93.4389 111.936 93.142 111.72 92.9545C111.504 92.7642 111.24 92.669 110.928 92.669C110.555 92.669 110.264 92.7855 110.054 93.0185C109.847 93.2486 109.743 93.5483 109.743 93.9176V98H108.23V93.7812C108.23 93.4432 108.128 93.1733 107.923 92.9716C107.722 92.7699 107.457 92.669 107.131 92.669C106.909 92.669 106.707 92.7259 106.526 92.8395C106.344 92.9503 106.199 93.108 106.091 93.3125C105.983 93.5142 105.929 93.75 105.929 94.0199V98H104.386ZM118.054 98.1278C117.397 98.1278 116.831 97.9915 116.353 97.7188C115.879 97.4432 115.514 97.054 115.258 96.5511C115.002 96.0455 114.875 95.4503 114.875 94.7656C114.875 94.0923 115.002 93.5014 115.258 92.9929C115.517 92.4815 115.877 92.0838 116.341 91.7997C116.804 91.5128 117.348 91.3693 117.973 91.3693C118.376 91.3693 118.757 91.4347 119.115 91.5653C119.475 91.6932 119.794 91.892 120.069 92.1619C120.348 92.4318 120.566 92.7756 120.725 93.1932C120.885 93.608 120.964 94.1023 120.964 94.6761V95.1491H115.599V94.1094H119.485C119.483 93.8139 119.419 93.5511 119.294 93.321C119.169 93.0881 118.994 92.9048 118.77 92.7713C118.548 92.6378 118.289 92.571 117.994 92.571C117.679 92.571 117.402 92.6477 117.163 92.8011C116.924 92.9517 116.738 93.1506 116.605 93.3977C116.474 93.642 116.407 93.9105 116.404 94.2031V95.1108C116.404 95.4915 116.474 95.8182 116.613 96.0909C116.752 96.3608 116.947 96.5682 117.197 96.7131C117.447 96.8551 117.74 96.9261 118.075 96.9261C118.299 96.9261 118.502 96.8949 118.684 96.8324C118.866 96.767 119.024 96.6719 119.157 96.5469C119.291 96.4219 119.392 96.267 119.46 96.0824L120.9 96.2443C120.809 96.625 120.636 96.9574 120.38 97.2415C120.127 97.5227 119.804 97.7415 119.409 97.8977C119.014 98.0511 118.562 98.1278 118.054 98.1278ZM123.812 94.1648V98H122.269V91.4545H123.744V92.5668H123.82C123.971 92.2003 124.211 91.9091 124.54 91.6932C124.873 91.4773 125.283 91.3693 125.772 91.3693C126.224 91.3693 126.617 91.4659 126.952 91.6591C127.29 91.8523 127.552 92.1321 127.737 92.4986C127.924 92.8651 128.016 93.3097 128.013 93.8324V98H126.471V94.071C126.471 93.6335 126.357 93.2912 126.13 93.044C125.906 92.7969 125.594 92.6733 125.197 92.6733C124.927 92.6733 124.687 92.733 124.477 92.8523C124.269 92.9687 124.106 93.1378 123.987 93.3594C123.87 93.581 123.812 93.8494 123.812 94.1648ZM133.754 95.2472V91.4545H135.296V98H133.8V96.8366H133.732C133.585 97.2031 133.342 97.5028 133.004 97.7358C132.668 97.9687 132.255 98.0852 131.763 98.0852C131.335 98.0852 130.955 97.9901 130.626 97.7997C130.299 97.6065 130.043 97.3267 129.859 96.9602C129.674 96.5909 129.582 96.1449 129.582 95.6222V91.4545H131.124V95.3835C131.124 95.7983 131.238 96.1278 131.465 96.3722C131.692 96.6165 131.991 96.7386 132.36 96.7386C132.587 96.7386 132.808 96.6832 133.021 96.5724C133.234 96.4616 133.408 96.2969 133.545 96.0781C133.684 95.8565 133.754 95.5795 133.754 95.2472Z" fill="white"/>
<g filter="url(#filter0_d_12_52)">
<path d="M343.5 210C402.318 210 450 162.318 450 103.5C450 44.6817 402.318 -3 343.5 -3C284.682 -3 237 44.6817 237 103.5C237 162.318 284.682 210 343.5 210Z" fill="url(#paint0_radial_12_52)"/>
<g style="mix-blend-mode:multiply">
<path d="M343.5 197.427C395.374 197.427 437.427 155.374 437.427 103.5C437.427 51.6255 395.374 9.57298 343.5 9.57298C291.626 9.57298 249.573 51.6255 249.573 103.5C249.573 155.374 291.626 197.427 343.5 197.427Z" fill="#035E97"/>
</g>
<path d="M343.5 179.825C385.653 179.825 419.825 145.653 419.825 103.5C419.825 61.347 385.653 27.1752 343.5 27.1752C301.347 27.1752 267.175 61.347 267.175 103.5C267.175 145.653 301.347 179.825 343.5 179.825Z" fill="url(#paint1_radial_12_52)"/>
<path d="M404.887 127.139C418.396 93.2616 401.884 54.8472 368.007 41.3383C334.129 27.8293 295.715 44.3414 282.206 78.219C268.697 112.097 285.209 150.511 319.086 164.02C352.964 177.529 391.378 161.017 404.887 127.139Z" fill="#ECB478"/>
<path d="M285.107 115.716C285.107 123.379 293.72 137.305 300.03 141.658C303.056 143.743 308.643 144.273 311.139 146.971C312.575 148.516 313.617 150.409 315.117 151.89C316.617 153.371 319.323 153.893 320.924 155.548C329.153 164.024 341.214 167.087 352.799 168.102C349.984 168.492 347.147 168.706 344.305 168.742C333.417 168.86 322.669 166.285 313.017 161.247C303.364 156.209 295.106 148.864 288.977 139.865C282.847 130.866 279.036 120.492 277.882 109.665C276.728 98.8382 278.268 87.894 282.363 77.8054C278.239 92.8747 285.043 95.8465 285.107 115.716Z" fill="#E7A661"/>
<path d="M311.313 155.301C311.244 155.105 311.119 154.934 310.952 154.809C310.786 154.685 310.587 154.612 310.38 154.601C310.172 154.589 309.966 154.639 309.787 154.745C309.609 154.85 309.465 155.006 309.375 155.193C309.284 155.38 309.251 155.59 309.28 155.795C309.309 156.001 309.397 156.194 309.535 156.349C309.673 156.504 309.854 156.615 310.055 156.668C310.256 156.72 310.468 156.712 310.664 156.645C310.795 156.6 310.916 156.529 311.02 156.437C311.124 156.345 311.208 156.233 311.268 156.108C311.329 155.983 311.364 155.847 311.371 155.709C311.379 155.57 311.359 155.432 311.313 155.301Z" fill="#D38A59"/>
<path d="M304.573 152.758C304.562 152.723 304.544 152.69 304.519 152.662C304.495 152.634 304.465 152.612 304.432 152.595C304.399 152.579 304.363 152.57 304.326 152.568C304.289 152.566 304.252 152.572 304.217 152.585C304.157 152.616 304.11 152.668 304.084 152.731C304.059 152.794 304.057 152.864 304.08 152.928C304.102 152.993 304.146 153.047 304.205 153.081C304.264 153.115 304.333 153.127 304.4 153.114C304.435 153.103 304.468 153.085 304.496 153.06C304.523 153.036 304.546 153.007 304.562 152.973C304.579 152.94 304.588 152.904 304.59 152.867C304.592 152.83 304.586 152.793 304.573 152.758Z" fill="#D38A59"/>
<path d="M306.842 151.296C306.824 151.226 306.791 151.16 306.747 151.103C306.702 151.046 306.646 150.999 306.582 150.965C306.518 150.931 306.448 150.911 306.375 150.906C306.303 150.901 306.231 150.91 306.163 150.934C306.094 150.959 306.032 150.997 305.979 151.046C305.927 151.096 305.885 151.156 305.857 151.223C305.829 151.29 305.815 151.361 305.816 151.434C305.817 151.506 305.833 151.577 305.863 151.643C305.881 151.713 305.914 151.779 305.959 151.836C306.003 151.892 306.06 151.939 306.123 151.973C306.187 152.007 306.258 152.028 306.33 152.033C306.402 152.038 306.474 152.028 306.543 152.004C306.611 151.98 306.673 151.942 306.726 151.892C306.778 151.843 306.82 151.782 306.848 151.716C306.876 151.649 306.89 151.577 306.889 151.505C306.888 151.433 306.872 151.361 306.842 151.296Z" fill="#D38A59"/>
<path d="M308.735 152.814C308.707 152.734 308.664 152.66 308.608 152.597C308.552 152.534 308.484 152.482 308.408 152.445C308.332 152.408 308.249 152.387 308.165 152.382C308.081 152.377 307.996 152.388 307.916 152.416C307.836 152.443 307.763 152.486 307.7 152.543C307.636 152.599 307.585 152.667 307.548 152.743C307.511 152.819 307.489 152.901 307.484 152.985C307.479 153.07 307.491 153.154 307.518 153.234C307.574 153.395 307.692 153.528 307.845 153.603C307.999 153.677 308.176 153.688 308.337 153.632C308.498 153.576 308.631 153.459 308.705 153.305C308.78 153.152 308.79 152.975 308.735 152.814Z" fill="#D38A59"/>
<path d="M315.536 156.937C315.506 156.858 315.446 156.794 315.37 156.757C315.294 156.719 315.207 156.712 315.126 156.736C315.046 156.765 314.98 156.824 314.942 156.901C314.905 156.978 314.899 157.066 314.925 157.147C314.939 157.187 314.96 157.224 314.988 157.256C315.017 157.288 315.051 157.314 315.089 157.332C315.127 157.351 315.168 157.362 315.211 157.364C315.253 157.367 315.296 157.361 315.336 157.348C315.376 157.334 315.413 157.312 315.445 157.284C315.477 157.256 315.502 157.222 315.521 157.184C315.54 157.146 315.551 157.104 315.553 157.062C315.556 157.02 315.55 156.977 315.536 156.937Z" fill="#D38A59"/>
<path d="M320.841 159.964C320.791 159.819 320.698 159.692 320.576 159.599C320.453 159.506 320.305 159.452 320.152 159.443C319.998 159.434 319.845 159.471 319.712 159.549C319.58 159.627 319.473 159.743 319.407 159.882C319.34 160.02 319.316 160.176 319.337 160.328C319.359 160.48 319.425 160.623 319.528 160.738C319.631 160.852 319.765 160.934 319.914 160.972C320.064 161.01 320.221 161.003 320.366 160.952C320.462 160.919 320.551 160.867 320.628 160.799C320.704 160.732 320.766 160.65 320.811 160.558C320.855 160.466 320.88 160.366 320.886 160.264C320.891 160.162 320.876 160.06 320.841 159.964Z" fill="#D38A59"/>
<path d="M318.846 155.712C318.83 155.664 318.804 155.619 318.77 155.581C318.737 155.543 318.696 155.512 318.65 155.49C318.604 155.468 318.554 155.455 318.503 155.452C318.452 155.45 318.401 155.457 318.354 155.474C318.305 155.491 318.261 155.517 318.223 155.55C318.185 155.584 318.154 155.625 318.132 155.671C318.109 155.717 318.097 155.767 318.094 155.818C318.091 155.868 318.099 155.919 318.116 155.967C318.151 156.063 318.222 156.142 318.314 156.186C318.406 156.23 318.512 156.237 318.609 156.204C318.657 156.188 318.702 156.162 318.74 156.129C318.778 156.095 318.809 156.054 318.831 156.008C318.853 155.962 318.866 155.912 318.868 155.861C318.871 155.81 318.864 155.76 318.846 155.712Z" fill="#D38A59"/>
<path d="M309.904 149.704C309.893 149.671 309.875 149.641 309.852 149.615C309.829 149.588 309.801 149.567 309.769 149.552C309.738 149.537 309.704 149.528 309.669 149.526C309.634 149.524 309.599 149.528 309.566 149.54C309.533 149.551 309.503 149.569 309.477 149.592C309.451 149.615 309.431 149.644 309.416 149.675C309.402 149.707 309.394 149.741 309.393 149.776C309.392 149.811 309.398 149.845 309.411 149.878C309.421 149.91 309.438 149.94 309.461 149.966C309.483 149.992 309.51 150.013 309.541 150.027C309.572 150.042 309.606 150.05 309.64 150.051C309.674 150.052 309.708 150.046 309.74 150.033C309.772 150.022 309.803 150.006 309.829 149.983C309.855 149.961 309.876 149.934 309.892 149.903C309.907 149.873 309.916 149.839 309.918 149.805C309.92 149.771 309.915 149.737 309.904 149.704Z" fill="#D38A59"/>
<path d="M303.596 147.995C303.554 147.875 303.478 147.77 303.377 147.694C303.276 147.617 303.155 147.573 303.028 147.565C302.902 147.558 302.776 147.588 302.667 147.652C302.557 147.717 302.47 147.812 302.415 147.926C302.359 148.04 302.339 148.168 302.357 148.293C302.375 148.419 302.429 148.536 302.513 148.631C302.598 148.725 302.708 148.792 302.831 148.824C302.954 148.856 303.083 148.85 303.202 148.808C303.362 148.752 303.494 148.635 303.567 148.483C303.641 148.33 303.651 148.155 303.596 147.995Z" fill="#D38A59"/>
<path d="M301.429 149.357C301.396 149.265 301.337 149.185 301.259 149.126C301.18 149.068 301.087 149.034 300.989 149.029C300.892 149.024 300.795 149.048 300.711 149.098C300.627 149.147 300.56 149.221 300.518 149.309C300.476 149.397 300.461 149.496 300.474 149.592C300.488 149.689 300.53 149.779 300.596 149.852C300.661 149.925 300.746 149.976 300.841 150C300.935 150.025 301.035 150.02 301.127 149.988C301.188 149.966 301.245 149.933 301.293 149.89C301.341 149.846 301.381 149.794 301.409 149.735C301.437 149.677 301.453 149.613 301.456 149.548C301.46 149.483 301.45 149.418 301.429 149.357Z" fill="#D38A59"/>
<path d="M297.606 146.44C297.55 146.282 297.435 146.153 297.284 146.079C297.134 146.006 296.961 145.994 296.802 146.047C296.684 146.088 296.581 146.163 296.506 146.262C296.431 146.361 296.387 146.481 296.379 146.605C296.372 146.729 296.401 146.853 296.464 146.961C296.527 147.068 296.62 147.155 296.732 147.21C296.844 147.264 296.969 147.285 297.093 147.268C297.216 147.252 297.332 147.199 297.426 147.117C297.519 147.034 297.586 146.926 297.618 146.806C297.651 146.685 297.646 146.558 297.606 146.44Z" fill="#D38A59"/>
<path d="M299.664 144.301C299.631 144.209 299.572 144.128 299.494 144.07C299.416 144.012 299.322 143.978 299.224 143.972C299.127 143.967 299.03 143.991 298.946 144.041C298.862 144.091 298.795 144.164 298.753 144.253C298.711 144.341 298.696 144.439 298.71 144.536C298.723 144.632 298.766 144.723 298.831 144.795C298.896 144.868 298.981 144.92 299.076 144.944C299.17 144.968 299.27 144.964 299.362 144.931C299.423 144.91 299.48 144.877 299.528 144.833C299.576 144.79 299.616 144.737 299.644 144.679C299.672 144.62 299.688 144.556 299.691 144.492C299.695 144.427 299.685 144.362 299.664 144.301Z" fill="#D38A59"/>
<path d="M294.607 142.856C294.545 142.675 294.414 142.527 294.242 142.443C294.071 142.359 293.873 142.346 293.693 142.408C293.512 142.47 293.363 142.601 293.278 142.772C293.192 142.943 293.177 143.14 293.235 143.322C293.3 143.506 293.435 143.658 293.61 143.743C293.786 143.827 293.988 143.839 294.173 143.775C294.357 143.71 294.508 143.576 294.593 143.4C294.678 143.224 294.69 143.022 294.625 142.837L294.607 142.856Z" fill="#D38A59"/>
<path d="M296.928 142.618C296.886 142.527 296.814 142.455 296.724 142.413C296.633 142.371 296.531 142.363 296.435 142.389C296.383 142.407 296.336 142.434 296.294 142.471C296.253 142.507 296.22 142.551 296.196 142.6C296.172 142.65 296.159 142.703 296.156 142.758C296.153 142.812 296.161 142.867 296.18 142.919C296.217 143.022 296.293 143.107 296.392 143.154C296.491 143.202 296.605 143.209 296.709 143.174C296.811 143.128 296.891 143.044 296.932 142.94C296.973 142.836 296.971 142.721 296.928 142.618Z" fill="#D38A59"/>
<path d="M296.555 139.344C296.541 139.283 296.514 139.225 296.476 139.175C296.438 139.125 296.39 139.083 296.335 139.052C296.28 139.022 296.219 139.003 296.156 138.998C296.093 138.992 296.03 139 295.971 139.021C295.911 139.042 295.857 139.075 295.811 139.118C295.765 139.161 295.729 139.213 295.705 139.272C295.68 139.33 295.669 139.392 295.67 139.455C295.672 139.518 295.686 139.58 295.714 139.637C295.761 139.737 295.844 139.815 295.945 139.858C296.047 139.9 296.161 139.904 296.265 139.867C296.369 139.831 296.457 139.758 296.51 139.661C296.563 139.565 296.579 139.452 296.555 139.344Z" fill="#D38A59"/>
<path d="M291.608 138.275C291.586 138.131 291.532 137.994 291.451 137.874C291.369 137.753 291.263 137.652 291.138 137.578C291.013 137.504 290.874 137.458 290.729 137.443C290.584 137.429 290.439 137.447 290.302 137.495C290.165 137.544 290.04 137.622 289.937 137.724C289.834 137.827 289.754 137.95 289.705 138.087C289.655 138.223 289.635 138.369 289.648 138.514C289.661 138.658 289.706 138.798 289.779 138.924C289.801 139.067 289.855 139.204 289.936 139.325C290.018 139.445 290.124 139.546 290.249 139.62C290.374 139.695 290.513 139.741 290.658 139.755C290.803 139.769 290.948 139.752 291.085 139.703C291.222 139.654 291.347 139.576 291.45 139.474C291.553 139.372 291.632 139.248 291.682 139.112C291.732 138.975 291.751 138.829 291.739 138.685C291.726 138.54 291.681 138.4 291.608 138.275Z" fill="#D38A59"/>
<path d="M293.985 139.216C293.938 139.087 293.841 138.98 293.717 138.921C293.592 138.861 293.449 138.852 293.318 138.896C293.252 138.918 293.191 138.952 293.139 138.998C293.087 139.044 293.045 139.099 293.015 139.162C292.985 139.224 292.968 139.292 292.965 139.361C292.962 139.43 292.973 139.499 292.998 139.564C293.044 139.695 293.14 139.802 293.265 139.862C293.39 139.922 293.534 139.93 293.665 139.884C293.796 139.838 293.904 139.742 293.964 139.616C294.024 139.491 294.031 139.347 293.985 139.216Z" fill="#D38A59"/>
<path d="M292.549 141.475C292.54 141.448 292.525 141.423 292.506 141.403C292.488 141.382 292.465 141.365 292.439 141.353C292.414 141.341 292.386 141.334 292.358 141.333C292.33 141.332 292.301 141.337 292.275 141.347C292.222 141.366 292.179 141.406 292.155 141.457C292.131 141.509 292.128 141.567 292.147 141.621C292.167 141.674 292.206 141.717 292.258 141.741C292.309 141.765 292.368 141.768 292.421 141.748C292.448 141.739 292.472 141.725 292.493 141.706C292.514 141.687 292.531 141.664 292.543 141.639C292.555 141.613 292.562 141.585 292.563 141.557C292.564 141.529 292.559 141.501 292.549 141.475Z" fill="#D38A59"/>
<path d="M296.261 141.2C296.252 141.171 296.237 141.145 296.217 141.122C296.197 141.099 296.173 141.081 296.145 141.068C296.118 141.055 296.088 141.048 296.058 141.047C296.028 141.046 295.997 141.052 295.969 141.064C295.912 141.084 295.866 141.126 295.84 141.181C295.815 141.236 295.812 141.299 295.832 141.356C295.855 141.411 295.898 141.456 295.952 141.481C296.006 141.507 296.068 141.511 296.124 141.492C296.181 141.472 296.228 141.429 296.253 141.375C296.279 141.32 296.282 141.257 296.261 141.2Z" fill="#D38A59"/>
<path d="M292.888 134.809C292.843 134.684 292.762 134.574 292.655 134.494C292.549 134.415 292.42 134.368 292.287 134.361C292.154 134.354 292.022 134.386 291.907 134.454C291.792 134.522 291.7 134.622 291.642 134.742C291.584 134.862 291.562 134.996 291.58 135.128C291.599 135.261 291.655 135.384 291.743 135.484C291.832 135.584 291.947 135.656 292.076 135.69C292.205 135.725 292.341 135.72 292.467 135.678C292.638 135.618 292.778 135.493 292.856 135.33C292.935 135.167 292.947 134.98 292.888 134.809Z" fill="#D38A59"/>
<path d="M288.938 133.3C288.925 133.241 288.899 133.185 288.863 133.136C288.827 133.087 288.78 133.047 288.727 133.017C288.674 132.987 288.615 132.97 288.554 132.964C288.494 132.959 288.433 132.967 288.375 132.987C288.318 133.007 288.266 133.04 288.222 133.082C288.178 133.124 288.143 133.175 288.12 133.231C288.097 133.287 288.086 133.348 288.089 133.409C288.091 133.47 288.106 133.529 288.133 133.584C288.173 133.69 288.252 133.778 288.354 133.827C288.456 133.876 288.574 133.884 288.682 133.849C288.788 133.81 288.875 133.73 288.923 133.627C288.971 133.525 288.976 133.407 288.938 133.3Z" fill="#D38A59"/>
<path d="M290.427 131.855C290.409 131.804 290.371 131.761 290.321 131.737C290.272 131.713 290.215 131.71 290.163 131.727C290.118 131.751 290.083 131.789 290.064 131.836C290.046 131.883 290.044 131.935 290.061 131.983C290.078 132.031 290.111 132.071 290.155 132.096C290.199 132.121 290.25 132.13 290.3 132.12C290.35 132.099 290.391 132.061 290.415 132.012C290.438 131.963 290.443 131.907 290.427 131.855Z" fill="#D38A59"/>
<path d="M287.382 126.158C287.362 126.104 287.333 126.053 287.294 126.01C287.255 125.967 287.209 125.932 287.157 125.907C287.105 125.882 287.048 125.868 286.99 125.865C286.933 125.862 286.875 125.87 286.82 125.889C286.766 125.908 286.716 125.938 286.673 125.976C286.63 126.015 286.595 126.062 286.57 126.114C286.545 126.166 286.53 126.222 286.527 126.28C286.524 126.338 286.532 126.396 286.551 126.45C286.59 126.559 286.671 126.647 286.775 126.697C286.879 126.746 286.999 126.753 287.108 126.715C287.217 126.675 287.306 126.595 287.357 126.492C287.408 126.388 287.417 126.268 287.382 126.158Z" fill="#D38A59"/>
<path d="M283.111 124.485C283.085 124.406 283.035 124.337 282.969 124.286C282.903 124.235 282.823 124.205 282.74 124.2C282.657 124.195 282.574 124.215 282.502 124.257C282.43 124.299 282.372 124.362 282.336 124.437C282.3 124.512 282.286 124.596 282.298 124.678C282.31 124.761 282.346 124.838 282.402 124.9C282.458 124.962 282.531 125.006 282.612 125.026C282.692 125.047 282.778 125.042 282.856 125.014C282.958 124.975 283.041 124.898 283.089 124.8C283.136 124.702 283.144 124.589 283.111 124.485Z" fill="#D38A59"/>
<path d="M284.474 120.8C284.441 120.706 284.372 120.628 284.283 120.584C284.193 120.541 284.089 120.535 283.995 120.567C283.901 120.6 283.823 120.669 283.779 120.759C283.736 120.848 283.73 120.952 283.762 121.046C283.778 121.093 283.804 121.136 283.836 121.173C283.869 121.21 283.909 121.24 283.954 121.262C283.998 121.283 284.046 121.296 284.096 121.299C284.145 121.302 284.195 121.295 284.241 121.279C284.288 121.263 284.331 121.238 284.368 121.205C284.405 121.172 284.435 121.132 284.457 121.088C284.478 121.043 284.491 120.995 284.494 120.945C284.497 120.896 284.49 120.847 284.474 120.8Z" fill="#D38A59"/>
<path d="M282.473 121.047C282.421 120.927 282.336 120.825 282.227 120.752C282.118 120.68 281.991 120.64 281.86 120.639C281.729 120.637 281.601 120.674 281.49 120.744C281.38 120.814 281.292 120.914 281.237 121.033C281.183 121.152 281.163 121.284 281.182 121.413C281.201 121.542 281.257 121.664 281.343 121.762C281.43 121.86 281.542 121.931 281.668 121.967C281.794 122.002 281.928 122.001 282.053 121.962C282.143 121.934 282.227 121.887 282.298 121.824C282.37 121.761 282.427 121.685 282.467 121.598C282.506 121.512 282.527 121.418 282.528 121.324C282.53 121.229 282.511 121.134 282.473 121.047Z" fill="#D38A59"/>
<path d="M281.86 116.686C281.838 116.542 281.785 116.405 281.703 116.285C281.622 116.164 281.515 116.063 281.39 115.989C281.266 115.915 281.126 115.869 280.982 115.854C280.837 115.84 280.691 115.858 280.554 115.906C280.417 115.955 280.293 116.033 280.19 116.135C280.086 116.238 280.007 116.361 279.957 116.498C279.907 116.634 279.888 116.78 279.901 116.925C279.914 117.069 279.958 117.209 280.032 117.335C280.054 117.478 280.108 117.615 280.189 117.736C280.27 117.856 280.377 117.957 280.502 118.032C280.626 118.106 280.766 118.152 280.911 118.166C281.055 118.18 281.201 118.163 281.338 118.114C281.475 118.065 281.599 117.987 281.702 117.885C281.806 117.783 281.885 117.659 281.935 117.523C281.985 117.386 282.004 117.241 281.991 117.096C281.978 116.951 281.934 116.811 281.86 116.686Z" fill="#D38A59"/>
<path d="M283.708 118.844C283.69 118.761 283.655 118.684 283.606 118.616C283.556 118.548 283.492 118.491 283.419 118.45C283.346 118.408 283.264 118.383 283.181 118.375C283.097 118.367 283.012 118.378 282.933 118.405C282.853 118.432 282.78 118.476 282.719 118.534C282.658 118.592 282.609 118.662 282.577 118.74C282.545 118.817 282.529 118.901 282.532 118.985C282.535 119.069 282.555 119.152 282.592 119.228C282.617 119.301 282.656 119.369 282.707 119.428C282.758 119.486 282.821 119.534 282.89 119.568C282.96 119.602 283.036 119.622 283.113 119.626C283.191 119.63 283.269 119.619 283.342 119.593C283.488 119.54 283.607 119.432 283.675 119.292C283.743 119.152 283.755 118.992 283.708 118.844Z" fill="#D38A59"/>
<path d="M283.415 113.01C283.377 112.9 283.308 112.804 283.215 112.734C283.123 112.663 283.012 112.622 282.896 112.615C282.78 112.608 282.665 112.636 282.565 112.695C282.465 112.754 282.384 112.841 282.334 112.946C282.284 113.05 282.265 113.167 282.282 113.282C282.298 113.397 282.349 113.505 282.426 113.591C282.504 113.677 282.605 113.738 282.718 113.767C282.83 113.795 282.949 113.79 283.058 113.75C283.203 113.699 283.322 113.592 283.388 113.453C283.455 113.315 283.465 113.155 283.415 113.01Z" fill="#D38A59"/>
<path d="M279.73 110.212C279.699 110.121 279.642 110.041 279.566 109.982C279.49 109.924 279.399 109.889 279.303 109.883C279.207 109.876 279.111 109.898 279.028 109.946C278.945 109.994 278.878 110.066 278.836 110.152C278.793 110.238 278.777 110.335 278.79 110.43C278.803 110.525 278.843 110.614 278.907 110.686C278.97 110.758 279.054 110.81 279.147 110.835C279.239 110.859 279.337 110.856 279.428 110.824C279.489 110.805 279.545 110.773 279.593 110.732C279.641 110.69 279.681 110.639 279.709 110.582C279.737 110.525 279.753 110.463 279.757 110.399C279.76 110.335 279.751 110.272 279.73 110.212Z" fill="#D38A59"/>
<path d="M282.188 106.599C282.149 106.515 282.08 106.449 281.994 106.413C281.909 106.377 281.813 106.374 281.725 106.404C281.638 106.435 281.565 106.497 281.52 106.579C281.476 106.66 281.464 106.756 281.485 106.846C281.519 106.939 281.587 107.015 281.676 107.057C281.765 107.1 281.867 107.106 281.96 107.074C282.051 107.039 282.126 106.97 282.168 106.882C282.211 106.794 282.218 106.693 282.188 106.599Z" fill="#D38A59"/>
<path d="M283.148 110.019C283.125 109.951 283.082 109.891 283.024 109.848C282.967 109.804 282.898 109.779 282.826 109.774C282.754 109.77 282.682 109.787 282.62 109.823C282.558 109.859 282.507 109.913 282.476 109.978C282.444 110.043 282.432 110.115 282.442 110.187C282.451 110.258 282.482 110.325 282.529 110.379C282.577 110.434 282.639 110.472 282.709 110.491C282.778 110.51 282.852 110.508 282.92 110.485C282.966 110.469 283.008 110.445 283.044 110.413C283.08 110.381 283.11 110.343 283.131 110.299C283.152 110.256 283.165 110.209 283.168 110.161C283.171 110.113 283.164 110.065 283.148 110.019Z" fill="#D38A59"/>
<path d="M280.196 104.661C280.184 104.6 280.158 104.542 280.122 104.492C280.085 104.441 280.038 104.399 279.984 104.368C279.93 104.337 279.869 104.318 279.807 104.312C279.745 104.306 279.682 104.314 279.623 104.334C279.564 104.355 279.51 104.387 279.465 104.43C279.419 104.473 279.384 104.525 279.36 104.583C279.336 104.641 279.325 104.703 279.328 104.765C279.33 104.828 279.345 104.889 279.373 104.945C279.392 105 279.421 105.05 279.459 105.093C279.497 105.137 279.543 105.172 279.595 105.198C279.647 105.223 279.703 105.238 279.761 105.242C279.819 105.246 279.876 105.238 279.931 105.219C280.04 105.18 280.129 105.099 280.178 104.995C280.228 104.89 280.234 104.771 280.196 104.661Z" fill="#D38A59"/>
<path d="M281.01 100.729C280.962 100.602 280.867 100.497 280.745 100.438C280.622 100.378 280.481 100.368 280.352 100.409C280.254 100.442 280.168 100.504 280.105 100.586C280.042 100.668 280.005 100.767 279.998 100.87C279.992 100.973 280.016 101.076 280.068 101.166C280.12 101.255 280.198 101.327 280.291 101.372C280.384 101.417 280.488 101.434 280.59 101.419C280.693 101.405 280.789 101.361 280.866 101.292C280.943 101.223 280.998 101.133 281.023 101.033C281.049 100.932 281.044 100.827 281.01 100.729Z" fill="#D38A59"/>
<path d="M282.344 102.667C282.331 102.628 282.31 102.593 282.283 102.562C282.256 102.531 282.223 102.505 282.186 102.487C282.149 102.469 282.109 102.458 282.068 102.455C282.027 102.453 281.986 102.458 281.947 102.471C281.908 102.484 281.872 102.505 281.841 102.532C281.81 102.559 281.785 102.592 281.767 102.629C281.748 102.666 281.738 102.706 281.735 102.747C281.732 102.788 281.737 102.829 281.751 102.868C281.777 102.947 281.834 103.012 281.908 103.048C281.983 103.085 282.069 103.091 282.148 103.064C282.226 103.038 282.291 102.981 282.328 102.907C282.365 102.832 282.37 102.746 282.344 102.667Z" fill="#D38A59"/>
<path d="M281.906 104.899C281.877 104.815 281.824 104.741 281.754 104.687C281.683 104.634 281.598 104.602 281.509 104.596C281.421 104.591 281.332 104.612 281.256 104.657C281.179 104.702 281.117 104.769 281.079 104.849C281.04 104.929 281.026 105.018 281.038 105.106C281.051 105.194 281.089 105.276 281.148 105.343C281.208 105.409 281.285 105.456 281.371 105.478C281.457 105.5 281.548 105.496 281.632 105.466C281.743 105.427 281.834 105.345 281.885 105.239C281.937 105.133 281.944 105.011 281.906 104.899Z" fill="#D38A59"/>
<path d="M279.401 107.222C279.338 107.093 279.23 106.991 279.097 106.937C278.965 106.882 278.817 106.878 278.681 106.925C278.546 106.973 278.432 107.068 278.363 107.194C278.293 107.319 278.272 107.466 278.303 107.606C278.321 107.686 278.356 107.762 278.406 107.828C278.455 107.894 278.518 107.949 278.59 107.989C278.663 108.029 278.742 108.054 278.825 108.061C278.907 108.068 278.99 108.057 279.068 108.03C279.146 108.003 279.217 107.959 279.277 107.902C279.337 107.846 279.384 107.777 279.416 107.7C279.447 107.624 279.462 107.542 279.459 107.459C279.457 107.377 279.437 107.296 279.401 107.222Z" fill="#D38A59"/>
<path d="M279.107 102.393C279.087 102.336 279.044 102.29 278.99 102.264C278.935 102.239 278.872 102.236 278.815 102.256C278.788 102.267 278.763 102.282 278.742 102.302C278.721 102.321 278.704 102.345 278.693 102.371C278.681 102.398 278.674 102.426 278.673 102.455C278.672 102.484 278.677 102.512 278.687 102.539C278.697 102.567 278.711 102.593 278.731 102.615C278.75 102.637 278.774 102.655 278.8 102.668C278.826 102.68 278.855 102.688 278.884 102.689C278.914 102.691 278.943 102.686 278.97 102.676C279.025 102.656 279.07 102.615 279.095 102.562C279.121 102.509 279.125 102.449 279.107 102.393Z" fill="#D38A59"/>
<path d="M280.571 95.1241C280.526 95.0066 280.437 94.9114 280.322 94.8586C280.208 94.8057 280.078 94.7994 279.959 94.841C279.84 94.8826 279.742 94.9688 279.686 95.0814C279.629 95.194 279.619 95.3241 279.657 95.4442C279.676 95.5061 279.708 95.5634 279.75 95.6128C279.792 95.6622 279.844 95.7027 279.902 95.7318C279.96 95.7608 280.023 95.7779 280.088 95.7821C280.153 95.7862 280.218 95.7773 280.279 95.7559C280.34 95.7344 280.397 95.7009 280.445 95.6572C280.493 95.6136 280.532 95.5608 280.559 95.5018C280.586 95.4429 280.601 95.3791 280.603 95.3142C280.605 95.2493 280.595 95.1847 280.571 95.1241Z" fill="#D38A59"/>
<path d="M301.674 140.258C301.658 140.213 301.634 140.171 301.602 140.135C301.57 140.099 301.532 140.069 301.489 140.048C301.445 140.027 301.398 140.014 301.35 140.011C301.302 140.008 301.254 140.015 301.209 140.03C301.163 140.046 301.121 140.07 301.085 140.102C301.049 140.134 301.019 140.172 300.998 140.216C300.977 140.259 300.965 140.306 300.961 140.354C300.958 140.402 300.965 140.45 300.98 140.496C301.012 140.588 301.079 140.663 301.166 140.706C301.253 140.749 301.354 140.755 301.446 140.724C301.538 140.692 301.614 140.626 301.656 140.538C301.699 140.451 301.705 140.35 301.674 140.258Z" fill="#D38A59"/>
<path d="M328.32 162.359C328.308 162.31 328.287 162.265 328.256 162.225C328.226 162.185 328.188 162.152 328.144 162.127C328.1 162.103 328.051 162.089 328.001 162.085C327.951 162.081 327.901 162.088 327.853 162.104C327.806 162.121 327.763 162.148 327.727 162.183C327.691 162.217 327.662 162.259 327.643 162.306C327.624 162.352 327.615 162.402 327.617 162.452C327.619 162.502 327.631 162.552 327.653 162.597C327.684 162.684 327.749 162.756 327.832 162.797C327.916 162.838 328.012 162.845 328.1 162.816C328.189 162.783 328.261 162.717 328.302 162.632C328.343 162.546 328.349 162.449 328.32 162.359Z" fill="#D38A59"/>
<path d="M334.016 164.536C334.002 164.495 333.98 164.457 333.951 164.425C333.922 164.393 333.887 164.367 333.848 164.348C333.809 164.329 333.767 164.319 333.724 164.316C333.681 164.314 333.637 164.32 333.597 164.335C333.528 164.372 333.474 164.433 333.446 164.506C333.418 164.58 333.417 164.661 333.444 164.735C333.47 164.808 333.522 164.87 333.591 164.909C333.659 164.948 333.739 164.961 333.816 164.946C333.895 164.915 333.959 164.856 333.996 164.78C334.033 164.704 334.041 164.617 334.016 164.536Z" fill="#D38A59"/>
<path d="M341.36 166.063C341.349 166.034 341.329 166.011 341.301 165.997C341.274 165.984 341.243 165.981 341.214 165.99C341.199 165.995 341.185 166.003 341.173 166.014C341.161 166.025 341.151 166.037 341.144 166.052C341.137 166.066 341.134 166.082 341.133 166.098C341.132 166.114 341.135 166.13 341.141 166.145C341.151 166.174 341.172 166.197 341.199 166.211C341.226 166.224 341.258 166.227 341.287 166.218C341.302 166.213 341.316 166.205 341.328 166.194C341.34 166.184 341.35 166.171 341.357 166.156C341.363 166.142 341.367 166.126 341.368 166.11C341.368 166.094 341.366 166.078 341.36 166.063Z" fill="#D38A59"/>
<path d="M336.23 164.975C336.225 164.961 336.217 164.948 336.207 164.937C336.197 164.926 336.184 164.917 336.171 164.911C336.157 164.905 336.142 164.902 336.127 164.902C336.113 164.902 336.098 164.905 336.084 164.911C336.069 164.915 336.055 164.922 336.043 164.932C336.031 164.942 336.022 164.954 336.015 164.968C336.008 164.981 336.004 164.997 336.003 165.012C336.003 165.027 336.005 165.043 336.011 165.057C336.014 165.074 336.021 165.09 336.031 165.104C336.041 165.118 336.054 165.13 336.069 165.138C336.085 165.146 336.101 165.152 336.118 165.153C336.136 165.154 336.153 165.152 336.169 165.146C336.185 165.14 336.2 165.13 336.212 165.118C336.224 165.105 336.233 165.091 336.239 165.074C336.245 165.058 336.247 165.041 336.246 165.024C336.244 165.006 336.239 164.99 336.23 164.975Z" fill="#D38A59"/>
<path d="M323.94 161.82C323.913 161.747 323.859 161.688 323.789 161.656C323.718 161.623 323.638 161.62 323.566 161.647C323.529 161.659 323.495 161.678 323.466 161.704C323.437 161.729 323.413 161.761 323.396 161.795C323.379 161.83 323.369 161.868 323.367 161.907C323.365 161.945 323.37 161.984 323.383 162.021C323.41 162.095 323.465 162.155 323.536 162.188C323.607 162.221 323.688 162.225 323.762 162.199C323.836 162.172 323.896 162.117 323.929 162.046C323.963 161.975 323.966 161.894 323.94 161.82Z" fill="#D38A59"/>
<path d="M300.093 54.89C300.093 54.9602 300.121 55.0275 300.171 55.0771C300.221 55.1267 300.288 55.1546 300.358 55.1546C300.428 55.1501 300.494 55.1196 300.543 55.0689C300.592 55.0183 300.621 54.9512 300.623 54.8809C300.624 54.8461 300.618 54.8115 300.606 54.7789C300.594 54.7463 300.575 54.7165 300.552 54.691C300.528 54.6656 300.499 54.6451 300.468 54.6307C300.436 54.6163 300.402 54.6083 300.367 54.6071C300.33 54.6057 300.293 54.6122 300.259 54.6261C300.224 54.6399 300.193 54.6609 300.167 54.6875C300.141 54.7142 300.122 54.746 300.109 54.7809C300.096 54.8158 300.091 54.853 300.093 54.89Z" fill="#D38A59"/>
<path d="M295.138 59.1791C295.138 59.326 295.181 59.4695 295.263 59.5915C295.345 59.7135 295.461 59.8084 295.597 59.8642C295.733 59.92 295.882 59.9341 296.026 59.9048C296.17 59.8755 296.302 59.804 296.405 59.6995C296.508 59.595 296.578 59.4622 296.606 59.3179C296.633 59.1736 296.617 59.0244 296.56 58.8893C296.502 58.7541 296.406 58.6391 296.283 58.5588C296.16 58.4785 296.016 58.4366 295.869 58.4384C295.674 58.4408 295.488 58.5199 295.351 58.6586C295.214 58.7972 295.137 58.9842 295.138 59.1791Z" fill="#D38A59"/>
<path d="M298.823 58.3379C298.823 58.4858 298.881 58.6277 298.986 58.7323C299.09 58.8369 299.232 58.8957 299.38 58.8957C299.528 58.8957 299.67 58.8369 299.775 58.7323C299.879 58.6277 299.938 58.4858 299.938 58.3379C299.938 58.1899 299.879 58.0481 299.775 57.9435C299.67 57.8389 299.528 57.7801 299.38 57.7801C299.232 57.7801 299.09 57.8389 298.986 57.9435C298.881 58.0481 298.823 58.1899 298.823 58.3379Z" fill="#D38A59"/>
<path d="M369.588 142.609C369.588 142.747 369.629 142.881 369.706 142.996C369.782 143.11 369.892 143.199 370.019 143.252C370.147 143.304 370.287 143.317 370.422 143.29C370.557 143.262 370.681 143.195 370.777 143.097C370.874 142.999 370.94 142.874 370.966 142.739C370.991 142.603 370.976 142.463 370.922 142.336C370.868 142.21 370.778 142.102 370.662 142.027C370.547 141.951 370.412 141.912 370.274 141.914C370.183 141.913 370.092 141.93 370.008 141.964C369.923 141.999 369.847 142.05 369.783 142.115C369.719 142.18 369.668 142.257 369.635 142.342C369.601 142.427 369.585 142.518 369.588 142.609Z" fill="#D38A59"/>
<path d="M356.786 145.672C356.788 145.804 356.829 145.933 356.904 146.041C356.979 146.15 357.084 146.234 357.207 146.283C357.329 146.332 357.464 146.343 357.593 146.316C357.722 146.288 357.84 146.223 357.932 146.128C358.024 146.034 358.086 145.914 358.11 145.784C358.134 145.654 358.119 145.52 358.067 145.399C358.015 145.278 357.928 145.175 357.817 145.103C357.706 145.031 357.577 144.994 357.445 144.995C357.357 144.997 357.27 145.015 357.19 145.05C357.109 145.084 357.036 145.135 356.975 145.197C356.914 145.26 356.866 145.335 356.833 145.416C356.801 145.497 356.785 145.584 356.786 145.672Z" fill="#D38A59"/>
<path d="M362.775 146.385C362.777 146.45 362.791 146.514 362.817 146.574C362.842 146.633 362.88 146.687 362.927 146.732C362.973 146.777 363.028 146.812 363.089 146.836C363.149 146.86 363.214 146.871 363.278 146.87C363.397 146.854 363.505 146.795 363.583 146.705C363.662 146.615 363.705 146.5 363.705 146.381C363.705 146.261 363.662 146.146 363.583 146.056C363.505 145.966 363.397 145.908 363.278 145.892C363.213 145.89 363.148 145.902 363.087 145.926C363.026 145.951 362.97 145.987 362.923 146.033C362.876 146.079 362.839 146.134 362.814 146.194C362.789 146.255 362.775 146.32 362.775 146.385Z" fill="#D38A59"/>
<path d="M363.352 68.5334C363.342 68.6058 363.348 68.6794 363.369 68.7493C363.39 68.8192 363.426 68.8838 363.474 68.9388C363.522 68.9937 363.581 69.0378 363.647 69.0679C363.714 69.0981 363.786 69.1137 363.859 69.1137C363.932 69.1137 364.004 69.0981 364.071 69.0679C364.137 69.0378 364.197 68.9937 364.245 68.9388C364.293 68.8838 364.328 68.8192 364.349 68.7493C364.37 68.6794 364.376 68.6058 364.367 68.5334C364.364 68.3992 364.309 68.2713 364.213 68.1772C364.118 68.0832 363.989 68.0305 363.855 68.0305C363.723 68.035 363.597 68.0895 363.504 68.1828C363.411 68.2762 363.356 68.4015 363.352 68.5334Z" fill="#D38A59"/>
<path d="M321.244 48.3702C321.244 48.4646 321.281 48.5551 321.348 48.6218C321.415 48.6886 321.505 48.7261 321.599 48.7261C321.694 48.7261 321.784 48.6886 321.851 48.6218C321.918 48.5551 321.955 48.4646 321.955 48.3702C321.955 48.2758 321.918 48.1853 321.851 48.1185C321.784 48.0518 321.694 48.0143 321.599 48.0143C321.505 48.0143 321.415 48.0518 321.348 48.1185C321.281 48.1853 321.244 48.2758 321.244 48.3702Z" fill="#D38A59"/>
<path d="M379.646 58.9414C377.644 58.027 376.071 55.9787 374.443 54.4608L362.273 43.0857C360.342 41.2022 358.286 39.4517 356.119 37.8462C369.829 40.5142 382.34 47.4586 391.857 57.682C401.373 67.9053 407.404 80.8817 409.085 94.7473C410.765 108.613 408.007 122.654 401.208 134.855C394.409 147.055 383.919 156.787 371.243 162.652C375.047 160.266 378.759 157.495 380.387 153.38C381.301 150.976 381.484 148.333 381.932 145.773C382.38 143.212 383.212 140.57 385.187 138.887C387.858 136.601 392.274 136.309 393.792 133.145C394.505 131.664 394.341 129.908 394.706 128.308C395.74 123.992 400.54 121.386 401.601 117.079C402.515 113.348 400.385 109.562 400.348 105.722C400.348 103.134 401.263 100.638 401.482 98.0594C401.884 93.1125 399.562 88.3667 396.956 84.1422C395.887 82.5216 394.904 80.846 394.011 79.1222C393.281 77.739 392.755 76.2576 392.448 74.7239C392.247 73.2883 392.649 72.2642 391.369 71.1303C390.31 70.3431 389.134 69.726 387.885 69.3015C386.628 68.8668 385.581 67.9759 384.95 66.8052C384.246 65.1227 385.114 63.0288 384.218 61.4377C383.322 59.8467 381.201 59.6638 379.646 58.9414Z" fill="#E7A661"/>
<path d="M365.802 43.314C365.802 43.3375 365.809 43.3604 365.822 43.3799C365.835 43.3994 365.854 43.4146 365.875 43.4236C365.897 43.4326 365.921 43.435 365.944 43.4304C365.967 43.4258 365.988 43.4145 366.005 43.3979C366.021 43.3813 366.033 43.3602 366.037 43.3372C366.042 43.3142 366.039 43.2903 366.03 43.2686C366.021 43.247 366.006 43.2284 365.987 43.2154C365.967 43.2024 365.944 43.1954 365.921 43.1954C365.905 43.1954 365.89 43.1985 365.875 43.2044C365.861 43.2104 365.848 43.2191 365.837 43.2301C365.826 43.2412 365.817 43.2542 365.811 43.2686C365.805 43.283 365.802 43.2985 365.802 43.314Z" fill="#D38A59"/>
<path d="M346.801 158.849C355.726 147.007 370.347 142.17 380.497 131.673C382.022 130.283 383.451 128.792 384.776 127.21C394.542 115.424 396.517 98.0868 390.829 83.877C388.204 77.1996 384.062 71.2237 378.732 66.4212C373.575 61.9589 369.469 57.4875 362.273 56.3628C367.576 62.1783 372.486 68.506 375.458 75.7937C378.43 83.0815 379.354 91.4391 376.647 98.8274C379.07 92.7467 378.165 85.3583 374.873 79.6982C374.516 84.956 374.087 90.4607 372.13 95.243C371.491 96.8666 370.649 98.4028 369.624 99.815C362.547 108.237 350.587 112.37 345.365 122.437C347.267 113.074 354.509 106.993 360.682 99.9979C362.155 98.5606 363.538 97.0337 364.824 95.4259C366.102 93.7757 367.092 91.9206 367.75 89.9395C369.188 85.7806 369.403 81.2968 368.372 77.019C367.366 72.9408 364.842 69.9782 360.608 72.8402C361.642 72.1453 361.075 67.5276 360.919 66.4852C360.648 64.4015 359.914 62.405 358.77 60.6422C356.428 57.1626 353.137 54.4272 349.288 52.76C346.335 51.4982 344.478 53.0892 343.189 55.4392C341.296 57.6978 341.36 60.3678 340.693 63.0379C339.312 59.0511 334.575 53.1075 331.265 55.8141C325.762 59.5152 321.274 64.5351 318.209 70.416C315.144 76.2969 313.6 82.8516 313.718 89.4823C312.292 81.4904 314.203 73.4712 317.449 66.092C308.223 75.5377 305.744 92.2438 313.206 103.5C302.389 90.9453 304.848 72.2367 316.059 60.7702C298.173 71.6515 293.748 93.6885 297.003 112.699C297.192 114.528 297.42 116.338 297.689 118.13C296.79 116.37 295.988 114.563 295.284 112.717C293.082 107.326 291.892 101.577 291.772 95.7551C289.807 98.4434 289.843 101.781 289.669 104.451C289.616 106.01 289.668 107.571 289.825 109.124C290.393 113.856 291.573 118.494 293.336 122.922C295.668 129.021 298.768 135.129 304.007 139.034C306.504 140.824 309.287 142.178 312.237 143.039C313.7 143.505 315.209 143.889 316.736 144.246C326.373 146.724 335.737 148.616 343.253 155.328C344.502 156.433 345.687 157.608 346.801 158.849Z" fill="#F0C69B"/>
<path d="M342.686 112.104C342.658 110.417 342.756 108.73 342.979 107.057C343.79 101.148 346.206 95.5757 349.965 90.9453C352.79 87.4066 357.737 83.6301 358.286 78.8935C359.017 72.6482 355.241 66.0097 351.437 61.3737C350.084 59.7277 347.78 58.1915 347.962 61.584C348.145 64.9764 346.755 67.6281 345.466 70.7279C344.169 74.1281 343.249 77.6606 342.723 81.2618C341.414 88.2664 341.106 95.4213 341.808 102.512C340.336 90.5247 341.543 79.1678 344.067 67.1344C344.707 64.4552 345.347 61.7851 343.976 59.1242C339.349 62.5167 340.748 68.506 340.135 73.1785C339.413 67.8567 341.351 62.4892 336.633 58.5482C328.742 68.6065 340.894 81.1795 339.687 92.5272C339.687 88.1015 336.834 83.1546 335.015 79.2319C334.1 77.2842 333.186 75.9034 332.747 73.7455C332.235 71.2126 331.732 68.6797 331.22 66.1468C331.177 65.5207 330.895 64.9348 330.433 64.51C330.091 64.3146 329.691 64.2442 329.303 64.3109C328.914 64.3776 328.56 64.5773 328.303 64.8758C327.798 65.4873 327.45 66.2121 327.288 66.9881C326.088 70.477 325.305 74.0958 324.956 77.7688C324.59 84.7182 328.312 89.5097 332.893 94.228C337.154 98.6445 340.044 102.311 341.69 108.264C342.412 110.587 342.686 112.104 342.686 112.104Z" fill="#F9E7DF"/>
<path d="M343.985 125.811C343.798 121.923 343.137 118.073 342.019 114.345C341.476 112.546 340.819 110.784 340.053 109.069C336.532 98.5622 324.508 95.3527 319.022 86.0898C319.022 87.4249 319.022 89.4182 319.076 90.7533C318.487 87.4556 318.224 84.1081 318.29 80.7589C316.315 82.7797 316.342 84.7822 316.37 87.4523C314.303 81.4721 318.199 75.4188 320.174 70.0787C310.225 75.5651 311.03 90.1955 314.504 99.4949C317.933 107.459 326.611 108.035 332.216 113.275C333.842 114.576 335.37 115.994 336.788 117.518C341.233 122.104 343.886 128.132 344.268 134.507C342.86 127.86 338.306 123.406 333.03 119.603C331.274 118.332 329.437 117.143 327.608 115.945C315.309 110.139 305.168 98.2513 307.006 83.557C302.434 95.6179 305.973 110.248 314.742 118.825C309.365 114.884 307.957 108.895 305.232 103.591C305.392 108.967 307.245 114.154 310.527 118.414C311.723 119.908 313.092 121.255 314.605 122.428C324.206 130.054 336.258 133.922 345.695 141.813C353.595 132.386 367.576 130.228 373.456 118.816C372.185 124.833 366.232 128.875 360.928 131.618C368.911 130.191 372.816 123.48 377.214 118.094C378.227 116.569 379.07 114.937 379.728 113.229C384.611 100.821 382.719 81.5819 377.561 72.9957C371.663 63.2207 373.264 74.1569 372.989 86.7116C372.989 86.7116 373.465 73.782 374.425 72.1727C375.385 70.5633 379.802 79.4879 380.899 88.961C381.996 98.4342 378.86 83.0723 377.241 79.8902C375.623 76.7081 375.577 84.8371 375.577 84.8371C375.577 84.8371 376.363 78.0614 378.037 84.9286C379.379 90.9659 379.476 97.2138 378.32 103.29C377.936 105.31 377.357 107.288 376.592 109.197C374.708 114.089 371.407 117.426 367.448 120.846C370.072 117.481 373.373 114.107 374.535 110.413C375.592 107.986 376.3 105.422 376.638 102.796C377.378 97.0626 377.186 99.0011 375.504 103.207C374.861 104.833 374.131 106.423 373.319 107.971C371.353 112.123 368.747 114.82 365.409 117.527C370.036 114.144 371.307 108.127 373.693 103.445C374.608 99.312 374.608 97.3095 374.251 96.6969C373.895 96.0842 373.127 96.8614 372.422 98.2879C371.476 100.316 370.404 102.282 369.213 104.177C362.035 114.957 346.728 121.12 345.585 135.147C342.064 118.505 357.975 110.321 365.628 98.1599C366.597 96.1205 367.316 93.9712 367.768 91.7591C370.804 77.2019 363.909 66.2017 361.12 81.0058C361.12 81.0058 363.16 75.9309 364.778 75.7937C365.93 75.6383 366.845 81.7282 365.848 88.257C365.515 90.4735 364.932 92.6453 364.111 94.7309C360.572 103.619 351.309 107.734 346.737 115.762C349.306 107.057 356.585 102.311 360.169 94.5206C361.204 92.6798 362.091 90.7596 362.821 88.7782C363.45 87.1237 363.853 85.3921 364.019 83.6301C364.44 77.4762 356.567 88.3941 355.25 91.6128C355.25 91.6128 359.209 87.0408 360.041 87.9552C360.462 88.449 359.539 89.592 357.938 91.0002C355.964 92.6541 353.888 94.1811 351.72 95.5722C343.235 101.059 344.707 113.083 343.985 121.77C343.902 124.385 343.985 125.811 343.985 125.811Z" fill="#F9E7DF"/>
<path d="M346.847 156.846C342.357 144.52 326.355 145.37 316.096 138.823C314.477 137.982 312.868 137.068 311.286 136.08C303.876 131.204 298.073 124.247 294.607 116.082C293.524 113.685 292.764 111.154 292.349 108.557C289.605 85.1297 304.647 54.9454 330.644 53.3178C317.467 64.7569 302.297 82.9535 313.188 101.497C301.675 86.2819 312.136 68.1585 324.014 56.6919C304.711 60.2398 294.964 83.0358 295.832 101.031C298.384 90.3327 299.591 78.9758 306.805 70.225C298.978 84.3159 297.853 102.339 305.58 116.128C306.565 117.51 307.707 118.774 308.982 119.895C310.373 121.081 311.835 122.18 313.361 123.187C323.53 131.362 338.91 134.516 345.704 145.133C354.912 133.684 372.221 132.157 379.381 118.844C380.147 117.712 380.846 116.536 381.475 115.323C382.162 114.003 382.773 112.644 383.304 111.254C389.878 93.8257 383.158 76.2692 376.418 68.3779C365.272 55.3935 354.281 52.7783 351.913 50.1997C350.998 49.203 367.942 52.7234 381.393 67.3355C393.6 80.5852 400.668 101.982 392.21 119.401C390.046 124.031 386.97 128.177 383.167 131.59C381.58 132.962 379.873 134.186 378.064 135.248C368.335 141.521 353.668 141.649 348.154 153.426C347.516 154.478 347.073 155.637 346.847 156.846Z" fill="#F9E7DF"/>
<path d="M349.937 122.126C354.683 113.696 365.985 110.897 369.506 100.921C370.83 98.0502 371.552 94.9383 371.627 91.7774C371.242 93.5782 370.688 95.3386 369.972 97.0352C369.252 98.7393 368.383 100.376 367.375 101.927C363.279 106.902 359.328 111.611 353.851 115.314C351.946 117.182 350.592 119.539 349.937 122.126Z" fill="#F9E7DF"/>
<path d="M323.868 75.7572C321.006 82.7249 324.426 90.6984 330.47 93.9628C325.111 92.0243 321.719 87.3883 322.24 81.4082C322.395 79.4337 322.948 77.5113 323.868 75.7572Z" fill="#F9E7DF"/>
<path d="M340.327 61.0536C340.612 58.7658 341.322 56.5515 342.421 54.5248C343.646 52.5954 345.85 51.1141 348.118 51.4342C347.408 50.9662 346.577 50.7167 345.727 50.7167C344.876 50.7167 344.045 50.9662 343.335 51.4342C342.463 51.9953 341.72 52.7356 341.156 53.6058C340.591 54.476 340.218 55.4563 340.062 56.4816C339.475 54.4552 338.137 52.7287 336.322 51.6536C334.385 50.7238 332.172 50.5478 330.113 51.1598C332.725 51.5202 335.153 52.7056 337.044 54.5431C338.849 56.2757 340.007 58.5727 340.327 61.0536Z" fill="#F9E7DF"/>
<path d="M318.007 54.6071C303.376 63.5865 292.915 79.049 291.105 95.7551C290.94 81.1247 299.444 66.3114 312.246 57.8807C314.082 56.6473 316.007 55.5531 318.007 54.6071Z" fill="#E7A661"/>
<path d="M309.292 72.319C299.645 84.3068 301.831 100.327 305.991 114.253C299.865 102.979 299.024 88.3119 305.434 76.8453C306.505 75.1656 307.803 73.6424 309.292 72.319Z" fill="#E7A661"/>
<path d="M365.016 103.235C365.784 101.662 366.488 100.08 367.101 98.48C367.717 96.8842 368.239 95.2538 368.664 93.5971C370.411 86.9952 370.605 80.0784 369.231 73.3889C368.614 70.018 367.262 66.8244 365.272 64.0346C367.732 66.5726 369.452 69.7344 370.246 73.1786C370.695 74.8751 371.022 76.6016 371.225 78.3449C371.415 80.0907 371.491 81.847 371.453 83.6027C371.332 87.1128 370.716 90.5882 369.624 93.9263C369.095 95.59 368.438 97.2103 367.658 98.7726C366.889 100.323 366.006 101.815 365.016 103.235Z" fill="#E7A661"/>
<path d="M323.575 71.871C321.689 75.885 320.804 80.2965 320.997 84.7274C320.091 82.5724 319.853 80.1953 320.313 77.9035C320.772 75.6116 321.909 73.5103 323.575 71.871Z" fill="#E7A661"/>
<path d="M337.803 122.172C336.7 120.66 335.385 119.314 333.899 118.176C332.401 117.039 330.841 115.986 329.226 115.021C326.657 112.681 322.643 112.059 319.936 108.758C323.292 110.715 327.974 111.336 330.909 114.464C332.117 115.281 333.28 116.163 334.393 117.106C335.946 118.474 337.12 120.219 337.803 122.172Z" fill="#E7A661"/>
<path d="M298.713 103.409C299.183 108.276 300.696 112.985 303.148 117.216C304.352 119.369 305.78 121.389 307.409 123.242C309.036 125.104 310.878 126.767 312.895 128.198C321.628 134.087 331.009 137.982 339.742 143.221C331.009 137.982 320.969 134.763 312.31 128.984C310.268 127.483 308.409 125.75 306.769 123.818C305.117 121.907 303.695 119.807 302.535 117.563C301.368 115.339 300.449 112.993 299.792 110.568C299.158 108.231 298.796 105.829 298.713 103.409Z" fill="#F0C69B"/>
<path d="M386.047 109.242C385.775 111.977 385.078 114.651 383.98 117.17C382.887 119.703 381.454 122.075 379.719 124.22C376.233 128.749 371.567 132.229 366.232 134.279C370.877 131.535 375.504 128.17 378.969 123.644C380.66 121.561 382.111 119.294 383.295 116.887C384.494 114.449 385.417 111.885 386.047 109.242Z" fill="#F0C69B"/>
<path d="M356.997 75.3182C356.382 77.4303 355.458 79.4395 354.253 81.2801C353.11 83.1089 351.785 84.8828 350.486 86.6111C347.541 89.8676 345.27 93.6744 343.802 97.8124C344.415 93.1307 347.039 89.0982 349.709 86.035C351.026 84.2976 352.37 82.606 353.632 80.8595C354.919 79.1184 356.046 77.2637 356.997 75.3182Z" fill="#F0C69B"/>
<path d="M338.023 111.373C335.874 102.567 326.511 100.007 321.106 94.0634C325.157 98.6903 332.5 99.2755 335.581 105.091C336.931 106.935 337.773 109.101 338.023 111.373Z" fill="#F0C69B"/>
<path d="M363.397 113.97C357.408 118.999 352.809 125.061 348.218 131.782C351.501 127.073 353.43 121.047 358.578 117.573C360.061 116.214 361.675 115.007 363.397 113.97Z" fill="#F0C69B"/>
<path opacity="0.78" d="M404.887 127.139C418.396 93.2616 401.884 54.8472 368.007 41.3383C334.129 27.8293 295.715 44.3414 282.206 78.219C268.697 112.097 285.209 150.511 319.086 164.02C352.964 177.529 391.378 161.017 404.887 127.139Z" fill="url(#paint2_radial_12_52)"/>
</g>
</g>
<defs>
<filter id="filter0_d_12_52" x="221" y="-3" width="236.004" height="229" filterUnits="userSpaceOnUse" color-interpolation-filters="sRGB">
<feFlood flood-opacity="0" result="BackgroundImageFix"/>
<feColorMatrix in="SourceAlpha" type="matrix" values="0 0 0 0 0 0 0 0 0 0 0 0 0 0 0 0 0 0 127 0" result="hardAlpha"/>
<feOffset dx="-8" dy="8"/>
<feGaussianBlur stdDeviation="4"/>
<feComposite in2="hardAlpha" operator="out"/>
<feColorMatrix type="matrix" values="0 0 0 0 0 0 0 0 0 0 0 0 0 0 0 0 0 0 0.25 0"/>
<feBlend mode="normal" in2="BackgroundImageFix" result="effect1_dropShadow_12_52"/>
<feBlend mode="normal" in="SourceGraphic" in2="effect1_dropShadow_12_52" result="shape"/>
</filter>
<radialGradient id="paint0_radial_12_52" cx="0" cy="0" r="1" gradientUnits="userSpaceOnUse" gradientTransform="translate(343.5 103.5) scale(106.5)">
<stop stop-color="white"/>
<stop offset="0.91" stop-color="#C4C4C4"/>
<stop offset="0.97" stop-color="#F8F8F8"/>
<stop offset="0.98" stop-color="#F5F5F5"/>
<stop offset="0.99" stop-color="#C9C9C9"/>
<stop offset="1" stop-color="#A3A3A3"/>
</radialGradient>
<radialGradient id="paint1_radial_12_52" cx="0" cy="0" r="1" gradientUnits="userSpaceOnUse" gradientTransform="translate(343.5 103.5) scale(76.3248)">
<stop stop-color="white"/>
<stop offset="0.76" stop-color="#737373"/>
<stop offset="0.79" stop-color="#777777"/>
<stop offset="0.83" stop-color="#848484"/>
<stop offset="0.87" stop-color="#999999"/>
<stop offset="0.9" stop-color="#B6B6B6"/>
<stop offset="0.92" stop-color="#C4C4C4"/>
<stop offset="0.97" stop-color="#F8F8F8"/>
<stop offset="0.98" stop-color="#F5F5F5"/>
<stop offset="0.99" stop-color="#C9C9C9"/>
<stop offset="1" stop-color="#A3A3A3"/>
</radialGradient>
<radialGradient id="paint2_radial_12_52" cx="0" cy="0" r="1" gradientUnits="userSpaceOnUse" gradientTransform="translate(341.422 105.866) rotate(-0.659999) scale(70.7379)">
<stop offset="0.58" stop-color="#704435" stop-opacity="0"/>
<stop offset="0.76" stop-color="#704435" stop-opacity="0.02"/>
<stop offset="0.83" stop-color="#704435" stop-opacity="0.08"/>
<stop offset="0.88" stop-color="#704435" stop-opacity="0.18"/>
<stop offset="0.92" stop-color="#704435" stop-opacity="0.33"/>
<stop offset="0.95" stop-color="#704435" stop-opacity="0.53"/>
<stop offset="0.98" stop-color="#704435" stop-opacity="0.77"/>
<stop offset="1" stop-color="#704435"/>
</radialGradient>
<clipPath id="clip0_12_52">
<rect width="370" height="207" fill="white"/>
</clipPath>
</defs>
</svg>
