<svg width="370" height="207" viewBox="0 0 370 207" fill="none" xmlns="http://www.w3.org/2000/svg">
<g clip-path="url(#clip0_12_52)">
<rect width="370" height="207" fill="#024B79"/>
<path d="M371 208.545L-0.499991 207L371 -0.499997L371 208.545Z" fill="#024B79"/>
<path d="M46.2555 138.993V130.243L57.5503 145.774C54.7552 147.51 51.41 148.133 48.1774 147.52C44.9448 146.906 42.0605 145.101 40.096 142.461C38.1315 139.822 37.2301 136.54 37.5704 133.268C37.9106 129.995 39.4677 126.97 41.9332 124.791C44.3986 122.612 47.5926 121.438 50.8823 121.503C54.172 121.567 57.3175 122.865 59.6957 125.139C62.0738 127.413 63.5111 130.497 63.7228 133.78C63.9346 137.064 62.9052 140.307 60.8388 142.868M55.0055 134.618V130.243" stroke="white" stroke-linecap="round" stroke-linejoin="round"/>
<path d="M39.6856 154.727V162H38.6771L34.9804 156.666H34.9129V162H33.8156V154.727H34.8312L38.5315 160.068H38.599V154.727H39.6856ZM43.5519 162.11C43.0145 162.11 42.5517 161.995 42.1634 161.766C41.7776 161.534 41.4793 161.208 41.2686 160.789C41.0602 160.368 40.9561 159.874 40.9561 159.308C40.9561 158.75 41.0602 158.257 41.2686 157.831C41.4793 157.405 41.7728 157.072 42.1492 156.833C42.528 156.594 42.9707 156.474 43.4774 156.474C43.7851 156.474 44.0834 156.525 44.3722 156.627C44.6611 156.729 44.9203 156.889 45.1499 157.107C45.3796 157.324 45.5607 157.607 45.6933 157.955C45.8258 158.301 45.8921 158.721 45.8921 159.216V159.592H41.5562V158.797H44.8517C44.8517 158.518 44.7948 158.27 44.6812 158.055C44.5676 157.837 44.4078 157.665 44.2018 157.54C43.9982 157.414 43.7591 157.352 43.4845 157.352C43.1862 157.352 42.9258 157.425 42.7032 157.572C42.483 157.716 42.3126 157.906 42.1919 158.14C42.0735 158.372 42.0143 158.624 42.0143 158.896V159.518C42.0143 159.882 42.0782 160.192 42.2061 160.448C42.3363 160.704 42.5174 160.899 42.7494 161.034C42.9814 161.167 43.2525 161.233 43.5626 161.233C43.7638 161.233 43.9473 161.205 44.113 161.148C44.2787 161.089 44.422 161.001 44.5427 160.885C44.6634 160.769 44.7558 160.626 44.8197 160.455L45.8247 160.636C45.7442 160.932 45.5998 161.192 45.3914 161.414C45.1855 161.634 44.9262 161.806 44.6137 161.929C44.3036 162.05 43.9497 162.11 43.5519 162.11ZM47.7813 156.545L48.9852 158.669L50.1997 156.545H51.3609L49.6599 159.273L51.3751 162H50.2139L48.9852 159.962L47.76 162H46.5953L48.2927 159.273L46.6166 156.545H47.7813ZM54.9972 156.545V157.398H52.0178V156.545H54.9972ZM52.8169 155.239H53.8786V160.398C53.8786 160.604 53.9094 160.759 53.971 160.864C54.0325 160.965 54.1118 161.035 54.2089 161.073C54.3083 161.109 54.416 161.126 54.532 161.126C54.6173 161.126 54.6919 161.121 54.7558 161.109C54.8197 161.097 54.8694 161.087 54.9049 161.08L55.0967 161.957C55.0351 161.981 54.9475 162.005 54.8339 162.028C54.7203 162.054 54.5782 162.069 54.4078 162.071C54.1284 162.076 53.868 162.026 53.6265 161.922C53.385 161.818 53.1897 161.657 53.0406 161.439C52.8914 161.221 52.8169 160.948 52.8169 160.619V155.239ZM61.7302 154.727H62.824V159.884C62.824 160.35 62.7316 160.749 62.547 161.08C62.3647 161.412 62.1078 161.665 61.7764 161.84C61.4449 162.013 61.0567 162.099 60.6116 162.099C60.202 162.099 59.8339 162.025 59.5072 161.876C59.1829 161.727 58.926 161.51 58.7366 161.226C58.5496 160.939 58.4561 160.591 58.4561 160.182H59.5463C59.5463 160.383 59.5924 160.557 59.6847 160.704C59.7794 160.851 59.9085 160.965 60.0718 161.048C60.2375 161.129 60.4269 161.169 60.64 161.169C60.872 161.169 61.0685 161.121 61.2295 161.023C61.3928 160.924 61.5171 160.778 61.6024 160.587C61.6876 160.395 61.7302 160.161 61.7302 159.884V154.727ZM68.4232 157.877L67.4608 158.048C67.4206 157.924 67.3567 157.807 67.2691 157.696C67.1839 157.585 67.0679 157.494 66.9211 157.423C66.7743 157.352 66.5908 157.316 66.3706 157.316C66.07 157.316 65.819 157.384 65.6178 157.518C65.4166 157.651 65.316 157.823 65.316 158.033C65.316 158.216 65.3834 158.362 65.5184 158.474C65.6533 158.585 65.8711 158.676 66.1718 158.747L67.0383 158.946C67.5402 159.062 67.9142 159.241 68.1604 159.482C68.4066 159.724 68.5297 160.037 68.5297 160.423C68.5297 160.75 68.435 161.041 68.2456 161.297C68.0586 161.55 67.797 161.749 67.4608 161.893C67.127 162.038 66.74 162.11 66.2996 162.11C65.6888 162.11 65.1905 161.98 64.8046 161.719C64.4187 161.457 64.182 161.084 64.0944 160.601L65.1206 160.445C65.1846 160.712 65.316 160.915 65.5148 161.052C65.7137 161.187 65.9729 161.254 66.2925 161.254C66.6405 161.254 66.9187 161.182 67.127 161.038C67.3354 160.891 67.4395 160.712 67.4395 160.501C67.4395 160.331 67.3756 160.188 67.2478 160.072C67.1223 159.956 66.9294 159.868 66.6689 159.809L65.7456 159.607C65.2367 159.491 64.8602 159.306 64.6164 159.053C64.3749 158.799 64.2542 158.478 64.2542 158.09C64.2542 157.768 64.3441 157.487 64.5241 157.245C64.704 157.004 64.9526 156.815 65.2698 156.68C65.587 156.543 65.9504 156.474 66.36 156.474C66.9495 156.474 67.4135 156.602 67.752 156.858C68.0906 157.111 68.3143 157.451 68.4232 157.877Z" fill="white"/>
<path d="M91.3663 162H89.0119V154.727H91.4409C92.1535 154.727 92.7654 154.873 93.2768 155.164C93.7882 155.453 94.18 155.868 94.4522 156.411C94.7269 156.95 94.8642 157.598 94.8642 158.353C94.8642 159.111 94.7257 159.762 94.4487 160.306C94.1741 160.851 93.7763 161.27 93.2555 161.563C92.7347 161.854 92.1049 162 91.3663 162ZM90.1092 161.041H91.3059C91.8599 161.041 92.3204 160.937 92.6873 160.729C93.0543 160.518 93.3289 160.214 93.5112 159.816C93.6935 159.416 93.7846 158.928 93.7846 158.353C93.7846 157.782 93.6935 157.298 93.5112 156.901C93.3313 156.503 93.0626 156.201 92.7051 155.995C92.3476 155.789 91.9037 155.686 91.3734 155.686H90.1092V161.041ZM96.1435 156.545H97.2053V162.355C97.2053 162.72 97.139 163.027 97.0064 163.278C96.8762 163.529 96.6821 163.72 96.424 163.85C96.1683 163.98 95.8523 164.045 95.4759 164.045C95.438 164.045 95.4025 164.045 95.3693 164.045C95.3338 164.045 95.2971 164.044 95.2592 164.042V163.129C95.2924 163.129 95.322 163.129 95.348 163.129C95.3717 163.129 95.3989 163.129 95.4297 163.129C95.6806 163.129 95.8617 163.062 95.973 162.927C96.0866 162.794 96.1435 162.601 96.1435 162.348V156.545ZM96.669 155.704C96.4844 155.704 96.3258 155.642 96.1932 155.519C96.063 155.394 95.9979 155.245 95.9979 155.072C95.9979 154.897 96.063 154.747 96.1932 154.624C96.3258 154.499 96.4844 154.436 96.669 154.436C96.8537 154.436 97.0111 154.499 97.1413 154.624C97.2739 154.747 97.3402 154.897 97.3402 155.072C97.3402 155.245 97.2739 155.394 97.1413 155.519C97.0111 155.642 96.8537 155.704 96.669 155.704ZM100.221 162.121C99.8754 162.121 99.5629 162.057 99.2836 161.929C99.0042 161.799 98.7828 161.611 98.6195 161.364C98.4585 161.118 98.378 160.816 98.378 160.459C98.378 160.151 98.4372 159.898 98.5556 159.699C98.6739 159.5 98.8337 159.343 99.035 159.227C99.2362 159.111 99.4611 159.023 99.7097 158.964C99.9583 158.905 100.212 158.86 100.47 158.829C100.796 158.791 101.061 158.76 101.265 158.737C101.469 158.71 101.617 158.669 101.709 158.612C101.801 158.555 101.847 158.463 101.847 158.335V158.31C101.847 158 101.76 157.76 101.585 157.589C101.412 157.419 101.154 157.334 100.811 157.334C100.453 157.334 100.171 157.413 99.9654 157.572C99.7618 157.728 99.6209 157.902 99.5428 158.094L98.5449 157.866C98.6633 157.535 98.8361 157.268 99.0634 157.064C99.293 156.858 99.557 156.709 99.8553 156.616C100.154 156.522 100.467 156.474 100.796 156.474C101.014 156.474 101.245 156.5 101.489 156.553C101.735 156.602 101.965 156.695 102.178 156.83C102.393 156.964 102.57 157.157 102.707 157.408C102.844 157.657 102.913 157.98 102.913 158.378V162H101.876V161.254H101.833C101.765 161.392 101.662 161.527 101.524 161.659C101.387 161.792 101.211 161.902 100.995 161.989C100.78 162.077 100.522 162.121 100.221 162.121ZM100.452 161.268C100.745 161.268 100.996 161.21 101.205 161.094C101.415 160.978 101.575 160.827 101.684 160.64C101.795 160.451 101.851 160.248 101.851 160.033V159.33C101.813 159.367 101.74 159.403 101.631 159.436C101.524 159.467 101.402 159.494 101.265 159.518C101.128 159.539 100.994 159.559 100.864 159.578C100.734 159.595 100.625 159.609 100.537 159.621C100.331 159.647 100.143 159.691 99.9725 159.752C99.8044 159.814 99.6694 159.902 99.5676 160.018C99.4682 160.132 99.4185 160.284 99.4185 160.473C99.4185 160.736 99.5156 160.935 99.7097 161.07C99.9038 161.202 100.151 161.268 100.452 161.268ZM105.389 158.761V162H104.327V156.545H105.346V157.433H105.414C105.539 157.144 105.736 156.912 106.003 156.737C106.273 156.562 106.613 156.474 107.022 156.474C107.394 156.474 107.72 156.553 107.999 156.709C108.278 156.863 108.495 157.092 108.649 157.398C108.803 157.703 108.88 158.081 108.88 158.531V162H107.818V158.658C107.818 158.263 107.715 157.954 107.509 157.732C107.303 157.507 107.02 157.394 106.66 157.394C106.414 157.394 106.195 157.447 106.003 157.554C105.814 157.661 105.663 157.817 105.552 158.023C105.443 158.226 105.389 158.473 105.389 158.761ZM112.591 164.159C112.157 164.159 111.784 164.102 111.472 163.989C111.162 163.875 110.908 163.725 110.712 163.538C110.516 163.351 110.369 163.146 110.272 162.923L111.184 162.547C111.248 162.651 111.333 162.761 111.44 162.877C111.549 162.996 111.696 163.096 111.88 163.179C112.067 163.262 112.308 163.303 112.601 163.303C113.004 163.303 113.336 163.205 113.599 163.009C113.862 162.814 113.993 162.504 113.993 162.078V161.006H113.926C113.862 161.122 113.77 161.251 113.649 161.393C113.53 161.535 113.367 161.658 113.159 161.762C112.95 161.866 112.679 161.918 112.346 161.918C111.915 161.918 111.526 161.818 111.181 161.616C110.837 161.413 110.565 161.113 110.364 160.718C110.165 160.32 110.066 159.831 110.066 159.251C110.066 158.671 110.164 158.174 110.36 157.76C110.559 157.346 110.832 157.028 111.177 156.808C111.523 156.586 111.915 156.474 112.353 156.474C112.691 156.474 112.965 156.531 113.173 156.645C113.381 156.756 113.543 156.886 113.659 157.036C113.778 157.185 113.869 157.316 113.933 157.43H114.011V156.545H115.051V162.121C115.051 162.589 114.943 162.974 114.725 163.275C114.507 163.576 114.212 163.798 113.841 163.942C113.471 164.087 113.055 164.159 112.591 164.159ZM112.58 161.038C112.885 161.038 113.143 160.967 113.354 160.825C113.567 160.68 113.728 160.474 113.837 160.207C113.948 159.937 114.004 159.614 114.004 159.237C114.004 158.87 113.949 158.547 113.841 158.268C113.732 157.988 113.572 157.771 113.361 157.614C113.15 157.456 112.89 157.376 112.58 157.376C112.26 157.376 111.994 157.459 111.781 157.625C111.568 157.788 111.407 158.011 111.298 158.293C111.191 158.574 111.138 158.889 111.138 159.237C111.138 159.595 111.193 159.908 111.301 160.178C111.41 160.448 111.571 160.659 111.784 160.81C112 160.962 112.265 161.038 112.58 161.038ZM118.773 162.11C118.262 162.11 117.815 161.993 117.434 161.759C117.053 161.524 116.757 161.196 116.547 160.775C116.336 160.353 116.23 159.861 116.23 159.298C116.23 158.732 116.336 158.237 116.547 157.813C116.757 157.389 117.053 157.06 117.434 156.826C117.815 156.592 118.262 156.474 118.773 156.474C119.284 156.474 119.731 156.592 120.112 156.826C120.493 157.06 120.789 157.389 121 157.813C121.21 158.237 121.316 158.732 121.316 159.298C121.316 159.861 121.21 160.353 121 160.775C120.789 161.196 120.493 161.524 120.112 161.759C119.731 161.993 119.284 162.11 118.773 162.11ZM118.777 161.219C119.108 161.219 119.383 161.131 119.6 160.956C119.818 160.781 119.979 160.548 120.083 160.256C120.19 159.965 120.243 159.644 120.243 159.294C120.243 158.946 120.19 158.626 120.083 158.335C119.979 158.042 119.818 157.806 119.6 157.629C119.383 157.451 119.108 157.362 118.777 157.362C118.443 157.362 118.166 157.451 117.946 157.629C117.728 157.806 117.566 158.042 117.459 158.335C117.355 158.626 117.303 158.946 117.303 159.294C117.303 159.644 117.355 159.965 117.459 160.256C117.566 160.548 117.728 160.781 117.946 160.956C118.166 161.131 118.443 161.219 118.777 161.219Z" fill="white"/>
<path d="M105.125 128.833V141.229L102.186 141.522C101.635 141.578 101.079 141.518 100.553 141.346C100.026 141.174 99.5419 140.893 99.1309 140.522C98.72 140.15 98.3914 139.697 98.1666 139.191C97.9417 138.685 97.8255 138.137 97.8255 137.583C97.8255 137.03 97.9417 136.482 98.1666 135.976C98.3914 135.47 98.72 135.016 99.1309 134.645C99.5419 134.274 100.026 133.993 100.553 133.821C101.079 133.648 101.635 133.588 102.186 133.644L105.125 133.938M110.958 128.833V128.848M110.958 133.208V141.355C110.958 142.674 110.433 143.942 109.5 144.875M92 127.375C92 126.215 92.4609 125.102 93.2814 124.281C94.1019 123.461 95.2147 123 96.375 123H113.875C115.035 123 116.148 123.461 116.969 124.281C117.789 125.102 118.25 126.215 118.25 127.375V144.875C118.25 146.035 117.789 147.148 116.969 147.969C116.148 148.789 115.035 149.25 113.875 149.25H96.375C95.2147 149.25 94.1019 148.789 93.2814 147.969C92.4609 147.148 92 146.035 92 144.875V127.375Z" stroke="white" stroke-linecap="round" stroke-linejoin="round"/>
<path d="M34.5327 78V60.5455H46.294V63.5881H38.223V67.7472H45.6889V70.7898H38.223V74.9574H46.3281V78H34.5327ZM49.1598 78V64.9091H52.7905V78H49.1598ZM50.9837 63.2216C50.4439 63.2216 49.9808 63.0426 49.5945 62.6847C49.2138 62.321 49.0234 61.8864 49.0234 61.3807C49.0234 60.8807 49.2138 60.4517 49.5945 60.0938C49.9808 59.7301 50.4439 59.5483 50.9837 59.5483C51.5234 59.5483 51.9837 59.7301 52.3643 60.0938C52.7507 60.4517 52.9439 60.8807 52.9439 61.3807C52.9439 61.8864 52.7507 62.321 52.3643 62.6847C51.9837 63.0426 51.5234 63.2216 50.9837 63.2216ZM61.5966 83.1818C60.4205 83.1818 59.4119 83.0199 58.571 82.696C57.7358 82.3778 57.071 81.9432 56.5767 81.392C56.0824 80.8409 55.7614 80.2216 55.6136 79.5341L58.9716 79.0824C59.0739 79.3438 59.2358 79.5881 59.4574 79.8153C59.679 80.0426 59.9716 80.2244 60.3352 80.3608C60.7045 80.5028 61.1534 80.5739 61.6818 80.5739C62.4716 80.5739 63.1222 80.3807 63.6335 79.9943C64.1506 79.6136 64.4091 78.9744 64.4091 78.0767V75.6818H64.2557C64.0966 76.0455 63.858 76.3892 63.5398 76.7131C63.2216 77.0369 62.8125 77.3011 62.3125 77.5057C61.8125 77.7102 61.2159 77.8125 60.5227 77.8125C59.5398 77.8125 58.6449 77.5852 57.8381 77.1307C57.0369 76.6705 56.3977 75.9687 55.9205 75.0256C55.4489 74.0767 55.2131 72.8778 55.2131 71.429C55.2131 69.946 55.4545 68.7074 55.9375 67.7131C56.4205 66.7187 57.0625 65.9744 57.8636 65.4801C58.6705 64.9858 59.554 64.7386 60.5142 64.7386C61.2472 64.7386 61.8608 64.8636 62.3551 65.1136C62.8494 65.358 63.2472 65.6648 63.5483 66.0341C63.8551 66.3977 64.0909 66.7557 64.2557 67.108H64.392V64.9091H67.9972V78.1278C67.9972 79.2415 67.7244 80.1733 67.179 80.9233C66.6335 81.6733 65.8778 82.2358 64.9119 82.6108C63.9517 82.9915 62.8466 83.1818 61.5966 83.1818ZM61.6733 75.0852C62.2585 75.0852 62.7528 74.9403 63.1562 74.6506C63.5653 74.3551 63.8778 73.9347 64.0938 73.3892C64.3153 72.8381 64.4261 72.179 64.4261 71.4119C64.4261 70.6449 64.3182 69.9801 64.1023 69.4176C63.8864 68.8494 63.5739 68.4091 63.1648 68.0966C62.7557 67.7841 62.2585 67.6278 61.6733 67.6278C61.0767 67.6278 60.5739 67.7898 60.1648 68.1136C59.7557 68.4318 59.446 68.875 59.2358 69.4432C59.0256 70.0114 58.9205 70.6676 58.9205 71.4119C58.9205 72.1676 59.0256 72.821 59.2358 73.3722C59.4517 73.9176 59.7614 74.3409 60.1648 74.642C60.5739 74.9375 61.0767 75.0852 61.6733 75.0852ZM74.517 70.4318V78H70.8864V60.5455H74.4148V67.2188H74.5682C74.8636 66.446 75.3409 65.8409 76 65.4034C76.6591 64.9602 77.4858 64.7386 78.4801 64.7386C79.3892 64.7386 80.1818 64.9375 80.858 65.3352C81.5398 65.7273 82.0682 66.2926 82.4432 67.0312C82.8239 67.7642 83.0114 68.642 83.0057 69.6648V78H79.375V70.3125C79.3807 69.5057 79.1761 68.8778 78.7614 68.429C78.3523 67.9801 77.7784 67.7557 77.0398 67.7557C76.5455 67.7557 76.108 67.8608 75.7273 68.071C75.3523 68.2812 75.0568 68.5881 74.8409 68.9915C74.6307 69.3892 74.5227 69.8693 74.517 70.4318ZM92.826 64.9091V67.6364H84.9425V64.9091H92.826ZM86.7322 61.7727H90.3629V73.9773C90.3629 74.3125 90.4141 74.5739 90.5163 74.7614C90.6186 74.9432 90.7607 75.071 90.9425 75.1449C91.13 75.2187 91.3459 75.2557 91.5902 75.2557C91.7607 75.2557 91.9311 75.2415 92.1016 75.2131C92.272 75.179 92.4027 75.1534 92.4936 75.1364L93.0646 77.8381C92.8828 77.8949 92.6271 77.9602 92.2976 78.0341C91.968 78.1136 91.5675 78.1619 91.0959 78.179C90.2209 78.2131 89.4538 78.0966 88.7947 77.8295C88.1413 77.5625 87.6328 77.1477 87.2692 76.5852C86.9055 76.0227 86.7266 75.3125 86.7322 74.4545V61.7727ZM116.854 69.2727C116.854 71.1761 116.493 72.7955 115.771 74.1307C115.055 75.4659 114.078 76.4858 112.839 77.1903C111.607 77.8892 110.22 78.2386 108.68 78.2386C107.129 78.2386 105.737 77.8864 104.504 77.1818C103.271 76.4773 102.297 75.4574 101.581 74.1222C100.865 72.7869 100.507 71.1705 100.507 69.2727C100.507 67.3693 100.865 65.75 101.581 64.4148C102.297 63.0795 103.271 62.0625 104.504 61.3636C105.737 60.6591 107.129 60.3068 108.68 60.3068C110.22 60.3068 111.607 60.6591 112.839 61.3636C114.078 62.0625 115.055 63.0795 115.771 64.4148C116.493 65.75 116.854 67.3693 116.854 69.2727ZM113.112 69.2727C113.112 68.0398 112.928 67 112.558 66.1534C112.195 65.3068 111.68 64.6648 111.016 64.2273C110.351 63.7898 109.572 63.571 108.68 63.571C107.788 63.571 107.01 63.7898 106.345 64.2273C105.68 64.6648 105.163 65.3068 104.794 66.1534C104.43 67 104.249 68.0398 104.249 69.2727C104.249 70.5057 104.43 71.5455 104.794 72.392C105.163 73.2386 105.68 73.8807 106.345 74.3182C107.01 74.7557 107.788 74.9744 108.68 74.9744C109.572 74.9744 110.351 74.7557 111.016 74.3182C111.68 73.8807 112.195 73.2386 112.558 72.392C112.928 71.5455 113.112 70.5057 113.112 69.2727ZM140.543 66.6562H136.81C136.741 66.1733 136.602 65.7443 136.392 65.3693C136.182 64.9886 135.912 64.6648 135.582 64.3977C135.253 64.1307 134.872 63.9261 134.44 63.7841C134.014 63.642 133.551 63.571 133.051 63.571C132.148 63.571 131.361 63.7955 130.69 64.2443C130.02 64.6875 129.5 65.3352 129.131 66.1875C128.761 67.0341 128.577 68.0625 128.577 69.2727C128.577 70.517 128.761 71.5625 129.131 72.4091C129.506 73.2557 130.028 73.8949 130.699 74.3267C131.369 74.7585 132.145 74.9744 133.026 74.9744C133.52 74.9744 133.977 74.9091 134.398 74.7784C134.824 74.6477 135.202 74.4574 135.531 74.2074C135.861 73.9517 136.134 73.642 136.349 73.2784C136.571 72.9148 136.724 72.5 136.81 72.0341L140.543 72.0511C140.446 72.8523 140.205 73.625 139.818 74.3693C139.438 75.108 138.923 75.7699 138.276 76.3551C137.634 76.9347 136.866 77.3949 135.974 77.7358C135.088 78.071 134.085 78.2386 132.966 78.2386C131.409 78.2386 130.017 77.8864 128.79 77.1818C127.568 76.4773 126.602 75.4574 125.892 74.1222C125.188 72.7869 124.835 71.1705 124.835 69.2727C124.835 67.3693 125.193 65.75 125.909 64.4148C126.625 63.0795 127.597 62.0625 128.824 61.3636C130.051 60.6591 131.432 60.3068 132.966 60.3068C133.977 60.3068 134.915 60.4489 135.778 60.733C136.648 61.017 137.418 61.4318 138.088 61.9773C138.759 62.517 139.304 63.179 139.724 63.9631C140.151 64.7472 140.423 65.6449 140.543 66.6562ZM146.751 60.5455V78H143.121V60.5455H146.751ZM155.575 78.2557C154.251 78.2557 153.106 77.9744 152.14 77.4119C151.18 76.8437 150.438 76.054 149.915 75.0426C149.393 74.0256 149.131 72.8466 149.131 71.5057C149.131 70.1534 149.393 68.9716 149.915 67.9602C150.438 66.9432 151.18 66.1534 152.14 65.5909C153.106 65.0227 154.251 64.7386 155.575 64.7386C156.898 64.7386 158.04 65.0227 159.001 65.5909C159.967 66.1534 160.711 66.9432 161.234 67.9602C161.756 68.9716 162.018 70.1534 162.018 71.5057C162.018 72.8466 161.756 74.0256 161.234 75.0426C160.711 76.054 159.967 76.8437 159.001 77.4119C158.04 77.9744 156.898 78.2557 155.575 78.2557ZM155.592 75.4432C156.194 75.4432 156.697 75.2727 157.1 74.9318C157.504 74.5852 157.808 74.1136 158.012 73.517C158.222 72.9205 158.327 72.2415 158.327 71.4801C158.327 70.7188 158.222 70.0398 158.012 69.4432C157.808 68.8466 157.504 68.375 157.1 68.0284C156.697 67.6818 156.194 67.5085 155.592 67.5085C154.984 67.5085 154.472 67.6818 154.058 68.0284C153.648 68.375 153.339 68.8466 153.129 69.4432C152.924 70.0398 152.822 70.7188 152.822 71.4801C152.822 72.2415 152.924 72.9205 153.129 73.517C153.339 74.1136 153.648 74.5852 154.058 74.9318C154.472 75.2727 154.984 75.4432 155.592 75.4432ZM170.293 78.2557C168.952 78.2557 167.799 77.9716 166.833 77.4034C165.873 76.8295 165.134 76.0341 164.617 75.017C164.106 74 163.85 72.8295 163.85 71.5057C163.85 70.1648 164.109 68.9886 164.626 67.9773C165.148 66.9602 165.89 66.1676 166.85 65.5994C167.81 65.0256 168.952 64.7386 170.276 64.7386C171.418 64.7386 172.418 64.946 173.276 65.3608C174.134 65.7756 174.813 66.358 175.313 67.108C175.813 67.858 176.089 68.7386 176.14 69.75H172.714C172.617 69.0966 172.362 68.571 171.947 68.1733C171.538 67.7699 171.001 67.5682 170.336 67.5682C169.773 67.5682 169.282 67.7216 168.862 68.0284C168.447 68.3295 168.123 68.7699 167.89 69.3494C167.657 69.929 167.54 70.6307 167.54 71.4545C167.54 72.2898 167.654 73 167.881 73.5852C168.114 74.1705 168.441 74.6165 168.862 74.9233C169.282 75.2301 169.773 75.3835 170.336 75.3835C170.751 75.3835 171.123 75.2983 171.452 75.1278C171.788 74.9574 172.063 74.7102 172.279 74.3864C172.501 74.0568 172.646 73.6619 172.714 73.2017H176.14C176.083 74.2017 175.81 75.0824 175.322 75.8438C174.839 76.5994 174.171 77.1903 173.319 77.6165C172.467 78.0426 171.458 78.2557 170.293 78.2557ZM181.754 74.233L181.763 69.8778H182.291L186.484 64.9091H190.652L185.018 71.4886H184.158L181.754 74.233ZM178.464 78V60.5455H182.095V78H178.464ZM186.646 78L182.794 72.2983L185.214 69.733L190.899 78H186.646Z" fill="white"/>
<path d="M38.7188 93.5653C38.6733 93.1619 38.4858 92.8494 38.1562 92.6278C37.8267 92.4034 37.4119 92.2912 36.9119 92.2912C36.554 92.2912 36.2443 92.348 35.983 92.4616C35.7216 92.5724 35.5185 92.7259 35.3736 92.9219C35.2315 93.1151 35.1605 93.3352 35.1605 93.5824C35.1605 93.7898 35.2088 93.9687 35.3054 94.1193C35.4048 94.2699 35.5341 94.3963 35.6932 94.4986C35.8551 94.598 36.0284 94.6818 36.2131 94.75C36.3977 94.8153 36.5753 94.8693 36.7457 94.9119L37.598 95.1335C37.8764 95.2017 38.1619 95.294 38.4545 95.4105C38.7472 95.527 39.0185 95.6804 39.2685 95.8707C39.5185 96.0611 39.7202 96.2969 39.8736 96.5781C40.0298 96.8594 40.108 97.196 40.108 97.5881C40.108 98.0824 39.9801 98.5213 39.7244 98.9048C39.4716 99.2884 39.1037 99.5909 38.6207 99.8125C38.1406 100.034 37.5597 100.145 36.8778 100.145C36.2244 100.145 35.6591 100.041 35.1818 99.8338C34.7045 99.6264 34.331 99.3324 34.0611 98.9517C33.7912 98.5682 33.642 98.1136 33.6136 97.5881H34.9347C34.9602 97.9034 35.0625 98.1662 35.2415 98.3764C35.4233 98.5838 35.6548 98.7386 35.9361 98.8409C36.2202 98.9403 36.5312 98.9901 36.8693 98.9901C37.2415 98.9901 37.5724 98.9318 37.8622 98.8153C38.1548 98.696 38.3849 98.5312 38.5526 98.321C38.7202 98.108 38.804 97.8594 38.804 97.5753C38.804 97.3168 38.7301 97.1051 38.5824 96.9403C38.4375 96.7756 38.2401 96.6392 37.9901 96.5312C37.7429 96.4233 37.4631 96.3281 37.1506 96.2457L36.1193 95.9645C35.4205 95.7741 34.8665 95.4943 34.4574 95.125C34.0511 94.7557 33.848 94.267 33.848 93.6591C33.848 93.1562 33.9844 92.7173 34.2571 92.3423C34.5298 91.9673 34.8991 91.6761 35.3651 91.4688C35.831 91.2585 36.3565 91.1534 36.9418 91.1534C37.5327 91.1534 38.054 91.2571 38.5057 91.4645C38.9602 91.6719 39.3182 91.9574 39.5795 92.321C39.8409 92.6818 39.9773 93.0966 39.9886 93.5653H38.7188ZM41.5792 100V93.4545H42.8533V100H41.5792ZM42.2227 92.4446C42.0011 92.4446 41.8107 92.3707 41.6516 92.223C41.4954 92.0724 41.4173 91.8935 41.4173 91.6861C41.4173 91.4759 41.4954 91.2969 41.6516 91.1491C41.8107 90.9986 42.0011 90.9233 42.2227 90.9233C42.4442 90.9233 42.6332 90.9986 42.7894 91.1491C42.9485 91.2969 43.0281 91.4759 43.0281 91.6861C43.0281 91.8935 42.9485 92.0724 42.7894 92.223C42.6332 92.3707 42.4442 92.4446 42.2227 92.4446ZM44.5675 100V93.4545H45.7905V94.5199H45.8714C46.0078 94.1591 46.2308 93.8778 46.5405 93.6761C46.8501 93.4716 47.2209 93.3693 47.6527 93.3693C48.0902 93.3693 48.4567 93.4716 48.7521 93.6761C49.0504 93.8807 49.2706 94.1619 49.4126 94.5199H49.4808C49.6371 94.1705 49.8857 93.892 50.2266 93.6847C50.5675 93.4744 50.9737 93.3693 51.4453 93.3693C52.0391 93.3693 52.5234 93.5554 52.8984 93.9276C53.2763 94.2997 53.4652 94.8608 53.4652 95.6108V100H52.1911V95.7301C52.1911 95.2869 52.0703 94.9659 51.8288 94.767C51.5874 94.5682 51.299 94.4688 50.9638 94.4688C50.549 94.4688 50.2266 94.5966 49.9964 94.8523C49.7663 95.1051 49.6513 95.4304 49.6513 95.8281V100H48.3814V95.6491C48.3814 95.294 48.2706 95.0085 48.049 94.7926C47.8274 94.5767 47.5391 94.4688 47.1839 94.4688C46.9425 94.4688 46.7195 94.5327 46.5149 94.6605C46.3132 94.7855 46.1499 94.9602 46.0249 95.1847C45.9027 95.4091 45.8416 95.669 45.8416 95.9645V100H44.5675ZM55.1729 102.455V93.4545H56.4173V94.5156H56.5238C56.5977 94.3793 56.7042 94.2216 56.8434 94.0426C56.9826 93.8636 57.1758 93.7074 57.4229 93.5739C57.6701 93.4375 57.9968 93.3693 58.4031 93.3693C58.9315 93.3693 59.4031 93.5028 59.8178 93.7699C60.2326 94.0369 60.5579 94.4219 60.7937 94.9247C61.0323 95.4276 61.1516 96.0327 61.1516 96.7401C61.1516 97.4474 61.0337 98.054 60.7979 98.5597C60.5621 99.0625 60.2383 99.4503 59.8263 99.723C59.4144 99.9929 58.9442 100.128 58.4158 100.128C58.0181 100.128 57.6928 100.061 57.44 99.9276C57.19 99.794 56.994 99.6378 56.8519 99.4588C56.7099 99.2798 56.6005 99.1207 56.5238 98.9815H56.4471V102.455H55.1729ZM56.4215 96.7273C56.4215 97.1875 56.4883 97.5909 56.6218 97.9375C56.7553 98.2841 56.9485 98.5554 57.2013 98.7514C57.4542 98.9446 57.7638 99.0412 58.1303 99.0412C58.511 99.0412 58.8292 98.9403 59.0849 98.7386C59.3406 98.5341 59.5337 98.2571 59.6644 97.9077C59.7979 97.5582 59.8647 97.1648 59.8647 96.7273C59.8647 96.2955 59.7994 95.9077 59.6687 95.5639C59.5408 95.2202 59.3477 94.9489 59.0891 94.75C58.8335 94.5511 58.5138 94.4517 58.1303 94.4517C57.761 94.4517 57.4485 94.5469 57.1928 94.7372C56.94 94.9276 56.7482 95.1932 56.6175 95.5341C56.4869 95.875 56.4215 96.2727 56.4215 96.7273ZM63.8533 91.2727V100H62.5792V91.2727H63.8533ZM68.3885 100.132C67.7436 100.132 67.1882 99.9943 66.7223 99.7188C66.2592 99.4403 65.9013 99.0497 65.6484 98.5469C65.3984 98.0412 65.2734 97.4489 65.2734 96.7699C65.2734 96.0994 65.3984 95.5085 65.6484 94.9972C65.9013 94.4858 66.2536 94.0866 66.7053 93.7997C67.1598 93.5128 67.6911 93.3693 68.299 93.3693C68.6683 93.3693 69.0263 93.4304 69.3729 93.5526C69.7195 93.6747 70.0305 93.8665 70.3061 94.1278C70.5817 94.3892 70.799 94.7287 70.9581 95.1463C71.1172 95.5611 71.1967 96.0653 71.1967 96.6591V97.1108H65.9936V96.1562H69.9482C69.9482 95.821 69.88 95.5241 69.7436 95.2656C69.6072 95.0043 69.4155 94.7983 69.1683 94.6477C68.924 94.4972 68.6371 94.4219 68.3075 94.4219C67.9496 94.4219 67.6371 94.5099 67.37 94.6861C67.1058 94.8594 66.9013 95.0866 66.7564 95.3679C66.6143 95.6463 66.5433 95.9489 66.5433 96.2756V97.0213C66.5433 97.4588 66.62 97.831 66.7734 98.1378C66.9297 98.4446 67.147 98.679 67.4254 98.8409C67.7038 99 68.0291 99.0795 68.4013 99.0795C68.6428 99.0795 68.8629 99.0455 69.0618 98.9773C69.2607 98.9062 69.4325 98.8011 69.5774 98.6619C69.7223 98.5227 69.8331 98.3509 69.9098 98.1463L71.1158 98.3636C71.0192 98.7187 70.8459 99.0298 70.5959 99.2969C70.3487 99.5611 70.0376 99.767 69.6626 99.9148C69.2905 100.06 68.8658 100.132 68.3885 100.132ZM78.5433 100.132C77.9098 100.132 77.3643 99.9886 76.907 99.7017C76.4524 99.4119 76.103 99.0128 75.8587 98.5043C75.6143 97.9957 75.4922 97.4134 75.4922 96.7571C75.4922 96.0923 75.6172 95.5057 75.8672 94.9972C76.1172 94.4858 76.4695 94.0866 76.924 93.7997C77.3786 93.5128 77.9141 93.3693 78.5305 93.3693C79.0277 93.3693 79.4709 93.4616 79.8601 93.6463C80.2493 93.8281 80.5632 94.0838 80.8018 94.4134C81.0433 94.7429 81.1868 95.1278 81.2322 95.5682H79.9922C79.924 95.2614 79.7678 94.9972 79.5234 94.7756C79.282 94.554 78.9581 94.4432 78.5518 94.4432C78.1967 94.4432 77.8857 94.5369 77.6186 94.7244C77.3544 94.9091 77.1484 95.1733 77.0007 95.517C76.853 95.858 76.7791 96.2614 76.7791 96.7273C76.7791 97.2045 76.8516 97.6165 76.9964 97.9631C77.1413 98.3097 77.3459 98.5781 77.6101 98.7685C77.8771 98.9588 78.1911 99.054 78.5518 99.054C78.7933 99.054 79.0121 99.0099 79.2081 98.9219C79.407 98.831 79.5732 98.7017 79.7067 98.5341C79.843 98.3665 79.9382 98.1648 79.9922 97.929H81.2322C81.1868 98.3523 81.049 98.7301 80.8189 99.0625C80.5888 99.3949 80.2805 99.6562 79.8942 99.8466C79.5107 100.037 79.0604 100.132 78.5433 100.132ZM84.4996 100.145C84.0849 100.145 83.7099 100.068 83.3746 99.9148C83.0394 99.7585 82.7738 99.5327 82.5778 99.2372C82.3846 98.9418 82.288 98.5795 82.288 98.1506C82.288 97.7812 82.359 97.4773 82.5011 97.2386C82.6431 97 82.8349 96.8111 83.0763 96.6719C83.3178 96.5327 83.5877 96.4276 83.886 96.3565C84.1843 96.2855 84.4883 96.2315 84.7979 96.1946C85.19 96.1491 85.5082 96.1122 85.7525 96.0838C85.9968 96.0526 86.1744 96.0028 86.2852 95.9347C86.396 95.8665 86.4513 95.7557 86.4513 95.6023V95.5724C86.4513 95.2003 86.3462 94.9119 86.136 94.7074C85.9286 94.5028 85.619 94.4006 85.207 94.4006C84.7781 94.4006 84.44 94.4957 84.1928 94.6861C83.9485 94.8736 83.7795 95.0824 83.6857 95.3125L82.4883 95.0398C82.6303 94.642 82.8377 94.321 83.1104 94.0767C83.386 93.8295 83.7028 93.6506 84.0607 93.5398C84.4187 93.4261 84.7951 93.3693 85.19 93.3693C85.4513 93.3693 85.7283 93.4006 86.021 93.4631C86.3164 93.5227 86.592 93.6335 86.8477 93.7955C87.1062 93.9574 87.3178 94.1889 87.4826 94.4901C87.6474 94.7884 87.7298 95.1761 87.7298 95.6534V100H86.4854V99.1051H86.4343C86.3519 99.2699 86.2283 99.4318 86.0636 99.5909C85.8988 99.75 85.6871 99.8821 85.4286 99.9872C85.1701 100.092 84.8604 100.145 84.4996 100.145ZM84.7766 99.1222C85.1289 99.1222 85.43 99.0526 85.68 98.9134C85.9329 98.7741 86.1246 98.5923 86.2553 98.3679C86.3888 98.1406 86.4556 97.8977 86.4556 97.6392V96.7955C86.4102 96.8409 86.3221 96.8835 86.1914 96.9233C86.0636 96.9602 85.9173 96.9929 85.7525 97.0213C85.5877 97.0469 85.4272 97.071 85.271 97.0938C85.1147 97.1136 84.984 97.1307 84.8789 97.1449C84.6317 97.1761 84.4059 97.2287 84.2013 97.3026C83.9996 97.3764 83.8377 97.483 83.7156 97.6222C83.5962 97.7585 83.5366 97.9403 83.5366 98.1676C83.5366 98.483 83.6531 98.7216 83.886 98.8835C84.119 99.0426 84.4158 99.1222 84.7766 99.1222ZM92.5419 93.4545V94.4773H88.843V93.4545H92.5419ZM89.8572 100V92.696C89.8572 92.2869 89.9467 91.9474 90.1257 91.6776C90.3047 91.4048 90.5419 91.2017 90.8374 91.0682C91.1328 90.9318 91.4538 90.8636 91.8004 90.8636C92.0561 90.8636 92.2749 90.8849 92.4567 90.9276C92.6385 90.9673 92.7734 91.0043 92.8615 91.0384L92.5632 92.0696C92.5036 92.0526 92.4268 92.0327 92.3331 92.0099C92.2393 91.9844 92.1257 91.9716 91.9922 91.9716C91.6825 91.9716 91.4609 92.0483 91.3274 92.2017C91.1967 92.3551 91.1314 92.5767 91.1314 92.8665V100H89.8572ZM96.4197 100.132C95.7749 100.132 95.2195 99.9943 94.7536 99.7188C94.2905 99.4403 93.9325 99.0497 93.6797 98.5469C93.4297 98.0412 93.3047 97.4489 93.3047 96.7699C93.3047 96.0994 93.4297 95.5085 93.6797 94.9972C93.9325 94.4858 94.2848 94.0866 94.7365 93.7997C95.1911 93.5128 95.7223 93.3693 96.3303 93.3693C96.6996 93.3693 97.0575 93.4304 97.4041 93.5526C97.7507 93.6747 98.0618 93.8665 98.3374 94.1278C98.6129 94.3892 98.8303 94.7287 98.9893 95.1463C99.1484 95.5611 99.228 96.0653 99.228 96.6591V97.1108H94.0249V96.1562H97.9794C97.9794 95.821 97.9112 95.5241 97.7749 95.2656C97.6385 95.0043 97.4467 94.7983 97.1996 94.6477C96.9553 94.4972 96.6683 94.4219 96.3388 94.4219C95.9808 94.4219 95.6683 94.5099 95.4013 94.6861C95.1371 94.8594 94.9325 95.0866 94.7876 95.3679C94.6456 95.6463 94.5746 95.9489 94.5746 96.2756V97.0213C94.5746 97.4588 94.6513 97.831 94.8047 98.1378C94.9609 98.4446 95.1783 98.679 95.4567 98.8409C95.7351 99 96.0604 99.0795 96.4325 99.0795C96.674 99.0795 96.8942 99.0455 97.093 98.9773C97.2919 98.9062 97.4638 98.8011 97.6087 98.6619C97.7536 98.5227 97.8643 98.3509 97.9411 98.1463L99.147 98.3636C99.0504 98.7187 98.8771 99.0298 98.6271 99.2969C98.38 99.5611 98.0689 99.767 97.6939 99.9148C97.3217 100.06 96.897 100.132 96.4197 100.132ZM103.817 100V93.4545H105.04V94.5199H105.121C105.258 94.1591 105.481 93.8778 105.79 93.6761C106.1 93.4716 106.471 93.3693 106.903 93.3693C107.34 93.3693 107.707 93.4716 108.002 93.6761C108.3 93.8807 108.521 94.1619 108.663 94.5199H108.731C108.887 94.1705 109.136 93.892 109.477 93.6847C109.817 93.4744 110.224 93.3693 110.695 93.3693C111.289 93.3693 111.773 93.5554 112.148 93.9276C112.526 94.2997 112.715 94.8608 112.715 95.6108V100H111.441V95.7301C111.441 95.2869 111.32 94.9659 111.079 94.767C110.837 94.5682 110.549 94.4688 110.214 94.4688C109.799 94.4688 109.477 94.5966 109.246 94.8523C109.016 95.1051 108.901 95.4304 108.901 95.8281V100H107.631V95.6491C107.631 95.294 107.521 95.0085 107.299 94.7926C107.077 94.5767 106.789 94.4688 106.434 94.4688C106.192 94.4688 105.969 94.5327 105.765 94.6605C105.563 94.7855 105.4 94.9602 105.275 95.1847C105.153 95.4091 105.092 95.669 105.092 95.9645V100H103.817ZM117.244 100.132C116.599 100.132 116.044 99.9943 115.578 99.7188C115.115 99.4403 114.757 99.0497 114.504 98.5469C114.254 98.0412 114.129 97.4489 114.129 96.7699C114.129 96.0994 114.254 95.5085 114.504 94.9972C114.757 94.4858 115.109 94.0866 115.561 93.7997C116.015 93.5128 116.547 93.3693 117.154 93.3693C117.524 93.3693 117.882 93.4304 118.228 93.5526C118.575 93.6747 118.886 93.8665 119.162 94.1278C119.437 94.3892 119.654 94.7287 119.814 95.1463C119.973 95.5611 120.052 96.0653 120.052 96.6591V97.1108H114.849V96.1562H118.804C118.804 95.821 118.735 95.5241 118.599 95.2656C118.463 95.0043 118.271 94.7983 118.024 94.6477C117.779 94.4972 117.493 94.4219 117.163 94.4219C116.805 94.4219 116.493 94.5099 116.225 94.6861C115.961 94.8594 115.757 95.0866 115.612 95.3679C115.47 95.6463 115.399 95.9489 115.399 96.2756V97.0213C115.399 97.4588 115.475 97.831 115.629 98.1378C115.785 98.4446 116.002 98.679 116.281 98.8409C116.559 99 116.885 99.0795 117.257 99.0795C117.498 99.0795 117.718 99.0455 117.917 98.9773C118.116 98.9062 118.288 98.8011 118.433 98.6619C118.578 98.5227 118.689 98.3509 118.765 98.1463L119.971 98.3636C119.875 98.7187 119.701 99.0298 119.451 99.2969C119.204 99.5611 118.893 99.767 118.518 99.9148C118.146 100.06 117.721 100.132 117.244 100.132ZM122.74 96.1136V100H121.466V93.4545H122.689V94.5199H122.77C122.92 94.1733 123.156 93.8949 123.477 93.6847C123.801 93.4744 124.209 93.3693 124.7 93.3693C125.146 93.3693 125.537 93.4631 125.872 93.6506C126.207 93.8352 126.467 94.1108 126.652 94.4773C126.837 94.8437 126.929 95.2969 126.929 95.8366V100H125.655V95.9901C125.655 95.5156 125.531 95.1449 125.284 94.8778C125.037 94.608 124.697 94.473 124.266 94.473C123.97 94.473 123.707 94.5369 123.477 94.6648C123.25 94.7926 123.07 94.9801 122.936 95.2273C122.805 95.4716 122.74 95.767 122.74 96.1136ZM132.784 97.2855V93.4545H134.062V100H132.81V98.8665H132.741C132.591 99.2159 132.349 99.5071 132.017 99.7401C131.688 99.9702 131.277 100.085 130.786 100.085C130.365 100.085 129.993 99.9929 129.669 99.8082C129.348 99.6207 129.095 99.3438 128.911 98.9773C128.729 98.6108 128.638 98.1577 128.638 97.6179V93.4545H129.912V97.4645C129.912 97.9105 130.036 98.2656 130.283 98.5298C130.53 98.794 130.851 98.9261 131.246 98.9261C131.484 98.9261 131.722 98.8665 131.957 98.7472C132.196 98.6278 132.393 98.4474 132.55 98.206C132.709 97.9645 132.787 97.6577 132.784 97.2855Z" fill="white"/>
<g filter="url(#filter0_d_12_52)">
<path d="M343.5 210C402.318 210 450 162.318 450 103.5C450 44.6817 402.318 -3 343.5 -3C284.682 -3 237 44.6817 237 103.5C237 162.318 284.682 210 343.5 210Z" fill="url(#paint0_radial_12_52)"/>
<g style="mix-blend-mode:multiply">
<path d="M343.5 197.427C395.374 197.427 437.427 155.374 437.427 103.5C437.427 51.6255 395.374 9.57298 343.5 9.57298C291.626 9.57298 249.573 51.6255 249.573 103.5C249.573 155.374 291.626 197.427 343.5 197.427Z" fill="#035E97"/>
</g>
<path d="M343.5 179.825C385.653 179.825 419.825 145.653 419.825 103.5C419.825 61.347 385.653 27.1752 343.5 27.1752C301.347 27.1752 267.175 61.347 267.175 103.5C267.175 145.653 301.347 179.825 343.5 179.825Z" fill="url(#paint1_radial_12_52)"/>
<path d="M404.887 127.139C418.396 93.2616 401.884 54.8472 368.007 41.3383C334.129 27.8293 295.715 44.3414 282.206 78.219C268.697 112.097 285.209 150.511 319.086 164.02C352.964 177.529 391.378 161.017 404.887 127.139Z" fill="#ECB478"/>
<path d="M285.107 115.716C285.107 123.379 293.72 137.305 300.03 141.658C303.056 143.743 308.643 144.273 311.139 146.971C312.575 148.516 313.617 150.409 315.117 151.89C316.617 153.371 319.323 153.893 320.924 155.548C329.153 164.024 341.214 167.087 352.799 168.102C349.984 168.492 347.147 168.706 344.305 168.742C333.417 168.86 322.669 166.285 313.017 161.247C303.364 156.209 295.106 148.864 288.977 139.865C282.847 130.866 279.036 120.492 277.882 109.665C276.728 98.8382 278.268 87.894 282.363 77.8054C278.239 92.8747 285.043 95.8465 285.107 115.716Z" fill="#E7A661"/>
<path d="M311.313 155.301C311.244 155.105 311.119 154.934 310.952 154.809C310.786 154.685 310.587 154.612 310.38 154.601C310.172 154.589 309.966 154.639 309.787 154.745C309.609 154.85 309.465 155.006 309.375 155.193C309.284 155.38 309.251 155.59 309.28 155.795C309.309 156.001 309.397 156.194 309.535 156.349C309.673 156.504 309.854 156.615 310.055 156.668C310.256 156.72 310.468 156.712 310.664 156.645C310.795 156.6 310.916 156.529 311.02 156.437C311.124 156.345 311.208 156.233 311.268 156.108C311.329 155.983 311.364 155.847 311.371 155.709C311.379 155.57 311.359 155.432 311.313 155.301Z" fill="#D38A59"/>
<path d="M304.573 152.758C304.562 152.723 304.544 152.69 304.519 152.662C304.495 152.634 304.465 152.612 304.432 152.595C304.399 152.579 304.363 152.57 304.326 152.568C304.289 152.566 304.252 152.572 304.217 152.585C304.157 152.616 304.11 152.668 304.084 152.731C304.059 152.794 304.057 152.864 304.08 152.928C304.102 152.993 304.146 153.047 304.205 153.081C304.264 153.115 304.333 153.127 304.4 153.114C304.435 153.103 304.468 153.085 304.496 153.06C304.523 153.036 304.546 153.007 304.562 152.973C304.579 152.94 304.588 152.904 304.59 152.867C304.592 152.83 304.586 152.793 304.573 152.758Z" fill="#D38A59"/>
<path d="M306.842 151.296C306.824 151.226 306.791 151.16 306.747 151.103C306.702 151.046 306.646 150.999 306.582 150.965C306.518 150.931 306.448 150.911 306.375 150.906C306.303 150.901 306.231 150.91 306.163 150.934C306.094 150.959 306.032 150.997 305.979 151.046C305.927 151.096 305.885 151.156 305.857 151.223C305.829 151.29 305.815 151.361 305.816 151.434C305.817 151.506 305.833 151.577 305.863 151.643C305.881 151.713 305.914 151.779 305.959 151.836C306.003 151.892 306.06 151.939 306.123 151.973C306.187 152.007 306.258 152.028 306.33 152.033C306.402 152.038 306.474 152.028 306.543 152.004C306.611 151.98 306.673 151.942 306.726 151.892C306.778 151.843 306.82 151.782 306.848 151.716C306.876 151.649 306.89 151.577 306.889 151.505C306.888 151.433 306.872 151.361 306.842 151.296Z" fill="#D38A59"/>
<path d="M308.735 152.814C308.707 152.734 308.664 152.66 308.608 152.597C308.552 152.534 308.484 152.482 308.408 152.445C308.332 152.408 308.249 152.387 308.165 152.382C308.081 152.377 307.996 152.388 307.916 152.416C307.836 152.443 307.763 152.486 307.7 152.543C307.636 152.599 307.585 152.667 307.548 152.743C307.511 152.819 307.489 152.901 307.484 152.985C307.479 153.07 307.491 153.154 307.518 153.234C307.574 153.395 307.692 153.528 307.845 153.603C307.999 153.677 308.176 153.688 308.337 153.632C308.498 153.576 308.631 153.459 308.705 153.305C308.78 153.152 308.79 152.975 308.735 152.814Z" fill="#D38A59"/>
<path d="M315.536 156.937C315.506 156.858 315.446 156.794 315.37 156.757C315.294 156.719 315.207 156.712 315.126 156.736C315.046 156.765 314.98 156.824 314.942 156.901C314.905 156.978 314.899 157.066 314.925 157.147C314.939 157.187 314.96 157.224 314.988 157.256C315.017 157.288 315.051 157.314 315.089 157.332C315.127 157.351 315.168 157.362 315.211 157.364C315.253 157.367 315.296 157.361 315.336 157.348C315.376 157.334 315.413 157.312 315.445 157.284C315.477 157.256 315.502 157.222 315.521 157.184C315.54 157.146 315.551 157.104 315.553 157.062C315.556 157.02 315.55 156.977 315.536 156.937Z" fill="#D38A59"/>
<path d="M320.841 159.964C320.791 159.819 320.698 159.692 320.576 159.599C320.453 159.506 320.305 159.452 320.152 159.443C319.998 159.434 319.845 159.471 319.712 159.549C319.58 159.627 319.473 159.743 319.407 159.882C319.34 160.02 319.316 160.176 319.337 160.328C319.359 160.48 319.425 160.623 319.528 160.738C319.631 160.852 319.765 160.934 319.914 160.972C320.064 161.01 320.221 161.003 320.366 160.952C320.462 160.919 320.551 160.867 320.628 160.799C320.704 160.732 320.766 160.65 320.811 160.558C320.855 160.466 320.88 160.366 320.886 160.264C320.891 160.162 320.876 160.06 320.841 159.964Z" fill="#D38A59"/>
<path d="M318.846 155.712C318.83 155.664 318.804 155.619 318.77 155.581C318.737 155.543 318.696 155.512 318.65 155.49C318.604 155.468 318.554 155.455 318.503 155.452C318.452 155.45 318.401 155.457 318.354 155.474C318.305 155.491 318.261 155.517 318.223 155.55C318.185 155.584 318.154 155.625 318.132 155.671C318.109 155.717 318.097 155.767 318.094 155.818C318.091 155.868 318.099 155.919 318.116 155.967C318.151 156.063 318.222 156.142 318.314 156.186C318.406 156.23 318.512 156.237 318.609 156.204C318.657 156.188 318.702 156.162 318.74 156.129C318.778 156.095 318.809 156.054 318.831 156.008C318.853 155.962 318.866 155.912 318.868 155.861C318.871 155.81 318.864 155.76 318.846 155.712Z" fill="#D38A59"/>
<path d="M309.904 149.704C309.893 149.671 309.875 149.641 309.852 149.615C309.829 149.588 309.801 149.567 309.769 149.552C309.738 149.537 309.704 149.528 309.669 149.526C309.634 149.524 309.599 149.528 309.566 149.54C309.533 149.551 309.503 149.569 309.477 149.592C309.451 149.615 309.431 149.644 309.416 149.675C309.402 149.707 309.394 149.741 309.393 149.776C309.392 149.811 309.398 149.845 309.411 149.878C309.421 149.91 309.438 149.94 309.461 149.966C309.483 149.992 309.51 150.013 309.541 150.027C309.572 150.042 309.606 150.05 309.64 150.051C309.674 150.052 309.708 150.046 309.74 150.033C309.772 150.022 309.803 150.006 309.829 149.983C309.855 149.961 309.876 149.934 309.892 149.903C309.907 149.873 309.916 149.839 309.918 149.805C309.92 149.771 309.915 149.737 309.904 149.704Z" fill="#D38A59"/>
<path d="M303.596 147.995C303.554 147.875 303.478 147.77 303.377 147.694C303.276 147.617 303.155 147.573 303.028 147.565C302.902 147.558 302.776 147.588 302.667 147.652C302.557 147.717 302.47 147.812 302.415 147.926C302.359 148.04 302.339 148.168 302.357 148.293C302.375 148.419 302.429 148.536 302.513 148.631C302.598 148.725 302.708 148.792 302.831 148.824C302.954 148.856 303.083 148.85 303.202 148.808C303.362 148.752 303.494 148.635 303.567 148.483C303.641 148.33 303.651 148.155 303.596 147.995Z" fill="#D38A59"/>
<path d="M301.429 149.357C301.396 149.265 301.337 149.185 301.259 149.126C301.18 149.068 301.087 149.034 300.989 149.029C300.892 149.024 300.795 149.048 300.711 149.098C300.627 149.147 300.56 149.221 300.518 149.309C300.476 149.397 300.461 149.496 300.474 149.592C300.488 149.689 300.53 149.779 300.596 149.852C300.661 149.925 300.746 149.976 300.841 150C300.935 150.025 301.035 150.02 301.127 149.988C301.188 149.966 301.245 149.933 301.293 149.89C301.341 149.846 301.381 149.794 301.409 149.735C301.437 149.677 301.453 149.613 301.456 149.548C301.46 149.483 301.45 149.418 301.429 149.357Z" fill="#D38A59"/>
<path d="M297.606 146.44C297.55 146.282 297.435 146.153 297.284 146.079C297.134 146.006 296.961 145.994 296.802 146.047C296.684 146.088 296.581 146.163 296.506 146.262C296.431 146.361 296.387 146.481 296.379 146.605C296.372 146.729 296.401 146.853 296.464 146.961C296.527 147.068 296.62 147.155 296.732 147.21C296.844 147.264 296.969 147.285 297.093 147.268C297.216 147.252 297.332 147.199 297.426 147.117C297.519 147.034 297.586 146.926 297.618 146.806C297.651 146.685 297.646 146.558 297.606 146.44Z" fill="#D38A59"/>
<path d="M299.664 144.301C299.631 144.209 299.572 144.128 299.494 144.07C299.416 144.012 299.322 143.978 299.224 143.972C299.127 143.967 299.03 143.991 298.946 144.041C298.862 144.091 298.795 144.164 298.753 144.253C298.711 144.341 298.696 144.439 298.71 144.536C298.723 144.632 298.766 144.723 298.831 144.795C298.896 144.868 298.981 144.92 299.076 144.944C299.17 144.968 299.27 144.964 299.362 144.931C299.423 144.91 299.48 144.877 299.528 144.833C299.576 144.79 299.616 144.737 299.644 144.679C299.672 144.62 299.688 144.556 299.691 144.492C299.695 144.427 299.685 144.362 299.664 144.301Z" fill="#D38A59"/>
<path d="M294.607 142.856C294.545 142.675 294.414 142.527 294.242 142.443C294.071 142.359 293.873 142.346 293.693 142.408C293.512 142.47 293.363 142.601 293.278 142.772C293.192 142.943 293.177 143.14 293.235 143.322C293.3 143.506 293.435 143.658 293.61 143.743C293.786 143.827 293.988 143.839 294.173 143.775C294.357 143.71 294.508 143.576 294.593 143.4C294.678 143.224 294.69 143.022 294.625 142.837L294.607 142.856Z" fill="#D38A59"/>
<path d="M296.928 142.618C296.886 142.527 296.814 142.455 296.724 142.413C296.633 142.371 296.531 142.363 296.435 142.389C296.383 142.407 296.336 142.434 296.294 142.471C296.253 142.507 296.22 142.551 296.196 142.6C296.172 142.65 296.159 142.703 296.156 142.758C296.153 142.812 296.161 142.867 296.18 142.919C296.217 143.022 296.293 143.107 296.392 143.154C296.491 143.202 296.605 143.209 296.709 143.174C296.811 143.128 296.891 143.044 296.932 142.94C296.973 142.836 296.971 142.721 296.928 142.618Z" fill="#D38A59"/>
<path d="M296.555 139.344C296.541 139.283 296.514 139.225 296.476 139.175C296.438 139.125 296.39 139.083 296.335 139.052C296.28 139.022 296.219 139.003 296.156 138.998C296.093 138.992 296.03 139 295.971 139.021C295.911 139.042 295.857 139.075 295.811 139.118C295.765 139.161 295.729 139.213 295.705 139.272C295.68 139.33 295.669 139.392 295.67 139.455C295.672 139.518 295.686 139.58 295.714 139.637C295.761 139.737 295.844 139.815 295.945 139.858C296.047 139.9 296.161 139.904 296.265 139.867C296.369 139.831 296.457 139.758 296.51 139.661C296.563 139.565 296.579 139.452 296.555 139.344Z" fill="#D38A59"/>
<path d="M291.608 138.275C291.586 138.131 291.532 137.994 291.451 137.874C291.369 137.753 291.263 137.652 291.138 137.578C291.013 137.504 290.874 137.458 290.729 137.443C290.584 137.429 290.439 137.447 290.302 137.495C290.165 137.544 290.04 137.622 289.937 137.724C289.834 137.827 289.754 137.95 289.705 138.087C289.655 138.223 289.635 138.369 289.648 138.514C289.661 138.658 289.706 138.798 289.779 138.924C289.801 139.067 289.855 139.204 289.936 139.325C290.018 139.445 290.124 139.546 290.249 139.62C290.374 139.695 290.513 139.741 290.658 139.755C290.803 139.769 290.948 139.752 291.085 139.703C291.222 139.654 291.347 139.576 291.45 139.474C291.553 139.372 291.632 139.248 291.682 139.112C291.732 138.975 291.751 138.829 291.739 138.685C291.726 138.54 291.681 138.4 291.608 138.275Z" fill="#D38A59"/>
<path d="M293.985 139.216C293.938 139.087 293.841 138.98 293.717 138.921C293.592 138.861 293.449 138.852 293.318 138.896C293.252 138.918 293.191 138.952 293.139 138.998C293.087 139.044 293.045 139.099 293.015 139.162C292.985 139.224 292.968 139.292 292.965 139.361C292.962 139.43 292.973 139.499 292.998 139.564C293.044 139.695 293.14 139.802 293.265 139.862C293.39 139.922 293.534 139.93 293.665 139.884C293.796 139.838 293.904 139.742 293.964 139.616C294.024 139.491 294.031 139.347 293.985 139.216Z" fill="#D38A59"/>
<path d="M292.549 141.475C292.54 141.448 292.525 141.423 292.506 141.403C292.488 141.382 292.465 141.365 292.439 141.353C292.414 141.341 292.386 141.334 292.358 141.333C292.33 141.332 292.301 141.337 292.275 141.347C292.222 141.366 292.179 141.406 292.155 141.457C292.131 141.509 292.128 141.567 292.147 141.621C292.167 141.674 292.206 141.717 292.258 141.741C292.309 141.765 292.368 141.768 292.421 141.748C292.448 141.739 292.472 141.725 292.493 141.706C292.514 141.687 292.531 141.664 292.543 141.639C292.555 141.613 292.562 141.585 292.563 141.557C292.564 141.529 292.559 141.501 292.549 141.475Z" fill="#D38A59"/>
<path d="M296.261 141.2C296.252 141.171 296.237 141.145 296.217 141.122C296.197 141.099 296.173 141.081 296.145 141.068C296.118 141.055 296.088 141.048 296.058 141.047C296.028 141.046 295.997 141.052 295.969 141.064C295.912 141.084 295.866 141.126 295.84 141.181C295.815 141.236 295.812 141.299 295.832 141.356C295.855 141.411 295.898 141.456 295.952 141.481C296.006 141.507 296.068 141.511 296.124 141.492C296.181 141.472 296.228 141.429 296.253 141.375C296.279 141.32 296.282 141.257 296.261 141.2Z" fill="#D38A59"/>
<path d="M292.888 134.809C292.843 134.684 292.762 134.574 292.655 134.494C292.549 134.415 292.42 134.368 292.287 134.361C292.154 134.354 292.022 134.386 291.907 134.454C291.792 134.522 291.7 134.622 291.642 134.742C291.584 134.862 291.562 134.996 291.58 135.128C291.599 135.261 291.655 135.384 291.743 135.484C291.832 135.584 291.947 135.656 292.076 135.69C292.205 135.725 292.341 135.72 292.467 135.678C292.638 135.618 292.778 135.493 292.856 135.33C292.935 135.167 292.947 134.98 292.888 134.809Z" fill="#D38A59"/>
<path d="M288.938 133.3C288.925 133.241 288.899 133.185 288.863 133.136C288.827 133.087 288.78 133.047 288.727 133.017C288.674 132.987 288.615 132.97 288.554 132.964C288.494 132.959 288.433 132.967 288.375 132.987C288.318 133.007 288.266 133.04 288.222 133.082C288.178 133.124 288.143 133.175 288.12 133.231C288.097 133.287 288.086 133.348 288.089 133.409C288.091 133.47 288.106 133.529 288.133 133.584C288.173 133.69 288.252 133.778 288.354 133.827C288.456 133.876 288.574 133.884 288.682 133.849C288.788 133.81 288.875 133.73 288.923 133.627C288.971 133.525 288.976 133.407 288.938 133.3Z" fill="#D38A59"/>
<path d="M290.427 131.855C290.409 131.804 290.371 131.761 290.321 131.737C290.272 131.713 290.215 131.71 290.163 131.727C290.118 131.751 290.083 131.789 290.064 131.836C290.046 131.883 290.044 131.935 290.061 131.983C290.078 132.031 290.111 132.071 290.155 132.096C290.199 132.121 290.25 132.13 290.3 132.12C290.35 132.099 290.391 132.061 290.415 132.012C290.438 131.963 290.443 131.907 290.427 131.855Z" fill="#D38A59"/>
<path d="M287.382 126.158C287.362 126.104 287.333 126.053 287.294 126.01C287.255 125.967 287.209 125.932 287.157 125.907C287.105 125.882 287.048 125.868 286.99 125.865C286.933 125.862 286.875 125.87 286.82 125.889C286.766 125.908 286.716 125.938 286.673 125.976C286.63 126.015 286.595 126.062 286.57 126.114C286.545 126.166 286.53 126.222 286.527 126.28C286.524 126.338 286.532 126.396 286.551 126.45C286.59 126.559 286.671 126.647 286.775 126.697C286.879 126.746 286.999 126.753 287.108 126.715C287.217 126.675 287.306 126.595 287.357 126.492C287.408 126.388 287.417 126.268 287.382 126.158Z" fill="#D38A59"/>
<path d="M283.111 124.485C283.085 124.406 283.035 124.337 282.969 124.286C282.903 124.235 282.823 124.205 282.74 124.2C282.657 124.195 282.574 124.215 282.502 124.257C282.43 124.299 282.372 124.362 282.336 124.437C282.3 124.512 282.286 124.596 282.298 124.678C282.31 124.761 282.346 124.838 282.402 124.9C282.458 124.962 282.531 125.006 282.612 125.026C282.692 125.047 282.778 125.042 282.856 125.014C282.958 124.975 283.041 124.898 283.089 124.8C283.136 124.702 283.144 124.589 283.111 124.485Z" fill="#D38A59"/>
<path d="M284.474 120.8C284.441 120.706 284.372 120.628 284.283 120.584C284.193 120.541 284.089 120.535 283.995 120.567C283.901 120.6 283.823 120.669 283.779 120.759C283.736 120.848 283.73 120.952 283.762 121.046C283.778 121.093 283.804 121.136 283.836 121.173C283.869 121.21 283.909 121.24 283.954 121.262C283.998 121.283 284.046 121.296 284.096 121.299C284.145 121.302 284.195 121.295 284.241 121.279C284.288 121.263 284.331 121.238 284.368 121.205C284.405 121.172 284.435 121.132 284.457 121.088C284.478 121.043 284.491 120.995 284.494 120.945C284.497 120.896 284.49 120.847 284.474 120.8Z" fill="#D38A59"/>
<path d="M282.473 121.047C282.421 120.927 282.336 120.825 282.227 120.752C282.118 120.68 281.991 120.64 281.86 120.639C281.729 120.637 281.601 120.674 281.49 120.744C281.38 120.814 281.292 120.914 281.237 121.033C281.183 121.152 281.163 121.284 281.182 121.413C281.201 121.542 281.257 121.664 281.343 121.762C281.43 121.86 281.542 121.931 281.668 121.967C281.794 122.002 281.928 122.001 282.053 121.962C282.143 121.934 282.227 121.887 282.298 121.824C282.37 121.761 282.427 121.685 282.467 121.598C282.506 121.512 282.527 121.418 282.528 121.324C282.53 121.229 282.511 121.134 282.473 121.047Z" fill="#D38A59"/>
<path d="M281.86 116.686C281.838 116.542 281.785 116.405 281.703 116.285C281.622 116.164 281.515 116.063 281.39 115.989C281.266 115.915 281.126 115.869 280.982 115.854C280.837 115.84 280.691 115.858 280.554 115.906C280.417 115.955 280.293 116.033 280.19 116.135C280.086 116.238 280.007 116.361 279.957 116.498C279.907 116.634 279.888 116.78 279.901 116.925C279.914 117.069 279.958 117.209 280.032 117.335C280.054 117.478 280.108 117.615 280.189 117.736C280.27 117.856 280.377 117.957 280.502 118.032C280.626 118.106 280.766 118.152 280.911 118.166C281.055 118.18 281.201 118.163 281.338 118.114C281.475 118.065 281.599 117.987 281.702 117.885C281.806 117.783 281.885 117.659 281.935 117.523C281.985 117.386 282.004 117.241 281.991 117.096C281.978 116.951 281.934 116.811 281.86 116.686Z" fill="#D38A59"/>
<path d="M283.708 118.844C283.69 118.761 283.655 118.684 283.606 118.616C283.556 118.548 283.492 118.491 283.419 118.45C283.346 118.408 283.264 118.383 283.181 118.375C283.097 118.367 283.012 118.378 282.933 118.405C282.853 118.432 282.78 118.476 282.719 118.534C282.658 118.592 282.609 118.662 282.577 118.74C282.545 118.817 282.529 118.901 282.532 118.985C282.535 119.069 282.555 119.152 282.592 119.228C282.617 119.301 282.656 119.369 282.707 119.428C282.758 119.486 282.821 119.534 282.89 119.568C282.96 119.602 283.036 119.622 283.113 119.626C283.191 119.63 283.269 119.619 283.342 119.593C283.488 119.54 283.607 119.432 283.675 119.292C283.743 119.152 283.755 118.992 283.708 118.844Z" fill="#D38A59"/>
<path d="M283.415 113.01C283.377 112.9 283.308 112.804 283.215 112.734C283.123 112.663 283.012 112.622 282.896 112.615C282.78 112.608 282.665 112.636 282.565 112.695C282.465 112.754 282.384 112.841 282.334 112.946C282.284 113.05 282.265 113.167 282.282 113.282C282.298 113.397 282.349 113.505 282.426 113.591C282.504 113.677 282.605 113.738 282.718 113.767C282.83 113.795 282.949 113.79 283.058 113.75C283.203 113.699 283.322 113.592 283.388 113.453C283.455 113.315 283.465 113.155 283.415 113.01Z" fill="#D38A59"/>
<path d="M279.73 110.212C279.699 110.121 279.642 110.041 279.566 109.982C279.49 109.924 279.399 109.889 279.303 109.883C279.207 109.876 279.111 109.898 279.028 109.946C278.945 109.994 278.878 110.066 278.836 110.152C278.793 110.238 278.777 110.335 278.79 110.43C278.803 110.525 278.843 110.614 278.907 110.686C278.97 110.758 279.054 110.81 279.147 110.835C279.239 110.859 279.337 110.856 279.428 110.824C279.489 110.805 279.545 110.773 279.593 110.732C279.641 110.69 279.681 110.639 279.709 110.582C279.737 110.525 279.753 110.463 279.757 110.399C279.76 110.335 279.751 110.272 279.73 110.212Z" fill="#D38A59"/>
<path d="M282.188 106.599C282.149 106.515 282.08 106.449 281.994 106.413C281.909 106.377 281.813 106.374 281.725 106.404C281.638 106.435 281.565 106.497 281.52 106.579C281.476 106.66 281.464 106.756 281.485 106.846C281.519 106.939 281.587 107.015 281.676 107.057C281.765 107.1 281.867 107.106 281.96 107.074C282.051 107.039 282.126 106.97 282.168 106.882C282.211 106.794 282.218 106.693 282.188 106.599Z" fill="#D38A59"/>
<path d="M283.148 110.019C283.125 109.951 283.082 109.891 283.024 109.848C282.967 109.804 282.898 109.779 282.826 109.774C282.754 109.77 282.682 109.787 282.62 109.823C282.558 109.859 282.507 109.913 282.476 109.978C282.444 110.043 282.432 110.115 282.442 110.187C282.451 110.258 282.482 110.325 282.529 110.379C282.577 110.434 282.639 110.472 282.709 110.491C282.778 110.51 282.852 110.508 282.92 110.485C282.966 110.469 283.008 110.445 283.044 110.413C283.08 110.381 283.11 110.343 283.131 110.299C283.152 110.256 283.165 110.209 283.168 110.161C283.171 110.113 283.164 110.065 283.148 110.019Z" fill="#D38A59"/>
<path d="M280.196 104.661C280.184 104.6 280.158 104.542 280.122 104.492C280.085 104.441 280.038 104.399 279.984 104.368C279.93 104.337 279.869 104.318 279.807 104.312C279.745 104.306 279.682 104.314 279.623 104.334C279.564 104.355 279.51 104.387 279.465 104.43C279.419 104.473 279.384 104.525 279.36 104.583C279.336 104.641 279.325 104.703 279.328 104.765C279.33 104.828 279.345 104.889 279.373 104.945C279.392 105 279.421 105.05 279.459 105.093C279.497 105.137 279.543 105.172 279.595 105.198C279.647 105.223 279.703 105.238 279.761 105.242C279.819 105.246 279.876 105.238 279.931 105.219C280.04 105.18 280.129 105.099 280.178 104.995C280.228 104.89 280.234 104.771 280.196 104.661Z" fill="#D38A59"/>
<path d="M281.01 100.729C280.962 100.602 280.867 100.497 280.745 100.438C280.622 100.378 280.481 100.368 280.352 100.409C280.254 100.442 280.168 100.504 280.105 100.586C280.042 100.668 280.005 100.767 279.998 100.87C279.992 100.973 280.016 101.076 280.068 101.166C280.12 101.255 280.198 101.327 280.291 101.372C280.384 101.417 280.488 101.434 280.59 101.419C280.693 101.405 280.789 101.361 280.866 101.292C280.943 101.223 280.998 101.133 281.023 101.033C281.049 100.932 281.044 100.827 281.01 100.729Z" fill="#D38A59"/>
<path d="M282.344 102.667C282.331 102.628 282.31 102.593 282.283 102.562C282.256 102.531 282.223 102.505 282.186 102.487C282.149 102.469 282.109 102.458 282.068 102.455C282.027 102.453 281.986 102.458 281.947 102.471C281.908 102.484 281.872 102.505 281.841 102.532C281.81 102.559 281.785 102.592 281.767 102.629C281.748 102.666 281.738 102.706 281.735 102.747C281.732 102.788 281.737 102.829 281.751 102.868C281.777 102.947 281.834 103.012 281.908 103.048C281.983 103.085 282.069 103.091 282.148 103.064C282.226 103.038 282.291 102.981 282.328 102.907C282.365 102.832 282.37 102.746 282.344 102.667Z" fill="#D38A59"/>
<path d="M281.906 104.899C281.877 104.815 281.824 104.741 281.754 104.687C281.683 104.634 281.598 104.602 281.509 104.596C281.421 104.591 281.332 104.612 281.256 104.657C281.179 104.702 281.117 104.769 281.079 104.849C281.04 104.929 281.026 105.018 281.038 105.106C281.051 105.194 281.089 105.276 281.148 105.343C281.208 105.409 281.285 105.456 281.371 105.478C281.457 105.5 281.548 105.496 281.632 105.466C281.743 105.427 281.834 105.345 281.885 105.239C281.937 105.133 281.944 105.011 281.906 104.899Z" fill="#D38A59"/>
<path d="M279.401 107.222C279.338 107.093 279.23 106.991 279.097 106.937C278.965 106.882 278.817 106.878 278.681 106.925C278.546 106.973 278.432 107.068 278.363 107.194C278.293 107.319 278.272 107.466 278.303 107.606C278.321 107.686 278.356 107.762 278.406 107.828C278.455 107.894 278.518 107.949 278.59 107.989C278.663 108.029 278.742 108.054 278.825 108.061C278.907 108.068 278.99 108.057 279.068 108.03C279.146 108.003 279.217 107.959 279.277 107.902C279.337 107.846 279.384 107.777 279.416 107.7C279.447 107.624 279.462 107.542 279.459 107.459C279.457 107.377 279.437 107.296 279.401 107.222Z" fill="#D38A59"/>
<path d="M279.107 102.393C279.087 102.336 279.044 102.29 278.99 102.264C278.935 102.239 278.872 102.236 278.815 102.256C278.788 102.267 278.763 102.282 278.742 102.302C278.721 102.321 278.704 102.345 278.693 102.371C278.681 102.398 278.674 102.426 278.673 102.455C278.672 102.484 278.677 102.512 278.687 102.539C278.697 102.567 278.711 102.593 278.731 102.615C278.75 102.637 278.774 102.655 278.8 102.668C278.826 102.68 278.855 102.688 278.884 102.689C278.914 102.691 278.943 102.686 278.97 102.676C279.025 102.656 279.07 102.615 279.095 102.562C279.121 102.509 279.125 102.449 279.107 102.393Z" fill="#D38A59"/>
<path d="M280.571 95.1241C280.526 95.0066 280.437 94.9114 280.322 94.8586C280.208 94.8057 280.078 94.7994 279.959 94.841C279.84 94.8826 279.742 94.9688 279.686 95.0814C279.629 95.194 279.619 95.3241 279.657 95.4442C279.676 95.5061 279.708 95.5634 279.75 95.6128C279.792 95.6622 279.844 95.7027 279.902 95.7318C279.96 95.7608 280.023 95.7779 280.088 95.7821C280.153 95.7862 280.218 95.7773 280.279 95.7559C280.34 95.7344 280.397 95.7009 280.445 95.6572C280.493 95.6136 280.532 95.5608 280.559 95.5018C280.586 95.4429 280.601 95.3791 280.603 95.3142C280.605 95.2493 280.595 95.1847 280.571 95.1241Z" fill="#D38A59"/>
<path d="M301.674 140.258C301.658 140.213 301.634 140.171 301.602 140.135C301.57 140.099 301.532 140.069 301.489 140.048C301.445 140.027 301.398 140.014 301.35 140.011C301.302 140.008 301.254 140.015 301.209 140.03C301.163 140.046 301.121 140.07 301.085 140.102C301.049 140.134 301.019 140.172 300.998 140.216C300.977 140.259 300.965 140.306 300.961 140.354C300.958 140.402 300.965 140.45 300.98 140.496C301.012 140.588 301.079 140.663 301.166 140.706C301.253 140.749 301.354 140.755 301.446 140.724C301.538 140.692 301.614 140.626 301.656 140.538C301.699 140.451 301.705 140.35 301.674 140.258Z" fill="#D38A59"/>
<path d="M328.32 162.359C328.308 162.31 328.287 162.265 328.256 162.225C328.226 162.185 328.188 162.152 328.144 162.127C328.1 162.103 328.051 162.089 328.001 162.085C327.951 162.081 327.901 162.088 327.853 162.104C327.806 162.121 327.763 162.148 327.727 162.183C327.691 162.217 327.662 162.259 327.643 162.306C327.624 162.352 327.615 162.402 327.617 162.452C327.619 162.502 327.631 162.552 327.653 162.597C327.684 162.684 327.749 162.756 327.832 162.797C327.916 162.838 328.012 162.845 328.1 162.816C328.189 162.783 328.261 162.717 328.302 162.632C328.343 162.546 328.349 162.449 328.32 162.359Z" fill="#D38A59"/>
<path d="M334.016 164.536C334.002 164.495 333.98 164.457 333.951 164.425C333.922 164.393 333.887 164.367 333.848 164.348C333.809 164.329 333.767 164.319 333.724 164.316C333.681 164.314 333.637 164.32 333.597 164.335C333.528 164.372 333.474 164.433 333.446 164.506C333.418 164.58 333.417 164.661 333.444 164.735C333.47 164.808 333.522 164.87 333.591 164.909C333.659 164.948 333.739 164.961 333.816 164.946C333.895 164.915 333.959 164.856 333.996 164.78C334.033 164.704 334.041 164.617 334.016 164.536Z" fill="#D38A59"/>
<path d="M341.36 166.063C341.349 166.034 341.329 166.011 341.301 165.997C341.274 165.984 341.243 165.981 341.214 165.99C341.199 165.995 341.185 166.003 341.173 166.014C341.161 166.025 341.151 166.037 341.144 166.052C341.137 166.066 341.134 166.082 341.133 166.098C341.132 166.114 341.135 166.13 341.141 166.145C341.151 166.174 341.172 166.197 341.199 166.211C341.226 166.224 341.258 166.227 341.287 166.218C341.302 166.213 341.316 166.205 341.328 166.194C341.34 166.184 341.35 166.171 341.357 166.156C341.363 166.142 341.367 166.126 341.368 166.11C341.368 166.094 341.366 166.078 341.36 166.063Z" fill="#D38A59"/>
<path d="M336.23 164.975C336.225 164.961 336.217 164.948 336.207 164.937C336.197 164.926 336.184 164.917 336.171 164.911C336.157 164.905 336.142 164.902 336.127 164.902C336.113 164.902 336.098 164.905 336.084 164.911C336.069 164.915 336.055 164.922 336.043 164.932C336.031 164.942 336.022 164.954 336.015 164.968C336.008 164.981 336.004 164.997 336.003 165.012C336.003 165.027 336.005 165.043 336.011 165.057C336.014 165.074 336.021 165.09 336.031 165.104C336.041 165.118 336.054 165.13 336.069 165.138C336.085 165.146 336.101 165.152 336.118 165.153C336.136 165.154 336.153 165.152 336.169 165.146C336.185 165.14 336.2 165.13 336.212 165.118C336.224 165.105 336.233 165.091 336.239 165.074C336.245 165.058 336.247 165.041 336.246 165.024C336.244 165.006 336.239 164.99 336.23 164.975Z" fill="#D38A59"/>
<path d="M323.94 161.82C323.913 161.747 323.859 161.688 323.789 161.656C323.718 161.623 323.638 161.62 323.566 161.647C323.529 161.659 323.495 161.678 323.466 161.704C323.437 161.729 323.413 161.761 323.396 161.795C323.379 161.83 323.369 161.868 323.367 161.907C323.365 161.945 323.37 161.984 323.383 162.021C323.41 162.095 323.465 162.155 323.536 162.188C323.607 162.221 323.688 162.225 323.762 162.199C323.836 162.172 323.896 162.117 323.929 162.046C323.963 161.975 323.966 161.894 323.94 161.82Z" fill="#D38A59"/>
<path d="M300.093 54.89C300.093 54.9602 300.121 55.0275 300.171 55.0771C300.221 55.1267 300.288 55.1546 300.358 55.1546C300.428 55.1501 300.494 55.1196 300.543 55.0689C300.592 55.0183 300.621 54.9512 300.623 54.8809C300.624 54.8461 300.618 54.8115 300.606 54.7789C300.594 54.7463 300.575 54.7165 300.552 54.691C300.528 54.6656 300.499 54.6451 300.468 54.6307C300.436 54.6163 300.402 54.6083 300.367 54.6071C300.33 54.6057 300.293 54.6122 300.259 54.6261C300.224 54.6399 300.193 54.6609 300.167 54.6875C300.141 54.7142 300.122 54.746 300.109 54.7809C300.096 54.8158 300.091 54.853 300.093 54.89Z" fill="#D38A59"/>
<path d="M295.138 59.1791C295.138 59.326 295.181 59.4695 295.263 59.5915C295.345 59.7135 295.461 59.8084 295.597 59.8642C295.733 59.92 295.882 59.9341 296.026 59.9048C296.17 59.8755 296.302 59.804 296.405 59.6995C296.508 59.595 296.578 59.4622 296.606 59.3179C296.633 59.1736 296.617 59.0244 296.56 58.8893C296.502 58.7541 296.406 58.6391 296.283 58.5588C296.16 58.4785 296.016 58.4366 295.869 58.4384C295.674 58.4408 295.488 58.5199 295.351 58.6586C295.214 58.7972 295.137 58.9842 295.138 59.1791Z" fill="#D38A59"/>
<path d="M298.823 58.3379C298.823 58.4858 298.881 58.6277 298.986 58.7323C299.09 58.8369 299.232 58.8957 299.38 58.8957C299.528 58.8957 299.67 58.8369 299.775 58.7323C299.879 58.6277 299.938 58.4858 299.938 58.3379C299.938 58.1899 299.879 58.0481 299.775 57.9435C299.67 57.8389 299.528 57.7801 299.38 57.7801C299.232 57.7801 299.09 57.8389 298.986 57.9435C298.881 58.0481 298.823 58.1899 298.823 58.3379Z" fill="#D38A59"/>
<path d="M369.588 142.609C369.588 142.747 369.629 142.881 369.706 142.996C369.782 143.11 369.892 143.199 370.019 143.252C370.147 143.304 370.287 143.317 370.422 143.29C370.557 143.262 370.681 143.195 370.777 143.097C370.874 142.999 370.94 142.874 370.966 142.739C370.991 142.603 370.976 142.463 370.922 142.336C370.868 142.21 370.778 142.102 370.662 142.027C370.547 141.951 370.412 141.912 370.274 141.914C370.183 141.913 370.092 141.93 370.008 141.964C369.923 141.999 369.847 142.05 369.783 142.115C369.719 142.18 369.668 142.257 369.635 142.342C369.601 142.427 369.585 142.518 369.588 142.609Z" fill="#D38A59"/>
<path d="M356.786 145.672C356.788 145.804 356.829 145.933 356.904 146.041C356.979 146.15 357.084 146.234 357.207 146.283C357.329 146.332 357.464 146.343 357.593 146.316C357.722 146.288 357.84 146.223 357.932 146.128C358.024 146.034 358.086 145.914 358.11 145.784C358.134 145.654 358.119 145.52 358.067 145.399C358.015 145.278 357.928 145.175 357.817 145.103C357.706 145.031 357.577 144.994 357.445 144.995C357.357 144.997 357.27 145.015 357.19 145.05C357.109 145.084 357.036 145.135 356.975 145.197C356.914 145.26 356.866 145.335 356.833 145.416C356.801 145.497 356.785 145.584 356.786 145.672Z" fill="#D38A59"/>
<path d="M362.775 146.385C362.777 146.45 362.791 146.514 362.817 146.574C362.842 146.633 362.88 146.687 362.927 146.732C362.973 146.777 363.028 146.812 363.089 146.836C363.149 146.86 363.214 146.871 363.278 146.87C363.397 146.854 363.505 146.795 363.583 146.705C363.662 146.615 363.705 146.5 363.705 146.381C363.705 146.261 363.662 146.146 363.583 146.056C363.505 145.966 363.397 145.908 363.278 145.892C363.213 145.89 363.148 145.902 363.087 145.926C363.026 145.951 362.97 145.987 362.923 146.033C362.876 146.079 362.839 146.134 362.814 146.194C362.789 146.255 362.775 146.32 362.775 146.385Z" fill="#D38A59"/>
<path d="M363.352 68.5334C363.342 68.6058 363.348 68.6794 363.369 68.7493C363.39 68.8192 363.426 68.8838 363.474 68.9388C363.522 68.9937 363.581 69.0378 363.647 69.0679C363.714 69.0981 363.786 69.1137 363.859 69.1137C363.932 69.1137 364.004 69.0981 364.071 69.0679C364.137 69.0378 364.197 68.9937 364.245 68.9388C364.293 68.8838 364.328 68.8192 364.349 68.7493C364.37 68.6794 364.376 68.6058 364.367 68.5334C364.364 68.3992 364.309 68.2713 364.213 68.1772C364.118 68.0832 363.989 68.0305 363.855 68.0305C363.723 68.035 363.597 68.0895 363.504 68.1828C363.411 68.2762 363.356 68.4015 363.352 68.5334Z" fill="#D38A59"/>
<path d="M321.244 48.3702C321.244 48.4646 321.281 48.5551 321.348 48.6218C321.415 48.6886 321.505 48.7261 321.599 48.7261C321.694 48.7261 321.784 48.6886 321.851 48.6218C321.918 48.5551 321.955 48.4646 321.955 48.3702C321.955 48.2758 321.918 48.1853 321.851 48.1185C321.784 48.0518 321.694 48.0143 321.599 48.0143C321.505 48.0143 321.415 48.0518 321.348 48.1185C321.281 48.1853 321.244 48.2758 321.244 48.3702Z" fill="#D38A59"/>
<path d="M379.646 58.9414C377.644 58.027 376.071 55.9787 374.443 54.4608L362.273 43.0857C360.342 41.2022 358.286 39.4517 356.119 37.8462C369.829 40.5142 382.34 47.4586 391.857 57.682C401.373 67.9053 407.404 80.8817 409.084 94.7473C410.765 108.613 408.007 122.654 401.208 134.855C394.409 147.055 383.919 156.787 371.243 162.652C375.047 160.266 378.759 157.495 380.387 153.38C381.301 150.976 381.484 148.333 381.932 145.773C382.38 143.212 383.212 140.57 385.187 138.887C387.858 136.601 392.274 136.309 393.792 133.145C394.505 131.664 394.341 129.908 394.706 128.308C395.74 123.992 400.54 121.386 401.601 117.079C402.515 113.348 400.385 109.562 400.348 105.722C400.348 103.134 401.263 100.638 401.482 98.0594C401.884 93.1125 399.562 88.3667 396.956 84.1422C395.887 82.5216 394.904 80.846 394.011 79.1222C393.281 77.739 392.755 76.2576 392.448 74.7239C392.247 73.2883 392.649 72.2642 391.369 71.1303C390.31 70.3431 389.134 69.726 387.885 69.3015C386.628 68.8668 385.581 67.9759 384.95 66.8052C384.246 65.1227 385.114 63.0288 384.218 61.4377C383.322 59.8467 381.201 59.6638 379.646 58.9414Z" fill="#E7A661"/>
<path d="M365.802 43.314C365.802 43.3375 365.809 43.3604 365.822 43.3799C365.835 43.3994 365.854 43.4146 365.875 43.4236C365.897 43.4326 365.921 43.435 365.944 43.4304C365.967 43.4258 365.988 43.4145 366.005 43.3979C366.021 43.3813 366.033 43.3602 366.037 43.3372C366.042 43.3142 366.039 43.2903 366.03 43.2686C366.021 43.247 366.006 43.2284 365.987 43.2154C365.967 43.2024 365.944 43.1954 365.921 43.1954C365.905 43.1954 365.89 43.1985 365.875 43.2044C365.861 43.2104 365.848 43.2191 365.837 43.2301C365.826 43.2412 365.817 43.2542 365.811 43.2686C365.805 43.283 365.802 43.2985 365.802 43.314Z" fill="#D38A59"/>
<path d="M346.801 158.849C355.726 147.007 370.347 142.17 380.497 131.673C382.022 130.283 383.451 128.792 384.776 127.21C394.542 115.424 396.517 98.0868 390.829 83.877C388.204 77.1996 384.062 71.2237 378.732 66.4212C373.575 61.9589 369.469 57.4875 362.273 56.3628C367.576 62.1783 372.486 68.506 375.458 75.7937C378.43 83.0815 379.354 91.4391 376.647 98.8274C379.07 92.7467 378.165 85.3583 374.873 79.6982C374.516 84.956 374.087 90.4607 372.13 95.243C371.491 96.8666 370.649 98.4028 369.624 99.815C362.547 108.237 350.587 112.37 345.365 122.437C347.267 113.074 354.509 106.993 360.682 99.9979C362.155 98.5606 363.538 97.0337 364.824 95.4259C366.102 93.7757 367.092 91.9206 367.75 89.9395C369.188 85.7806 369.403 81.2968 368.372 77.019C367.366 72.9408 364.842 69.9782 360.608 72.8402C361.642 72.1453 361.075 67.5276 360.919 66.4852C360.648 64.4015 359.914 62.405 358.77 60.6422C356.428 57.1626 353.137 54.4272 349.288 52.76C346.335 51.4982 344.478 53.0892 343.189 55.4392C341.296 57.6978 341.36 60.3678 340.693 63.0379C339.312 59.0511 334.575 53.1075 331.265 55.8141C325.762 59.5152 321.274 64.5351 318.209 70.416C315.144 76.2969 313.6 82.8516 313.718 89.4823C312.292 81.4904 314.203 73.4712 317.449 66.092C308.223 75.5377 305.744 92.2438 313.206 103.5C302.389 90.9453 304.848 72.2367 316.059 60.7702C298.173 71.6515 293.748 93.6885 297.003 112.699C297.192 114.528 297.42 116.338 297.689 118.13C296.79 116.37 295.988 114.563 295.284 112.717C293.082 107.326 291.892 101.577 291.772 95.7551C289.807 98.4434 289.843 101.781 289.669 104.451C289.616 106.01 289.668 107.571 289.825 109.124C290.393 113.856 291.573 118.494 293.336 122.922C295.668 129.021 298.768 135.129 304.007 139.034C306.504 140.824 309.287 142.178 312.237 143.039C313.7 143.505 315.209 143.889 316.736 144.246C326.373 146.724 335.737 148.616 343.253 155.328C344.502 156.433 345.687 157.608 346.801 158.849Z" fill="#F0C69B"/>
<path d="M342.686 112.104C342.658 110.417 342.756 108.73 342.979 107.057C343.79 101.148 346.206 95.5757 349.965 90.9453C352.79 87.4066 357.737 83.6301 358.286 78.8935C359.017 72.6482 355.241 66.0097 351.437 61.3737C350.084 59.7277 347.78 58.1915 347.962 61.584C348.145 64.9764 346.755 67.6281 345.466 70.7279C344.169 74.1281 343.249 77.6606 342.723 81.2618C341.414 88.2664 341.106 95.4213 341.808 102.512C340.336 90.5247 341.543 79.1678 344.067 67.1344C344.707 64.4552 345.347 61.7851 343.976 59.1242C339.349 62.5167 340.748 68.506 340.135 73.1785C339.413 67.8567 341.351 62.4892 336.633 58.5482C328.742 68.6065 340.894 81.1795 339.687 92.5272C339.687 88.1015 336.834 83.1546 335.015 79.2319C334.1 77.2842 333.186 75.9034 332.747 73.7455C332.235 71.2126 331.732 68.6797 331.22 66.1468C331.177 65.5207 330.895 64.9348 330.433 64.51C330.091 64.3146 329.691 64.2442 329.303 64.3109C328.914 64.3776 328.56 64.5773 328.303 64.8758C327.798 65.4873 327.45 66.2121 327.288 66.9881C326.088 70.477 325.305 74.0958 324.956 77.7688C324.59 84.7182 328.312 89.5097 332.893 94.228C337.154 98.6445 340.044 102.311 341.69 108.264C342.412 110.587 342.686 112.104 342.686 112.104Z" fill="#F9E7DF"/>
<path d="M343.985 125.811C343.798 121.923 343.137 118.073 342.019 114.345C341.476 112.546 340.819 110.784 340.053 109.069C336.532 98.5622 324.508 95.3527 319.022 86.0898C319.022 87.4249 319.022 89.4182 319.076 90.7533C318.487 87.4556 318.224 84.1081 318.29 80.7589C316.315 82.7797 316.342 84.7822 316.37 87.4523C314.303 81.4721 318.199 75.4188 320.174 70.0787C310.225 75.5651 311.03 90.1955 314.504 99.4949C317.933 107.459 326.611 108.035 332.216 113.275C333.842 114.576 335.37 115.994 336.788 117.518C341.233 122.104 343.886 128.132 344.268 134.507C342.86 127.86 338.306 123.406 333.03 119.603C331.274 118.332 329.437 117.143 327.608 115.945C315.309 110.139 305.168 98.2513 307.006 83.557C302.434 95.6179 305.973 110.248 314.742 118.825C309.365 114.884 307.957 108.895 305.232 103.591C305.392 108.967 307.245 114.154 310.527 118.414C311.723 119.908 313.092 121.255 314.605 122.428C324.206 130.054 336.258 133.922 345.695 141.813C353.595 132.386 367.576 130.228 373.456 118.816C372.185 124.833 366.232 128.875 360.928 131.618C368.911 130.191 372.816 123.48 377.214 118.094C378.227 116.569 379.07 114.937 379.728 113.229C384.611 100.821 382.719 81.5819 377.561 72.9957C371.663 63.2207 373.264 74.1569 372.989 86.7116C372.989 86.7116 373.465 73.782 374.425 72.1727C375.385 70.5633 379.802 79.4879 380.899 88.961C381.996 98.4342 378.86 83.0723 377.241 79.8902C375.623 76.7081 375.577 84.8371 375.577 84.8371C375.577 84.8371 376.363 78.0614 378.037 84.9286C379.379 90.9659 379.476 97.2138 378.32 103.29C377.936 105.31 377.357 107.288 376.592 109.197C374.708 114.089 371.407 117.426 367.448 120.846C370.072 117.481 373.373 114.107 374.535 110.413C375.592 107.986 376.3 105.422 376.638 102.796C377.378 97.0626 377.186 99.0011 375.504 103.207C374.861 104.833 374.131 106.423 373.319 107.971C371.353 112.123 368.747 114.82 365.409 117.527C370.036 114.144 371.307 108.127 373.693 103.445C374.608 99.312 374.608 97.3095 374.251 96.6969C373.895 96.0842 373.127 96.8614 372.422 98.2879C371.476 100.316 370.404 102.282 369.213 104.177C362.035 114.957 346.728 121.12 345.585 135.147C342.064 118.505 357.975 110.321 365.628 98.1599C366.597 96.1205 367.316 93.9712 367.768 91.7591C370.804 77.2019 363.909 66.2017 361.12 81.0058C361.12 81.0058 363.16 75.9309 364.778 75.7937C365.93 75.6383 366.845 81.7282 365.848 88.257C365.515 90.4735 364.932 92.6453 364.111 94.7309C360.572 103.619 351.309 107.734 346.737 115.762C349.306 107.057 356.585 102.311 360.169 94.5206C361.204 92.6798 362.091 90.7596 362.821 88.7782C363.45 87.1237 363.853 85.3921 364.019 83.6301C364.44 77.4762 356.567 88.3941 355.25 91.6128C355.25 91.6128 359.209 87.0408 360.041 87.9552C360.462 88.449 359.539 89.592 357.938 91.0002C355.964 92.6541 353.888 94.1811 351.72 95.5722C343.235 101.059 344.707 113.083 343.985 121.77C343.902 124.385 343.985 125.811 343.985 125.811Z" fill="#F9E7DF"/>
<path d="M346.847 156.846C342.357 144.52 326.355 145.37 316.096 138.823C314.477 137.982 312.868 137.068 311.286 136.08C303.876 131.204 298.073 124.247 294.607 116.082C293.524 113.685 292.764 111.154 292.349 108.557C289.605 85.1297 304.647 54.9454 330.644 53.3178C317.467 64.7569 302.297 82.9535 313.188 101.497C301.675 86.2819 312.136 68.1585 324.014 56.6919C304.711 60.2398 294.964 83.0358 295.832 101.031C298.384 90.3327 299.591 78.9758 306.805 70.225C298.978 84.3159 297.853 102.339 305.58 116.128C306.565 117.51 307.707 118.774 308.982 119.895C310.373 121.081 311.835 122.18 313.361 123.187C323.53 131.362 338.91 134.516 345.704 145.133C354.912 133.684 372.221 132.157 379.381 118.844C380.147 117.712 380.846 116.536 381.475 115.323C382.162 114.003 382.773 112.644 383.304 111.254C389.878 93.8257 383.158 76.2692 376.418 68.3779C365.272 55.3935 354.281 52.7783 351.913 50.1997C350.998 49.203 367.942 52.7234 381.393 67.3355C393.6 80.5852 400.668 101.982 392.21 119.401C390.046 124.031 386.97 128.177 383.167 131.59C381.58 132.962 379.873 134.186 378.064 135.248C368.335 141.521 353.668 141.649 348.154 153.426C347.516 154.478 347.073 155.637 346.847 156.846Z" fill="#F9E7DF"/>
<path d="M349.937 122.126C354.683 113.696 365.985 110.897 369.506 100.921C370.83 98.0502 371.552 94.9383 371.627 91.7774C371.242 93.5782 370.688 95.3386 369.972 97.0352C369.252 98.7393 368.383 100.376 367.375 101.927C363.279 106.902 359.328 111.611 353.851 115.314C351.946 117.182 350.592 119.539 349.937 122.126Z" fill="#F9E7DF"/>
<path d="M323.868 75.7572C321.006 82.7249 324.426 90.6984 330.47 93.9628C325.111 92.0243 321.719 87.3883 322.24 81.4082C322.395 79.4337 322.948 77.5113 323.868 75.7572Z" fill="#F9E7DF"/>
<path d="M340.327 61.0536C340.612 58.7658 341.322 56.5515 342.421 54.5248C343.646 52.5954 345.85 51.1141 348.118 51.4342C347.408 50.9662 346.577 50.7167 345.727 50.7167C344.876 50.7167 344.045 50.9662 343.335 51.4342C342.463 51.9953 341.72 52.7356 341.156 53.6058C340.591 54.476 340.218 55.4563 340.062 56.4816C339.475 54.4552 338.137 52.7287 336.322 51.6536C334.385 50.7238 332.172 50.5478 330.113 51.1598C332.725 51.5202 335.153 52.7056 337.044 54.5431C338.849 56.2757 340.007 58.5727 340.327 61.0536Z" fill="#F9E7DF"/>
<path d="M318.007 54.6071C303.376 63.5865 292.915 79.049 291.105 95.7551C290.94 81.1247 299.444 66.3114 312.246 57.8807C314.082 56.6473 316.007 55.5531 318.007 54.6071Z" fill="#E7A661"/>
<path d="M309.292 72.319C299.645 84.3068 301.831 100.327 305.991 114.253C299.865 102.979 299.024 88.3119 305.434 76.8453C306.505 75.1656 307.803 73.6424 309.292 72.319Z" fill="#E7A661"/>
<path d="M365.016 103.235C365.784 101.662 366.488 100.08 367.101 98.48C367.717 96.8842 368.239 95.2538 368.664 93.5971C370.411 86.9952 370.605 80.0784 369.231 73.3889C368.614 70.018 367.262 66.8244 365.272 64.0346C367.732 66.5726 369.452 69.7344 370.246 73.1786C370.695 74.8751 371.022 76.6016 371.225 78.3449C371.415 80.0907 371.491 81.847 371.453 83.6027C371.332 87.1128 370.716 90.5882 369.624 93.9263C369.095 95.59 368.438 97.2103 367.658 98.7726C366.889 100.323 366.006 101.815 365.016 103.235Z" fill="#E7A661"/>
<path d="M323.575 71.871C321.689 75.885 320.804 80.2965 320.997 84.7274C320.091 82.5724 319.853 80.1953 320.313 77.9035C320.772 75.6116 321.909 73.5103 323.575 71.871Z" fill="#E7A661"/>
<path d="M337.803 122.172C336.7 120.66 335.385 119.314 333.899 118.176C332.401 117.039 330.841 115.986 329.226 115.021C326.657 112.681 322.643 112.059 319.936 108.758C323.292 110.715 327.974 111.336 330.909 114.464C332.117 115.281 333.28 116.163 334.393 117.106C335.946 118.474 337.12 120.219 337.803 122.172Z" fill="#E7A661"/>
<path d="M298.713 103.409C299.183 108.276 300.696 112.985 303.148 117.216C304.352 119.369 305.78 121.389 307.409 123.242C309.036 125.104 310.878 126.767 312.895 128.198C321.628 134.087 331.009 137.982 339.742 143.221C331.009 137.982 320.969 134.763 312.31 128.984C310.268 127.483 308.409 125.75 306.769 123.818C305.117 121.907 303.695 119.807 302.535 117.563C301.368 115.339 300.449 112.993 299.792 110.568C299.158 108.231 298.796 105.829 298.713 103.409Z" fill="#F0C69B"/>
<path d="M386.047 109.242C385.775 111.977 385.078 114.651 383.98 117.17C382.887 119.703 381.454 122.075 379.719 124.22C376.233 128.749 371.567 132.229 366.232 134.279C370.877 131.535 375.504 128.17 378.969 123.644C380.66 121.561 382.111 119.294 383.295 116.887C384.494 114.449 385.417 111.885 386.047 109.242Z" fill="#F0C69B"/>
<path d="M356.997 75.3182C356.382 77.4303 355.458 79.4395 354.253 81.2801C353.11 83.1089 351.785 84.8828 350.486 86.6111C347.541 89.8676 345.27 93.6744 343.802 97.8124C344.415 93.1307 347.039 89.0982 349.709 86.035C351.026 84.2976 352.37 82.606 353.632 80.8595C354.919 79.1184 356.046 77.2637 356.997 75.3182Z" fill="#F0C69B"/>
<path d="M338.023 111.373C335.874 102.567 326.511 100.007 321.106 94.0634C325.157 98.6903 332.5 99.2755 335.581 105.091C336.931 106.935 337.773 109.101 338.023 111.373Z" fill="#F0C69B"/>
<path d="M363.397 113.97C357.408 118.999 352.809 125.061 348.218 131.782C351.501 127.073 353.43 121.047 358.578 117.573C360.061 116.214 361.675 115.007 363.397 113.97Z" fill="#F0C69B"/>
<path opacity="0.78" d="M404.887 127.139C418.396 93.2616 401.884 54.8472 368.007 41.3383C334.129 27.8293 295.715 44.3414 282.206 78.219C268.697 112.097 285.209 150.511 319.086 164.02C352.964 177.529 391.378 161.017 404.887 127.139Z" fill="url(#paint2_radial_12_52)"/>
</g>
</g>
<defs>
<filter id="filter0_d_12_52" x="221" y="-3" width="236.004" height="229" filterUnits="userSpaceOnUse" color-interpolation-filters="sRGB">
<feFlood flood-opacity="0" result="BackgroundImageFix"/>
<feColorMatrix in="SourceAlpha" type="matrix" values="0 0 0 0 0 0 0 0 0 0 0 0 0 0 0 0 0 0 127 0" result="hardAlpha"/>
<feOffset dx="-8" dy="8"/>
<feGaussianBlur stdDeviation="4"/>
<feComposite in2="hardAlpha" operator="out"/>
<feColorMatrix type="matrix" values="0 0 0 0 0 0 0 0 0 0 0 0 0 0 0 0 0 0 0.25 0"/>
<feBlend mode="normal" in2="BackgroundImageFix" result="effect1_dropShadow_12_52"/>
<feBlend mode="normal" in="SourceGraphic" in2="effect1_dropShadow_12_52" result="shape"/>
</filter>
<radialGradient id="paint0_radial_12_52" cx="0" cy="0" r="1" gradientUnits="userSpaceOnUse" gradientTransform="translate(343.5 103.5) scale(106.5)">
<stop stop-color="white"/>
<stop offset="0.91" stop-color="#C4C4C4"/>
<stop offset="0.97" stop-color="#F8F8F8"/>
<stop offset="0.98" stop-color="#F5F5F5"/>
<stop offset="0.99" stop-color="#C9C9C9"/>
<stop offset="1" stop-color="#A3A3A3"/>
</radialGradient>
<radialGradient id="paint1_radial_12_52" cx="0" cy="0" r="1" gradientUnits="userSpaceOnUse" gradientTransform="translate(343.5 103.5) scale(76.3248)">
<stop stop-color="white"/>
<stop offset="0.76" stop-color="#737373"/>
<stop offset="0.79" stop-color="#777777"/>
<stop offset="0.83" stop-color="#848484"/>
<stop offset="0.87" stop-color="#999999"/>
<stop offset="0.9" stop-color="#B6B6B6"/>
<stop offset="0.92" stop-color="#C4C4C4"/>
<stop offset="0.97" stop-color="#F8F8F8"/>
<stop offset="0.98" stop-color="#F5F5F5"/>
<stop offset="0.99" stop-color="#C9C9C9"/>
<stop offset="1" stop-color="#A3A3A3"/>
</radialGradient>
<radialGradient id="paint2_radial_12_52" cx="0" cy="0" r="1" gradientUnits="userSpaceOnUse" gradientTransform="translate(341.422 105.866) rotate(-0.659999) scale(70.7379)">
<stop offset="0.58" stop-color="#704435" stop-opacity="0"/>
<stop offset="0.76" stop-color="#704435" stop-opacity="0.02"/>
<stop offset="0.83" stop-color="#704435" stop-opacity="0.08"/>
<stop offset="0.88" stop-color="#704435" stop-opacity="0.18"/>
<stop offset="0.92" stop-color="#704435" stop-opacity="0.33"/>
<stop offset="0.95" stop-color="#704435" stop-opacity="0.53"/>
<stop offset="0.98" stop-color="#704435" stop-opacity="0.77"/>
<stop offset="1" stop-color="#704435"/>
</radialGradient>
<clipPath id="clip0_12_52">
<rect width="370" height="207" fill="white"/>
</clipPath>
</defs>
</svg>
