<svg width="370" height="207" viewBox="0 0 370 207" fill="none" xmlns="http://www.w3.org/2000/svg">
<g clip-path="url(#clip0_2_25)">
<rect width="370" height="207" fill="#14141F"/>
<path d="M-25.25 41V229M70.25 41V229M-73 88H-25.25M-73 182H-25.25M-73 135H118M70.25 88H118M70.25 182H118M-73 64.5C-73 58.2674 -70.4846 52.2901 -66.0072 47.883C-61.5297 43.4759 -55.457 41 -49.125 41H94.125C100.457 41 106.53 43.4759 111.007 47.883C115.485 52.2901 118 58.2674 118 64.5V205.5C118 211.733 115.485 217.71 111.007 222.117C106.53 226.524 100.457 229 94.125 229H-49.125C-55.457 229 -61.5297 226.524 -66.0072 222.117C-70.4846 217.71 -73 211.733 -73 205.5V64.5Z" stroke="#A6042E" stroke-width="5" stroke-linecap="round" stroke-linejoin="round"/>
<path d="M161.712 70V52.5455H173.269V55.5881H165.403V59.7472H172.502V62.7898H165.403V70H161.712ZM175.683 70V56.9091H179.314V70H175.683ZM177.507 55.2216C176.967 55.2216 176.504 55.0426 176.118 54.6847C175.737 54.321 175.547 53.8864 175.547 53.3807C175.547 52.8807 175.737 52.4517 176.118 52.0938C176.504 51.7301 176.967 51.5483 177.507 51.5483C178.047 51.5483 178.507 51.7301 178.888 52.0938C179.274 52.4517 179.467 52.8807 179.467 53.3807C179.467 53.8864 179.274 54.321 178.888 54.6847C178.507 55.0426 178.047 55.2216 177.507 55.2216ZM185.853 52.5455V70H182.222V52.5455H185.853ZM188.761 70V56.9091H192.222V59.2188H192.375C192.648 58.4517 193.102 57.8466 193.739 57.4034C194.375 56.9602 195.136 56.7386 196.023 56.7386C196.92 56.7386 197.685 56.9631 198.315 57.4119C198.946 57.8551 199.366 58.4574 199.577 59.2188H199.713C199.98 58.4688 200.463 57.8693 201.162 57.4205C201.866 56.9659 202.699 56.7386 203.659 56.7386C204.881 56.7386 205.872 57.1278 206.634 57.9062C207.401 58.679 207.784 59.7756 207.784 61.196V70H204.162V61.9119C204.162 61.1847 203.969 60.6392 203.582 60.2756C203.196 59.9119 202.713 59.7301 202.134 59.7301C201.474 59.7301 200.96 59.9403 200.591 60.3608C200.222 60.7756 200.037 61.3239 200.037 62.0057V70H196.517V61.8352C196.517 61.1932 196.332 60.6818 195.963 60.3011C195.599 59.9205 195.119 59.7301 194.523 59.7301C194.119 59.7301 193.756 59.8324 193.432 60.0369C193.114 60.2358 192.861 60.517 192.673 60.8807C192.486 61.2386 192.392 61.6591 192.392 62.142V70H188.761ZM216.618 70.2557C215.271 70.2557 214.112 69.983 213.141 69.4375C212.175 68.8864 211.43 68.108 210.908 67.1023C210.385 66.0909 210.124 64.8949 210.124 63.5142C210.124 62.1676 210.385 60.9858 210.908 59.9688C211.43 58.9517 212.166 58.1591 213.115 57.5909C214.07 57.0227 215.189 56.7386 216.473 56.7386C217.337 56.7386 218.141 56.8778 218.885 57.1562C219.635 57.429 220.288 57.8409 220.845 58.392C221.408 58.9432 221.845 59.6364 222.158 60.4716C222.47 61.3011 222.626 62.2727 222.626 63.3864V64.3835H211.572V62.1335H219.209C219.209 61.6108 219.095 61.1477 218.868 60.7443C218.641 60.3409 218.325 60.0256 217.922 59.7983C217.524 59.5653 217.061 59.4489 216.533 59.4489C215.982 59.4489 215.493 59.5767 215.067 59.8324C214.646 60.0824 214.317 60.4205 214.078 60.8466C213.839 61.267 213.717 61.7358 213.712 62.2528V64.392C213.712 65.0398 213.831 65.5994 214.07 66.071C214.314 66.5426 214.658 66.9062 215.101 67.1619C215.544 67.4176 216.07 67.5455 216.678 67.5455C217.081 67.5455 217.45 67.4886 217.786 67.375C218.121 67.2614 218.408 67.0909 218.646 66.8636C218.885 66.6364 219.067 66.358 219.192 66.0284L222.55 66.25C222.379 67.0568 222.03 67.7614 221.501 68.3636C220.979 68.9602 220.303 69.4261 219.473 69.7614C218.649 70.0909 217.697 70.2557 216.618 70.2557ZM224.996 70V56.9091H228.456V59.2188H228.609C228.882 58.4517 229.337 57.8466 229.973 57.4034C230.609 56.9602 231.371 56.7386 232.257 56.7386C233.155 56.7386 233.919 56.9631 234.55 57.4119C235.18 57.8551 235.601 58.4574 235.811 59.2188H235.947C236.214 58.4688 236.697 57.8693 237.396 57.4205C238.101 56.9659 238.933 56.7386 239.893 56.7386C241.115 56.7386 242.107 57.1278 242.868 57.9062C243.635 58.679 244.018 59.7756 244.018 61.196V70H240.396V61.9119C240.396 61.1847 240.203 60.6392 239.817 60.2756C239.43 59.9119 238.947 59.7301 238.368 59.7301C237.709 59.7301 237.195 59.9403 236.825 60.3608C236.456 60.7756 236.271 61.3239 236.271 62.0057V70H232.751V61.8352C232.751 61.1932 232.567 60.6818 232.197 60.3011C231.834 59.9205 231.354 59.7301 230.757 59.7301C230.354 59.7301 229.99 59.8324 229.666 60.0369C229.348 60.2358 229.095 60.517 228.908 60.8807C228.72 61.2386 228.626 61.6591 228.626 62.142V70H224.996ZM279.955 62.4318V70H276.324V56.9091H279.784V59.2188H279.938C280.227 58.4574 280.713 57.8551 281.395 57.4119C282.077 56.9631 282.903 56.7386 283.875 56.7386C284.784 56.7386 285.577 56.9375 286.253 57.3352C286.929 57.733 287.455 58.3011 287.83 59.0398C288.205 59.7727 288.392 60.6477 288.392 61.6648V70H284.761V62.3125C284.767 61.5114 284.563 60.8864 284.148 60.4375C283.733 59.983 283.162 59.7557 282.435 59.7557C281.946 59.7557 281.514 59.8608 281.139 60.071C280.77 60.2812 280.48 60.5881 280.27 60.9915C280.065 61.3892 279.96 61.8693 279.955 62.4318Z" fill="white"/>
<path d="M252.801 70.2557C251.477 70.2557 250.332 69.9744 249.366 69.4119C248.406 68.8437 247.665 68.054 247.142 67.0426C246.619 66.0256 246.358 64.8466 246.358 63.5057C246.358 62.1534 246.619 60.9716 247.142 59.9602C247.665 58.9432 248.406 58.1534 249.366 57.5909C250.332 57.0227 251.477 56.7386 252.801 56.7386C254.125 56.7386 255.267 57.0227 256.227 57.5909C257.193 58.1534 257.938 58.9432 258.46 59.9602C258.983 60.9716 259.244 62.1534 259.244 63.5057C259.244 64.8466 258.983 66.0256 258.46 67.0426C257.938 68.054 257.193 68.8437 256.227 69.4119C255.267 69.9744 254.125 70.2557 252.801 70.2557ZM252.818 67.4432C253.42 67.4432 253.923 67.2727 254.327 66.9318C254.73 66.5852 255.034 66.1136 255.239 65.517C255.449 64.9205 255.554 64.2415 255.554 63.4801C255.554 62.7188 255.449 62.0398 255.239 61.4432C255.034 60.8466 254.73 60.375 254.327 60.0284C253.923 59.6818 253.42 59.5085 252.818 59.5085C252.21 59.5085 251.699 59.6818 251.284 60.0284C250.875 60.375 250.565 60.8466 250.355 61.4432C250.151 62.0398 250.048 62.7188 250.048 63.4801C250.048 64.2415 250.151 64.9205 250.355 65.517C250.565 66.1136 250.875 66.5852 251.284 66.9318C251.699 67.2727 252.21 67.4432 252.818 67.4432ZM267.52 70.2557C266.196 70.2557 265.051 69.9744 264.085 69.4119C263.125 68.8437 262.384 68.054 261.861 67.0426C261.338 66.0256 261.077 64.8466 261.077 63.5057C261.077 62.1534 261.338 60.9716 261.861 59.9602C262.384 58.9432 263.125 58.1534 264.085 57.5909C265.051 57.0227 266.196 56.7386 267.52 56.7386C268.844 56.7386 269.986 57.0227 270.946 57.5909C271.912 58.1534 272.656 58.9432 273.179 59.9602C273.702 60.9716 273.963 62.1534 273.963 63.5057C273.963 64.8466 273.702 66.0256 273.179 67.0426C272.656 68.054 271.912 68.8437 270.946 69.4119C269.986 69.9744 268.844 70.2557 267.52 70.2557ZM267.537 67.4432C268.139 67.4432 268.642 67.2727 269.045 66.9318C269.449 66.5852 269.753 66.1136 269.957 65.517C270.168 64.9205 270.273 64.2415 270.273 63.4801C270.273 62.7188 270.168 62.0398 269.957 61.4432C269.753 60.8466 269.449 60.375 269.045 60.0284C268.642 59.6818 268.139 59.5085 267.537 59.5085C266.929 59.5085 266.418 59.6818 266.003 60.0284C265.594 60.375 265.284 60.8466 265.074 61.4432C264.869 62.0398 264.767 62.7188 264.767 63.4801C264.767 64.2415 264.869 64.9205 265.074 65.517C265.284 66.1136 265.594 66.5852 266.003 66.9318C266.418 67.2727 266.929 67.4432 267.537 67.4432Z" fill="#A6042E"/>
<path d="M165.719 86.5653C165.673 86.1619 165.486 85.8494 165.156 85.6278C164.827 85.4034 164.412 85.2912 163.912 85.2912C163.554 85.2912 163.244 85.348 162.983 85.4616C162.722 85.5724 162.518 85.7259 162.374 85.9219C162.232 86.1151 162.161 86.3352 162.161 86.5824C162.161 86.7898 162.209 86.9687 162.305 87.1193C162.405 87.2699 162.534 87.3963 162.693 87.4986C162.855 87.598 163.028 87.6818 163.213 87.75C163.398 87.8153 163.575 87.8693 163.746 87.9119L164.598 88.1335C164.876 88.2017 165.162 88.294 165.455 88.4105C165.747 88.527 166.018 88.6804 166.268 88.8707C166.518 89.0611 166.72 89.2969 166.874 89.5781C167.03 89.8594 167.108 90.196 167.108 90.5881C167.108 91.0824 166.98 91.5213 166.724 91.9048C166.472 92.2884 166.104 92.5909 165.621 92.8125C165.141 93.0341 164.56 93.1449 163.878 93.1449C163.224 93.1449 162.659 93.0412 162.182 92.8338C161.705 92.6264 161.331 92.3324 161.061 91.9517C160.791 91.5682 160.642 91.1136 160.614 90.5881H161.935C161.96 90.9034 162.063 91.1662 162.241 91.3764C162.423 91.5838 162.655 91.7386 162.936 91.8409C163.22 91.9403 163.531 91.9901 163.869 91.9901C164.241 91.9901 164.572 91.9318 164.862 91.8153C165.155 91.696 165.385 91.5312 165.553 91.321C165.72 91.108 165.804 90.8594 165.804 90.5753C165.804 90.3168 165.73 90.1051 165.582 89.9403C165.438 89.7756 165.24 89.6392 164.99 89.5312C164.743 89.4233 164.463 89.3281 164.151 89.2457L163.119 88.9645C162.42 88.7741 161.866 88.4943 161.457 88.125C161.051 87.7557 160.848 87.267 160.848 86.6591C160.848 86.1562 160.984 85.7173 161.257 85.3423C161.53 84.9673 161.899 84.6761 162.365 84.4688C162.831 84.2585 163.357 84.1534 163.942 84.1534C164.533 84.1534 165.054 84.2571 165.506 84.4645C165.96 84.6719 166.318 84.9574 166.58 85.321C166.841 85.6818 166.977 86.0966 166.989 86.5653H165.719ZM169.385 95.4545C169.194 95.4545 169.021 95.4389 168.865 95.4077C168.708 95.3793 168.592 95.348 168.515 95.3139L168.822 94.2699C169.055 94.3324 169.262 94.3594 169.444 94.3509C169.626 94.3423 169.787 94.2741 169.926 94.1463C170.068 94.0185 170.193 93.8097 170.301 93.5199L170.458 93.0852L168.064 86.4545H169.427L171.085 91.5341H171.153L172.811 86.4545H174.179L171.481 93.8736C171.356 94.2145 171.197 94.5028 171.004 94.7386C170.811 94.9773 170.581 95.1563 170.314 95.2756C170.047 95.3949 169.737 95.4545 169.385 95.4545ZM176.65 89.1136V93H175.376V86.4545H176.599V87.5199H176.68C176.831 87.1733 177.066 86.8949 177.387 86.6847C177.711 86.4744 178.119 86.3693 178.61 86.3693C179.056 86.3693 179.447 86.4631 179.782 86.6506C180.118 86.8352 180.377 87.1108 180.562 87.4773C180.747 87.8437 180.839 88.2969 180.839 88.8366V93H179.565V88.9901C179.565 88.5156 179.441 88.1449 179.194 87.8778C178.947 87.608 178.608 87.473 178.176 87.473C177.88 87.473 177.618 87.5369 177.387 87.6648C177.16 87.7926 176.98 87.9801 176.846 88.2273C176.716 88.4716 176.65 88.767 176.65 89.1136ZM185.305 93.1321C184.672 93.1321 184.126 92.9886 183.669 92.7017C183.214 92.4119 182.865 92.0128 182.62 91.5043C182.376 90.9957 182.254 90.4134 182.254 89.7571C182.254 89.0923 182.379 88.5057 182.629 87.9972C182.879 87.4858 183.231 87.0866 183.686 86.7997C184.14 86.5128 184.676 86.3693 185.292 86.3693C185.789 86.3693 186.233 86.4616 186.622 86.6463C187.011 86.8281 187.325 87.0838 187.564 87.4134C187.805 87.7429 187.949 88.1278 187.994 88.5682H186.754C186.686 88.2614 186.529 87.9972 186.285 87.7756C186.044 87.554 185.72 87.4432 185.314 87.4432C184.958 87.4432 184.647 87.5369 184.38 87.7244C184.116 87.9091 183.91 88.1733 183.762 88.517C183.615 88.858 183.541 89.2614 183.541 89.7273C183.541 90.2045 183.613 90.6165 183.758 90.9631C183.903 91.3097 184.108 91.5781 184.372 91.7685C184.639 91.9588 184.953 92.054 185.314 92.054C185.555 92.054 185.774 92.0099 185.97 91.9219C186.169 91.831 186.335 91.7017 186.468 91.5341C186.605 91.3665 186.7 91.1648 186.754 90.929H187.994C187.949 91.3523 187.811 91.7301 187.581 92.0625C187.35 92.3949 187.042 92.6562 186.656 92.8466C186.272 93.0369 185.822 93.1321 185.305 93.1321ZM190.631 89.1136V93H189.357V84.2727H190.614V87.5199H190.695C190.848 87.1676 191.082 86.8878 191.398 86.6804C191.713 86.473 192.125 86.3693 192.634 86.3693C193.082 86.3693 193.474 86.4616 193.81 86.6463C194.148 86.831 194.409 87.1065 194.594 87.473C194.781 87.8366 194.875 88.2912 194.875 88.8366V93H193.601V88.9901C193.601 88.5099 193.477 88.1378 193.23 87.8736C192.983 87.6065 192.639 87.473 192.199 87.473C191.898 87.473 191.628 87.5369 191.389 87.6648C191.153 87.7926 190.967 87.9801 190.831 88.2273C190.697 88.4716 190.631 88.767 190.631 89.1136ZM196.575 93V86.4545H197.807V87.4943H197.875C197.994 87.142 198.205 86.8651 198.506 86.6634C198.81 86.4588 199.153 86.3565 199.537 86.3565C199.616 86.3565 199.71 86.3594 199.818 86.3651C199.929 86.3707 200.016 86.3778 200.078 86.3864V87.6051C200.027 87.5909 199.936 87.5753 199.805 87.5582C199.675 87.5384 199.544 87.5284 199.413 87.5284C199.112 87.5284 198.844 87.5923 198.608 87.7202C198.375 87.8452 198.19 88.0199 198.054 88.2443C197.918 88.4659 197.849 88.7187 197.849 89.0028V93H196.575ZM203.703 93.1321C203.09 93.1321 202.554 92.9915 202.097 92.7102C201.64 92.429 201.284 92.0355 201.032 91.5298C200.779 91.0241 200.652 90.4332 200.652 89.7571C200.652 89.0781 200.779 88.4844 201.032 87.9759C201.284 87.4673 201.64 87.0724 202.097 86.7912C202.554 86.5099 203.09 86.3693 203.703 86.3693C204.317 86.3693 204.853 86.5099 205.31 86.7912C205.767 87.0724 206.123 87.4673 206.375 87.9759C206.628 88.4844 206.755 89.0781 206.755 89.7571C206.755 90.4332 206.628 91.0241 206.375 91.5298C206.123 92.0355 205.767 92.429 205.31 92.7102C204.853 92.9915 204.317 93.1321 203.703 93.1321ZM203.708 92.0625C204.105 92.0625 204.435 91.9574 204.696 91.7472C204.958 91.5369 205.151 91.2571 205.276 90.9077C205.404 90.5582 205.468 90.1733 205.468 89.7528C205.468 89.3352 205.404 88.9517 205.276 88.6023C205.151 88.25 204.958 87.9673 204.696 87.7543C204.435 87.5412 204.105 87.4347 203.708 87.4347C203.307 87.4347 202.975 87.5412 202.711 87.7543C202.449 87.9673 202.255 88.25 202.127 88.6023C202.002 88.9517 201.939 89.3352 201.939 89.7528C201.939 90.1733 202.002 90.5582 202.127 90.9077C202.255 91.2571 202.449 91.5369 202.711 91.7472C202.975 91.9574 203.307 92.0625 203.708 92.0625ZM209.451 89.1136V93H208.177V86.4545H209.4V87.5199H209.481C209.631 87.1733 209.867 86.8949 210.188 86.6847C210.512 86.4744 210.92 86.3693 211.411 86.3693C211.857 86.3693 212.248 86.4631 212.583 86.6506C212.918 86.8352 213.178 87.1108 213.363 87.4773C213.548 87.8437 213.64 88.2969 213.64 88.8366V93H212.366V88.9901C212.366 88.5156 212.242 88.1449 211.995 87.8778C211.748 87.608 211.408 87.473 210.977 87.473C210.681 87.473 210.418 87.5369 210.188 87.6648C209.961 87.7926 209.781 87.9801 209.647 88.2273C209.516 88.4716 209.451 88.767 209.451 89.1136ZM215.349 93V86.4545H216.623V93H215.349ZM215.992 85.4446C215.771 85.4446 215.58 85.3707 215.421 85.223C215.265 85.0724 215.187 84.8935 215.187 84.6861C215.187 84.4759 215.265 84.2969 215.421 84.1491C215.58 83.9986 215.771 83.9233 215.992 83.9233C216.214 83.9233 216.403 83.9986 216.559 84.1491C216.718 84.2969 216.798 84.4759 216.798 84.6861C216.798 84.8935 216.718 85.0724 216.559 85.223C216.403 85.3707 216.214 85.4446 215.992 85.4446ZM218.201 93V92.1264L221.746 87.6222V87.5625H218.316V86.4545H223.336V87.3835L219.926 91.8324V91.892H223.455V93H218.201ZM227.592 93.1321C226.947 93.1321 226.391 92.9943 225.925 92.7188C225.462 92.4403 225.104 92.0497 224.852 91.5469C224.602 91.0412 224.477 90.4489 224.477 89.7699C224.477 89.0994 224.602 88.5085 224.852 87.9972C225.104 87.4858 225.457 87.0866 225.908 86.7997C226.363 86.5128 226.894 86.3693 227.502 86.3693C227.871 86.3693 228.229 86.4304 228.576 86.5526C228.923 86.6747 229.234 86.8665 229.509 87.1278C229.785 87.3892 230.002 87.7287 230.161 88.1463C230.32 88.5611 230.4 89.0653 230.4 89.6591V90.1108H225.197V89.1562H229.151C229.151 88.821 229.083 88.5241 228.947 88.2656C228.81 88.0043 228.619 87.7983 228.371 87.6477C228.127 87.4972 227.84 87.4219 227.511 87.4219C227.153 87.4219 226.84 87.5099 226.573 87.6861C226.309 87.8594 226.104 88.0866 225.96 88.3679C225.817 88.6463 225.746 88.9489 225.746 89.2756V90.0213C225.746 90.4588 225.823 90.831 225.977 91.1378C226.133 91.4446 226.35 91.679 226.629 91.8409C226.907 92 227.232 92.0795 227.604 92.0795C227.846 92.0795 228.066 92.0455 228.265 91.9773C228.464 91.9062 228.636 91.8011 228.781 91.6619C228.925 91.5227 229.036 91.3509 229.113 91.1463L230.319 91.3636C230.222 91.7187 230.049 92.0298 229.799 92.2969C229.552 92.5611 229.241 92.767 228.866 92.9148C228.494 93.0597 228.069 93.1321 227.592 93.1321ZM234.264 93.1278C233.735 93.1278 233.264 92.9929 232.849 92.723C232.437 92.4503 232.113 92.0625 231.877 91.5597C231.645 91.054 231.528 90.4474 231.528 89.7401C231.528 89.0327 231.646 88.4276 231.882 87.9247C232.12 87.4219 232.447 87.0369 232.862 86.7699C233.277 86.5028 233.747 86.3693 234.272 86.3693C234.679 86.3693 235.005 86.4375 235.252 86.5739C235.502 86.7074 235.696 86.8636 235.832 87.0426C235.971 87.2216 236.079 87.3793 236.156 87.5156H236.233V84.2727H237.507V93H236.262V91.9815H236.156C236.079 92.1207 235.968 92.2798 235.824 92.4588C235.681 92.6378 235.485 92.794 235.235 92.9276C234.985 93.0611 234.662 93.1278 234.264 93.1278ZM234.545 92.0412C234.912 92.0412 235.221 91.9446 235.474 91.7514C235.73 91.5554 235.923 91.2841 236.054 90.9375C236.187 90.5909 236.254 90.1875 236.254 89.7273C236.254 89.2727 236.189 88.875 236.058 88.5341C235.927 88.1932 235.735 87.9276 235.483 87.7372C235.23 87.5469 234.917 87.4517 234.545 87.4517C234.162 87.4517 233.842 87.5511 233.586 87.75C233.331 87.9489 233.137 88.2202 233.007 88.5639C232.879 88.9077 232.815 89.2955 232.815 89.7273C232.815 90.1648 232.88 90.5582 233.011 90.9077C233.142 91.2571 233.335 91.5341 233.591 91.7386C233.849 91.9403 234.167 92.0412 234.545 92.0412ZM243.366 84.2727L245.795 91.3807H245.893L248.322 84.2727H249.745L246.605 93H245.083L241.943 84.2727H243.366ZM250.903 93V86.4545H252.178V93H250.903ZM251.547 85.4446C251.325 85.4446 251.135 85.3707 250.976 85.223C250.82 85.0724 250.741 84.8935 250.741 84.6861C250.741 84.4759 250.82 84.2969 250.976 84.1491C251.135 83.9986 251.325 83.9233 251.547 83.9233C251.768 83.9233 251.957 83.9986 252.114 84.1491C252.273 84.2969 252.352 84.4759 252.352 84.6861C252.352 84.8935 252.273 85.0724 252.114 85.223C251.957 85.3707 251.768 85.4446 251.547 85.4446ZM256.342 93.1278C255.814 93.1278 255.342 92.9929 254.927 92.723C254.515 92.4503 254.191 92.0625 253.956 91.5597C253.723 91.054 253.606 90.4474 253.606 89.7401C253.606 89.0327 253.724 88.4276 253.96 87.9247C254.199 87.4219 254.525 87.0369 254.94 86.7699C255.355 86.5028 255.825 86.3693 256.35 86.3693C256.757 86.3693 257.083 86.4375 257.331 86.5739C257.581 86.7074 257.774 86.8636 257.91 87.0426C258.049 87.2216 258.157 87.3793 258.234 87.5156H258.311V84.2727H259.585V93H258.341V91.9815H258.234C258.157 92.1207 258.047 92.2798 257.902 92.4588C257.76 92.6378 257.564 92.794 257.314 92.9276C257.064 93.0611 256.74 93.1278 256.342 93.1278ZM256.623 92.0412C256.99 92.0412 257.299 91.9446 257.552 91.7514C257.808 91.5554 258.001 91.2841 258.132 90.9375C258.265 90.5909 258.332 90.1875 258.332 89.7273C258.332 89.2727 258.267 88.875 258.136 88.5341C258.005 88.1932 257.814 87.9276 257.561 87.7372C257.308 87.5469 256.995 87.4517 256.623 87.4517C256.24 87.4517 255.92 87.5511 255.664 87.75C255.409 87.9489 255.216 88.2202 255.085 88.5639C254.957 88.9077 254.893 89.2955 254.893 89.7273C254.893 90.1648 254.958 90.5582 255.089 90.9077C255.22 91.2571 255.413 91.5341 255.669 91.7386C255.927 91.9403 256.245 92.0412 256.623 92.0412ZM264.224 93.1321C263.58 93.1321 263.024 92.9943 262.558 92.7188C262.095 92.4403 261.737 92.0497 261.484 91.5469C261.234 91.0412 261.109 90.4489 261.109 89.7699C261.109 89.0994 261.234 88.5085 261.484 87.9972C261.737 87.4858 262.089 87.0866 262.541 86.7997C262.996 86.5128 263.527 86.3693 264.135 86.3693C264.504 86.3693 264.862 86.4304 265.209 86.5526C265.555 86.6747 265.866 86.8665 266.142 87.1278C266.418 87.3892 266.635 87.7287 266.794 88.1463C266.953 88.5611 267.033 89.0653 267.033 89.6591V90.1108H261.83V89.1562H265.784C265.784 88.821 265.716 88.5241 265.58 88.2656C265.443 88.0043 265.251 87.7983 265.004 87.6477C264.76 87.4972 264.473 87.4219 264.143 87.4219C263.786 87.4219 263.473 87.5099 263.206 87.6861C262.942 87.8594 262.737 88.0866 262.592 88.3679C262.45 88.6463 262.379 88.9489 262.379 89.2756V90.0213C262.379 90.4588 262.456 90.831 262.609 91.1378C262.766 91.4446 262.983 91.679 263.261 91.8409C263.54 92 263.865 92.0795 264.237 92.0795C264.479 92.0795 264.699 92.0455 264.898 91.9773C265.097 91.9062 265.268 91.8011 265.413 91.6619C265.558 91.5227 265.669 91.3509 265.746 91.1463L266.952 91.3636C266.855 91.7187 266.682 92.0298 266.432 92.2969C266.185 92.5611 265.874 92.767 265.499 92.9148C265.126 93.0597 264.702 93.1321 264.224 93.1321ZM271.203 93.1321C270.59 93.1321 270.054 92.9915 269.597 92.7102C269.14 92.429 268.784 92.0355 268.532 91.5298C268.279 91.0241 268.152 90.4332 268.152 89.7571C268.152 89.0781 268.279 88.4844 268.532 87.9759C268.784 87.4673 269.14 87.0724 269.597 86.7912C270.054 86.5099 270.59 86.3693 271.203 86.3693C271.817 86.3693 272.353 86.5099 272.81 86.7912C273.267 87.0724 273.623 87.4673 273.875 87.9759C274.128 88.4844 274.255 89.0781 274.255 89.7571C274.255 90.4332 274.128 91.0241 273.875 91.5298C273.623 92.0355 273.267 92.429 272.81 92.7102C272.353 92.9915 271.817 93.1321 271.203 93.1321ZM271.208 92.0625C271.605 92.0625 271.935 91.9574 272.196 91.7472C272.458 91.5369 272.651 91.2571 272.776 90.9077C272.904 90.5582 272.968 90.1733 272.968 89.7528C272.968 89.3352 272.904 88.9517 272.776 88.6023C272.651 88.25 272.458 87.9673 272.196 87.7543C271.935 87.5412 271.605 87.4347 271.208 87.4347C270.807 87.4347 270.475 87.5412 270.211 87.7543C269.949 87.9673 269.755 88.25 269.627 88.6023C269.502 88.9517 269.439 89.3352 269.439 89.7528C269.439 90.1733 269.502 90.5582 269.627 90.9077C269.755 91.2571 269.949 91.5369 270.211 91.7472C270.475 91.9574 270.807 92.0625 271.208 92.0625ZM278.955 93V84.2727H282.066C282.745 84.2727 283.307 84.3963 283.753 84.6435C284.199 84.8906 284.533 85.2287 284.755 85.6577C284.976 86.0838 285.087 86.5639 285.087 87.098C285.087 87.6349 284.975 88.1179 284.75 88.5469C284.529 88.973 284.194 89.3111 283.745 89.5611C283.299 89.8082 282.738 89.9318 282.061 89.9318H279.922V88.8153H281.942C282.371 88.8153 282.719 88.7415 282.986 88.5938C283.253 88.4432 283.449 88.2386 283.574 87.9801C283.699 87.7216 283.762 87.4276 283.762 87.098C283.762 86.7685 283.699 86.4759 283.574 86.2202C283.449 85.9645 283.252 85.7642 282.982 85.6193C282.715 85.4744 282.363 85.402 281.925 85.402H280.272V93H278.955ZM287.803 84.2727V93H286.528V84.2727H287.803ZM291.422 93.1449C291.007 93.1449 290.632 93.0682 290.297 92.9148C289.961 92.7585 289.696 92.5327 289.5 92.2372C289.306 91.9418 289.21 91.5795 289.21 91.1506C289.21 90.7812 289.281 90.4773 289.423 90.2386C289.565 90 289.757 89.8111 289.998 89.6719C290.24 89.5327 290.51 89.4276 290.808 89.3565C291.106 89.2855 291.41 89.2315 291.72 89.1946C292.112 89.1491 292.43 89.1122 292.674 89.0838C292.919 89.0526 293.096 89.0028 293.207 88.9347C293.318 88.8665 293.373 88.7557 293.373 88.6023V88.5724C293.373 88.2003 293.268 87.9119 293.058 87.7074C292.85 87.5028 292.541 87.4006 292.129 87.4006C291.7 87.4006 291.362 87.4957 291.115 87.6861C290.87 87.8736 290.701 88.0824 290.608 88.3125L289.41 88.0398C289.552 87.642 289.76 87.321 290.032 87.0767C290.308 86.8295 290.625 86.6506 290.983 86.5398C291.341 86.4261 291.717 86.3693 292.112 86.3693C292.373 86.3693 292.65 86.4006 292.943 86.4631C293.238 86.5227 293.514 86.6335 293.77 86.7955C294.028 86.9574 294.24 87.1889 294.404 87.4901C294.569 87.7884 294.652 88.1761 294.652 88.6534V93H293.407V92.1051H293.356C293.274 92.2699 293.15 92.4318 292.985 92.5909C292.821 92.75 292.609 92.8821 292.35 92.9872C292.092 93.0923 291.782 93.1449 291.422 93.1449ZM291.699 92.1222C292.051 92.1222 292.352 92.0526 292.602 91.9134C292.855 91.7741 293.047 91.5923 293.177 91.3679C293.311 91.1406 293.377 90.8977 293.377 90.6392V89.7955C293.332 89.8409 293.244 89.8835 293.113 89.9233C292.985 89.9602 292.839 89.9929 292.674 90.0213C292.51 90.0469 292.349 90.071 292.193 90.0938C292.037 90.1136 291.906 90.1307 291.801 90.1449C291.554 90.1761 291.328 90.2287 291.123 90.3026C290.922 90.3764 290.76 90.483 290.637 90.6222C290.518 90.7585 290.458 90.9403 290.458 91.1676C290.458 91.483 290.575 91.7216 290.808 91.8835C291.041 92.0426 291.338 92.1222 291.699 92.1222ZM296.92 95.4545C296.729 95.4545 296.556 95.4389 296.4 95.4077C296.244 95.3793 296.127 95.348 296.05 95.3139L296.357 94.2699C296.59 94.3324 296.798 94.3594 296.979 94.3509C297.161 94.3423 297.322 94.2741 297.461 94.1463C297.603 94.0185 297.728 93.8097 297.836 93.5199L297.994 93.0852L295.599 86.4545H296.962L298.62 91.5341H298.688L300.346 86.4545H301.714L299.016 93.8736C298.891 94.2145 298.732 94.5028 298.539 94.7386C298.346 94.9773 298.116 95.1563 297.849 95.2756C297.582 95.3949 297.272 95.4545 296.92 95.4545ZM305.51 93.1321C304.865 93.1321 304.309 92.9943 303.843 92.7188C303.38 92.4403 303.022 92.0497 302.77 91.5469C302.52 91.0412 302.395 90.4489 302.395 89.7699C302.395 89.0994 302.52 88.5085 302.77 87.9972C303.022 87.4858 303.375 87.0866 303.826 86.7997C304.281 86.5128 304.812 86.3693 305.42 86.3693C305.789 86.3693 306.147 86.4304 306.494 86.5526C306.841 86.6747 307.152 86.8665 307.427 87.1278C307.703 87.3892 307.92 87.7287 308.079 88.1463C308.238 88.5611 308.318 89.0653 308.318 89.6591V90.1108H303.115V89.1562H307.069C307.069 88.821 307.001 88.5241 306.865 88.2656C306.728 88.0043 306.537 87.7983 306.289 87.6477C306.045 87.4972 305.758 87.4219 305.429 87.4219C305.071 87.4219 304.758 87.5099 304.491 87.6861C304.227 87.8594 304.022 88.0866 303.877 88.3679C303.735 88.6463 303.664 88.9489 303.664 89.2756V90.0213C303.664 90.4588 303.741 90.831 303.895 91.1378C304.051 91.4446 304.268 91.679 304.547 91.8409C304.825 92 305.15 92.0795 305.522 92.0795C305.764 92.0795 305.984 92.0455 306.183 91.9773C306.382 91.9062 306.554 91.8011 306.699 91.6619C306.843 91.5227 306.954 91.3509 307.031 91.1463L308.237 91.3636C308.14 91.7187 307.967 92.0298 307.717 92.2969C307.47 92.5611 307.159 92.767 306.784 92.9148C306.412 93.0597 305.987 93.1321 305.51 93.1321ZM309.732 93V86.4545H310.963V87.4943H311.031C311.151 87.142 311.361 86.8651 311.662 86.6634C311.966 86.4588 312.31 86.3565 312.693 86.3565C312.773 86.3565 312.866 86.3594 312.974 86.3651C313.085 86.3707 313.172 86.3778 313.234 86.3864V87.6051C313.183 87.5909 313.092 87.5753 312.962 87.5582C312.831 87.5384 312.7 87.5284 312.57 87.5284C312.268 87.5284 312 87.5923 311.764 87.7202C311.531 87.8452 311.347 88.0199 311.21 88.2443C311.074 88.4659 311.006 88.7187 311.006 89.0028V93H309.732Z" fill="#AEAEB3"/>
<path d="M167.338 135.661V128.327L176.804 141.344C174.461 142.799 171.658 143.321 168.949 142.807C166.239 142.293 163.822 140.78 162.176 138.567C160.529 136.355 159.774 133.605 160.059 130.862C160.344 128.12 161.649 125.584 163.715 123.758C165.782 121.932 168.459 120.948 171.216 121.002C173.973 121.056 176.609 122.144 178.602 124.05C180.595 125.955 181.8 128.54 181.977 131.292C182.155 134.044 181.292 136.762 179.56 138.908M174.671 131.994V128.327" stroke="#A6042E" stroke-linecap="round" stroke-linejoin="round"/>
<path d="M218.667 128.333H218.679M220.567 122.03L224.97 126.433C225.296 126.759 225.556 127.147 225.732 127.573C225.909 128 226 128.457 226 128.919C226 129.381 225.909 129.838 225.732 130.265C225.556 130.692 225.296 131.079 224.97 131.406L221.74 134.636C221.413 134.963 221.025 135.222 220.599 135.399C220.172 135.575 219.715 135.666 219.253 135.666C218.791 135.666 218.334 135.575 217.907 135.399C217.48 135.222 217.093 134.963 216.766 134.636L216.398 134.268L208.383 142.284C207.977 142.69 207.441 142.94 206.869 142.99L206.655 143H205.222C204.923 143 204.634 142.89 204.41 142.691C204.187 142.492 204.044 142.218 204.009 141.921L204 141.778V140.345C204 139.771 204.202 139.216 204.571 138.776L204.716 138.617L205.222 138.111H207.667V135.667H210.111V133.222L212.732 130.602L212.364 130.234C212.037 129.907 211.778 129.52 211.601 129.093C211.425 128.666 211.334 128.209 211.334 127.747C211.334 127.285 211.425 126.828 211.601 126.401C211.778 125.975 212.037 125.587 212.364 125.26L215.594 122.03C215.921 121.704 216.308 121.444 216.735 121.268C217.162 121.091 217.619 121 218.081 121C218.543 121 219 121.091 219.427 121.268C219.853 121.444 220.241 121.704 220.567 122.03Z" stroke="#A6042E" stroke-linecap="round" stroke-linejoin="round"/>
<path d="M248 132C248 133.445 248.285 134.875 248.837 136.21C249.39 137.544 250.2 138.757 251.222 139.778C252.243 140.8 253.456 141.61 254.79 142.163C256.125 142.715 257.555 143 259 143C260.445 143 261.875 142.715 263.21 142.163C264.544 141.61 265.757 140.8 266.778 139.778C267.8 138.757 268.61 137.544 269.163 136.21C269.715 134.875 270 133.445 270 132C270 130.555 269.715 129.125 269.163 127.79C268.61 126.456 267.8 125.243 266.778 124.222C265.757 123.2 264.544 122.39 263.21 121.837C261.875 121.285 260.445 121 259 121C257.555 121 256.125 121.285 254.79 121.837C253.456 122.39 252.243 123.2 251.222 124.222C250.2 125.243 249.39 126.456 248.837 127.79C248.285 129.125 248 130.555 248 132Z" stroke="#A6042E" stroke-linecap="round" stroke-linejoin="round"/>
<path d="M257.778 130.778H259L262.667 125.889L257.778 130.778Z" stroke="#A6042E" stroke-linecap="round" stroke-linejoin="round"/>
<path d="M259 133.222H260.222L255.333 138.111L259 133.222Z" stroke="#A6042E" stroke-linecap="round" stroke-linejoin="round"/>
</g>
<defs>
<clipPath id="clip0_2_25">
<rect width="370" height="207" fill="white"/>
</clipPath>
</defs>
</svg>
