<svg width="370" height="207" viewBox="0 0 370 207" fill="none" xmlns="http://www.w3.org/2000/svg">
<g clip-path="url(#clip0_2_25)">
<rect width="370" height="207" fill="#14141F"/>
<path d="M-25.25 41V229M70.25 41V229M-73 88H-25.25M-73 182H-25.25M-73 135H118M70.25 88H118M70.25 182H118M-73 64.5C-73 58.2674 -70.4846 52.2901 -66.0072 47.883C-61.5297 43.4759 -55.457 41 -49.125 41H94.125C100.457 41 106.53 43.4759 111.007 47.883C115.485 52.2901 118 58.2674 118 64.5V205.5C118 211.733 115.485 217.71 111.007 222.117C106.53 226.524 100.457 229 94.125 229H-49.125C-55.457 229 -61.5297 226.524 -66.0072 222.117C-70.4846 217.71 -73 211.733 -73 205.5V64.5Z" stroke="#A6042E" stroke-width="5" stroke-linecap="round" stroke-linejoin="round"/>
<path d="M244.75 132H244.765M247.018 124.479L252.271 129.732C252.66 130.122 252.969 130.584 253.18 131.093C253.391 131.602 253.5 132.148 253.5 132.699C253.5 133.25 253.391 133.796 253.18 134.305C252.969 134.814 252.66 135.276 252.271 135.666L248.416 139.52C248.027 139.91 247.564 140.219 247.055 140.43C246.546 140.641 246 140.749 245.449 140.749C244.898 140.749 244.353 140.641 243.844 140.43C243.334 140.219 242.872 139.91 242.482 139.52L242.043 139.081L232.48 148.645C231.995 149.13 231.355 149.428 230.673 149.488L230.418 149.5H228.708C228.351 149.5 228.006 149.369 227.739 149.131C227.473 148.894 227.302 148.567 227.26 148.212L227.25 148.041V146.332C227.25 145.647 227.491 144.985 227.931 144.46L228.105 144.27L228.708 143.666H231.625V140.75H234.542V137.833L237.668 134.706L237.229 134.267C236.84 133.878 236.531 133.415 236.32 132.906C236.109 132.397 236 131.851 236 131.3C236 130.749 236.109 130.204 236.32 129.695C236.531 129.186 236.84 128.723 237.229 128.333L241.084 124.479C241.473 124.089 241.936 123.78 242.445 123.569C242.954 123.359 243.5 123.25 244.051 123.25C244.602 123.25 245.147 123.359 245.656 123.569C246.166 123.78 246.628 124.089 247.018 124.479Z" stroke="#A6042E" stroke-linecap="round" stroke-linejoin="round"/>
<path d="M224.784 162H223.62L226.237 154.727H227.505L230.122 162H228.957L226.901 156.048H226.844L224.784 162ZM224.98 159.152H228.758V160.075H224.98V159.152ZM234.542 159.738V156.545H235.607V162H234.563V161.055H234.507C234.381 161.347 234.18 161.589 233.903 161.783C233.628 161.975 233.286 162.071 232.877 162.071C232.526 162.071 232.216 161.994 231.946 161.84C231.679 161.684 231.468 161.453 231.314 161.148C231.163 160.842 231.087 160.465 231.087 160.015V156.545H232.149V159.887C232.149 160.259 232.252 160.555 232.458 160.775C232.664 160.995 232.931 161.105 233.26 161.105C233.459 161.105 233.657 161.055 233.853 160.956C234.052 160.857 234.217 160.706 234.347 160.505C234.479 160.304 234.544 160.048 234.542 159.738ZM239.58 156.545V157.398H236.601V156.545H239.58ZM237.4 155.239H238.462V160.398C238.462 160.604 238.492 160.759 238.554 160.864C238.616 160.965 238.695 161.035 238.792 161.073C238.891 161.109 238.999 161.126 239.115 161.126C239.2 161.126 239.275 161.121 239.339 161.109C239.403 161.097 239.452 161.087 239.488 161.08L239.68 161.957C239.618 161.981 239.531 162.005 239.417 162.028C239.303 162.054 239.161 162.069 238.991 162.071C238.711 162.076 238.451 162.026 238.21 161.922C237.968 161.818 237.773 161.657 237.624 161.439C237.474 161.221 237.4 160.948 237.4 160.619V155.239ZM241.934 158.761V162H240.872V154.727H241.92V157.433H241.987C242.115 157.14 242.31 156.906 242.573 156.734C242.836 156.561 243.179 156.474 243.603 156.474C243.977 156.474 244.304 156.551 244.583 156.705C244.865 156.859 245.082 157.089 245.236 157.394C245.393 157.697 245.471 158.076 245.471 158.531V162H244.409V158.658C244.409 158.258 244.306 157.948 244.1 157.728C243.894 157.505 243.608 157.394 243.241 157.394C242.99 157.394 242.765 157.447 242.566 157.554C242.369 157.661 242.214 157.817 242.101 158.023C241.989 158.226 241.934 158.473 241.934 158.761ZM249.405 162.121C248.844 162.118 248.365 161.97 247.967 161.677C247.569 161.383 247.265 160.956 247.055 160.395C246.844 159.834 246.738 159.158 246.738 158.367C246.738 157.579 246.844 156.905 247.055 156.347C247.268 155.788 247.573 155.362 247.971 155.068C248.371 154.775 248.849 154.628 249.405 154.628C249.962 154.628 250.439 154.776 250.836 155.072C251.234 155.365 251.538 155.791 251.749 156.35C251.962 156.906 252.069 157.579 252.069 158.367C252.069 159.16 251.963 159.837 251.753 160.398C251.542 160.957 251.238 161.384 250.84 161.68C250.442 161.974 249.964 162.121 249.405 162.121ZM249.405 161.173C249.898 161.173 250.282 160.932 250.559 160.452C250.839 159.971 250.979 159.276 250.979 158.367C250.979 157.763 250.915 157.253 250.787 156.837C250.661 156.418 250.48 156.1 250.243 155.885C250.009 155.667 249.73 155.558 249.405 155.558C248.915 155.558 248.531 155.8 248.251 156.283C247.972 156.766 247.831 157.46 247.829 158.367C247.829 158.973 247.891 159.486 248.017 159.905C248.145 160.321 248.326 160.638 248.56 160.853C248.795 161.066 249.076 161.173 249.405 161.173Z" fill="#AEAEB3"/>
<path d="M176.255 138.993V130.243L187.55 145.774C184.755 147.51 181.41 148.133 178.177 147.52C174.945 146.906 172.061 145.101 170.096 142.461C168.132 139.822 167.23 136.54 167.57 133.268C167.911 129.995 169.468 126.97 171.933 124.791C174.399 122.612 177.593 121.438 180.882 121.503C184.172 121.567 187.318 122.865 189.696 125.139C192.074 127.413 193.511 130.497 193.723 133.78C193.935 137.064 192.905 140.307 190.839 142.868M185.006 134.618V130.243" stroke="#A6042E" stroke-linecap="round" stroke-linejoin="round"/>
<path d="M169.686 154.727V162H168.677L164.98 156.666H164.913V162H163.816V154.727H164.831L168.532 160.068H168.599V154.727H169.686ZM173.552 162.11C173.015 162.11 172.552 161.995 172.163 161.766C171.778 161.534 171.479 161.208 171.269 160.789C171.06 160.368 170.956 159.874 170.956 159.308C170.956 158.75 171.06 158.257 171.269 157.831C171.479 157.405 171.773 157.072 172.149 156.833C172.528 156.594 172.971 156.474 173.477 156.474C173.785 156.474 174.083 156.525 174.372 156.627C174.661 156.729 174.92 156.889 175.15 157.107C175.38 157.324 175.561 157.607 175.693 157.955C175.826 158.301 175.892 158.721 175.892 159.216V159.592H171.556V158.797H174.852C174.852 158.518 174.795 158.27 174.681 158.055C174.568 157.837 174.408 157.665 174.202 157.54C173.998 157.414 173.759 157.352 173.484 157.352C173.186 157.352 172.926 157.425 172.703 157.572C172.483 157.716 172.313 157.906 172.192 158.14C172.073 158.372 172.014 158.624 172.014 158.896V159.518C172.014 159.882 172.078 160.192 172.206 160.448C172.336 160.704 172.517 160.899 172.749 161.034C172.981 161.167 173.252 161.233 173.563 161.233C173.764 161.233 173.947 161.205 174.113 161.148C174.279 161.089 174.422 161.001 174.543 160.885C174.663 160.769 174.756 160.626 174.82 160.455L175.825 160.636C175.744 160.932 175.6 161.192 175.391 161.414C175.185 161.634 174.926 161.806 174.614 161.929C174.304 162.05 173.95 162.11 173.552 162.11ZM177.781 156.545L178.985 158.669L180.2 156.545H181.361L179.66 159.273L181.375 162H180.214L178.985 159.962L177.76 162H176.595L178.293 159.273L176.617 156.545H177.781ZM184.997 156.545V157.398H182.018V156.545H184.997ZM182.817 155.239H183.879V160.398C183.879 160.604 183.909 160.759 183.971 160.864C184.033 160.965 184.112 161.035 184.209 161.073C184.308 161.109 184.416 161.126 184.532 161.126C184.617 161.126 184.692 161.121 184.756 161.109C184.82 161.097 184.869 161.087 184.905 161.08L185.097 161.957C185.035 161.981 184.948 162.005 184.834 162.028C184.72 162.054 184.578 162.069 184.408 162.071C184.128 162.076 183.868 162.026 183.627 161.922C183.385 161.818 183.19 161.657 183.041 161.439C182.891 161.221 182.817 160.948 182.817 160.619V155.239ZM191.73 154.727H192.824V159.884C192.824 160.35 192.732 160.749 192.547 161.08C192.365 161.412 192.108 161.665 191.776 161.84C191.445 162.013 191.057 162.099 190.612 162.099C190.202 162.099 189.834 162.025 189.507 161.876C189.183 161.727 188.926 161.51 188.737 161.226C188.55 160.939 188.456 160.591 188.456 160.182H189.546C189.546 160.383 189.592 160.557 189.685 160.704C189.779 160.851 189.908 160.965 190.072 161.048C190.238 161.129 190.427 161.169 190.64 161.169C190.872 161.169 191.069 161.121 191.229 161.023C191.393 160.924 191.517 160.778 191.602 160.587C191.688 160.395 191.73 160.161 191.73 159.884V154.727ZM198.423 157.877L197.461 158.048C197.421 157.924 197.357 157.807 197.269 157.696C197.184 157.585 197.068 157.494 196.921 157.423C196.774 157.352 196.591 157.316 196.371 157.316C196.07 157.316 195.819 157.384 195.618 157.518C195.417 157.651 195.316 157.823 195.316 158.033C195.316 158.216 195.383 158.362 195.518 158.474C195.653 158.585 195.871 158.676 196.172 158.747L197.038 158.946C197.54 159.062 197.914 159.241 198.16 159.482C198.407 159.724 198.53 160.037 198.53 160.423C198.53 160.75 198.435 161.041 198.246 161.297C198.059 161.55 197.797 161.749 197.461 161.893C197.127 162.038 196.74 162.11 196.3 162.11C195.689 162.11 195.19 161.98 194.805 161.719C194.419 161.457 194.182 161.084 194.094 160.601L195.121 160.445C195.185 160.712 195.316 160.915 195.515 161.052C195.714 161.187 195.973 161.254 196.293 161.254C196.641 161.254 196.919 161.182 197.127 161.038C197.335 160.891 197.44 160.712 197.44 160.501C197.44 160.331 197.376 160.188 197.248 160.072C197.122 159.956 196.929 159.868 196.669 159.809L195.746 159.607C195.237 159.491 194.86 159.306 194.616 159.053C194.375 158.799 194.254 158.478 194.254 158.09C194.254 157.768 194.344 157.487 194.524 157.245C194.704 157.004 194.953 156.815 195.27 156.68C195.587 156.543 195.95 156.474 196.36 156.474C196.949 156.474 197.414 156.602 197.752 156.858C198.091 157.111 198.314 157.451 198.423 157.877Z" fill="#AEAEB3"/>
<path d="M161.712 76V58.5455H173.269V61.5881H165.403V65.7472H172.502V68.7898H165.403V76H161.712ZM175.683 76V62.9091H179.314V76H175.683ZM177.507 61.2216C176.967 61.2216 176.504 61.0426 176.118 60.6847C175.737 60.321 175.547 59.8864 175.547 59.3807C175.547 58.8807 175.737 58.4517 176.118 58.0938C176.504 57.7301 176.967 57.5483 177.507 57.5483C178.047 57.5483 178.507 57.7301 178.888 58.0938C179.274 58.4517 179.467 58.8807 179.467 59.3807C179.467 59.8864 179.274 60.321 178.888 60.6847C178.507 61.0426 178.047 61.2216 177.507 61.2216ZM185.853 58.5455V76H182.222V58.5455H185.853ZM188.761 76V62.9091H192.222V65.2188H192.375C192.648 64.4517 193.102 63.8466 193.739 63.4034C194.375 62.9602 195.136 62.7386 196.023 62.7386C196.92 62.7386 197.685 62.9631 198.315 63.4119C198.946 63.8551 199.366 64.4574 199.577 65.2188H199.713C199.98 64.4688 200.463 63.8693 201.162 63.4205C201.866 62.9659 202.699 62.7386 203.659 62.7386C204.881 62.7386 205.872 63.1278 206.634 63.9062C207.401 64.679 207.784 65.7756 207.784 67.196V76H204.162V67.9119C204.162 67.1847 203.969 66.6392 203.582 66.2756C203.196 65.9119 202.713 65.7301 202.134 65.7301C201.474 65.7301 200.96 65.9403 200.591 66.3608C200.222 66.7756 200.037 67.3239 200.037 68.0057V76H196.517V67.8352C196.517 67.1932 196.332 66.6818 195.963 66.3011C195.599 65.9205 195.119 65.7301 194.523 65.7301C194.119 65.7301 193.756 65.8324 193.432 66.0369C193.114 66.2358 192.861 66.517 192.673 66.8807C192.486 67.2386 192.392 67.6591 192.392 68.142V76H188.761ZM216.618 76.2557C215.271 76.2557 214.112 75.983 213.141 75.4375C212.175 74.8864 211.43 74.108 210.908 73.1023C210.385 72.0909 210.124 70.8949 210.124 69.5142C210.124 68.1676 210.385 66.9858 210.908 65.9688C211.43 64.9517 212.166 64.1591 213.115 63.5909C214.07 63.0227 215.189 62.7386 216.473 62.7386C217.337 62.7386 218.141 62.8778 218.885 63.1562C219.635 63.429 220.288 63.8409 220.845 64.392C221.408 64.9432 221.845 65.6364 222.158 66.4716C222.47 67.3011 222.626 68.2727 222.626 69.3864V70.3835H211.572V68.1335H219.209C219.209 67.6108 219.095 67.1477 218.868 66.7443C218.641 66.3409 218.325 66.0256 217.922 65.7983C217.524 65.5653 217.061 65.4489 216.533 65.4489C215.982 65.4489 215.493 65.5767 215.067 65.8324C214.646 66.0824 214.317 66.4205 214.078 66.8466C213.839 67.267 213.717 67.7358 213.712 68.2528V70.392C213.712 71.0398 213.831 71.5994 214.07 72.071C214.314 72.5426 214.658 72.9062 215.101 73.1619C215.544 73.4176 216.07 73.5455 216.678 73.5455C217.081 73.5455 217.45 73.4886 217.786 73.375C218.121 73.2614 218.408 73.0909 218.646 72.8636C218.885 72.6364 219.067 72.358 219.192 72.0284L222.55 72.25C222.379 73.0568 222.03 73.7614 221.501 74.3636C220.979 74.9602 220.303 75.4261 219.473 75.7614C218.649 76.0909 217.697 76.2557 216.618 76.2557ZM224.996 76V62.9091H228.456V65.2188H228.609C228.882 64.4517 229.337 63.8466 229.973 63.4034C230.609 62.9602 231.371 62.7386 232.257 62.7386C233.155 62.7386 233.919 62.9631 234.55 63.4119C235.18 63.8551 235.601 64.4574 235.811 65.2188H235.947C236.214 64.4688 236.697 63.8693 237.396 63.4205C238.101 62.9659 238.933 62.7386 239.893 62.7386C241.115 62.7386 242.107 63.1278 242.868 63.9062C243.635 64.679 244.018 65.7756 244.018 67.196V76H240.396V67.9119C240.396 67.1847 240.203 66.6392 239.817 66.2756C239.43 65.9119 238.947 65.7301 238.368 65.7301C237.709 65.7301 237.195 65.9403 236.825 66.3608C236.456 66.7756 236.271 67.3239 236.271 68.0057V76H232.751V67.8352C232.751 67.1932 232.567 66.6818 232.197 66.3011C231.834 65.9205 231.354 65.7301 230.757 65.7301C230.354 65.7301 229.99 65.8324 229.666 66.0369C229.348 66.2358 229.095 66.517 228.908 66.8807C228.72 67.2386 228.626 67.6591 228.626 68.142V76H224.996ZM279.955 68.4318V76H276.324V62.9091H279.784V65.2188H279.938C280.227 64.4574 280.713 63.8551 281.395 63.4119C282.077 62.9631 282.903 62.7386 283.875 62.7386C284.784 62.7386 285.577 62.9375 286.253 63.3352C286.929 63.733 287.455 64.3011 287.83 65.0398C288.205 65.7727 288.392 66.6477 288.392 67.6648V76H284.761V68.3125C284.767 67.5114 284.563 66.8864 284.148 66.4375C283.733 65.983 283.162 65.7557 282.435 65.7557C281.946 65.7557 281.514 65.8608 281.139 66.071C280.77 66.2812 280.48 66.5881 280.27 66.9915C280.065 67.3892 279.96 67.8693 279.955 68.4318Z" fill="white"/>
<path d="M252.801 76.2557C251.477 76.2557 250.332 75.9744 249.366 75.4119C248.406 74.8437 247.665 74.054 247.142 73.0426C246.619 72.0256 246.358 70.8466 246.358 69.5057C246.358 68.1534 246.619 66.9716 247.142 65.9602C247.665 64.9432 248.406 64.1534 249.366 63.5909C250.332 63.0227 251.477 62.7386 252.801 62.7386C254.125 62.7386 255.267 63.0227 256.227 63.5909C257.193 64.1534 257.938 64.9432 258.46 65.9602C258.983 66.9716 259.244 68.1534 259.244 69.5057C259.244 70.8466 258.983 72.0256 258.46 73.0426C257.938 74.054 257.193 74.8437 256.227 75.4119C255.267 75.9744 254.125 76.2557 252.801 76.2557ZM252.818 73.4432C253.42 73.4432 253.923 73.2727 254.327 72.9318C254.73 72.5852 255.034 72.1136 255.239 71.517C255.449 70.9205 255.554 70.2415 255.554 69.4801C255.554 68.7188 255.449 68.0398 255.239 67.4432C255.034 66.8466 254.73 66.375 254.327 66.0284C253.923 65.6818 253.42 65.5085 252.818 65.5085C252.21 65.5085 251.699 65.6818 251.284 66.0284C250.875 66.375 250.565 66.8466 250.355 67.4432C250.151 68.0398 250.048 68.7188 250.048 69.4801C250.048 70.2415 250.151 70.9205 250.355 71.517C250.565 72.1136 250.875 72.5852 251.284 72.9318C251.699 73.2727 252.21 73.4432 252.818 73.4432ZM267.52 76.2557C266.196 76.2557 265.051 75.9744 264.085 75.4119C263.125 74.8437 262.384 74.054 261.861 73.0426C261.338 72.0256 261.077 70.8466 261.077 69.5057C261.077 68.1534 261.338 66.9716 261.861 65.9602C262.384 64.9432 263.125 64.1534 264.085 63.5909C265.051 63.0227 266.196 62.7386 267.52 62.7386C268.844 62.7386 269.986 63.0227 270.946 63.5909C271.912 64.1534 272.656 64.9432 273.179 65.9602C273.702 66.9716 273.963 68.1534 273.963 69.5057C273.963 70.8466 273.702 72.0256 273.179 73.0426C272.656 74.054 271.912 74.8437 270.946 75.4119C269.986 75.9744 268.844 76.2557 267.52 76.2557ZM267.537 73.4432C268.139 73.4432 268.642 73.2727 269.045 72.9318C269.449 72.5852 269.753 72.1136 269.957 71.517C270.168 70.9205 270.273 70.2415 270.273 69.4801C270.273 68.7188 270.168 68.0398 269.957 67.4432C269.753 66.8466 269.449 66.375 269.045 66.0284C268.642 65.6818 268.139 65.5085 267.537 65.5085C266.929 65.5085 266.418 65.6818 266.003 66.0284C265.594 66.375 265.284 66.8466 265.074 67.4432C264.869 68.0398 264.767 68.7188 264.767 69.4801C264.767 70.2415 264.869 70.9205 265.074 71.517C265.284 72.1136 265.594 72.5852 266.003 72.9318C266.418 73.2727 266.929 73.4432 267.537 73.4432Z" fill="#A6042E"/>
<path d="M166.439 93.0526L165.284 93.2571C165.236 93.1094 165.159 92.9687 165.054 92.8352C164.952 92.7017 164.813 92.5923 164.637 92.5071C164.46 92.4219 164.24 92.3793 163.976 92.3793C163.615 92.3793 163.314 92.4602 163.073 92.6222C162.831 92.7812 162.71 92.9872 162.71 93.2401C162.71 93.4588 162.791 93.6349 162.953 93.7685C163.115 93.902 163.377 94.0114 163.737 94.0966L164.777 94.3352C165.379 94.4744 165.828 94.6889 166.124 94.9787C166.419 95.2685 166.567 95.6449 166.567 96.108C166.567 96.5 166.453 96.8494 166.226 97.1562C166.002 97.4602 165.688 97.6989 165.284 97.8722C164.884 98.0455 164.419 98.1321 163.891 98.1321C163.158 98.1321 162.56 97.9759 162.097 97.6634C161.634 97.348 161.35 96.9006 161.244 96.321L162.476 96.1335C162.553 96.4545 162.71 96.6974 162.949 96.8622C163.188 97.0241 163.499 97.1051 163.882 97.1051C164.3 97.1051 164.634 97.0185 164.884 96.8452C165.134 96.669 165.259 96.4545 165.259 96.2017C165.259 95.9972 165.182 95.8253 165.029 95.6861C164.878 95.5469 164.646 95.4418 164.334 95.3707L163.226 95.1278C162.615 94.9886 162.164 94.767 161.871 94.4631C161.581 94.1591 161.436 93.7741 161.436 93.3082C161.436 92.9219 161.544 92.5838 161.76 92.294C161.976 92.0043 162.274 91.7784 162.655 91.6165C163.036 91.4517 163.472 91.3693 163.963 91.3693C164.671 91.3693 165.227 91.5227 165.634 91.8295C166.04 92.1335 166.308 92.5412 166.439 93.0526ZM168.773 100.455C168.583 100.455 168.41 100.439 168.253 100.408C168.097 100.379 167.981 100.348 167.904 100.314L168.211 99.2699C168.444 99.3324 168.651 99.3594 168.833 99.3509C169.015 99.3423 169.175 99.2741 169.314 99.1463C169.456 99.0185 169.581 98.8097 169.689 98.5199L169.847 98.0852L167.452 91.4545H168.816L170.474 96.5341H170.542L172.199 91.4545H173.567L170.87 98.8736C170.745 99.2145 170.586 99.5028 170.393 99.7386C170.199 99.9773 169.969 100.156 169.702 100.276C169.435 100.395 169.126 100.455 168.773 100.455ZM176.039 94.1136V98H174.765V91.4545H175.988V92.5199H176.069C176.219 92.1733 176.455 91.8949 176.776 91.6847C177.1 91.4744 177.508 91.3693 177.999 91.3693C178.445 91.3693 178.836 91.4631 179.171 91.6506C179.506 91.8352 179.766 92.1108 179.951 92.4773C180.135 92.8437 180.228 93.2969 180.228 93.8366V98H178.954V93.9901C178.954 93.5156 178.83 93.1449 178.583 92.8778C178.336 92.608 177.996 92.473 177.564 92.473C177.269 92.473 177.006 92.5369 176.776 92.6648C176.549 92.7926 176.368 92.9801 176.235 93.2273C176.104 93.4716 176.039 93.767 176.039 94.1136ZM184.694 98.1321C184.06 98.1321 183.515 97.9886 183.057 97.7017C182.603 97.4119 182.253 97.0128 182.009 96.5043C181.765 95.9957 181.643 95.4134 181.643 94.7571C181.643 94.0923 181.768 93.5057 182.018 92.9972C182.268 92.4858 182.62 92.0866 183.074 91.7997C183.529 91.5128 184.064 91.3693 184.681 91.3693C185.178 91.3693 185.621 91.4616 186.01 91.6463C186.4 91.8281 186.714 92.0838 186.952 92.4134C187.194 92.7429 187.337 93.1278 187.383 93.5682H186.143C186.074 93.2614 185.918 92.9972 185.674 92.7756C185.432 92.554 185.108 92.4432 184.702 92.4432C184.347 92.4432 184.036 92.5369 183.769 92.7244C183.505 92.9091 183.299 93.1733 183.151 93.517C183.003 93.858 182.93 94.2614 182.93 94.7273C182.93 95.2045 183.002 95.6165 183.147 95.9631C183.292 96.3097 183.496 96.5781 183.76 96.7685C184.028 96.9588 184.341 97.054 184.702 97.054C184.944 97.054 185.162 97.0099 185.358 96.9219C185.557 96.831 185.724 96.7017 185.857 96.5341C185.993 96.3665 186.089 96.1648 186.143 95.929H187.383C187.337 96.3523 187.199 96.7301 186.969 97.0625C186.739 97.3949 186.431 97.6562 186.045 97.8466C185.661 98.0369 185.211 98.1321 184.694 98.1321ZM190.019 94.1136V98H188.745V89.2727H190.002V92.5199H190.083C190.237 92.1676 190.471 91.8878 190.786 91.6804C191.102 91.473 191.514 91.3693 192.022 91.3693C192.471 91.3693 192.863 91.4616 193.198 91.6463C193.536 91.831 193.798 92.1065 193.982 92.473C194.17 92.8366 194.264 93.2912 194.264 93.8366V98H192.99V93.9901C192.99 93.5099 192.866 93.1378 192.619 92.8736C192.372 92.6065 192.028 92.473 191.588 92.473C191.286 92.473 191.017 92.5369 190.778 92.6648C190.542 92.7926 190.356 92.9801 190.22 93.2273C190.086 93.4716 190.019 93.767 190.019 94.1136ZM195.964 98V91.4545H197.195V92.4943H197.264C197.383 92.142 197.593 91.8651 197.894 91.6634C198.198 91.4588 198.542 91.3565 198.926 91.3565C199.005 91.3565 199.099 91.3594 199.207 91.3651C199.318 91.3707 199.404 91.3778 199.467 91.3864V92.6051C199.416 92.5909 199.325 92.5753 199.194 92.5582C199.063 92.5384 198.933 92.5284 198.802 92.5284C198.501 92.5284 198.232 92.5923 197.997 92.7202C197.764 92.8452 197.579 93.0199 197.443 93.2443C197.306 93.4659 197.238 93.7187 197.238 94.0028V98H195.964ZM203.092 98.1321C202.479 98.1321 201.943 97.9915 201.486 97.7102C201.028 97.429 200.673 97.0355 200.42 96.5298C200.167 96.0241 200.041 95.4332 200.041 94.7571C200.041 94.0781 200.167 93.4844 200.42 92.9759C200.673 92.4673 201.028 92.0724 201.486 91.7912C201.943 91.5099 202.479 91.3693 203.092 91.3693C203.706 91.3693 204.241 91.5099 204.699 91.7912C205.156 92.0724 205.511 92.4673 205.764 92.9759C206.017 93.4844 206.143 94.0781 206.143 94.7571C206.143 95.4332 206.017 96.0241 205.764 96.5298C205.511 97.0355 205.156 97.429 204.699 97.7102C204.241 97.9915 203.706 98.1321 203.092 98.1321ZM203.096 97.0625C203.494 97.0625 203.824 96.9574 204.085 96.7472C204.346 96.5369 204.54 96.2571 204.665 95.9077C204.792 95.5582 204.856 95.1733 204.856 94.7528C204.856 94.3352 204.792 93.9517 204.665 93.6023C204.54 93.25 204.346 92.9673 204.085 92.7543C203.824 92.5412 203.494 92.4347 203.096 92.4347C202.696 92.4347 202.363 92.5412 202.099 92.7543C201.838 92.9673 201.643 93.25 201.515 93.6023C201.39 93.9517 201.328 94.3352 201.328 94.7528C201.328 95.1733 201.39 95.5582 201.515 95.9077C201.643 96.2571 201.838 96.5369 202.099 96.7472C202.363 96.9574 202.696 97.0625 203.096 97.0625ZM208.84 94.1136V98H207.566V91.4545H208.789V92.5199H208.869C209.02 92.1733 209.256 91.8949 209.577 91.6847C209.901 91.4744 210.308 91.3693 210.8 91.3693C211.246 91.3693 211.637 91.4631 211.972 91.6506C212.307 91.8352 212.567 92.1108 212.752 92.4773C212.936 92.8437 213.029 93.2969 213.029 93.8366V98H211.754V93.9901C211.754 93.5156 211.631 93.1449 211.384 92.8778C211.137 92.608 210.797 92.473 210.365 92.473C210.07 92.473 209.807 92.5369 209.577 92.6648C209.35 92.7926 209.169 92.9801 209.036 93.2273C208.905 93.4716 208.84 93.767 208.84 94.1136ZM214.737 98V91.4545H216.012V98H214.737ZM215.381 90.4446C215.159 90.4446 214.969 90.3707 214.81 90.223C214.654 90.0724 214.575 89.8935 214.575 89.6861C214.575 89.4759 214.654 89.2969 214.81 89.1491C214.969 88.9986 215.159 88.9233 215.381 88.9233C215.602 88.9233 215.791 88.9986 215.948 89.1491C216.107 89.2969 216.186 89.4759 216.186 89.6861C216.186 89.8935 216.107 90.0724 215.948 90.223C215.791 90.3707 215.602 90.4446 215.381 90.4446ZM217.589 98V97.1264L221.135 92.6222V92.5625H217.704V91.4545H222.724V92.3835L219.315 96.8324V96.892H222.844V98H217.589ZM226.98 98.1321C226.335 98.1321 225.78 97.9943 225.314 97.7188C224.851 97.4403 224.493 97.0497 224.24 96.5469C223.99 96.0412 223.865 95.4489 223.865 94.7699C223.865 94.0994 223.99 93.5085 224.24 92.9972C224.493 92.4858 224.845 92.0866 225.297 91.7997C225.752 91.5128 226.283 91.3693 226.891 91.3693C227.26 91.3693 227.618 91.4304 227.965 91.5526C228.311 91.6747 228.622 91.8665 228.898 92.1278C229.173 92.3892 229.391 92.7287 229.55 93.1463C229.709 93.5611 229.789 94.0653 229.789 94.6591V95.1108H224.585V94.1562H228.54C228.54 93.821 228.472 93.5241 228.335 93.2656C228.199 93.0043 228.007 92.7983 227.76 92.6477C227.516 92.4972 227.229 92.4219 226.899 92.4219C226.541 92.4219 226.229 92.5099 225.962 92.6861C225.698 92.8594 225.493 93.0866 225.348 93.3679C225.206 93.6463 225.135 93.9489 225.135 94.2756V95.0213C225.135 95.4588 225.212 95.831 225.365 96.1378C225.521 96.4446 225.739 96.679 226.017 96.8409C226.296 97 226.621 97.0795 226.993 97.0795C227.235 97.0795 227.455 97.0455 227.654 96.9773C227.852 96.9062 228.024 96.8011 228.169 96.6619C228.314 96.5227 228.425 96.3509 228.502 96.1463L229.708 96.3636C229.611 96.7187 229.438 97.0298 229.188 97.2969C228.941 97.5611 228.629 97.767 228.254 97.9148C227.882 98.0597 227.458 98.1321 226.98 98.1321ZM236.107 93.0526L234.952 93.2571C234.904 93.1094 234.827 92.9687 234.722 92.8352C234.62 92.7017 234.481 92.5923 234.305 92.5071C234.128 92.4219 233.908 92.3793 233.644 92.3793C233.283 92.3793 232.982 92.4602 232.741 92.6222C232.499 92.7812 232.378 92.9872 232.378 93.2401C232.378 93.4588 232.459 93.6349 232.621 93.7685C232.783 93.902 233.045 94.0114 233.405 94.0966L234.445 94.3352C235.047 94.4744 235.496 94.6889 235.792 94.9787C236.087 95.2685 236.235 95.6449 236.235 96.108C236.235 96.5 236.121 96.8494 235.894 97.1562C235.67 97.4602 235.356 97.6989 234.952 97.8722C234.552 98.0455 234.087 98.1321 233.559 98.1321C232.826 98.1321 232.228 97.9759 231.765 97.6634C231.302 97.348 231.018 96.9006 230.912 96.321L232.144 96.1335C232.221 96.4545 232.378 96.6974 232.617 96.8622C232.856 97.0241 233.167 97.1051 233.55 97.1051C233.968 97.1051 234.302 97.0185 234.552 96.8452C234.802 96.669 234.927 96.4545 234.927 96.2017C234.927 95.9972 234.85 95.8253 234.697 95.6861C234.546 95.5469 234.314 95.4418 234.002 95.3707L232.894 95.1278C232.283 94.9886 231.831 94.767 231.539 94.4631C231.249 94.1591 231.104 93.7741 231.104 93.3082C231.104 92.9219 231.212 92.5838 231.428 92.294C231.644 92.0043 231.942 91.7784 232.323 91.6165C232.704 91.4517 233.14 91.3693 233.631 91.3693C234.339 91.3693 234.895 91.5227 235.302 91.8295C235.708 92.1335 235.976 92.5412 236.107 93.0526ZM246.411 91.4545L244.037 98H242.674L240.296 91.4545H241.664L243.322 96.4915H243.39L245.043 91.4545H246.411ZM247.608 98V91.4545H248.883V98H247.608ZM248.252 90.4446C248.03 90.4446 247.84 90.3707 247.681 90.223C247.525 90.0724 247.447 89.8935 247.447 89.6861C247.447 89.4759 247.525 89.2969 247.681 89.1491C247.84 88.9986 248.03 88.9233 248.252 88.9233C248.474 88.9233 248.662 88.9986 248.819 89.1491C248.978 89.2969 249.057 89.4759 249.057 89.6861C249.057 89.8935 248.978 90.0724 248.819 90.223C248.662 90.3707 248.474 90.4446 248.252 90.4446ZM253.047 98.1278C252.519 98.1278 252.047 97.9929 251.632 97.723C251.22 97.4503 250.896 97.0625 250.661 96.5597C250.428 96.054 250.311 95.4474 250.311 94.7401C250.311 94.0327 250.429 93.4276 250.665 92.9247C250.904 92.4219 251.23 92.0369 251.645 91.7699C252.06 91.5028 252.53 91.3693 253.056 91.3693C253.462 91.3693 253.789 91.4375 254.036 91.5739C254.286 91.7074 254.479 91.8636 254.615 92.0426C254.754 92.2216 254.862 92.3793 254.939 92.5156H255.016V89.2727H256.29V98H255.046V96.9815H254.939C254.862 97.1207 254.752 97.2798 254.607 97.4588C254.465 97.6378 254.269 97.794 254.019 97.9276C253.769 98.0611 253.445 98.1278 253.047 98.1278ZM253.328 97.0412C253.695 97.0412 254.004 96.9446 254.257 96.7514C254.513 96.5554 254.706 96.2841 254.837 95.9375C254.97 95.5909 255.037 95.1875 255.037 94.7273C255.037 94.2727 254.972 93.875 254.841 93.5341C254.71 93.1932 254.519 92.9276 254.266 92.7372C254.013 92.5469 253.7 92.4517 253.328 92.4517C252.945 92.4517 252.625 92.5511 252.369 92.75C252.114 92.9489 251.921 93.2202 251.79 93.5639C251.662 93.9077 251.598 94.2955 251.598 94.7273C251.598 95.1648 251.664 95.5582 251.794 95.9077C251.925 96.2571 252.118 96.5341 252.374 96.7386C252.632 96.9403 252.95 97.0412 253.328 97.0412ZM260.93 98.1321C260.285 98.1321 259.729 97.9943 259.263 97.7188C258.8 97.4403 258.442 97.0497 258.189 96.5469C257.939 96.0412 257.814 95.4489 257.814 94.7699C257.814 94.0994 257.939 93.5085 258.189 92.9972C258.442 92.4858 258.795 92.0866 259.246 91.7997C259.701 91.5128 260.232 91.3693 260.84 91.3693C261.209 91.3693 261.567 91.4304 261.914 91.5526C262.26 91.6747 262.572 91.8665 262.847 92.1278C263.123 92.3892 263.34 92.7287 263.499 93.1463C263.658 93.5611 263.738 94.0653 263.738 94.6591V95.1108H258.535V94.1562H262.489C262.489 93.821 262.421 93.5241 262.285 93.2656C262.148 93.0043 261.956 92.7983 261.709 92.6477C261.465 92.4972 261.178 92.4219 260.849 92.4219C260.491 92.4219 260.178 92.5099 259.911 92.6861C259.647 92.8594 259.442 93.0866 259.297 93.3679C259.155 93.6463 259.084 93.9489 259.084 94.2756V95.0213C259.084 95.4588 259.161 95.831 259.314 96.1378C259.471 96.4446 259.688 96.679 259.966 96.8409C260.245 97 260.57 97.0795 260.942 97.0795C261.184 97.0795 261.404 97.0455 261.603 96.9773C261.802 96.9062 261.974 96.8011 262.118 96.6619C262.263 96.5227 262.374 96.3509 262.451 96.1463L263.657 96.3636C263.56 96.7187 263.387 97.0298 263.137 97.2969C262.89 97.5611 262.579 97.767 262.204 97.9148C261.831 98.0597 261.407 98.1321 260.93 98.1321ZM267.909 98.1321C267.295 98.1321 266.759 97.9915 266.302 97.7102C265.845 97.429 265.49 97.0355 265.237 96.5298C264.984 96.0241 264.857 95.4332 264.857 94.7571C264.857 94.0781 264.984 93.4844 265.237 92.9759C265.49 92.4673 265.845 92.0724 266.302 91.7912C266.759 91.5099 267.295 91.3693 267.909 91.3693C268.522 91.3693 269.058 91.5099 269.515 91.7912C269.972 92.0724 270.328 92.4673 270.58 92.9759C270.833 93.4844 270.96 94.0781 270.96 94.7571C270.96 95.4332 270.833 96.0241 270.58 96.5298C270.328 97.0355 269.972 97.429 269.515 97.7102C269.058 97.9915 268.522 98.1321 267.909 98.1321ZM267.913 97.0625C268.311 97.0625 268.64 96.9574 268.901 96.7472C269.163 96.5369 269.356 96.2571 269.481 95.9077C269.609 95.5582 269.673 95.1733 269.673 94.7528C269.673 94.3352 269.609 93.9517 269.481 93.6023C269.356 93.25 269.163 92.9673 268.901 92.7543C268.64 92.5412 268.311 92.4347 267.913 92.4347C267.512 92.4347 267.18 92.5412 266.916 92.7543C266.654 92.9673 266.46 93.25 266.332 93.6023C266.207 93.9517 266.144 94.3352 266.144 94.7528C266.144 95.1733 266.207 95.5582 266.332 95.9077C266.46 96.2571 266.654 96.5369 266.916 96.7472C267.18 96.9574 267.512 97.0625 267.913 97.0625ZM275.558 100.455V91.4545H276.802V92.5156H276.909C276.982 92.3793 277.089 92.2216 277.228 92.0426C277.367 91.8636 277.561 91.7074 277.808 91.5739C278.055 91.4375 278.382 91.3693 278.788 91.3693C279.316 91.3693 279.788 91.5028 280.203 91.7699C280.617 92.0369 280.943 92.4219 281.178 92.9247C281.417 93.4276 281.536 94.0327 281.536 94.7401C281.536 95.4474 281.419 96.054 281.183 96.5597C280.947 97.0625 280.623 97.4503 280.211 97.723C279.799 97.9929 279.329 98.1278 278.801 98.1278C278.403 98.1278 278.078 98.0611 277.825 97.9276C277.575 97.794 277.379 97.6378 277.237 97.4588C277.095 97.2798 276.985 97.1207 276.909 96.9815H276.832V100.455H275.558ZM276.806 94.7273C276.806 95.1875 276.873 95.5909 277.007 95.9375C277.14 96.2841 277.333 96.5554 277.586 96.7514C277.839 96.9446 278.149 97.0412 278.515 97.0412C278.896 97.0412 279.214 96.9403 279.47 96.7386C279.725 96.5341 279.919 96.2571 280.049 95.9077C280.183 95.5582 280.249 95.1648 280.249 94.7273C280.249 94.2955 280.184 93.9077 280.053 93.5639C279.926 93.2202 279.732 92.9489 279.474 92.75C279.218 92.5511 278.899 92.4517 278.515 92.4517C278.146 92.4517 277.833 92.5469 277.578 92.7372C277.325 92.9276 277.133 93.1932 277.002 93.5341C276.872 93.875 276.806 94.2727 276.806 94.7273ZM284.238 89.2727V98H282.964V89.2727H284.238ZM287.857 98.1449C287.442 98.1449 287.067 98.0682 286.732 97.9148C286.397 97.7585 286.131 97.5327 285.935 97.2372C285.742 96.9418 285.645 96.5795 285.645 96.1506C285.645 95.7812 285.716 95.4773 285.858 95.2386C286.001 95 286.192 94.8111 286.434 94.6719C286.675 94.5327 286.945 94.4276 287.243 94.3565C287.542 94.2855 287.846 94.2315 288.155 94.1946C288.547 94.1491 288.866 94.1122 289.11 94.0838C289.354 94.0526 289.532 94.0028 289.643 93.9347C289.753 93.8665 289.809 93.7557 289.809 93.6023V93.5724C289.809 93.2003 289.704 92.9119 289.493 92.7074C289.286 92.5028 288.976 92.4006 288.564 92.4006C288.135 92.4006 287.797 92.4957 287.55 92.6861C287.306 92.8736 287.137 93.0824 287.043 93.3125L285.846 93.0398C285.988 92.642 286.195 92.321 286.468 92.0767C286.743 91.8295 287.06 91.6506 287.418 91.5398C287.776 91.4261 288.153 91.3693 288.547 91.3693C288.809 91.3693 289.086 91.4006 289.378 91.4631C289.674 91.5227 289.949 91.6335 290.205 91.7955C290.464 91.9574 290.675 92.1889 290.84 92.4901C291.005 92.7884 291.087 93.1761 291.087 93.6534V98H289.843V97.1051H289.792C289.709 97.2699 289.586 97.4318 289.421 97.5909C289.256 97.75 289.045 97.8821 288.786 97.9872C288.528 98.0923 288.218 98.1449 287.857 98.1449ZM288.134 97.1222C288.486 97.1222 288.787 97.0526 289.037 96.9134C289.29 96.7741 289.482 96.5923 289.613 96.3679C289.746 96.1406 289.813 95.8977 289.813 95.6392V94.7955C289.768 94.8409 289.68 94.8835 289.549 94.9233C289.421 94.9602 289.275 94.9929 289.11 95.0213C288.945 95.0469 288.785 95.071 288.628 95.0938C288.472 95.1136 288.341 95.1307 288.236 95.1449C287.989 95.1761 287.763 95.2287 287.559 95.3026C287.357 95.3764 287.195 95.483 287.073 95.6222C286.954 95.7585 286.894 95.9403 286.894 96.1676C286.894 96.483 287.01 96.7216 287.243 96.8835C287.476 97.0426 287.773 97.1222 288.134 97.1222ZM293.355 100.455C293.165 100.455 292.992 100.439 292.835 100.408C292.679 100.379 292.563 100.348 292.486 100.314L292.793 99.2699C293.026 99.3324 293.233 99.3594 293.415 99.3509C293.597 99.3423 293.757 99.2741 293.896 99.1463C294.039 99.0185 294.164 98.8097 294.271 98.5199L294.429 98.0852L292.034 91.4545H293.398L295.056 96.5341H295.124L296.781 91.4545H298.149L295.452 98.8736C295.327 99.2145 295.168 99.5028 294.975 99.7386C294.781 99.9773 294.551 100.156 294.284 100.276C294.017 100.395 293.708 100.455 293.355 100.455ZM299.449 98V89.2727H300.723V92.5156H300.8C300.874 92.3793 300.98 92.2216 301.119 92.0426C301.259 91.8636 301.452 91.7074 301.699 91.5739C301.946 91.4375 302.273 91.3693 302.679 91.3693C303.208 91.3693 303.679 91.5028 304.094 91.7699C304.509 92.0369 304.834 92.4219 305.07 92.9247C305.308 93.4276 305.428 94.0327 305.428 94.7401C305.428 95.4474 305.31 96.054 305.074 96.5597C304.838 97.0625 304.514 97.4503 304.102 97.723C303.691 97.9929 303.22 98.1278 302.692 98.1278C302.294 98.1278 301.969 98.0611 301.716 97.9276C301.466 97.794 301.27 97.6378 301.128 97.4588C300.986 97.2798 300.877 97.1207 300.8 96.9815H300.693V98H299.449ZM300.698 94.7273C300.698 95.1875 300.764 95.5909 300.898 95.9375C301.031 96.2841 301.225 96.5554 301.477 96.7514C301.73 96.9446 302.04 97.0412 302.406 97.0412C302.787 97.0412 303.105 96.9403 303.361 96.7386C303.617 96.5341 303.81 96.2571 303.941 95.9077C304.074 95.5582 304.141 95.1648 304.141 94.7273C304.141 94.2955 304.075 93.9077 303.945 93.5639C303.817 93.2202 303.624 92.9489 303.365 92.75C303.11 92.5511 302.79 92.4517 302.406 92.4517C302.037 92.4517 301.725 92.5469 301.469 92.7372C301.216 92.9276 301.024 93.1932 300.894 93.5341C300.763 93.875 300.698 94.2727 300.698 94.7273ZM308.763 98.1449C308.349 98.1449 307.974 98.0682 307.638 97.9148C307.303 97.7585 307.037 97.5327 306.841 97.2372C306.648 96.9418 306.552 96.5795 306.552 96.1506C306.552 95.7812 306.623 95.4773 306.765 95.2386C306.907 95 307.099 94.8111 307.34 94.6719C307.581 94.5327 307.851 94.4276 308.15 94.3565C308.448 94.2855 308.752 94.2315 309.062 94.1946C309.454 94.1491 309.772 94.1122 310.016 94.0838C310.26 94.0526 310.438 94.0028 310.549 93.9347C310.66 93.8665 310.715 93.7557 310.715 93.6023V93.5724C310.715 93.2003 310.61 92.9119 310.4 92.7074C310.192 92.5028 309.883 92.4006 309.471 92.4006C309.042 92.4006 308.704 92.4957 308.456 92.6861C308.212 92.8736 308.043 93.0824 307.949 93.3125L306.752 93.0398C306.894 92.642 307.101 92.321 307.374 92.0767C307.65 91.8295 307.966 91.6506 308.324 91.5398C308.682 91.4261 309.059 91.3693 309.454 91.3693C309.715 91.3693 309.992 91.4006 310.285 91.4631C310.58 91.5227 310.856 91.6335 311.111 91.7955C311.37 91.9574 311.581 92.1889 311.746 92.4901C311.911 92.7884 311.993 93.1761 311.993 93.6534V98H310.749V97.1051H310.698C310.616 97.2699 310.492 97.4318 310.327 97.5909C310.162 97.75 309.951 97.8821 309.692 97.9872C309.434 98.0923 309.124 98.1449 308.763 98.1449ZM309.04 97.1222C309.393 97.1222 309.694 97.0526 309.944 96.9134C310.197 96.7741 310.388 96.5923 310.519 96.3679C310.653 96.1406 310.719 95.8977 310.719 95.6392V94.7955C310.674 94.8409 310.586 94.8835 310.455 94.9233C310.327 94.9602 310.181 94.9929 310.016 95.0213C309.851 95.0469 309.691 95.071 309.535 95.0938C309.378 95.1136 309.248 95.1307 309.143 95.1449C308.895 95.1761 308.67 95.2287 308.465 95.3026C308.263 95.3764 308.101 95.483 307.979 95.6222C307.86 95.7585 307.8 95.9403 307.8 96.1676C307.8 96.483 307.917 96.7216 308.15 96.8835C308.383 97.0426 308.68 97.1222 309.04 97.1222ZM316.448 98.1321C315.814 98.1321 315.269 97.9886 314.811 97.7017C314.357 97.4119 314.007 97.0128 313.763 96.5043C313.519 95.9957 313.396 95.4134 313.396 94.7571C313.396 94.0923 313.521 93.5057 313.771 92.9972C314.021 92.4858 314.374 92.0866 314.828 91.7997C315.283 91.5128 315.818 91.3693 316.435 91.3693C316.932 91.3693 317.375 91.4616 317.764 91.6463C318.154 91.8281 318.468 92.0838 318.706 92.4134C318.948 92.7429 319.091 93.1278 319.137 93.5682H317.896C317.828 93.2614 317.672 92.9972 317.428 92.7756C317.186 92.554 316.862 92.4432 316.456 92.4432C316.101 92.4432 315.79 92.5369 315.523 92.7244C315.259 92.9091 315.053 93.1733 314.905 93.517C314.757 93.858 314.683 94.2614 314.683 94.7273C314.683 95.2045 314.756 95.6165 314.901 95.9631C315.046 96.3097 315.25 96.5781 315.514 96.7685C315.781 96.9588 316.095 97.054 316.456 97.054C316.698 97.054 316.916 97.0099 317.112 96.9219C317.311 96.831 317.477 96.7017 317.611 96.5341C317.747 96.3665 317.843 96.1648 317.896 95.929H319.137C319.091 96.3523 318.953 96.7301 318.723 97.0625C318.493 97.3949 318.185 97.6562 317.798 97.8466C317.415 98.0369 316.965 98.1321 316.448 98.1321ZM321.671 95.7798L321.662 94.2244H321.884L324.492 91.4545H326.018L323.043 94.608H322.843L321.671 95.7798ZM320.499 98V89.2727H321.773V98H320.499ZM324.633 98L322.289 94.8892L323.167 93.9986L326.197 98H324.633Z" fill="#AEAEB3"/>
<path d="M285.126 156.638C285.088 156.302 284.932 156.041 284.657 155.857C284.383 155.67 284.037 155.576 283.62 155.576C283.322 155.576 283.064 155.623 282.846 155.718C282.628 155.81 282.459 155.938 282.338 156.102C282.22 156.263 282.161 156.446 282.161 156.652C282.161 156.825 282.201 156.974 282.282 157.099C282.364 157.225 282.472 157.33 282.605 157.415C282.74 157.498 282.884 157.568 283.038 157.625C283.192 157.679 283.34 157.724 283.482 157.76L284.192 157.945C284.424 158.001 284.662 158.078 284.906 158.175C285.15 158.272 285.376 158.4 285.584 158.559C285.792 158.718 285.96 158.914 286.088 159.148C286.219 159.383 286.284 159.663 286.284 159.99C286.284 160.402 286.177 160.768 285.964 161.087C285.753 161.407 285.447 161.659 285.044 161.844C284.644 162.028 284.16 162.121 283.592 162.121C283.047 162.121 282.576 162.034 282.179 161.862C281.781 161.689 281.469 161.444 281.245 161.126C281.02 160.807 280.895 160.428 280.872 159.99H281.973C281.994 160.253 282.079 160.472 282.228 160.647C282.38 160.82 282.573 160.949 282.807 161.034C283.044 161.117 283.303 161.158 283.585 161.158C283.895 161.158 284.171 161.11 284.412 161.013C284.656 160.913 284.848 160.776 284.987 160.601C285.127 160.423 285.197 160.216 285.197 159.979C285.197 159.764 285.135 159.588 285.012 159.45C284.892 159.313 284.727 159.199 284.519 159.109C284.313 159.019 284.08 158.94 283.819 158.871L282.96 158.637C282.377 158.478 281.916 158.245 281.575 157.938C281.236 157.63 281.067 157.223 281.067 156.716C281.067 156.297 281.181 155.931 281.408 155.619C281.635 155.306 281.943 155.063 282.331 154.891C282.719 154.715 283.157 154.628 283.645 154.628C284.138 154.628 284.572 154.714 284.948 154.887C285.327 155.06 285.626 155.298 285.843 155.601C286.061 155.902 286.175 156.247 286.184 156.638H285.126ZM289.807 162.11C289.296 162.11 288.85 161.993 288.468 161.759C288.087 161.524 287.791 161.196 287.581 160.775C287.37 160.353 287.265 159.861 287.265 159.298C287.265 158.732 287.37 158.237 287.581 157.813C287.791 157.389 288.087 157.06 288.468 156.826C288.85 156.592 289.296 156.474 289.807 156.474C290.319 156.474 290.765 156.592 291.146 156.826C291.527 157.06 291.823 157.389 292.034 157.813C292.245 158.237 292.35 158.732 292.35 159.298C292.35 159.861 292.245 160.353 292.034 160.775C291.823 161.196 291.527 161.524 291.146 161.759C290.765 161.993 290.319 162.11 289.807 162.11ZM289.811 161.219C290.142 161.219 290.417 161.131 290.635 160.956C290.852 160.781 291.013 160.548 291.118 160.256C291.224 159.965 291.277 159.644 291.277 159.294C291.277 158.946 291.224 158.626 291.118 158.335C291.013 158.042 290.852 157.806 290.635 157.629C290.417 157.451 290.142 157.362 289.811 157.362C289.477 157.362 289.2 157.451 288.98 157.629C288.762 157.806 288.6 158.042 288.493 158.335C288.389 158.626 288.337 158.946 288.337 159.294C288.337 159.644 288.389 159.965 288.493 160.256C288.6 160.548 288.762 160.781 288.98 160.956C289.2 161.131 289.477 161.219 289.811 161.219ZM295.833 162.11C295.305 162.11 294.85 161.991 294.469 161.751C294.09 161.51 293.799 161.177 293.595 160.754C293.392 160.33 293.29 159.844 293.29 159.298C293.29 158.744 293.394 158.255 293.603 157.831C293.811 157.405 294.104 157.072 294.483 156.833C294.862 156.594 295.308 156.474 295.822 156.474C296.236 156.474 296.606 156.551 296.93 156.705C297.254 156.857 297.516 157.07 297.715 157.344C297.916 157.619 298.036 157.94 298.073 158.307H297.04C296.983 158.051 296.853 157.831 296.649 157.646C296.448 157.462 296.178 157.369 295.84 157.369C295.544 157.369 295.285 157.447 295.062 157.604C294.842 157.758 294.67 157.978 294.547 158.264C294.424 158.548 294.362 158.884 294.362 159.273C294.362 159.67 294.423 160.014 294.544 160.303C294.664 160.591 294.835 160.815 295.055 160.974C295.277 161.132 295.539 161.212 295.84 161.212C296.041 161.212 296.223 161.175 296.387 161.102C296.552 161.026 296.691 160.918 296.802 160.778C296.916 160.639 296.995 160.471 297.04 160.274H298.073C298.036 160.627 297.921 160.942 297.729 161.219C297.537 161.496 297.28 161.714 296.958 161.872C296.639 162.031 296.264 162.11 295.833 162.11ZM300.185 160.15L300.178 158.854H300.363L302.536 156.545H303.808L301.329 159.173H301.162L300.185 160.15ZM299.209 162V154.727H300.271V162H299.209ZM302.653 162L300.7 159.408L301.432 158.665L303.957 162H302.653ZM306.902 162.11C306.364 162.11 305.901 161.995 305.513 161.766C305.127 161.534 304.829 161.208 304.618 160.789C304.41 160.368 304.306 159.874 304.306 159.308C304.306 158.75 304.41 158.257 304.618 157.831C304.829 157.405 305.122 157.072 305.499 156.833C305.878 156.594 306.32 156.474 306.827 156.474C307.135 156.474 307.433 156.525 307.722 156.627C308.011 156.729 308.27 156.889 308.5 157.107C308.729 157.324 308.91 157.607 309.043 157.955C309.175 158.301 309.242 158.721 309.242 159.216V159.592H304.906V158.797H308.201C308.201 158.518 308.144 158.27 308.031 158.055C307.917 157.837 307.757 157.665 307.551 157.54C307.348 157.414 307.109 157.352 306.834 157.352C306.536 157.352 306.275 157.425 306.053 157.572C305.833 157.716 305.662 157.906 305.541 158.14C305.423 158.372 305.364 158.624 305.364 158.896V159.518C305.364 159.882 305.428 160.192 305.556 160.448C305.686 160.704 305.867 160.899 306.099 161.034C306.331 161.167 306.602 161.233 306.912 161.233C307.113 161.233 307.297 161.205 307.463 161.148C307.628 161.089 307.772 161.001 307.892 160.885C308.013 160.769 308.105 160.626 308.169 160.455L309.174 160.636C309.094 160.932 308.949 161.192 308.741 161.414C308.535 161.634 308.276 161.806 307.963 161.929C307.653 162.05 307.299 162.11 306.902 162.11ZM312.966 156.545V157.398H309.987V156.545H312.966ZM310.786 155.239H311.847V160.398C311.847 160.604 311.878 160.759 311.94 160.864C312.001 160.965 312.081 161.035 312.178 161.073C312.277 161.109 312.385 161.126 312.501 161.126C312.586 161.126 312.661 161.121 312.725 161.109C312.788 161.097 312.838 161.087 312.874 161.08L313.065 161.957C313.004 161.981 312.916 162.005 312.803 162.028C312.689 162.054 312.547 162.069 312.377 162.071C312.097 162.076 311.837 162.026 311.595 161.922C311.354 161.818 311.158 161.657 311.009 161.439C310.86 161.221 310.786 160.948 310.786 160.619V155.239ZM314.84 162.067C314.646 162.067 314.479 161.999 314.339 161.862C314.2 161.722 314.13 161.554 314.13 161.357C314.13 161.163 314.2 160.997 314.339 160.86C314.479 160.72 314.646 160.651 314.84 160.651C315.034 160.651 315.201 160.72 315.341 160.86C315.48 160.997 315.55 161.163 315.55 161.357C315.55 161.487 315.517 161.607 315.451 161.716C315.387 161.822 315.302 161.908 315.195 161.972C315.089 162.036 314.97 162.067 314.84 162.067ZM318.155 154.727V162H317.058V154.727H318.155ZM326.071 158.364C326.071 159.14 325.929 159.808 325.644 160.366C325.36 160.923 324.971 161.351 324.476 161.652C323.984 161.95 323.424 162.099 322.796 162.099C322.167 162.099 321.604 161.95 321.11 161.652C320.617 161.351 320.229 160.922 319.945 160.363C319.661 159.804 319.519 159.138 319.519 158.364C319.519 157.587 319.661 156.921 319.945 156.364C320.229 155.806 320.617 155.377 321.11 155.079C321.604 154.778 322.167 154.628 322.796 154.628C323.424 154.628 323.984 154.778 324.476 155.079C324.971 155.377 325.36 155.806 325.644 156.364C325.929 156.921 326.071 157.587 326.071 158.364ZM324.984 158.364C324.984 157.772 324.888 157.273 324.696 156.869C324.507 156.461 324.246 156.154 323.915 155.945C323.586 155.735 323.213 155.629 322.796 155.629C322.377 155.629 322.003 155.735 321.674 155.945C321.345 156.154 321.085 156.461 320.893 156.869C320.704 157.273 320.609 157.772 320.609 158.364C320.609 158.955 320.704 159.455 320.893 159.862C321.085 160.267 321.345 160.575 321.674 160.786C322.003 160.994 322.377 161.098 322.796 161.098C323.213 161.098 323.586 160.994 323.915 160.786C324.246 160.575 324.507 160.267 324.696 159.862C324.888 159.455 324.984 158.955 324.984 158.364Z" fill="#AEAEB3"/>
<path d="M291 135.125C291 136.849 291.339 138.555 291.999 140.148C292.659 141.74 293.625 143.187 294.844 144.406C296.063 145.625 297.51 146.591 299.102 147.251C300.695 147.911 302.401 148.25 304.125 148.25C305.849 148.25 307.555 147.911 309.148 147.251C310.74 146.591 312.187 145.625 313.406 144.406C314.625 143.187 315.591 141.74 316.251 140.148C316.911 138.555 317.25 136.849 317.25 135.125C317.25 133.401 316.911 131.695 316.251 130.102C315.591 128.51 314.625 127.063 313.406 125.844C312.187 124.625 310.74 123.659 309.148 122.999C307.555 122.339 305.849 122 304.125 122C302.401 122 300.695 122.339 299.102 122.999C297.51 123.659 296.063 124.625 294.844 125.844C293.625 127.063 292.659 128.51 291.999 130.102C291.339 131.695 291 133.401 291 135.125Z" stroke="#A6042E" stroke-linecap="round" stroke-linejoin="round"/>
<path d="M302.667 133.667H304.125L308.5 127.833L302.667 133.667Z" stroke="#A6042E" stroke-linecap="round" stroke-linejoin="round"/>
<path d="M304.125 136.583H305.583L299.75 142.417L304.125 136.583Z" stroke="#A6042E" stroke-linecap="round" stroke-linejoin="round"/>
</g>
<defs>
<clipPath id="clip0_2_25">
<rect width="370" height="207" fill="white"/>
</clipPath>
</defs>
</svg>
