<svg width="370" height="207" viewBox="0 0 370 207" fill="none" xmlns="http://www.w3.org/2000/svg">
<g clip-path="url(#clip0_1205_262)">
<rect width="370" height="207" fill="#6421FF"/>
<path fill-rule="evenodd" clip-rule="evenodd" d="M331.332 148.189C331.304 146.787 331.244 145.111 331.156 143.541C331.054 141.748 330.92 140.072 330.758 139.061C330.511 137.561 330.195 136.086 329.804 134.631C319.313 132.476 291.015 127.469 224.795 127.705C222.39 133.117 220.992 138.994 220.809 145.15C252.731 144.079 298.513 146.122 331.332 148.189Z" fill="black"/>
<path fill-rule="evenodd" clip-rule="evenodd" d="M190.934 148.111C196.723 146.699 205.502 145.818 216.126 145.332C216.471 130.599 223.144 117.298 233.754 107.608C243.343 98.8534 256.158 93.0501 270.416 91.8282C270.638 89.4583 271.771 87.3348 273.497 85.7608C275.367 84.0564 277.934 83 280.751 83C283.568 83 286.139 84.0564 288.005 85.7608C289.935 87.5215 291.129 89.9653 291.129 92.6768C291.129 92.8987 291.097 93.1135 291.041 93.3142C300.041 95.4341 308.225 99.4238 315.071 104.801C325.744 113.185 333.164 124.958 335.35 138.314C335.544 139.508 335.699 141.353 335.805 143.286C335.907 145.121 335.974 147.012 336.005 148.491C345.922 149.139 354.433 149.773 360.683 150.301C363.074 150.541 364.817 152.671 364.578 155.062C364.339 157.453 362.205 159.196 359.814 158.957C345.865 157.418 332.248 156.09 318.782 154.946C318.328 156.858 315.965 158.985 313.229 161.446C310.095 164.267 306.345 167.64 305.535 169.908C305.211 170.824 305.105 172.173 305.137 173.701C305.165 175.025 305.306 176.5 305.499 177.972H308.845C309.968 177.972 310.908 178.768 311.13 179.828L314.215 191.336C314.514 192.456 313.947 193.6 312.923 194.062L315.796 205.457L311.289 206.661L308.151 194.269H281.769L286.146 210.249L281.638 211.454L276.937 194.269C275.856 194.255 274.951 193.502 274.701 192.495L270.856 181.043C270.447 179.825 271.106 178.504 272.324 178.095C272.571 178.015 272.817 177.972 273.064 177.972V177.965H275.18C270.933 171.775 264.384 167.602 256.999 164.64C248.196 161.112 238.167 159.284 229.321 157.84C227.286 157.509 225.616 156.854 224.623 156.016C223.842 155.354 223.373 154.544 223.275 153.608C223.169 152.622 223.489 151.678 224.289 150.826C224.715 150.375 225.324 149.931 226.138 149.516C218.436 149.248 210.661 149.012 202.77 148.808" fill="black"/>
<path fill-rule="evenodd" clip-rule="evenodd" d="M329.048 132.107C317.663 129.839 289.175 125.212 225.906 125.381C228.639 120.029 232.375 115.19 236.896 111.063C246.911 101.918 260.757 96.2626 276.072 96.2626C289.883 96.2626 302.504 100.862 312.191 108.475C320.058 114.655 325.991 122.821 329.052 132.107H329.048Z" fill="black"/>
<path fill-rule="evenodd" clip-rule="evenodd" d="M301.886 189.597L300.316 182.639H276.325L278.656 189.597H301.886Z" fill="black"/>
<path fill-rule="evenodd" clip-rule="evenodd" d="M302.692 182.639L304.266 189.597H308.928L307.062 182.639H302.692Z" fill="black"/>
<path fill-rule="evenodd" clip-rule="evenodd" d="M280.661 177.973H300.797C300.628 176.582 300.511 175.163 300.483 173.793C300.441 171.726 300.614 169.81 301.138 168.342C302.343 164.972 306.575 161.162 310.111 157.982C312.322 155.992 314.312 155.063 314.241 154.693C314.234 154.651 314.22 154.605 314.206 154.566C312.625 154.436 311.044 154.309 309.47 154.182C306.399 154.77 302.61 156.087 299.117 157.302L298.483 157.524H298.476C297.811 157.756 296.955 158.08 296.145 158.387C293.085 159.545 290.68 160.454 287.415 160.162C286.905 160.334 286.331 160.334 285.792 160.116C285.419 159.964 285.017 159.809 284.595 159.651C283.894 159.468 283.151 159.232 282.352 158.947C282.193 158.89 282.042 158.816 281.904 158.728C275.108 156.549 264.565 154.14 254.3 152.816C245.025 151.619 236.052 151.309 230.485 152.865C230.129 152.964 229.812 153.059 229.527 153.154C229.703 153.189 229.886 153.224 230.08 153.256C239.172 154.742 249.504 156.626 258.741 160.331C267.907 164.003 275.953 169.44 280.668 177.98L280.661 177.973Z" fill="black"/>
<path fill-rule="evenodd" clip-rule="evenodd" d="M285.882 155.135C289.354 155.963 291.537 155.135 294.509 154.008C295.133 153.772 295.795 153.522 296.707 153.202C289.157 152.66 281.621 152.17 274.075 151.73C278.751 152.85 282.857 154.043 285.882 155.135Z" fill="black"/>
<path fill-rule="evenodd" clip-rule="evenodd" d="M286.442 92.4101C286.365 91.1705 285.777 90.0472 284.861 89.2126C283.822 88.2619 282.364 87.6738 280.745 87.6738C279.125 87.6738 277.67 88.2619 276.628 89.2126C275.92 89.8606 275.403 90.6811 275.174 91.5931C275.47 91.5896 275.765 91.5861 276.061 91.5861C279.6 91.5861 283.069 91.8678 286.442 92.4065V92.4101Z" fill="black"/>
<path fill-rule="evenodd" clip-rule="evenodd" d="M276.072 96.2626C260.761 96.2626 246.911 101.918 236.896 111.063C232.375 115.19 228.639 120.029 225.906 125.381C289.175 125.212 317.663 129.839 329.048 132.107C325.992 122.821 320.058 114.658 312.188 108.475C302.5 100.862 289.88 96.2626 276.069 96.2626H276.072Z" fill="#C4C4C4"/>
<path fill-rule="evenodd" clip-rule="evenodd" d="M329.804 134.636C319.313 132.481 291.015 127.473 224.795 127.709C222.39 133.122 220.992 138.999 220.809 145.154C252.731 144.084 298.513 146.126 331.332 148.193C331.304 146.792 331.244 145.116 331.156 143.545C331.054 141.753 330.92 140.076 330.758 139.066C330.511 137.566 330.195 136.09 329.804 134.636Z" fill="#999A9A"/>
<path fill-rule="evenodd" clip-rule="evenodd" d="M276.061 91.5863C279.6 91.5863 283.069 91.868 286.442 92.4068C286.365 91.1672 285.777 90.0439 284.861 89.2093C283.822 88.2586 282.364 87.6705 280.745 87.6705C279.125 87.6705 277.67 88.2586 276.628 89.2093C275.92 89.8573 275.403 90.6778 275.174 91.5898C275.47 91.5863 275.765 91.5828 276.061 91.5828V91.5863Z" fill="#C4C4C4"/>
<path fill-rule="evenodd" clip-rule="evenodd" d="M287.407 160.153C286.896 160.326 286.322 160.326 285.784 160.108C285.41 159.956 285.009 159.801 284.586 159.643C283.886 159.46 283.143 159.224 282.343 158.938C282.185 158.882 282.033 158.808 281.896 158.72C275.1 156.54 264.557 154.132 254.292 152.808C245.016 151.61 236.044 151.3 230.477 152.857C230.121 152.956 229.804 153.051 229.519 153.146C229.695 153.181 229.878 153.216 230.072 153.248C239.164 154.734 249.496 156.618 258.732 160.322C267.898 163.995 275.945 169.432 280.66 177.972H300.795C300.626 176.581 300.51 175.162 300.482 173.792C300.44 171.725 300.612 169.809 301.137 168.341C302.341 164.971 306.574 161.16 310.11 157.981C312.321 155.991 314.311 155.061 314.24 154.692C314.233 154.649 314.219 154.604 314.205 154.565C312.624 154.435 311.043 154.308 309.469 154.181C306.398 154.769 302.609 156.086 299.116 157.301L298.478 157.519H298.471C297.806 157.755 296.95 158.079 296.14 158.382C293.08 159.541 290.675 160.449 287.411 160.157L287.407 160.153Z" fill="#EDCBAB"/>
<path fill-rule="evenodd" clip-rule="evenodd" d="M300.316 182.639H276.325L278.656 189.597H301.886L300.316 182.639Z" fill="white"/>
<path fill-rule="evenodd" clip-rule="evenodd" d="M302.692 182.639L304.266 189.597H308.928L307.062 182.639H302.692Z" fill="white"/>
<path fill-rule="evenodd" clip-rule="evenodd" d="M292.262 175.23H292.395C292.395 175.23 292.223 175.923 292.262 175.23ZM303.027 159.535C298.822 162.996 293.631 165.099 292.769 171.152C292.417 173.62 292.286 174.754 292.262 175.23H278.979C279.585 176.107 280.152 177.019 280.676 177.969H300.812C300.643 176.578 300.526 175.159 300.498 173.789C300.456 171.722 300.628 169.807 301.153 168.338C302.357 164.968 306.59 161.158 310.126 157.978C312.337 155.989 314.327 155.059 314.256 154.689C314.249 154.647 314.235 154.601 314.221 154.563C312.64 154.432 311.059 154.306 309.485 154.179C307.365 154.584 304.903 155.337 302.431 156.165C304.653 156.545 305.541 157.468 303.03 159.531L303.027 159.535Z" fill="#DF9F75"/>
<path fill-rule="evenodd" clip-rule="evenodd" d="M329.799 134.63C326.098 133.87 320.186 132.753 311.171 131.641C312.681 137.169 313.537 142.448 313.998 147.17C320.052 147.498 325.869 147.843 331.327 148.184C331.299 146.783 331.239 145.106 331.151 143.536C331.049 141.744 330.915 140.067 330.753 139.057C330.507 137.557 330.19 136.081 329.799 134.627V134.63Z" fill="#999A9A"/>
<path fill-rule="evenodd" clip-rule="evenodd" d="M310.466 129.208C319.171 130.258 325.122 131.318 329.045 132.099C325.988 122.814 320.055 114.651 312.184 108.467C304.437 102.382 294.82 98.22 284.217 96.7974C297.726 104.108 306.018 114.841 310.462 129.205L310.466 129.208Z" fill="#999A9A"/>
<path fill-rule="evenodd" clip-rule="evenodd" d="M231.983 118.8C244.435 103.006 254.545 96.414 275.205 98.5937C254.971 103.763 249.643 104.337 237.343 122.388C236.353 123.87 234.349 124.265 232.867 123.275C231.388 122.286 230.99 120.282 231.979 118.8H231.983Z" fill="white"/>
<path fill-rule="evenodd" clip-rule="evenodd" d="M286.096 210.075C294.797 209.194 303.812 210.402 311.288 206.659L308.151 194.267H281.768L286.096 210.071V210.075Z" fill="white"/>
<path d="M68.2589 59.1875C68.1396 58.7727 67.9719 58.4062 67.756 58.0881C67.5401 57.7642 67.2759 57.4915 66.9634 57.2699C66.6566 57.0426 66.3043 56.8693 65.9066 56.75C65.5146 56.6307 65.0799 56.571 64.6026 56.571C63.7106 56.571 62.9265 56.7926 62.2504 57.2358C61.5799 57.679 61.0572 58.3239 60.6822 59.1705C60.3072 60.0114 60.1197 61.0398 60.1197 62.2557C60.1197 63.4716 60.3043 64.5057 60.6737 65.358C61.043 66.2102 61.5657 66.8608 62.2418 67.3097C62.918 67.7528 63.7163 67.9744 64.6367 67.9744C65.4719 67.9744 66.185 67.8267 66.7759 67.5312C67.3725 67.2301 67.8271 66.8068 68.1396 66.2614C68.4577 65.7159 68.6168 65.071 68.6168 64.3267L69.3668 64.4375H64.8668V61.6591H72.1708V63.858C72.1708 65.392 71.8469 66.7102 71.1992 67.8125C70.5515 68.9091 69.6594 69.7557 68.5231 70.3523C67.3867 70.9432 66.0856 71.2386 64.6197 71.2386C62.9833 71.2386 61.5458 70.8778 60.3072 70.1562C59.0685 69.429 58.1026 68.3977 57.4094 67.0625C56.7219 65.7216 56.3782 64.1307 56.3782 62.2898C56.3782 60.875 56.5827 59.6136 56.9918 58.5057C57.4066 57.392 57.9862 56.4489 58.7305 55.6761C59.4748 54.9034 60.3413 54.3153 61.3299 53.9119C62.3185 53.5085 63.3896 53.3068 64.543 53.3068C65.5316 53.3068 66.4521 53.4517 67.3043 53.7415C68.1566 54.0256 68.9123 54.429 69.5714 54.9517C70.2362 55.4744 70.7788 56.0966 71.1992 56.8182C71.6197 57.5341 71.8896 58.3239 72.0089 59.1875H68.2589ZM78.6076 71.2472C77.7724 71.2472 77.0281 71.1023 76.3746 70.8125C75.7212 70.517 75.2042 70.0824 74.8235 69.5085C74.4485 68.929 74.261 68.2074 74.261 67.3438C74.261 66.6165 74.3945 66.0057 74.6616 65.5114C74.9286 65.017 75.2923 64.6193 75.7525 64.3182C76.2127 64.017 76.7354 63.7898 77.3207 63.6364C77.9116 63.483 78.5309 63.375 79.1786 63.3125C79.94 63.233 80.5536 63.1591 81.0195 63.0909C81.4854 63.017 81.8235 62.9091 82.0337 62.767C82.244 62.625 82.3491 62.4148 82.3491 62.1364V62.0852C82.3491 61.5455 82.1786 61.1278 81.8377 60.8324C81.5025 60.5369 81.0252 60.3892 80.4059 60.3892C79.7525 60.3892 79.2326 60.5341 78.8462 60.8239C78.4599 61.108 78.2042 61.4659 78.0792 61.8977L74.7212 61.625C74.8917 60.8295 75.2269 60.142 75.7269 59.5625C76.2269 58.9773 76.8718 58.5284 77.6616 58.2159C78.457 57.8977 79.3775 57.7386 80.4229 57.7386C81.1502 57.7386 81.8462 57.8239 82.511 57.9943C83.1815 58.1648 83.7752 58.429 84.2923 58.7869C84.815 59.1449 85.2269 59.6051 85.5281 60.1676C85.8292 60.7244 85.9798 61.392 85.9798 62.1705V71H82.5366V69.1847H82.4343C82.2241 69.5938 81.9428 69.9545 81.5906 70.267C81.2383 70.5739 80.815 70.8153 80.3207 70.9915C79.8263 71.1619 79.2553 71.2472 78.6076 71.2472ZM79.6474 68.7415C80.1815 68.7415 80.6531 68.6364 81.0621 68.4261C81.4712 68.2102 81.7923 67.9205 82.0252 67.5568C82.2582 67.1932 82.3746 66.7812 82.3746 66.321V64.9318C82.261 65.0057 82.1048 65.0739 81.9059 65.1364C81.7127 65.1932 81.494 65.2472 81.2496 65.2983C81.0053 65.3437 80.761 65.3864 80.5167 65.4261C80.2724 65.4602 80.0508 65.4915 79.8519 65.5199C79.4258 65.5824 79.0536 65.6818 78.7354 65.8182C78.4173 65.9545 78.1701 66.1392 77.994 66.3722C77.8178 66.5994 77.7298 66.8835 77.7298 67.2244C77.7298 67.7188 77.9087 68.0966 78.2667 68.358C78.6303 68.6136 79.0906 68.7415 79.6474 68.7415ZM88.7965 71V57.9091H92.3164V60.1932H92.4528C92.6914 59.3807 93.092 58.767 93.6545 58.3523C94.217 57.9318 94.8647 57.7216 95.5977 57.7216C95.7795 57.7216 95.9755 57.733 96.1857 57.7557C96.396 57.7784 96.5806 57.8097 96.7397 57.8494V61.071C96.5692 61.0199 96.3335 60.9744 96.0323 60.9347C95.7312 60.8949 95.4556 60.875 95.2056 60.875C94.6715 60.875 94.1942 60.9915 93.7738 61.2244C93.359 61.4517 93.0295 61.7699 92.7852 62.179C92.5465 62.5881 92.4272 63.0597 92.4272 63.5938V71H88.7965ZM103.922 71.2557C102.581 71.2557 101.428 70.9716 100.462 70.4034C99.5018 69.8295 98.7631 69.0341 98.2461 68.017C97.7347 67 97.479 65.8295 97.479 64.5057C97.479 63.1648 97.7376 61.9886 98.2546 60.9773C98.7773 59.9602 99.5188 59.1676 100.479 58.5994C101.439 58.0256 102.581 57.7386 103.905 57.7386C105.047 57.7386 106.047 57.946 106.905 58.3608C107.763 58.7756 108.442 59.358 108.942 60.108C109.442 60.858 109.718 61.7386 109.769 62.75H106.343C106.246 62.0966 105.99 61.571 105.576 61.1733C105.167 60.7699 104.63 60.5682 103.965 60.5682C103.402 60.5682 102.911 60.7216 102.49 61.0284C102.076 61.3295 101.752 61.7699 101.519 62.3494C101.286 62.929 101.169 63.6307 101.169 64.4545C101.169 65.2898 101.283 66 101.51 66.5852C101.743 67.1705 102.07 67.6165 102.49 67.9233C102.911 68.2301 103.402 68.3835 103.965 68.3835C104.38 68.3835 104.752 68.2983 105.081 68.1278C105.417 67.9574 105.692 67.7102 105.908 67.3864C106.13 67.0568 106.275 66.6619 106.343 66.2017H109.769C109.712 67.2017 109.439 68.0824 108.951 68.8438C108.468 69.5994 107.8 70.1903 106.948 70.6165C106.096 71.0426 105.087 71.2557 103.922 71.2557ZM112.093 71V57.9091H115.724V71H112.093ZM113.917 56.2216C113.377 56.2216 112.914 56.0426 112.528 55.6847C112.147 55.321 111.957 54.8864 111.957 54.3807C111.957 53.8807 112.147 53.4517 112.528 53.0938C112.914 52.7301 113.377 52.5483 113.917 52.5483C114.457 52.5483 114.917 52.7301 115.298 53.0938C115.684 53.4517 115.877 53.8807 115.877 54.3807C115.877 54.8864 115.684 55.321 115.298 55.6847C114.917 56.0426 114.457 56.2216 113.917 56.2216ZM122.263 63.4318V71H118.632V57.9091H122.093V60.2188H122.246C122.536 59.4574 123.022 58.8551 123.703 58.4119C124.385 57.9631 125.212 57.7386 126.184 57.7386C127.093 57.7386 127.885 57.9375 128.561 58.3352C129.238 58.733 129.763 59.3011 130.138 60.0398C130.513 60.7727 130.701 61.6477 130.701 62.6648V71H127.07V63.3125C127.076 62.5114 126.871 61.8864 126.456 61.4375C126.042 60.983 125.471 60.7557 124.743 60.7557C124.255 60.7557 123.823 60.8608 123.448 61.071C123.078 61.2812 122.789 61.5881 122.578 61.9915C122.374 62.3892 122.269 62.8693 122.263 63.4318ZM139.477 71.2557C138.153 71.2557 137.008 70.9744 136.042 70.4119C135.082 69.8437 134.341 69.054 133.818 68.0426C133.295 67.0256 133.034 65.8466 133.034 64.5057C133.034 63.1534 133.295 61.9716 133.818 60.9602C134.341 59.9432 135.082 59.1534 136.042 58.5909C137.008 58.0227 138.153 57.7386 139.477 57.7386C140.801 57.7386 141.943 58.0227 142.903 58.5909C143.869 59.1534 144.613 59.9432 145.136 60.9602C145.659 61.9716 145.92 63.1534 145.92 64.5057C145.92 65.8466 145.659 67.0256 145.136 68.0426C144.613 69.054 143.869 69.8437 142.903 70.4119C141.943 70.9744 140.801 71.2557 139.477 71.2557ZM139.494 68.4432C140.096 68.4432 140.599 68.2727 141.002 67.9318C141.406 67.5852 141.71 67.1136 141.914 66.517C142.125 65.9205 142.23 65.2415 142.23 64.4801C142.23 63.7188 142.125 63.0398 141.914 62.4432C141.71 61.8466 141.406 61.375 141.002 61.0284C140.599 60.6818 140.096 60.5085 139.494 60.5085C138.886 60.5085 138.375 60.6818 137.96 61.0284C137.551 61.375 137.241 61.8466 137.031 62.4432C136.826 63.0398 136.724 63.7188 136.724 64.4801C136.724 65.2415 136.826 65.9205 137.031 66.517C137.241 67.1136 137.551 67.5852 137.96 67.9318C138.375 68.2727 138.886 68.4432 139.494 68.4432Z" fill="white"/>
<path d="M65.5398 88.6364C65.5398 89.5682 65.3693 90.3693 65.0284 91.0398C64.6875 91.7074 64.2202 92.2216 63.6264 92.5824C63.0355 92.9403 62.3636 93.1193 61.6108 93.1193C60.8551 93.1193 60.1804 92.9403 59.5866 92.5824C58.9957 92.2216 58.5298 91.706 58.1889 91.0355C57.848 90.3651 57.6776 89.5653 57.6776 88.6364C57.6776 87.7045 57.848 86.9048 58.1889 86.2372C58.5298 85.5668 58.9957 85.0526 59.5866 84.6946C60.1804 84.3338 60.8551 84.1534 61.6108 84.1534C62.3636 84.1534 63.0355 84.3338 63.6264 84.6946C64.2202 85.0526 64.6875 85.5668 65.0284 86.2372C65.3693 86.9048 65.5398 87.7045 65.5398 88.6364ZM64.2358 88.6364C64.2358 87.9261 64.1207 87.3281 63.8906 86.8423C63.6634 86.3537 63.3509 85.9844 62.9531 85.7344C62.5582 85.4815 62.1108 85.3551 61.6108 85.3551C61.108 85.3551 60.6591 85.4815 60.2642 85.7344C59.8693 85.9844 59.5568 86.3537 59.3267 86.8423C59.0994 87.3281 58.9858 87.9261 58.9858 88.6364C58.9858 89.3466 59.0994 89.946 59.3267 90.4347C59.5568 90.9205 59.8693 91.2898 60.2642 91.5426C60.6591 91.7926 61.108 91.9176 61.6108 91.9176C62.1108 91.9176 62.5582 91.7926 62.9531 91.5426C63.3509 91.2898 63.6634 90.9205 63.8906 90.4347C64.1207 89.946 64.2358 89.3466 64.2358 88.6364ZM68.3533 89.1136V93H67.0792V86.4545H68.3022V87.5199H68.3832C68.5337 87.1733 68.7695 86.8949 69.0906 86.6847C69.4144 86.4744 69.8221 86.3693 70.3136 86.3693C70.7596 86.3693 71.1502 86.4631 71.4854 86.6506C71.8207 86.8352 72.0806 87.1108 72.2653 87.4773C72.4499 87.8437 72.5423 88.2969 72.5423 88.8366V93H71.2681V88.9901C71.2681 88.5156 71.1445 88.1449 70.8974 87.8778C70.6502 87.608 70.3107 87.473 69.8789 87.473C69.5835 87.473 69.3207 87.5369 69.0906 87.6648C68.8633 87.7926 68.6829 87.9801 68.5494 88.2273C68.4187 88.4716 68.3533 88.767 68.3533 89.1136ZM75.5252 84.2727V93H74.2511V84.2727H75.5252ZM77.2393 93V86.4545H78.5135V93H77.2393ZM77.8828 85.4446C77.6612 85.4446 77.4709 85.3707 77.3118 85.223C77.1555 85.0724 77.0774 84.8935 77.0774 84.6861C77.0774 84.4759 77.1555 84.2969 77.3118 84.1491C77.4709 83.9986 77.6612 83.9233 77.8828 83.9233C78.1044 83.9233 78.2933 83.9986 78.4496 84.1491C78.6087 84.2969 78.6882 84.4759 78.6882 84.6861C78.6882 84.8935 78.6087 85.0724 78.4496 85.223C78.2933 85.3707 78.1044 85.4446 77.8828 85.4446ZM81.5018 89.1136V93H80.2276V86.4545H81.4506V87.5199H81.5316C81.6822 87.1733 81.918 86.8949 82.239 86.6847C82.5629 86.4744 82.9705 86.3693 83.462 86.3693C83.908 86.3693 84.2987 86.4631 84.6339 86.6506C84.9691 86.8352 85.229 87.1108 85.4137 87.4773C85.5984 87.8437 85.6907 88.2969 85.6907 88.8366V93H84.4165V88.9901C84.4165 88.5156 84.293 88.1449 84.0458 87.8778C83.7987 87.608 83.4592 87.473 83.0273 87.473C82.7319 87.473 82.4691 87.5369 82.239 87.6648C82.0117 87.7926 81.8313 87.9801 81.6978 88.2273C81.5671 88.4716 81.5018 88.767 81.5018 89.1136ZM90.2205 93.1321C89.5756 93.1321 89.0202 92.9943 88.5543 92.7188C88.0913 92.4403 87.7333 92.0497 87.4805 91.5469C87.2305 91.0412 87.1055 90.4489 87.1055 89.7699C87.1055 89.0994 87.2305 88.5085 87.4805 87.9972C87.7333 87.4858 88.0856 87.0866 88.5373 86.7997C88.9918 86.5128 89.5231 86.3693 90.131 86.3693C90.5004 86.3693 90.8583 86.4304 91.2049 86.5526C91.5515 86.6747 91.8626 86.8665 92.1381 87.1278C92.4137 87.3892 92.631 87.7287 92.7901 88.1463C92.9492 88.5611 93.0288 89.0653 93.0288 89.6591V90.1108H87.8256V89.1562H91.7802C91.7802 88.821 91.712 88.5241 91.5756 88.2656C91.4393 88.0043 91.2475 87.7983 91.0004 87.6477C90.756 87.4972 90.4691 87.4219 90.1396 87.4219C89.7816 87.4219 89.4691 87.5099 89.2021 87.6861C88.9379 87.8594 88.7333 88.0866 88.5884 88.3679C88.4464 88.6463 88.3754 88.9489 88.3754 89.2756V90.0213C88.3754 90.4588 88.4521 90.831 88.6055 91.1378C88.7617 91.4446 88.979 91.679 89.2575 91.8409C89.5359 92 89.8612 92.0795 90.2333 92.0795C90.4748 92.0795 90.695 92.0455 90.8938 91.9773C91.0927 91.9062 91.2646 91.8011 91.4094 91.6619C91.5543 91.5227 91.6651 91.3509 91.7418 91.1463L92.9478 91.3636C92.8512 91.7187 92.6779 92.0298 92.4279 92.2969C92.1808 92.5611 91.8697 92.767 91.4947 92.9148C91.1225 93.0597 90.6978 93.1321 90.2205 93.1321ZM100.546 93H97.7205V84.2727H100.635C101.49 84.2727 102.225 84.4474 102.838 84.7969C103.452 85.1435 103.922 85.642 104.249 86.2926C104.578 86.9403 104.743 87.7173 104.743 88.6236C104.743 89.5327 104.577 90.3139 104.245 90.9673C103.915 91.6207 103.438 92.1236 102.813 92.4759C102.188 92.8253 101.432 93 100.546 93ZM99.0373 91.8494H100.473C101.138 91.8494 101.691 91.7244 102.131 91.4744C102.571 91.2216 102.901 90.8565 103.12 90.3793C103.338 89.8991 103.448 89.3139 103.448 88.6236C103.448 87.9389 103.338 87.358 103.12 86.8807C102.904 86.4034 102.581 86.0412 102.152 85.794C101.723 85.5469 101.191 85.4233 100.554 85.4233H99.0373V91.8494ZM106.278 93V86.4545H107.553V93H106.278ZM106.922 85.4446C106.7 85.4446 106.51 85.3707 106.351 85.223C106.195 85.0724 106.116 84.8935 106.116 84.6861C106.116 84.4759 106.195 84.2969 106.351 84.1491C106.51 83.9986 106.7 83.9233 106.922 83.9233C107.143 83.9233 107.332 83.9986 107.489 84.1491C107.648 84.2969 107.727 84.4759 107.727 84.6861C107.727 84.8935 107.648 85.0724 107.489 85.223C107.332 85.3707 107.143 85.4446 106.922 85.4446ZM112.011 95.5909C111.491 95.5909 111.044 95.5227 110.669 95.3864C110.297 95.25 109.993 95.0696 109.757 94.8452C109.521 94.6207 109.345 94.375 109.228 94.108L110.324 93.6562C110.4 93.7812 110.502 93.9134 110.63 94.0526C110.761 94.1946 110.937 94.3153 111.159 94.4148C111.383 94.5142 111.672 94.5639 112.024 94.5639C112.507 94.5639 112.906 94.446 113.221 94.2102C113.537 93.9773 113.694 93.6051 113.694 93.0938V91.8068H113.613C113.537 91.946 113.426 92.1009 113.281 92.2713C113.139 92.4418 112.943 92.5895 112.693 92.7145C112.443 92.8395 112.118 92.902 111.717 92.902C111.2 92.902 110.734 92.7812 110.319 92.5398C109.907 92.2955 109.581 91.9361 109.339 91.4616C109.1 90.9844 108.981 90.3977 108.981 89.7017C108.981 89.0057 109.099 88.4091 109.335 87.9119C109.574 87.4148 109.9 87.0341 110.315 86.7699C110.73 86.5028 111.2 86.3693 111.725 86.3693C112.132 86.3693 112.46 86.4375 112.71 86.5739C112.96 86.7074 113.154 86.8636 113.294 87.0426C113.436 87.2216 113.545 87.3793 113.622 87.5156H113.716V86.4545H114.964V93.1449C114.964 93.7074 114.833 94.169 114.572 94.5298C114.311 94.8906 113.957 95.1577 113.511 95.331C113.068 95.5043 112.568 95.5909 112.011 95.5909ZM111.998 91.8452C112.365 91.8452 112.674 91.7599 112.927 91.5895C113.183 91.4162 113.376 91.169 113.507 90.848C113.64 90.5241 113.707 90.1364 113.707 89.6847C113.707 89.2443 113.642 88.8565 113.511 88.5213C113.38 88.1861 113.189 87.9247 112.936 87.7372C112.683 87.5469 112.37 87.4517 111.998 87.4517C111.615 87.4517 111.295 87.5511 111.039 87.75C110.784 87.946 110.591 88.2131 110.46 88.5511C110.332 88.8892 110.268 89.267 110.268 89.6847C110.268 90.1136 110.333 90.4901 110.464 90.8139C110.595 91.1378 110.788 91.3906 111.044 91.5724C111.302 91.7543 111.62 91.8452 111.998 91.8452ZM116.673 93V86.4545H117.947V93H116.673ZM117.316 85.4446C117.095 85.4446 116.904 85.3707 116.745 85.223C116.589 85.0724 116.511 84.8935 116.511 84.6861C116.511 84.4759 116.589 84.2969 116.745 84.1491C116.904 83.9986 117.095 83.9233 117.316 83.9233C117.538 83.9233 117.727 83.9986 117.883 84.1491C118.042 84.2969 118.122 84.4759 118.122 84.6861C118.122 84.8935 118.042 85.0724 117.883 85.223C117.727 85.3707 117.538 85.4446 117.316 85.4446ZM122.717 86.4545V87.4773H119.141V86.4545H122.717ZM120.1 84.8864H121.374V91.0781C121.374 91.3253 121.411 91.5114 121.485 91.6364C121.559 91.7585 121.654 91.8423 121.771 91.8878C121.89 91.9304 122.019 91.9517 122.158 91.9517C122.261 91.9517 122.35 91.9446 122.427 91.9304C122.504 91.9162 122.563 91.9048 122.606 91.8963L122.836 92.9489C122.762 92.9773 122.657 93.0057 122.521 93.0341C122.384 93.0653 122.214 93.0824 122.009 93.0852C121.674 93.0909 121.362 93.0312 121.072 92.9062C120.782 92.7812 120.548 92.5881 120.369 92.3267C120.19 92.0653 120.1 91.7372 120.1 91.3423V84.8864ZM126.031 93.1449C125.616 93.1449 125.241 93.0682 124.906 92.9148C124.571 92.7585 124.305 92.5327 124.109 92.2372C123.916 91.9418 123.819 91.5795 123.819 91.1506C123.819 90.7812 123.89 90.4773 124.032 90.2386C124.174 90 124.366 89.8111 124.608 89.6719C124.849 89.5327 125.119 89.4276 125.417 89.3565C125.716 89.2855 126.02 89.2315 126.329 89.1946C126.721 89.1491 127.039 89.1122 127.284 89.0838C127.528 89.0526 127.706 89.0028 127.816 88.9347C127.927 88.8665 127.983 88.7557 127.983 88.6023V88.5724C127.983 88.2003 127.877 87.9119 127.667 87.7074C127.46 87.5028 127.15 87.4006 126.738 87.4006C126.309 87.4006 125.971 87.4957 125.724 87.6861C125.48 87.8736 125.311 88.0824 125.217 88.3125L124.02 88.0398C124.162 87.642 124.369 87.321 124.642 87.0767C124.917 86.8295 125.234 86.6506 125.592 86.5398C125.95 86.4261 126.326 86.3693 126.721 86.3693C126.983 86.3693 127.26 86.4006 127.552 86.4631C127.848 86.5227 128.123 86.6335 128.379 86.7955C128.637 86.9574 128.849 87.1889 129.014 87.4901C129.179 87.7884 129.261 88.1761 129.261 88.6534V93H128.017V92.1051H127.966C127.883 92.2699 127.76 92.4318 127.595 92.5909C127.43 92.75 127.218 92.8821 126.96 92.9872C126.701 93.0923 126.392 93.1449 126.031 93.1449ZM126.308 92.1222C126.66 92.1222 126.961 92.0526 127.211 91.9134C127.464 91.7741 127.656 91.5923 127.787 91.3679C127.92 91.1406 127.987 90.8977 127.987 90.6392V89.7955C127.941 89.8409 127.853 89.8835 127.723 89.9233C127.595 89.9602 127.449 89.9929 127.284 90.0213C127.119 90.0469 126.958 90.071 126.802 90.0938C126.646 90.1136 126.515 90.1307 126.41 90.1449C126.163 90.1761 125.937 90.2287 125.733 90.3026C125.531 90.3764 125.369 90.483 125.247 90.6222C125.127 90.7585 125.068 90.9403 125.068 91.1676C125.068 91.483 125.184 91.7216 125.417 91.8835C125.65 92.0426 125.947 92.1222 126.308 92.1222ZM132.232 84.2727V93H130.958V84.2727H132.232ZM137.224 84.2727H138.822L141.601 91.0568H141.703L144.482 84.2727H146.08V93H144.827V86.6847H144.746L142.172 92.9872H141.132L138.558 86.6804H138.477V93H137.224V84.2727ZM150.713 93.1321C150.068 93.1321 149.512 92.9943 149.047 92.7188C148.583 92.4403 148.225 92.0497 147.973 91.5469C147.723 91.0412 147.598 90.4489 147.598 89.7699C147.598 89.0994 147.723 88.5085 147.973 87.9972C148.225 87.4858 148.578 87.0866 149.029 86.7997C149.484 86.5128 150.015 86.3693 150.623 86.3693C150.993 86.3693 151.35 86.4304 151.697 86.5526C152.044 86.6747 152.355 86.8665 152.63 87.1278C152.906 87.3892 153.123 87.7287 153.282 88.1463C153.441 88.5611 153.521 89.0653 153.521 89.6591V90.1108H148.318V89.1562H152.272C152.272 88.821 152.204 88.5241 152.068 88.2656C151.931 88.0043 151.74 87.7983 151.493 87.6477C151.248 87.4972 150.961 87.4219 150.632 87.4219C150.274 87.4219 149.961 87.5099 149.694 87.6861C149.43 87.8594 149.225 88.0866 149.081 88.3679C148.939 88.6463 148.868 88.9489 148.868 89.2756V90.0213C148.868 90.4588 148.944 90.831 149.098 91.1378C149.254 91.4446 149.471 91.679 149.75 91.8409C150.028 92 150.353 92.0795 150.725 92.0795C150.967 92.0795 151.187 92.0455 151.386 91.9773C151.585 91.9062 151.757 91.8011 151.902 91.6619C152.047 91.5227 152.157 91.3509 152.234 91.1463L153.44 91.3636C153.343 91.7187 153.17 92.0298 152.92 92.2969C152.673 92.5611 152.362 92.767 151.987 92.9148C151.615 93.0597 151.19 93.1321 150.713 93.1321ZM156.209 89.1136V93H154.935V86.4545H156.158V87.5199H156.239C156.389 87.1733 156.625 86.8949 156.946 86.6847C157.27 86.4744 157.678 86.3693 158.169 86.3693C158.615 86.3693 159.006 86.4631 159.341 86.6506C159.676 86.8352 159.936 87.1108 160.121 87.4773C160.305 87.8437 160.398 88.2969 160.398 88.8366V93H159.124V88.9901C159.124 88.5156 159 88.1449 158.753 87.8778C158.506 87.608 158.166 87.473 157.734 87.473C157.439 87.473 157.176 87.5369 156.946 87.6648C156.719 87.7926 156.538 87.9801 156.405 88.2273C156.274 88.4716 156.209 88.767 156.209 89.1136ZM166.253 90.2855V86.4545H167.531V93H166.278V91.8665H166.21C166.06 92.2159 165.818 92.5071 165.486 92.7401C165.156 92.9702 164.746 93.0852 164.254 93.0852C163.834 93.0852 163.462 92.9929 163.138 92.8082C162.817 92.6207 162.564 92.3438 162.379 91.9773C162.197 91.6108 162.107 91.1577 162.107 90.6179V86.4545H163.381V90.4645C163.381 90.9105 163.504 91.2656 163.751 91.5298C163.999 91.794 164.32 91.9261 164.714 91.9261C164.953 91.9261 165.19 91.8665 165.426 91.7472C165.665 91.6278 165.862 91.4474 166.018 91.206C166.178 90.9645 166.256 90.6577 166.253 90.2855Z" fill="white"/>
<path d="M64.5047 134.994V127.494L74.1859 140.807C71.7902 142.295 68.9229 142.829 66.152 142.303C63.3812 141.777 60.909 140.229 59.2252 137.967C57.5413 135.704 56.7687 132.892 57.0603 130.087C57.352 127.281 58.6866 124.688 60.7999 122.82C62.9131 120.953 65.6508 119.947 68.4705 120.002C71.2903 120.057 73.9864 121.17 76.0249 123.119C78.0633 125.068 79.2952 127.712 79.4767 130.526C79.6582 133.341 78.7759 136.121 77.0047 138.315M72.0047 131.244V127.494" stroke="white" stroke-linecap="round" stroke-linejoin="round"/>
<path d="M109.5 125.111V135.972L106.925 136.229C106.443 136.278 105.955 136.226 105.494 136.075C105.033 135.924 104.608 135.678 104.248 135.352C103.888 135.027 103.6 134.63 103.403 134.186C103.206 133.743 103.104 133.263 103.104 132.778C103.104 132.293 103.206 131.813 103.403 131.369C103.6 130.926 103.888 130.529 104.248 130.203C104.608 129.878 105.033 129.632 105.494 129.481C105.955 129.33 106.443 129.277 106.925 129.327L109.5 129.583M114.611 125.111V125.124M114.611 128.944V136.082C114.611 137.239 114.151 138.349 113.333 139.167M98 123.833C98 122.817 98.4039 121.842 99.1228 121.123C99.8416 120.404 100.817 120 101.833 120H117.167C118.183 120 119.158 120.404 119.877 121.123C120.596 121.842 121 122.817 121 123.833V139.167C121 140.183 120.596 141.158 119.877 141.877C119.158 142.596 118.183 143 117.167 143H101.833C100.817 143 99.8416 142.596 99.1228 141.877C98.4039 141.158 98 140.183 98 139.167V123.833Z" stroke="white" stroke-linecap="round" stroke-linejoin="round"/>
<path d="M146.042 129.25H142.417V132.875H146.042M146.042 129.25V132.875M146.042 129.25H149.667M146.042 129.25V125.625H149.667M146.042 132.875H149.667M149.667 129.25V132.875M149.667 129.25H153.292M149.667 129.25V125.625M149.667 132.875H153.292V129.25M153.292 129.25V125.625M149.667 125.625H153.292M149.667 125.625V122H153.292V125.625M141.898 138.917C143.711 138.917 144.372 138.827 145.473 137.974M148.458 136.5V136.512M162.958 132.319C160.779 131.902 159.695 131.014 158.701 128.767C158.113 129.608 157.37 130.661 157.59 131.667C157.624 131.954 157.203 132.875 156.917 132.875H140C140 139.168 143.823 141.333 147.487 141.333C152.47 141.36 156.946 139.671 159.394 135.292C160.778 135.17 162.168 133.473 162.958 132.319Z" stroke="white" stroke-linecap="round" stroke-linejoin="round"/>
</g>
<defs>
<clipPath id="clip0_1205_262">
<rect width="370" height="207" fill="white"/>
</clipPath>
</defs>
</svg>
