<svg width="370" height="207" viewBox="0 0 370 207" fill="none" xmlns="http://www.w3.org/2000/svg">
<g clip-path="url(#clip0_1205_60)">
<rect width="370" height="207" fill="#17192B"/>
<path d="M371 208.545L-0.500052 207L371 -0.499997L371 208.545Z" fill="#1B1D2F"/>
<path d="M58.5047 133.994V126.494L68.1859 139.807C65.7902 141.295 62.9229 141.829 60.152 141.303C57.3812 140.777 54.909 139.229 53.2252 136.967C51.5413 134.704 50.7687 131.892 51.0603 129.087C51.352 126.281 52.6866 123.688 54.7999 121.82C56.9131 119.953 59.6508 118.947 62.4705 119.002C65.2903 119.057 67.9864 120.17 70.0249 122.119C72.0633 124.068 73.2952 126.712 73.4767 129.526C73.6582 132.341 72.7759 135.121 71.0047 137.315M66.0047 130.244V126.494" stroke="white" stroke-linecap="round" stroke-linejoin="round"/>
<path d="M109.5 124.111V134.972L106.925 135.229C106.443 135.278 105.955 135.226 105.494 135.075C105.033 134.924 104.608 134.678 104.248 134.352C103.888 134.027 103.6 133.63 103.403 133.186C103.206 132.743 103.104 132.263 103.104 131.778C103.104 131.293 103.206 130.813 103.403 130.369C103.6 129.926 103.888 129.529 104.248 129.203C104.608 128.878 105.033 128.632 105.494 128.481C105.955 128.33 106.443 128.277 106.925 128.327L109.5 128.583M114.611 124.111V124.124M114.611 127.944V135.082C114.611 136.239 114.151 137.349 113.333 138.167M98 122.833C98 121.817 98.4039 120.842 99.1228 120.123C99.8416 119.404 100.817 119 101.833 119H117.167C118.183 119 119.158 119.404 119.877 120.123C120.596 120.842 121 121.817 121 122.833V138.167C121 139.183 120.596 140.158 119.877 140.877C119.158 141.596 118.183 142 117.167 142H101.833C100.817 142 99.8416 141.596 99.1228 140.877C98.4039 140.158 98 139.183 98 138.167V122.833Z" stroke="white" stroke-linecap="round" stroke-linejoin="round"/>
<path d="M49.2663 54.5881V51.5455H63.6016V54.5881H58.2578V69H54.6101V54.5881H49.2663ZM72.5078 63.4261V55.9091H76.1385V69H72.6527V66.6222H72.5163C72.2209 67.3892 71.7294 68.0057 71.0419 68.4716C70.3601 68.9375 69.5277 69.1705 68.5447 69.1705C67.6697 69.1705 66.8999 68.9716 66.2351 68.5739C65.5703 68.1761 65.0504 67.6108 64.6754 66.8778C64.3061 66.1449 64.1186 65.267 64.1129 64.2443V55.9091H67.7436V63.5966C67.7493 64.3693 67.9567 64.9801 68.3658 65.429C68.7749 65.8778 69.3232 66.1023 70.0107 66.1023C70.4482 66.1023 70.8572 66.0028 71.2379 65.804C71.6186 65.5994 71.9254 65.2983 72.1584 64.9006C72.397 64.5028 72.5135 64.0114 72.5078 63.4261ZM79.0426 69V55.9091H82.5625V58.1932H82.6989C82.9375 57.3807 83.3381 56.767 83.9006 56.3523C84.4631 55.9318 85.1108 55.7216 85.8438 55.7216C86.0256 55.7216 86.2216 55.733 86.4318 55.7557C86.642 55.7784 86.8267 55.8097 86.9858 55.8494V59.071C86.8153 59.0199 86.5795 58.9744 86.2784 58.9347C85.9773 58.8949 85.7017 58.875 85.4517 58.875C84.9176 58.875 84.4403 58.9915 84.0199 59.2244C83.6051 59.4517 83.2756 59.7699 83.0312 60.179C82.7926 60.5881 82.6733 61.0597 82.6733 61.5938V69H79.0426ZM88.9311 69V51.5455H92.5618V58.108H92.6726C92.8317 57.7557 93.0618 57.3977 93.3629 57.0341C93.6697 56.6648 94.0675 56.358 94.5561 56.1136C95.0504 55.8636 95.6641 55.7386 96.397 55.7386C97.3516 55.7386 98.2322 55.9886 99.0391 56.4886C99.8459 56.983 100.491 57.7301 100.974 58.7301C101.457 59.7244 101.698 60.9716 101.698 62.4716C101.698 63.9318 101.462 65.1648 100.991 66.1705C100.525 67.1705 99.8885 67.929 99.0817 68.446C98.2805 68.9574 97.3828 69.2131 96.3885 69.2131C95.6839 69.2131 95.0845 69.0966 94.5902 68.8636C94.1016 68.6307 93.701 68.3381 93.3885 67.9858C93.076 67.6278 92.8374 67.267 92.6726 66.9034H92.5107V69H88.9311ZM92.4851 62.4545C92.4851 63.233 92.593 63.9119 92.8089 64.4915C93.0249 65.071 93.3374 65.5227 93.7464 65.8466C94.1555 66.1648 94.6527 66.3239 95.2379 66.3239C95.8288 66.3239 96.3288 66.1619 96.7379 65.8381C97.147 65.5085 97.4567 65.054 97.6669 64.4744C97.8828 63.8892 97.9908 63.2159 97.9908 62.4545C97.9908 61.6989 97.8857 61.0341 97.6754 60.4602C97.4652 59.8864 97.1555 59.4375 96.7464 59.1136C96.3374 58.7898 95.8345 58.6278 95.2379 58.6278C94.647 58.6278 94.147 58.7841 93.7379 59.0966C93.3345 59.4091 93.0249 59.8523 92.8089 60.4261C92.593 61 92.4851 61.6761 92.4851 62.4545ZM110.036 69.2557C108.712 69.2557 107.567 68.9744 106.601 68.4119C105.641 67.8437 104.899 67.054 104.376 66.0426C103.854 65.0256 103.592 63.8466 103.592 62.5057C103.592 61.1534 103.854 59.9716 104.376 58.9602C104.899 57.9432 105.641 57.1534 106.601 56.5909C107.567 56.0227 108.712 55.7386 110.036 55.7386C111.359 55.7386 112.501 56.0227 113.462 56.5909C114.428 57.1534 115.172 57.9432 115.695 58.9602C116.217 59.9716 116.479 61.1534 116.479 62.5057C116.479 63.8466 116.217 65.0256 115.695 66.0426C115.172 67.054 114.428 67.8437 113.462 68.4119C112.501 68.9744 111.359 69.2557 110.036 69.2557ZM110.053 66.4432C110.655 66.4432 111.158 66.2727 111.561 65.9318C111.964 65.5852 112.268 65.1136 112.473 64.517C112.683 63.9205 112.788 63.2415 112.788 62.4801C112.788 61.7188 112.683 61.0398 112.473 60.4432C112.268 59.8466 111.964 59.375 111.561 59.0284C111.158 58.6818 110.655 58.5085 110.053 58.5085C109.445 58.5085 108.933 58.6818 108.518 59.0284C108.109 59.375 107.8 59.8466 107.589 60.4432C107.385 61.0398 107.283 61.7188 107.283 62.4801C107.283 63.2415 107.385 63.9205 107.589 64.517C107.8 65.1136 108.109 65.5852 108.518 65.9318C108.933 66.2727 109.445 66.4432 110.053 66.4432ZM118.908 69V51.5455H125.794C127.118 51.5455 128.246 51.7983 129.178 52.304C130.109 52.804 130.82 53.5 131.308 54.392C131.803 55.2784 132.05 56.3011 132.05 57.4602C132.05 58.6193 131.8 59.642 131.3 60.5284C130.8 61.4148 130.075 62.1051 129.126 62.5994C128.183 63.0937 127.041 63.3409 125.7 63.3409H121.311V60.3835H125.104C125.814 60.3835 126.399 60.2614 126.859 60.017C127.325 59.767 127.672 59.4233 127.899 58.9858C128.132 58.5426 128.249 58.0341 128.249 57.4602C128.249 56.8807 128.132 56.375 127.899 55.9432C127.672 55.5057 127.325 55.1676 126.859 54.929C126.393 54.6847 125.803 54.5625 125.087 54.5625H122.598V69H118.908ZM134.379 69V55.9091H138.009V69H134.379ZM136.202 54.2216C135.663 54.2216 135.2 54.0426 134.813 53.6847C134.433 53.321 134.242 52.8864 134.242 52.3807C134.242 51.8807 134.433 51.4517 134.813 51.0938C135.2 50.7301 135.663 50.5483 136.202 50.5483C136.742 50.5483 137.202 50.7301 137.583 51.0938C137.969 51.4517 138.163 51.8807 138.163 52.3807C138.163 52.8864 137.969 53.321 137.583 53.6847C137.202 54.0426 136.742 54.2216 136.202 54.2216ZM144.548 61.4318V69H140.918V55.9091H144.378V58.2188H144.531C144.821 57.4574 145.307 56.8551 145.989 56.4119C146.67 55.9631 147.497 55.7386 148.469 55.7386C149.378 55.7386 150.17 55.9375 150.847 56.3352C151.523 56.733 152.048 57.3011 152.423 58.0398C152.798 58.7727 152.986 59.6477 152.986 60.6648V69H149.355V61.3125C149.361 60.5114 149.156 59.8864 148.741 59.4375C148.327 58.983 147.756 58.7557 147.028 58.7557C146.54 58.7557 146.108 58.8608 145.733 59.071C145.364 59.2812 145.074 59.5881 144.864 59.9915C144.659 60.3892 144.554 60.8693 144.548 61.4318ZM161.745 74.1818C160.569 74.1818 159.56 74.0199 158.719 73.696C157.884 73.3778 157.219 72.9432 156.725 72.392C156.231 71.8409 155.91 71.2216 155.762 70.5341L159.12 70.0824C159.222 70.3438 159.384 70.5881 159.606 70.8153C159.827 71.0426 160.12 71.2244 160.484 71.3608C160.853 71.5028 161.302 71.5739 161.83 71.5739C162.62 71.5739 163.271 71.3807 163.782 70.9943C164.299 70.6136 164.558 69.9744 164.558 69.0767V66.6818H164.404C164.245 67.0455 164.006 67.3892 163.688 67.7131C163.37 68.0369 162.961 68.3011 162.461 68.5057C161.961 68.7102 161.364 68.8125 160.671 68.8125C159.688 68.8125 158.793 68.5852 157.987 68.1307C157.185 67.6705 156.546 66.9687 156.069 66.0256C155.597 65.0767 155.362 63.8778 155.362 62.429C155.362 60.946 155.603 59.7074 156.086 58.7131C156.569 57.7187 157.211 56.9744 158.012 56.4801C158.819 55.9858 159.702 55.7386 160.663 55.7386C161.396 55.7386 162.009 55.8636 162.504 56.1136C162.998 56.358 163.396 56.6648 163.697 57.0341C164.004 57.3977 164.239 57.7557 164.404 58.108H164.54V55.9091H168.146V69.1278C168.146 70.2415 167.873 71.1733 167.327 71.9233C166.782 72.6733 166.026 73.2358 165.06 73.6108C164.1 73.9915 162.995 74.1818 161.745 74.1818ZM161.822 66.0852C162.407 66.0852 162.901 65.9403 163.305 65.6506C163.714 65.3551 164.026 64.9347 164.242 64.3892C164.464 63.8381 164.575 63.179 164.575 62.4119C164.575 61.6449 164.467 60.9801 164.251 60.4176C164.035 59.8494 163.722 59.4091 163.313 59.0966C162.904 58.7841 162.407 58.6278 161.822 58.6278C161.225 58.6278 160.722 58.7898 160.313 59.1136C159.904 59.4318 159.594 59.875 159.384 60.4432C159.174 61.0114 159.069 61.6676 159.069 62.4119C159.069 63.1676 159.174 63.821 159.384 64.3722C159.6 64.9176 159.91 65.3409 160.313 65.642C160.722 65.9375 161.225 66.0852 161.822 66.0852Z" fill="white"/>
<path d="M48.9588 91V82.2727H52.0696C52.7486 82.2727 53.3111 82.3963 53.7571 82.6435C54.2031 82.8906 54.5369 83.2287 54.7585 83.6577C54.9801 84.0838 55.0909 84.5639 55.0909 85.098C55.0909 85.6349 54.9787 86.1179 54.7543 86.5469C54.5327 86.973 54.1974 87.3111 53.7486 87.5611C53.3026 87.8082 52.7415 87.9318 52.0653 87.9318H49.9261V86.8153H51.946C52.375 86.8153 52.723 86.7415 52.9901 86.5938C53.2571 86.4432 53.4531 86.2386 53.5781 85.9801C53.7031 85.7216 53.7656 85.4276 53.7656 85.098C53.7656 84.7685 53.7031 84.4759 53.5781 84.2202C53.4531 83.9645 53.2557 83.7642 52.9858 83.6193C52.7188 83.4744 52.3665 83.402 51.929 83.402H50.2756V91H48.9588ZM56.5323 91V84.4545H57.8065V91H56.5323ZM57.1758 83.4446C56.9542 83.4446 56.7638 83.3707 56.6048 83.223C56.4485 83.0724 56.3704 82.8935 56.3704 82.6861C56.3704 82.4759 56.4485 82.2969 56.6048 82.1491C56.7638 81.9986 56.9542 81.9233 57.1758 81.9233C57.3974 81.9233 57.5863 81.9986 57.7425 82.1491C57.9016 82.2969 57.9812 82.4759 57.9812 82.6861C57.9812 82.8935 57.9016 83.0724 57.7425 83.223C57.5863 83.3707 57.3974 83.4446 57.1758 83.4446ZM60.7947 87.1136V91H59.5206V84.4545H60.7436V85.5199H60.8246C60.9751 85.1733 61.2109 84.8949 61.532 84.6847C61.8558 84.4744 62.2635 84.3693 62.755 84.3693C63.201 84.3693 63.5916 84.4631 63.9268 84.6506C64.2621 84.8352 64.522 85.1108 64.7067 85.4773C64.8913 85.8437 64.9837 86.2969 64.9837 86.8366V91H63.7095V86.9901C63.7095 86.5156 63.5859 86.1449 63.3388 85.8778C63.0916 85.608 62.7521 85.473 62.3203 85.473C62.0249 85.473 61.7621 85.5369 61.532 85.6648C61.3047 85.7926 61.1243 85.9801 60.9908 86.2273C60.8601 86.4716 60.7947 86.767 60.7947 87.1136ZM69.4368 93.5909C68.9169 93.5909 68.4695 93.5227 68.0945 93.3864C67.7223 93.25 67.4183 93.0696 67.1825 92.8452C66.9467 92.6207 66.7706 92.375 66.6541 92.108L67.7493 91.6562C67.826 91.7812 67.9283 91.9134 68.0561 92.0526C68.1868 92.1946 68.3629 92.3153 68.5845 92.4148C68.8089 92.5142 69.0973 92.5639 69.4496 92.5639C69.9325 92.5639 70.3317 92.446 70.647 92.2102C70.9624 91.9773 71.12 91.6051 71.12 91.0938V89.8068H71.0391C70.9624 89.946 70.8516 90.1009 70.7067 90.2713C70.5646 90.4418 70.3686 90.5895 70.1186 90.7145C69.8686 90.8395 69.5433 90.902 69.1428 90.902C68.6257 90.902 68.1598 90.7812 67.745 90.5398C67.3331 90.2955 67.0064 89.9361 66.7649 89.4616C66.5263 88.9844 66.407 88.3977 66.407 87.7017C66.407 87.0057 66.5249 86.4091 66.7607 85.9119C66.9993 85.4148 67.326 85.0341 67.7408 84.7699C68.1555 84.5028 68.6257 84.3693 69.1513 84.3693C69.5575 84.3693 69.8857 84.4375 70.1357 84.5739C70.3857 84.7074 70.5803 84.8636 70.7195 85.0426C70.8615 85.2216 70.9709 85.3793 71.0476 85.5156H71.1413V84.4545H72.3899V91.1449C72.3899 91.7074 72.2592 92.169 71.9979 92.5298C71.7365 92.8906 71.3828 93.1577 70.9368 93.331C70.4936 93.5043 69.9936 93.5909 69.4368 93.5909ZM69.424 89.8452C69.7905 89.8452 70.1001 89.7599 70.353 89.5895C70.6087 89.4162 70.8018 89.169 70.9325 88.848C71.0661 88.5241 71.1328 88.1364 71.1328 87.6847C71.1328 87.2443 71.0675 86.8565 70.9368 86.5213C70.8061 86.1861 70.6143 85.9247 70.3615 85.7372C70.1087 85.5469 69.7962 85.4517 69.424 85.4517C69.0405 85.4517 68.7209 85.5511 68.4652 85.75C68.2095 85.946 68.0163 86.2131 67.8857 86.5511C67.7578 86.8892 67.6939 87.267 67.6939 87.6847C67.6939 88.1136 67.7592 88.4901 67.8899 88.8139C68.0206 89.1378 68.2138 89.3906 68.4695 89.5724C68.728 89.7543 69.0462 89.8452 69.424 89.8452ZM77.3768 91V82.2727H80.4876C81.1637 82.2727 81.7248 82.3892 82.1708 82.6222C82.6197 82.8551 82.9549 83.1776 83.1765 83.5895C83.3981 83.9986 83.5089 84.4716 83.5089 85.0085C83.5089 85.5426 83.3967 86.0128 83.1722 86.419C82.9506 86.8224 82.6154 87.1364 82.1665 87.3608C81.7205 87.5852 81.1594 87.6974 80.4833 87.6974H78.1268V86.5639H80.364C80.7901 86.5639 81.1367 86.5028 81.4038 86.3807C81.6737 86.2585 81.8711 86.081 81.9961 85.848C82.1211 85.6151 82.1836 85.3352 82.1836 85.0085C82.1836 84.679 82.1197 84.3935 81.9918 84.152C81.8668 83.9105 81.6694 83.7259 81.3995 83.598C81.1325 83.4673 80.7816 83.402 80.3469 83.402H78.6935V91H77.3768ZM81.685 87.0625L83.8413 91H82.3413L80.2276 87.0625H81.685ZM87.7479 91.1321C87.103 91.1321 86.5476 90.9943 86.0817 90.7188C85.6186 90.4403 85.2607 90.0497 85.0078 89.5469C84.7578 89.0412 84.6328 88.4489 84.6328 87.7699C84.6328 87.0994 84.7578 86.5085 85.0078 85.9972C85.2607 85.4858 85.6129 85.0866 86.0646 84.7997C86.5192 84.5128 87.0504 84.3693 87.6584 84.3693C88.0277 84.3693 88.3857 84.4304 88.7322 84.5526C89.0788 84.6747 89.3899 84.8665 89.6655 85.1278C89.9411 85.3892 90.1584 85.7287 90.3175 86.1463C90.4766 86.5611 90.5561 87.0653 90.5561 87.6591V88.1108H85.353V87.1562H89.3075C89.3075 86.821 89.2393 86.5241 89.103 86.2656C88.9666 86.0043 88.7749 85.7983 88.5277 85.6477C88.2834 85.4972 87.9964 85.4219 87.6669 85.4219C87.3089 85.4219 86.9964 85.5099 86.7294 85.6861C86.4652 85.8594 86.2607 86.0866 86.1158 86.3679C85.9737 86.6463 85.9027 86.9489 85.9027 87.2756V88.0213C85.9027 88.4588 85.9794 88.831 86.1328 89.1378C86.2891 89.4446 86.5064 89.679 86.7848 89.8409C87.0632 90 87.3885 90.0795 87.7607 90.0795C88.0021 90.0795 88.2223 90.0455 88.4212 89.9773C88.62 89.9062 88.7919 89.8011 88.9368 89.6619C89.0817 89.5227 89.1925 89.3509 89.2692 89.1463L90.4751 89.3636C90.3786 89.7187 90.2053 90.0298 89.9553 90.2969C89.7081 90.5611 89.397 90.767 89.022 90.9148C88.6499 91.0597 88.2251 91.1321 87.7479 91.1321ZM94.4201 91.1278C93.8917 91.1278 93.4201 90.9929 93.0053 90.723C92.5934 90.4503 92.2695 90.0625 92.0337 89.5597C91.8008 89.054 91.6843 88.4474 91.6843 87.7401C91.6843 87.0327 91.8022 86.4276 92.038 85.9247C92.2766 85.4219 92.6033 85.0369 93.0181 84.7699C93.4329 84.5028 93.9031 84.3693 94.4286 84.3693C94.8349 84.3693 95.1616 84.4375 95.4087 84.5739C95.6587 84.7074 95.8519 84.8636 95.9883 85.0426C96.1275 85.2216 96.2354 85.3793 96.3121 85.5156H96.3888V82.2727H97.663V91H96.4187V89.9815H96.3121C96.2354 90.1207 96.1246 90.2798 95.9798 90.4588C95.8377 90.6378 95.6417 90.794 95.3917 90.9276C95.1417 91.0611 94.8178 91.1278 94.4201 91.1278ZM94.7013 90.0412C95.0678 90.0412 95.3775 89.9446 95.6303 89.7514C95.886 89.5554 96.0792 89.2841 96.2099 88.9375C96.3434 88.5909 96.4102 88.1875 96.4102 87.7273C96.4102 87.2727 96.3448 86.875 96.2141 86.5341C96.0835 86.1932 95.8917 85.9276 95.6388 85.7372C95.386 85.5469 95.0735 85.4517 94.7013 85.4517C94.3178 85.4517 93.9982 85.5511 93.7425 85.75C93.4869 85.9489 93.2937 86.2202 93.163 86.5639C93.0352 86.9077 92.9712 87.2955 92.9712 87.7273C92.9712 88.1648 93.0366 88.5582 93.1673 88.9077C93.2979 89.2571 93.4911 89.5341 93.7468 89.7386C94.0053 89.9403 94.3235 90.0412 94.7013 90.0412ZM103.628 88.2855V84.4545H104.906V91H103.653V89.8665H103.585C103.435 90.2159 103.193 90.5071 102.861 90.7401C102.531 90.9702 102.121 91.0852 101.629 91.0852C101.209 91.0852 100.837 90.9929 100.513 90.8082C100.192 90.6207 99.9389 90.3438 99.7543 89.9773C99.5724 89.6108 99.4815 89.1577 99.4815 88.6179V84.4545H100.756V88.4645C100.756 88.9105 100.879 89.2656 101.126 89.5298C101.374 89.794 101.695 89.9261 102.089 89.9261C102.328 89.9261 102.565 89.8665 102.801 89.7472C103.04 89.6278 103.237 89.4474 103.393 89.206C103.553 88.9645 103.631 88.6577 103.628 88.2855ZM109.375 91.1321C108.742 91.1321 108.196 90.9886 107.739 90.7017C107.284 90.4119 106.935 90.0128 106.691 89.5043C106.446 88.9957 106.324 88.4134 106.324 87.7571C106.324 87.0923 106.449 86.5057 106.699 85.9972C106.949 85.4858 107.301 85.0866 107.756 84.7997C108.211 84.5128 108.746 84.3693 109.363 84.3693C109.86 84.3693 110.303 84.4616 110.692 84.6463C111.081 84.8281 111.395 85.0838 111.634 85.4134C111.875 85.7429 112.019 86.1278 112.064 86.5682H110.824C110.756 86.2614 110.6 85.9972 110.355 85.7756C110.114 85.554 109.79 85.4432 109.384 85.4432C109.029 85.4432 108.718 85.5369 108.451 85.7244C108.186 85.9091 107.98 86.1733 107.833 86.517C107.685 86.858 107.611 87.2614 107.611 87.7273C107.611 88.2045 107.684 88.6165 107.828 88.9631C107.973 89.3097 108.178 89.5781 108.442 89.7685C108.709 89.9588 109.023 90.054 109.384 90.054C109.625 90.054 109.844 90.0099 110.04 89.9219C110.239 89.831 110.405 89.7017 110.539 89.5341C110.675 89.3665 110.77 89.1648 110.824 88.929H112.064C112.019 89.3523 111.881 89.7301 111.651 90.0625C111.421 90.3949 111.113 90.6562 110.726 90.8466C110.343 91.0369 109.892 91.1321 109.375 91.1321ZM116.482 84.4545V85.4773H112.907V84.4545H116.482ZM113.866 82.8864H115.14V89.0781C115.14 89.3253 115.177 89.5114 115.251 89.6364C115.325 89.7585 115.42 89.8423 115.536 89.8878C115.656 89.9304 115.785 89.9517 115.924 89.9517C116.026 89.9517 116.116 89.9446 116.192 89.9304C116.269 89.9162 116.329 89.9048 116.371 89.8963L116.602 90.9489C116.528 90.9773 116.423 91.0057 116.286 91.0341C116.15 91.0653 115.979 91.0824 115.775 91.0852C115.44 91.0909 115.127 91.0312 114.837 90.9062C114.548 90.7812 114.313 90.5881 114.134 90.3267C113.955 90.0653 113.866 89.7372 113.866 89.3423V82.8864ZM117.892 91V84.4545H119.166V91H117.892ZM118.535 83.4446C118.314 83.4446 118.123 83.3707 117.964 83.223C117.808 83.0724 117.73 82.8935 117.73 82.6861C117.73 82.4759 117.808 82.2969 117.964 82.1491C118.123 81.9986 118.314 81.9233 118.535 81.9233C118.757 81.9233 118.946 81.9986 119.102 82.1491C119.261 82.2969 119.341 82.4759 119.341 82.6861C119.341 82.8935 119.261 83.0724 119.102 83.223C118.946 83.3707 118.757 83.4446 118.535 83.4446ZM123.637 91.1321C123.023 91.1321 122.488 90.9915 122.031 90.7102C121.573 90.429 121.218 90.0355 120.965 89.5298C120.712 89.0241 120.586 88.4332 120.586 87.7571C120.586 87.0781 120.712 86.4844 120.965 85.9759C121.218 85.4673 121.573 85.0724 122.031 84.7912C122.488 84.5099 123.023 84.3693 123.637 84.3693C124.251 84.3693 124.786 84.5099 125.244 84.7912C125.701 85.0724 126.056 85.4673 126.309 85.9759C126.562 86.4844 126.688 87.0781 126.688 87.7571C126.688 88.4332 126.562 89.0241 126.309 89.5298C126.056 90.0355 125.701 90.429 125.244 90.7102C124.786 90.9915 124.251 91.1321 123.637 91.1321ZM123.641 90.0625C124.039 90.0625 124.369 89.9574 124.63 89.7472C124.891 89.5369 125.085 89.2571 125.21 88.9077C125.337 88.5582 125.401 88.1733 125.401 87.7528C125.401 87.3352 125.337 86.9517 125.21 86.6023C125.085 86.25 124.891 85.9673 124.63 85.7543C124.369 85.5412 124.039 85.4347 123.641 85.4347C123.241 85.4347 122.908 85.5412 122.644 85.7543C122.383 85.9673 122.188 86.25 122.06 86.6023C121.935 86.9517 121.873 87.3352 121.873 87.7528C121.873 88.1733 121.935 88.5582 122.06 88.9077C122.188 89.2571 122.383 89.5369 122.644 89.7472C122.908 89.9574 123.241 90.0625 123.641 90.0625ZM129.385 87.1136V91H128.11V84.4545H129.333V85.5199H129.414C129.565 85.1733 129.801 84.8949 130.122 84.6847C130.446 84.4744 130.853 84.3693 131.345 84.3693C131.791 84.3693 132.181 84.4631 132.517 84.6506C132.852 84.8352 133.112 85.1108 133.297 85.4773C133.481 85.8437 133.574 86.2969 133.574 86.8366V91H132.299V86.9901C132.299 86.5156 132.176 86.1449 131.929 85.8778C131.681 85.608 131.342 85.473 130.91 85.473C130.615 85.473 130.352 85.5369 130.122 85.6648C129.895 85.7926 129.714 85.9801 129.581 86.2273C129.45 86.4716 129.385 86.767 129.385 87.1136ZM143.32 84.5653C143.275 84.1619 143.087 83.8494 142.758 83.6278C142.428 83.4034 142.013 83.2912 141.513 83.2912C141.156 83.2912 140.846 83.348 140.585 83.4616C140.323 83.5724 140.12 83.7259 139.975 83.9219C139.833 84.1151 139.762 84.3352 139.762 84.5824C139.762 84.7898 139.81 84.9687 139.907 85.1193C140.006 85.2699 140.136 85.3963 140.295 85.4986C140.457 85.598 140.63 85.6818 140.815 85.75C140.999 85.8153 141.177 85.8693 141.347 85.9119L142.2 86.1335C142.478 86.2017 142.763 86.294 143.056 86.4105C143.349 86.527 143.62 86.6804 143.87 86.8707C144.12 87.0611 144.322 87.2969 144.475 87.5781C144.631 87.8594 144.71 88.196 144.71 88.5881C144.71 89.0824 144.582 89.5213 144.326 89.9048C144.073 90.2884 143.705 90.5909 143.222 90.8125C142.742 91.0341 142.161 91.1449 141.479 91.1449C140.826 91.1449 140.261 91.0412 139.783 90.8338C139.306 90.6264 138.933 90.3324 138.663 89.9517C138.393 89.5682 138.244 89.1136 138.215 88.5881H139.536C139.562 88.9034 139.664 89.1662 139.843 89.3764C140.025 89.5838 140.256 89.7386 140.538 89.8409C140.822 89.9403 141.133 89.9901 141.471 89.9901C141.843 89.9901 142.174 89.9318 142.464 89.8153C142.756 89.696 142.987 89.5312 143.154 89.321C143.322 89.108 143.406 88.8594 143.406 88.5753C143.406 88.3168 143.332 88.1051 143.184 87.9403C143.039 87.7756 142.842 87.6392 142.592 87.5312C142.344 87.4233 142.065 87.3281 141.752 87.2457L140.721 86.9645C140.022 86.7741 139.468 86.4943 139.059 86.125C138.653 85.7557 138.45 85.267 138.45 84.6591C138.45 84.1562 138.586 83.7173 138.859 83.3423C139.131 82.9673 139.501 82.6761 139.967 82.4688C140.433 82.2585 140.958 82.1534 141.543 82.1534C142.134 82.1534 142.656 82.2571 143.107 82.4645C143.562 82.6719 143.92 82.9574 144.181 83.321C144.442 83.6818 144.579 84.0966 144.59 84.5653H143.32ZM149.002 91.1321C148.357 91.1321 147.801 90.9943 147.336 90.7188C146.873 90.4403 146.515 90.0497 146.262 89.5469C146.012 89.0412 145.887 88.4489 145.887 87.7699C145.887 87.0994 146.012 86.5085 146.262 85.9972C146.515 85.4858 146.867 85.0866 147.319 84.7997C147.773 84.5128 148.304 84.3693 148.912 84.3693C149.282 84.3693 149.64 84.4304 149.986 84.5526C150.333 84.6747 150.644 84.8665 150.919 85.1278C151.195 85.3892 151.412 85.7287 151.571 86.1463C151.73 86.5611 151.81 87.0653 151.81 87.6591V88.1108H146.607V87.1562H150.561C150.561 86.821 150.493 86.5241 150.357 86.2656C150.221 86.0043 150.029 85.7983 149.782 85.6477C149.537 85.4972 149.25 85.4219 148.921 85.4219C148.563 85.4219 148.25 85.5099 147.983 85.6861C147.719 85.8594 147.515 86.0866 147.37 86.3679C147.228 86.6463 147.157 86.9489 147.157 87.2756V88.0213C147.157 88.4588 147.233 88.831 147.387 89.1378C147.543 89.4446 147.76 89.679 148.039 89.8409C148.317 90 148.642 90.0795 149.015 90.0795C149.256 90.0795 149.476 90.0455 149.675 89.9773C149.874 89.9062 150.046 89.8011 150.191 89.6619C150.336 89.5227 150.446 89.3509 150.523 89.1463L151.729 89.3636C151.632 89.7187 151.459 90.0298 151.209 90.2969C150.962 90.5611 150.651 90.767 150.276 90.9148C149.904 91.0597 149.479 91.1321 149.002 91.1321ZM153.224 91V84.4545H154.455V85.4943H154.523C154.643 85.142 154.853 84.8651 155.154 84.6634C155.458 84.4588 155.802 84.3565 156.185 84.3565C156.265 84.3565 156.359 84.3594 156.467 84.3651C156.577 84.3707 156.664 84.3778 156.727 84.3864V85.6051C156.675 85.5909 156.585 85.5753 156.454 85.5582C156.323 85.5384 156.192 85.5284 156.062 85.5284C155.761 85.5284 155.492 85.5923 155.256 85.7202C155.023 85.8452 154.839 86.0199 154.702 86.2443C154.566 86.4659 154.498 86.7187 154.498 87.0028V91H153.224ZM163.628 84.4545L161.254 91H159.891L157.513 84.4545H158.881L160.538 89.4915H160.607L162.26 84.4545H163.628ZM164.825 91V84.4545H166.099V91H164.825ZM165.469 83.4446C165.247 83.4446 165.057 83.3707 164.898 83.223C164.741 83.0724 164.663 82.8935 164.663 82.6861C164.663 82.4759 164.741 82.2969 164.898 82.1491C165.057 81.9986 165.247 81.9233 165.469 81.9233C165.69 81.9233 165.879 81.9986 166.036 82.1491C166.195 82.2969 166.274 82.4759 166.274 82.6861C166.274 82.8935 166.195 83.0724 166.036 83.223C165.879 83.3707 165.69 83.4446 165.469 83.4446ZM170.571 91.1321C169.937 91.1321 169.392 90.9886 168.934 90.7017C168.48 90.4119 168.13 90.0128 167.886 89.5043C167.642 88.9957 167.52 88.4134 167.52 87.7571C167.52 87.0923 167.645 86.5057 167.895 85.9972C168.145 85.4858 168.497 85.0866 168.951 84.7997C169.406 84.5128 169.941 84.3693 170.558 84.3693C171.055 84.3693 171.498 84.4616 171.887 84.6463C172.277 84.8281 172.591 85.0838 172.829 85.4134C173.071 85.7429 173.214 86.1278 173.26 86.5682H172.02C171.951 86.2614 171.795 85.9972 171.551 85.7756C171.309 85.554 170.985 85.4432 170.579 85.4432C170.224 85.4432 169.913 85.5369 169.646 85.7244C169.382 85.9091 169.176 86.1733 169.028 86.517C168.88 86.858 168.806 87.2614 168.806 87.7273C168.806 88.2045 168.879 88.6165 169.024 88.9631C169.169 89.3097 169.373 89.5781 169.637 89.7685C169.904 89.9588 170.218 90.054 170.579 90.054C170.821 90.054 171.039 90.0099 171.235 89.9219C171.434 89.831 171.6 89.7017 171.734 89.5341C171.87 89.3665 171.966 89.1648 172.02 88.929H173.26C173.214 89.3523 173.076 89.7301 172.846 90.0625C172.616 90.3949 172.308 90.6562 171.922 90.8466C171.538 91.0369 171.088 91.1321 170.571 91.1321ZM177.443 91.1321C176.798 91.1321 176.243 90.9943 175.777 90.7188C175.314 90.4403 174.956 90.0497 174.703 89.5469C174.453 89.0412 174.328 88.4489 174.328 87.7699C174.328 87.0994 174.453 86.5085 174.703 85.9972C174.956 85.4858 175.308 85.0866 175.76 84.7997C176.214 84.5128 176.746 84.3693 177.354 84.3693C177.723 84.3693 178.081 84.4304 178.428 84.5526C178.774 84.6747 179.085 84.8665 179.361 85.1278C179.636 85.3892 179.854 85.7287 180.013 86.1463C180.172 86.5611 180.251 87.0653 180.251 87.6591V88.1108H175.048V87.1562H179.003C179.003 86.821 178.935 86.5241 178.798 86.2656C178.662 86.0043 178.47 85.7983 178.223 85.6477C177.979 85.4972 177.692 85.4219 177.362 85.4219C177.004 85.4219 176.692 85.5099 176.425 85.6861C176.161 85.8594 175.956 86.0866 175.811 86.3679C175.669 86.6463 175.598 86.9489 175.598 87.2756V88.0213C175.598 88.4588 175.675 88.831 175.828 89.1378C175.984 89.4446 176.202 89.679 176.48 89.8409C176.759 90 177.084 90.0795 177.456 90.0795C177.697 90.0795 177.918 90.0455 178.116 89.9773C178.315 89.9062 178.487 89.8011 178.632 89.6619C178.777 89.5227 178.888 89.3509 178.964 89.1463L180.17 89.3636C180.074 89.7187 179.901 90.0298 179.651 90.2969C179.403 90.5611 179.092 90.767 178.717 90.9148C178.345 91.0597 177.92 91.1321 177.443 91.1321Z" fill="#AEAEB2"/>
<path d="M151.667 128.083H148.042V131.708H151.667M151.667 128.083V131.708M151.667 128.083H155.292M151.667 128.083V124.458H155.292M151.667 131.708H155.292M155.292 128.083V131.708M155.292 128.083H158.917M155.292 128.083V124.458M155.292 131.708H158.917V128.083M158.917 128.083V124.458M155.292 124.458H158.917M155.292 124.458V120.833H158.917V124.458M147.523 137.75C149.336 137.75 149.997 137.661 151.098 136.807M154.083 135.333V135.345M168.583 131.152C166.404 130.736 165.32 129.847 164.326 127.6C163.738 128.441 162.995 129.495 163.215 130.5C163.249 130.788 162.828 131.708 162.542 131.708H145.625C145.625 138.001 149.448 140.167 153.112 140.167C158.095 140.193 162.571 138.504 165.019 134.125C166.403 134.003 167.793 132.306 168.583 131.152Z" stroke="white" stroke-linecap="round" stroke-linejoin="round"/>
<path d="M239.618 110.553C239.605 110.633 239.596 110.717 239.591 110.803H239.586L239.621 110.553H239.618Z" fill="#FFF200"/>
<path d="M326 80.0419V86.8415C326 102.888 312.994 115.892 296.95 115.892H260.747L257.211 143.462C256.451 149.388 251.032 153.576 245.105 152.816C239.181 152.056 234.993 146.639 235.753 140.71L239.586 110.801H239.591C239.597 110.714 239.607 110.631 239.618 110.55C239.772 109.553 240.243 108.658 240.925 107.976C241.763 107.138 242.922 106.621 244.202 106.621H291.236C292.517 106.621 293.675 106.1 294.516 105.265C295.354 104.424 295.872 103.268 295.872 101.985C295.872 99.4247 293.794 97.3495 291.236 97.3495H268.027C265.895 97.3495 264.097 95.9131 263.558 93.9511C263.45 93.5576 263.391 93.1453 263.391 92.714C263.391 91.8678 263.618 91.0754 264.016 90.3936C264.219 90.0405 264.464 89.7198 264.749 89.4369C265.59 88.5987 266.746 88.0812 268.029 88.0812H303.601C304.881 88.0812 306.04 87.5611 306.881 86.7256C307.719 85.8848 308.237 84.7286 308.237 83.4458C308.237 80.8855 306.159 78.8103 303.601 78.8103H257.397C254.834 78.8103 252.762 76.7378 252.762 74.1748C252.762 72.8946 253.282 71.7357 254.117 70.8949C254.958 70.0567 256.115 69.5393 257.397 69.5393H285.057C286.337 69.5393 287.496 69.0191 288.337 68.1837C289.175 67.3428 289.692 66.1866 289.692 64.9038C289.692 62.3435 287.614 60.2683 285.057 60.2683H247.506C247.42 60.2683 247.334 60.2683 247.248 60.2602C245.288 60.1551 243.653 58.8318 243.084 57.0342C242.944 56.5922 242.871 56.1233 242.871 55.6355C242.871 54.3553 243.391 53.1965 244.227 52.3556C245.067 51.5175 246.224 51 247.506 51H296.95C312.996 51 326 64.009 326 80.05V80.0419Z" fill="#FFB800"/>
<path d="M239.618 110.553C239.605 110.633 239.596 110.717 239.591 110.803H239.586L239.621 110.553H239.618Z" fill="black"/>
<path d="M247.321 74.1722C247.321 75.455 246.8 76.6112 245.965 77.452C245.353 78.0611 244.574 78.5031 243.704 78.6972C243.375 78.7672 243.035 78.8077 242.688 78.8077H230.635C228.072 78.8077 226 76.7352 226 74.1722C226 72.892 226.52 71.7331 227.356 70.8923C228.196 70.0541 229.353 69.5367 230.635 69.5367H242.688C243.453 69.5367 244.181 69.7226 244.817 70.0568C246.307 70.8276 247.323 72.3799 247.323 74.1722H247.321Z" fill="#FFB800"/>
<path d="M251.034 89.4342C250.194 88.5987 249.037 88.0786 247.755 88.0786C246.472 88.0786 245.315 88.596 244.475 89.4342C243.639 90.275 243.119 91.4339 243.119 92.714C243.119 95.277 245.192 97.3495 247.755 97.3495C249.035 97.3495 250.194 96.8321 251.034 95.9939C251.87 95.1531 252.39 93.9969 252.39 92.714C252.39 91.4312 251.873 90.275 251.034 89.4342Z" fill="#FFB800"/>
</g>
<defs>
<clipPath id="clip0_1205_60">
<rect width="370" height="207" fill="white"/>
</clipPath>
</defs>
</svg>
